<?xml version="1.0" standalone="no"?>
<!DOCTYPE svg PUBLIC "-//W3C//DTD SVG 1.1//EN" "http://www.w3.org/Graphics/SVG/1.1/DTD/svg11.dtd" >
<svg>
<metadata>
Created by FontForge 20090914 at Mon Feb 24 15:25:54 2014
 By www-data
2005 Albert-Jan Pool published by FSI Fonts und Software GmbH
</metadata>
<defs>
<font id="DINPro-Regular" horiz-adv-x="530" >
  <font-face 
    font-family="DINPro-Regular"
    font-weight="400"
    font-stretch="normal"
    units-per-em="1000"
    panose-1="2 0 5 3 3 0 0 2 0 4"
    ascent="764"
    descent="-236"
    x-height="492"
    cap-height="712"
    bbox="-176 -229.003 1115 992"
    underline-thickness="51"
    underline-position="-85"
    unicode-range="U+0008-U+FB02"
  />
<missing-glyph horiz-adv-x="562" 
d="M90 0v712h382v-712h-382zM141 51h280v610h-280v-610z" />
    <glyph glyph-name="fi" unicode="fi" horiz-adv-x="562" 
d="M282 434l-105 -0.000976562v-434h-72v434h-63v55h63v93c0 38.667 10.833 70.334 32.5 95.001s52.5 37 92.5 37h52v-62h-39c-44 0 -66 -24 -66 -72v-91h105v-55zM471 -0.000976562h-72v489h72v-489zM476 638.999h-82v74h82v-74z" />
    <glyph glyph-name="fl" unicode="fl" horiz-adv-x="602" 
d="M282 434l-105 -0.000976562v-434h-72v434h-63v55h63v93c0 38.667 10.833 70.334 32.5 95.001s52.5 37 92.5 37h52v-62h-39c-44 0 -66 -24 -66 -72v-91h105v-55zM573 -0.000976562l-52.001 0.000976562c-41.333 0 -72.666 12 -93.999 36s-32 55.667 -32 95v581h72v-578
c0 -24.667 5 -42.834 15 -54.501s27 -17.5 51 -17.5h40v-62z" />
    <glyph glyph-name=".notdef" horiz-adv-x="562" 
d="M90 0v712h382v-712h-382zM141 51h280v610h-280v-610z" />
    <glyph glyph-name=".null" horiz-adv-x="0" 
 />
    <glyph glyph-name=".null" horiz-adv-x="0" 
 />
    <glyph glyph-name=".null" horiz-adv-x="0" 
 />
    <glyph glyph-name="nonmarkingreturn" unicode="&#x9;" horiz-adv-x="333" 
 />
    <glyph glyph-name="CR" unicode="&#xd;" horiz-adv-x="249" 
 />
    <glyph glyph-name="space" unicode=" " horiz-adv-x="249" 
 />
    <glyph glyph-name="exclam" unicode="!" horiz-adv-x="316" 
d="M215 712l-11 -512h-62l-10 512h83zM216 0h-86v84h86v-84z" />
    <glyph glyph-name="quotedbl" unicode="&#x22;" horiz-adv-x="423" 
d="M335 542h-79v170h79v-170zM167 542h-79v170h79v-170z" />
    <glyph glyph-name="numbersign" unicode="#" horiz-adv-x="653" 
d="M602 432h-96l-23 -141h89v-64h-99l-36 -227h-74l36 227h-160l-35 -227h-74l36 227h-89v64h100l23 141h-92v66h101l34 215h75l-35 -215h159l34 215h73l-34 -215h87v-66zM432 432h-159l-23 -141h159z" />
    <glyph glyph-name="dollar" unicode="$" horiz-adv-x="596" 
d="M540 196c0 -57.333 -19.667 -103.831 -59 -139.498s-92.333 -55.834 -159 -60.501v-110h-60v108c-46.667 2 -87.167 10.333 -121.5 25s-67.166 37.667 -98.499 69l52 52c48.667 -48.667 106 -74.334 172 -77.001v265l-20 2c-50 4.66699 -93.333 22.667 -130 54
c-36.667 32.667 -55 77 -55 133c0 56.667 18 103 54 139s85 56.333 147 61v89h60v-89c70.667 -3.33301 132.667 -29 186 -77l-49 -49c-40.667 36.667 -87.334 56.667 -140.001 60v-259l31 -5c58.667 -10 101.667 -26.667 129 -50c40.667 -34.667 61 -81.667 61 -141z
M464 194.002c0 39.333 -11.668 69.001 -35.001 89.001c-4.66699 4 -9.16699 7.5 -13.5 10.5s-9.66602 5.83301 -15.999 8.5l-14 6c-3 1.33301 -8.5 2.66602 -16.5 3.99902s-13 2.33301 -15 3s-8 1.66699 -18 3s-15.667 2 -17 2v-257c45.333 3.33301 80.833 16.5 106.5 39.5
s38.5 53.5 38.5 91.5zM265.999 399.003v251.998c-41.333 -3.33301 -73.333 -16.666 -96 -39.999s-34 -53.666 -34 -90.999c0 -36 10.667 -63.333 32 -82c24 -20 56.667 -33 98 -39z" />
    <glyph glyph-name="percent" unicode="%" horiz-adv-x="833" 
d="M769 128c0 -40.667 -12.667 -73.334 -38 -98.001s-57.666 -37 -96.999 -37s-71.666 12.333 -96.999 37s-38 57.334 -38 98.001v105c0 40.667 12.667 73.334 38 98.001s57.666 37 96.999 37s71.666 -12.333 96.999 -37s38 -57.334 38 -98.001v-105zM335 479
c0 -40 -12.667 -72.333 -38 -97s-57.666 -37 -96.999 -37s-71.666 12.333 -96.999 37s-38 57 -38 97v105c0 40.667 12.667 73.334 38 98.001s57.666 37 96.999 37s71.666 -12.333 96.999 -37s38 -57.334 38 -98.001v-105zM614 712l-334 -712h-60l334 712h60zM712 130v101
c0 58 -26 87 -78 87s-78 -29 -78 -87v-101c0 -58 26 -87 78 -87s78 29 78 87zM278 481v101c0 58 -26 87 -78 87s-78 -29 -78 -87v-101c0 -57.333 26 -86 78 -86s78 28.667 78 86z" />
    <glyph glyph-name="ampersand" unicode="&#x26;" horiz-adv-x="739" 
d="M671 0l-95.001 0.000976562l-64 78c-60 -56 -130 -84 -210 -84c-68.667 0 -123.334 18.833 -164.001 56.5s-61 87.834 -61 150.501c0 25.333 4 48.666 12 69.999s20.333 40.833 37 58.5s32.167 32 46.5 43s33.833 24.833 58.5 41.5c-16.667 20 -29 35.5 -37 46.5
s-16.667 26.833 -26 47.5s-14 41 -14 61c0 42.667 14.833 78.167 44.5 106.5s67.167 42.5 112.5 42.5c44.667 0 81.667 -14.333 111 -43s44 -64.334 44 -107.001c0 -48.667 -26.333 -91 -79 -127l-53 -36l182 -219c14.667 22 24.834 44.667 30.501 68s8.83398 55 9.50098 95
h72c-1.33301 -94 -23.333 -166.667 -66 -218zM468.999 130.001l-196 235.999c-21.333 -14.667 -36.833 -25.667 -46.5 -33s-21.667 -18.166 -36 -32.499s-24.5 -29.333 -30.5 -45s-9 -33.167 -9 -52.5c0 -42 14 -76.167 42 -102.5s64 -39.5 108 -39.5
c60.667 0 116.667 23 168 69zM394.999 568c0 24 -8 44.166 -24 60.499s-36 24.5 -60 24.5s-43.667 -7.83301 -59 -23.5s-23 -35.5 -23 -59.5c0 -16 4.5 -32.167 13.5 -48.5s25.833 -39.166 50.5 -68.499l38 26c20.667 14 36.5 27.667 47.5 41s16.5 29.333 16.5 48z" />
    <glyph glyph-name="quotesingle" unicode="'" horiz-adv-x="255" 
d="M167 542h-79v170h79v-170z" />
    <glyph glyph-name="parenleft" unicode="(" horiz-adv-x="298" 
d="M234 -45l-49 -48.998c-36.667 36.667 -60.667 65.334 -72 86.001c-14 25.333 -21 59.666 -21 102.999v522c0 43.333 7 77.666 21 102.999c11.333 20.667 35.333 49.334 72 86.001l49 -49c-28.667 -28.667 -46.667 -50.334 -54 -65.001
c-10.667 -21.333 -16 -48.333 -16 -81v-510c0 -32.667 5.33301 -59.667 16 -81c7.33301 -14.667 25.333 -36.334 54 -65.001z" />
    <glyph glyph-name="parenright" unicode=")" horiz-adv-x="298" 
d="M205 95c0 -44 -6.66699 -78.3311 -20 -102.998c-11.333 -20.667 -35.333 -49.334 -72 -86.001l-51 51c30 30 48.333 51.667 55 65c9.33301 18.667 14 45 14 79v510c0 34 -4.66699 60.333 -14 79c-6.66699 13.333 -25 35 -55 65l51 51
c36.667 -36.667 60.667 -65.334 72 -86.001c13.333 -24.667 20 -59 20 -103v-522z" />
    <glyph glyph-name="asterisk" unicode="*" horiz-adv-x="474" 
d="M407 472l-28 -49l-117 71l4 -137h-58l4 137l-116 -71l-29 49l120 65l-120 66l29 48l116 -71l-4 137h58l-4 -137l117 71l28 -48l-120 -66z" />
    <glyph glyph-name="plus" unicode="+" horiz-adv-x="522" 
d="M470 234h-175v-176h-67v176h-176v67h176v174h67v-174h175v-67z" />
    <glyph glyph-name="comma" unicode="," horiz-adv-x="264" 
d="M176 -65l-88 -79v232h88v-153z" />
    <glyph glyph-name="hyphen" unicode="-" horiz-adv-x="426" 
d="M350 236h-274v67h274v-67z" />
    <glyph glyph-name="period" unicode="." horiz-adv-x="270" 
d="M182 0h-94v94h94v-94z" />
    <glyph glyph-name="slash" unicode="/" horiz-adv-x="355" 
d="M356 786l-285 -860h-71l285 860h71z" />
    <glyph glyph-name="zero" unicode="0" horiz-adv-x="522" 
d="M456 190c0 -58 -18.5 -105.167 -55.5 -141.5s-83.5 -54.5 -139.5 -54.5s-102.5 18.167 -139.5 54.5s-55.5 83.5 -55.5 141.5v332c0 58 18.5 105.167 55.5 141.5s83.5 54.5 139.5 54.5s102.5 -18.167 139.5 -54.5s55.5 -83.5 55.5 -141.5v-332zM384 194v324
c0 40 -10.833 72.667 -32.5 98s-51.834 38 -90.501 38s-68.834 -12.667 -90.501 -38s-32.5 -58 -32.5 -98v-324c0 -40 10.833 -72.667 32.5 -98s51.834 -38 90.501 -38s68.834 12.667 90.501 38s32.5 58 32.5 98z" />
    <glyph glyph-name="one" unicode="1" horiz-adv-x="522" 
d="M330 0h-72v632l-133 -117v82l133 115h72v-712z" />
    <glyph glyph-name="two" unicode="2" horiz-adv-x="522" 
d="M461 0l-392.999 -0.00195312v64l281 357c26.667 34.667 40 69.667 40 105c0 38.667 -11 69.667 -33 93s-52.333 35 -91 35c-36 0 -65.667 -10.667 -89 -32s-35 -53.666 -35 -96.999h-72c0 56.667 18 103 54 139s83.333 54 142 54s106 -17.5 142 -52.5s54 -81.5 54 -139.5
c0 -27.333 -4.33301 -51.666 -13 -72.999s-23.334 -45 -44.001 -71l-249 -318h306v-64z" />
    <glyph glyph-name="three" unicode="3" horiz-adv-x="522" 
d="M460 194c0 -63.333 -19.6689 -112.668 -59.002 -148.001s-89.333 -53 -150 -53c-59.333 0 -108.333 15.833 -147 47.5s-59.334 78.5 -62.001 140.5h72c2.66699 -42 16.834 -73.167 42.501 -93.5s57.167 -30.5 94.5 -30.5c39.333 0 72 12.333 98 37s39 58.334 39 101.001
c0 92 -46.667 138 -140 138h-15v63h15c42.667 0 74.5 11.167 95.5 33.5s31.5 54.166 31.5 95.499s-11.667 73.333 -35 96s-53 34 -89 34c-37.333 0 -67.166 -10.667 -89.499 -32s-35.166 -50.333 -38.499 -87h-72c4 56.667 24.5 101.334 61.5 134.001s83.167 49 138.5 49
c58 0 105.167 -17.667 141.5 -53s54.5 -82 54.5 -140c0 -76 -32 -128.667 -96 -158c72.667 -27.333 109 -85.333 109 -174z" />
    <glyph glyph-name="four" unicode="4" horiz-adv-x="522" 
d="M482 113h-87v-113h-71v113h-284v65l257 534h77l-257 -534h207v202h71v-202h87v-65z" />
    <glyph glyph-name="five" unicode="5" horiz-adv-x="522" 
d="M462 235c0 -42.667 -3.66797 -79 -11.001 -109s-22.666 -56.667 -45.999 -80c-35.333 -35.333 -82.666 -53 -141.999 -53c-61.333 0 -109 17 -143 51c-29.333 30 -46 71.333 -50 124h72c9.33301 -74 49.666 -111 120.999 -111c36.667 0 66 11 88 33
c26 26 39 74.333 39 145c0 24.667 -1.5 46.167 -4.5 64.5s-8.5 36.333 -16.5 54s-20.333 31.167 -37 40.5s-37.334 14 -62.001 14c-30.667 0 -56.167 -6.33301 -76.5 -19s-34.166 -29.667 -41.499 -51h-65v374h360v-64h-295v-226c29.333 32.667 72 49 128 49
c52 0 93 -15 123 -45c39.333 -39.333 59 -103 59 -191z" />
    <glyph glyph-name="six" unicode="6" horiz-adv-x="522" 
d="M460 205c0 -61.333 -18 -111.833 -54 -151.5s-83.667 -59.5 -143 -59.5c-60 0 -108 18.667 -144 56s-54 87 -54 149c0 46.667 15 100 45 160l175 353h74l-159 -320c22 10 47 15 75 15c55.333 0 100 -18.833 134 -56.5s51 -86.167 51 -145.5zM388 202
c0 41.333 -11.168 75.667 -33.501 103s-53.166 41 -92.499 41c-38 0 -68.333 -13 -91 -39s-34 -61 -34 -105c0 -43.333 11.333 -78.166 34 -104.499s53 -39.5 91 -39.5s68.5 13.167 91.5 39.5s34.5 61.166 34.5 104.499z" />
    <glyph glyph-name="seven" unicode="7" horiz-adv-x="522" 
d="M471 648l-247 -648h-76l247 648h-248v-112h-71v176h395v-64z" />
    <glyph glyph-name="eight" unicode="8" horiz-adv-x="522" 
d="M471 196c0 -59.333 -20 -107.834 -60 -145.501s-90 -56.5 -150 -56.5s-110 18.833 -150 56.5s-60 86.167 -60 145.5c0 74.667 35.667 132.334 107 173.001c-62 35.333 -93 88 -93 158c0 55.333 18.5 101 55.5 137s83.833 54 140.5 54s103.5 -18 140.5 -54
s55.5 -81.667 55.5 -137c0 -70 -30.667 -122.667 -92 -158c70.667 -40 106 -97.667 106 -173zM399 196.999c0 39.333 -13.167 72.333 -39.5 99s-59.166 40 -98.499 40s-72.166 -13.333 -98.499 -40s-39.5 -59.667 -39.5 -99s13.167 -72.333 39.5 -99s59.166 -40 98.499 -40
s72.166 13.333 98.499 40s39.5 59.667 39.5 99zM385 525.999c0 37.333 -11.5 68 -34.5 92s-52.833 36 -89.5 36s-66.5 -12 -89.5 -36s-34.5 -54.667 -34.5 -92s11.5 -67.833 34.5 -91.5s52.833 -35.5 89.5 -35.5s66.5 11.833 89.5 35.5s34.5 54.167 34.5 91.5z" />
    <glyph glyph-name="nine" unicode="9" horiz-adv-x="522" 
d="M457 513c0 -46.667 -15 -100 -45 -160l-175 -353h-75l160 320c-22 -10 -47.333 -15 -76 -15c-54.667 0 -99 18.833 -133 56.5s-51 86.167 -51 145.5c0 61.333 18 111.833 54 151.5s83.667 59.5 143 59.5c60 0 108 -18.667 144 -56s54 -87 54 -149zM385 510
c0 43.333 -11.5 78.165 -34.5 104.498s-53.5 39.5 -91.5 39.5s-68.333 -13.167 -91 -39.5s-34 -61.166 -34 -104.499c0 -41.333 11 -75.666 33 -102.999s52.667 -41 92 -41c38 0 68.5 13 91.5 39s34.5 61 34.5 105z" />
    <glyph glyph-name="colon" unicode=":" horiz-adv-x="297" 
d="M209 301h-94v94h94v-94zM209 0h-94v94h94v-94z" />
    <glyph glyph-name="semicolon" unicode=";" horiz-adv-x="297" 
d="M205 -65l-88 -79v232h88v-153zM209 301h-94v94h94v-94z" />
    <glyph glyph-name="less" unicode="&#x3c;" horiz-adv-x="522" 
d="M426 68l-331 168v66l331 168v-77l-250 -124l250 -124v-77z" />
    <glyph glyph-name="equal" unicode="=" horiz-adv-x="522" 
d="M470 320h-418v67h418v-67zM470 151h-418v66h418v-66z" />
    <glyph glyph-name="greater" unicode="&#x3e;" horiz-adv-x="522" 
d="M426 236l-331 -168v77l250 124l-250 124v77l331 -168v-66z" />
    <glyph glyph-name="question" unicode="?" horiz-adv-x="497" 
d="M451 536c0 -36.667 -15 -76.998 -45 -120.998l-82 -118c-12 -18 -18 -37.333 -18 -58v-39h-72v40c0 33.333 10.333 64.666 31 93.999l81 117c22 32.667 33 61 33 85c0 34 -10.833 62.167 -32.5 84.5s-49.167 33.5 -82.5 33.5c-34.667 0 -62.667 -11.667 -84 -35
s-32 -51.333 -32 -84h-72c0 51.333 18 94.666 54 129.999s80.667 53 134 53s97.833 -17.167 133.5 -51.5s53.5 -77.833 53.5 -130.5zM313 0.00195312h-86v84h86v-84z" />
    <glyph glyph-name="at" unicode="@" horiz-adv-x="713" 
d="M641 -1l-68.998 0.99707v55c-32.667 -41.333 -77.334 -62 -134.001 -62c-58.667 0 -104 20.333 -136 61c-16.667 20.667 -28.167 44.834 -34.5 72.501s-9.5 64.834 -9.5 111.501c0 86 13.667 147 41 183c30.667 41.333 76.667 62 138 62c55.333 0 100 -21 134 -63v78
c0 49.333 -13 87.333 -39 114c-26.667 26.667 -63.667 40 -111 40h-130c-46 0 -82.333 -13.333 -109 -40c-14.667 -14.667 -25 -30.5 -31 -47.5s-9 -39.167 -9 -66.5v-337c0 -31.333 3.83301 -55.166 11.5 -71.499s22.834 -32.833 45.501 -49.5l-49 -49
c-30.667 22.667 -51.334 45.5 -62.001 68.5s-16 56.5 -16 100.5v336c0 69.333 18.667 123 56 161c36.667 37.333 88 56 154 56h148c65.333 0 116.666 -18.667 153.999 -56c38 -38 57 -91.667 57 -161v-497zM571.002 237.997c0 26 -1.5 48.833 -4.5 68.5
s-8.5 38.667 -16.5 57s-20.333 32.5 -37 42.5s-37.667 15 -63 15c-47.333 0 -79.333 -16.5 -96 -49.5s-25 -77.5 -25 -133.5c0 -26 1.5 -48.833 4.5 -68.5s8.5 -38.667 16.5 -57s20.333 -32.5 37 -42.5s37.667 -15 63 -15c47.333 0 79.333 16.5 96 49.5s25 77.5 25 133.5z
" />
    <glyph glyph-name="A" unicode="A" horiz-adv-x="611" 
d="M599 0h-81l-57 161h-311l-57 -161h-81l262 712h64zM439 227l-132 376l-134 -376h266z" />
    <glyph glyph-name="B" unicode="B" horiz-adv-x="668" 
d="M592 197c0 -63.333 -19.167 -112.001 -57.5 -146.001s-89.833 -51 -154.5 -51h-277v712h268c62.667 0 113.334 -17 152.001 -51s58 -80.333 58 -139c0 -36.667 -9.83301 -69 -29.5 -97s-44.834 -47.667 -75.501 -59c35.333 -12.667 63.5 -33.667 84.5 -63
s31.5 -64.666 31.5 -105.999zM516 198.999c0 40 -12.833 71.667 -38.5 95s-60.5 35 -104.5 35h-194v-261h194c44 0 78.833 11.833 104.5 35.5s38.5 55.5 38.5 95.5zM505 520.999c0 40.667 -12.833 71.333 -38.5 92s-59.5 31 -101.5 31h-186v-247h186
c41.333 0 75 10.5 101 31.5s39 51.833 39 92.5z" />
    <glyph glyph-name="C" unicode="C" horiz-adv-x="637" 
d="M572 206c-11.333 -66 -39.332 -117.833 -83.999 -155.5s-99 -56.5 -163 -56.5c-72 0 -132.667 24.667 -182 74c-30.667 30.667 -49.5 64.5 -56.5 101.5s-10.5 99.167 -10.5 186.5s3.5 149.5 10.5 186.5s25.833 70.833 56.5 101.5c49.333 49.333 110 74 182 74
c64.667 0 119 -18.667 163 -56s72 -89.333 84 -156h-78c-9.33301 44 -28.833 79 -58.5 105s-66.5 39 -110.5 39c-50 0 -91 -16.667 -123 -50c-21.333 -22 -35 -48.667 -41 -80s-9 -86 -9 -164s3 -132.667 9 -164s19.667 -58 41 -80c32 -33.333 73 -50 123 -50
c44 0 81.167 13 111.5 39s50.166 61 59.499 105h76z" />
    <glyph glyph-name="D" unicode="D" horiz-adv-x="673" 
d="M597 364c0 -89.333 -4.33203 -152.332 -12.999 -188.999c-11.333 -46 -30.333 -82.333 -57 -109c-44 -44 -104 -66 -180 -66h-244v712h244c76 0 136 -22 180 -66c14 -14 25.833 -30.833 35.5 -50.5s16.667 -36.334 21 -50.001s7.66602 -34.667 9.99902 -63
s3.5 -46.833 3.5 -55.5v-63zM521.001 364.001c0 41.333 -0.333008 71.502 -1 90.502s-4.66699 42.667 -12 71s-18.666 50.5 -33.999 66.5c-34 34.667 -80.667 52 -140 52h-155v-576h155c59.333 0 106 17.333 140 52c15.333 16 26.666 39.667 33.999 71
s11.333 57.166 12 77.499s1 52.166 1 95.499z" />
    <glyph glyph-name="E" unicode="E" horiz-adv-x="600" 
d="M545 0h-442v712h442v-68h-366v-251h312v-68h-312v-257h366v-68z" />
    <glyph glyph-name="F" unicode="F" horiz-adv-x="580" 
d="M545 644h-366v-262h312v-68h-312v-314h-76v712h442v-68z" />
    <glyph glyph-name="G" unicode="G" horiz-adv-x="650" 
d="M576 260c0 -79.333 -20.333 -140.667 -61 -184c-50.667 -54.667 -114 -82 -190 -82c-72 0 -132.667 24.667 -182 74c-30.667 30.667 -49.5 64.5 -56.5 101.5s-10.5 99.167 -10.5 186.5s3.5 149.5 10.5 186.5s25.833 70.833 56.5 101.5c49.333 49.333 110 74 182 74
c66.667 0 122.167 -19.5 166.5 -58.5s71.833 -90.5 82.5 -154.5h-76c-10 45.333 -30.333 80.833 -61 106.5s-68 38.5 -112 38.5c-49.333 0 -90.333 -17 -123 -51c-21.333 -22 -35 -48.5 -41 -79.5s-9 -85.5 -9 -163.5s3 -132.667 9 -164s19.667 -58 41 -80
c32 -33.333 73 -50 123 -50c56.667 0 101.667 20.333 135 61c26.667 32 40 75 40 129v54h-175v67h251v-113z" />
    <glyph glyph-name="H" unicode="H" horiz-adv-x="696" 
d="M593 0h-76v325h-338v-325h-76v712h76v-319h338v319h76v-712z" />
    <glyph glyph-name="I" unicode="I" horiz-adv-x="282" 
d="M179 0h-76v712h76v-712z" />
    <glyph glyph-name="J" unicode="J" horiz-adv-x="501" 
d="M408 216c0 -68 -20.499 -122 -61.499 -162s-94.5 -60 -160.5 -60s-120.333 21.333 -163 64l51 51c15.333 -15.333 31.166 -27 47.499 -35s37.833 -12 64.5 -12c46.667 0 82.667 14.167 108 42.5s38 68.833 38 121.5v486h76v-496z" />
    <glyph glyph-name="K" unicode="K" horiz-adv-x="650" 
d="M636 0h-90l-217 379l-150 -180v-199h-76v712h76v-409l332 409h93l-224 -275z" />
    <glyph glyph-name="L" unicode="L" horiz-adv-x="573" 
d="M543 0h-440v712h76v-644h364v-68z" />
    <glyph glyph-name="M" unicode="M" horiz-adv-x="816" 
d="M713 0h-76v541l-195 -429h-65l-198 429v-541h-76v712h76l232 -505l226 505h76v-712z" />
    <glyph glyph-name="N" unicode="N" horiz-adv-x="732" 
d="M629 0h-72l-378 571v-571h-76v712h72l378 -569v569h76v-712z" />
    <glyph glyph-name="O" unicode="O" horiz-adv-x="650" 
d="M574 356c0 -87.333 -3.5 -149.5 -10.5 -186.5s-25.833 -70.833 -56.5 -101.5c-49.333 -49.333 -110 -74 -182 -74s-132.667 24.667 -182 74c-30.667 30.667 -49.5 64.5 -56.5 101.5s-10.5 99.167 -10.5 186.5s3.5 149.5 10.5 186.5s25.833 70.833 56.5 101.5
c49.333 49.333 110 74 182 74s132.667 -24.667 182 -74c30.667 -30.667 49.5 -64.5 56.5 -101.5s10.5 -99.167 10.5 -186.5zM498 356c0 78 -3 132.5 -9 163.5s-19.667 57.5 -41 79.5c-32.667 34 -73.667 51 -123 51s-90.333 -17 -123 -51c-21.333 -22 -35 -48.5 -41 -79.5
s-9 -85.5 -9 -163.5s3 -132.5 9 -163.5s19.667 -57.5 41 -79.5c32.667 -34 73.667 -51 123 -51s90.333 17 123 51c21.333 22 35 48.5 41 79.5s9 85.5 9 163.5z" />
    <glyph glyph-name="P" unicode="P" horiz-adv-x="630" 
d="M588 503c0 -63.333 -20.333 -114.167 -61 -152.5s-93.667 -57.5 -159 -57.5h-189v-293h-76v712h265c65.333 0 118.333 -19 159 -57s61 -88.667 61 -152zM512 502.999c0 46 -13.667 81 -41 105s-64 36 -110 36h-182v-283h182c46 0 82.667 12.167 110 36.5
s41 59.5 41 105.5z" />
    <glyph glyph-name="Q" unicode="Q" horiz-adv-x="649" 
d="M603 11l-46 -46.0029l-79 79c-43.333 -33.333 -94.333 -50 -153 -50c-72 0 -132.667 24.667 -182 74c-30.667 30.667 -49.5 64.5 -56.5 101.5s-10.5 99.167 -10.5 186.5s3.5 149.5 10.5 186.5s25.833 70.833 56.5 101.5c49.333 49.333 110 74 182 74
s132.667 -24.667 182 -74c30.667 -30.667 49.5 -64.5 56.5 -101.5s10.5 -99.167 10.5 -186.5c0 -55.333 -0.666992 -95.166 -2 -119.499s-5.5 -50.166 -12.5 -77.499s-18.5 -50.666 -34.5 -69.999zM498 355.997c0 78 -3 132.5 -9 163.5s-19.667 57.5 -41 79.5
c-32.667 34 -73.667 51 -123 51s-90.333 -17 -123 -51c-21.333 -22 -35 -48.5 -41 -79.5s-9 -85.5 -9 -163.5s3 -132.5 9 -163.5s19.667 -57.5 41 -79.5c32.667 -34 73.667 -51 123 -51c37.333 0 71 11.333 101 34l-90 90l46 46l87 -87c12 20 19.833 44.667 23.5 74
s5.5 75 5.5 137z" />
    <glyph glyph-name="R" unicode="R" horiz-adv-x="656" 
d="M601 0l-89 0.000976562l-162 316h-171v-316h-76v712h273c62.667 0 113.5 -17.833 152.5 -53.5s58.5 -83.834 58.5 -144.501c0 -50.667 -14 -92.667 -42 -126s-65.667 -55 -113 -65zM511 513.001c0 42 -13 74.333 -39 97s-60.333 34 -103 34h-190v-261h190
c43.333 0 77.833 11.167 103.5 33.5s38.5 54.5 38.5 96.5z" />
    <glyph glyph-name="S" unicode="S" horiz-adv-x="588" 
d="M532 196c0 -62 -22.332 -111.165 -66.999 -147.498s-104.334 -54.5 -179.001 -54.5c-53.333 0 -99 7.33301 -137 22s-73.667 38.667 -107 72l52 52c28.667 -28.667 57.834 -48.834 87.501 -60.501s65.167 -17.5 106.5 -17.5c52 0 93 11.667 123 35s45 55.666 45 96.999
c0 39.333 -11.333 69 -34 89c-11.333 10 -23 17.167 -35 21.5s-31.333 8.5 -58 12.5l-83 13c-56.667 9.33301 -100.334 27.333 -131.001 54c-36 32 -54 76.333 -54 133c0 60.667 20.5 109.334 61.5 146.001s96.5 55 166.5 55c45.333 0 84.333 -6 117 -18
s64.334 -32 95.001 -60l-49 -49c-44.667 40.667 -100 61 -166 61c-46.667 0 -83.334 -12 -110.001 -36s-40 -56 -40 -96c0 -36 10.667 -63.333 32 -82c22 -19.333 54 -32.333 96 -39l78 -12c58 -8.66699 101.333 -25.334 130 -50.001c40 -34 60 -81 60 -141z" />
    <glyph glyph-name="T" unicode="T" horiz-adv-x="548" 
d="M518 644h-206v-644h-76v644h-206v68h488v-68z" />
    <glyph glyph-name="U" unicode="U" horiz-adv-x="683" 
d="M590 235c0 -70.667 -23.5 -128.5 -70.5 -173.5s-106.5 -67.5 -178.5 -67.5s-131.333 22.5 -178 67.5s-70 102.833 -70 173.5v477h76v-471c0 -54 15.667 -97.333 47 -130s73 -49 125 -49s93.833 16.333 125.5 49s47.5 76 47.5 130v471h76v-477z" />
    <glyph glyph-name="V" unicode="V" horiz-adv-x="546" 
d="M538 712l-234 -712h-62l-234 712h80l185 -576l185 576h80z" />
    <glyph glyph-name="W" unicode="W" horiz-adv-x="854" 
d="M838 712l-182 -712h-71l-158 570l-158 -570h-71l-182 712h81l139 -574l157 574h68l157 -574l139 574h81z" />
    <glyph glyph-name="X" unicode="X" horiz-adv-x="551" 
d="M536 0h-88l-173 299l-174 -299h-86l218 365l-204 347h88l158 -281l158 281h88l-205 -347z" />
    <glyph glyph-name="Y" unicode="Y" horiz-adv-x="514" 
d="M506 712l-210 -418v-294h-76v294l-212 418h82l168 -341l166 341h82z" />
    <glyph glyph-name="Z" unicode="Z" horiz-adv-x="556" 
d="M499 0h-442v72l356 572h-342v68h428v-64l-359 -580h359v-68z" />
    <glyph glyph-name="bracketleft" unicode="[" horiz-adv-x="313" 
d="M269 -74h-177v860h177v-64h-105v-732h105v-64z" />
    <glyph glyph-name="backslash" unicode="\" horiz-adv-x="355" 
d="M355 -74h-71l-284 857h71z" />
    <glyph glyph-name="bracketright" unicode="]" horiz-adv-x="313" 
d="M221 -74h-177v62h108v736h-108v62h177v-860z" />
    <glyph glyph-name="asciicircum" unicode="^" horiz-adv-x="537" 
d="M465 413h-74l-122 228l-123 -228h-74l164 305h66z" />
    <glyph glyph-name="underscore" unicode="_" horiz-adv-x="537" 
d="M537 -165h-537v51h537v-51z" />
    <glyph glyph-name="grave" unicode="`" horiz-adv-x="500" 
d="M299 594h-66l-108 153h86z" />
    <glyph glyph-name="a" unicode="a" horiz-adv-x="526" 
d="M441 0l-72.002 -0.000976562v47c-20 -20 -40.333 -33.833 -61 -41.5s-47.667 -11.5 -81 -11.5c-63.333 0 -109.666 15 -138.999 45c-24.667 24.667 -37 58 -37 100c0 44 14.833 78.667 44.5 104s71.5 38 125.5 38h148v47c0 36.667 -10 63.834 -30 81.501
s-52 26.5 -96 26.5c-31.333 0 -56.166 -4.16699 -74.499 -12.5s-34.833 -22.833 -49.5 -43.5l-49 45c21.333 27.333 45.333 46.333 72 57s60.667 16 102 16c131.333 0 197 -54.667 197 -164v-334zM368.998 173.999l-0.000976562 53h-138c-73.333 0 -110 -29 -110 -87
c0 -56 37.667 -84 113 -84c50.667 0 87.334 11 110.001 33c16.667 16 25 44.333 25 85z" />
    <glyph glyph-name="b" unicode="b" horiz-adv-x="545" 
d="M481 246c0 -99.333 -20.001 -169 -60.001 -209c-28.667 -28.667 -68.667 -43 -120 -43c-59.333 0 -105.666 21.667 -138.999 65v-59h-72v712h72v-277c32.667 42 79 63 139 63c51.333 0 91.333 -14.333 120 -43c40 -40 60 -109.667 60 -209zM408.999 246
c0 27.333 -1.5 51 -4.5 71s-8.5 39.5 -16.5 58.5s-20.667 33.5 -38 43.5s-38.666 15 -63.999 15s-46.666 -5 -63.999 -15s-30.166 -24.5 -38.499 -43.5s-14 -38.5 -17 -58.5s-4.5 -43.667 -4.5 -71s1.5 -51 4.5 -71s8.66699 -39.5 17 -58.5s21.166 -33.5 38.499 -43.5
s38.666 -15 63.999 -15s46.666 5 63.999 15s30 24.5 38 43.5s13.5 38.5 16.5 58.5s4.5 43.667 4.5 71z" />
    <glyph glyph-name="c" unicode="c" horiz-adv-x="490" 
d="M443 67c-25.333 -27.333 -50 -46.3311 -74 -56.998s-53.333 -16 -88 -16c-64.667 0 -117.167 21.667 -157.5 65s-60.5 105.666 -60.5 186.999s20.167 143.666 60.5 186.999s92.833 65 157.5 65c34.667 0 64 -5.33301 88 -16s48.667 -29.667 74 -57l-49 -46
c-18.667 20.667 -36.334 35 -53.001 43s-36.667 12 -60 12c-50 0 -88 -18.667 -114 -56c-21.333 -30 -32 -74 -32 -132s10.667 -102 32 -132c26 -37.333 64 -56 114 -56c23.333 0 43.333 4.16699 60 12.5s34.334 22.833 53.001 43.5z" />
    <glyph glyph-name="d" unicode="d" horiz-adv-x="545" 
d="M455 0h-71v59c-33.333 -43.333 -80 -65 -140 -65c-51.333 0 -91.333 14.333 -120 43c-40 40 -60 109.667 -60 209s20 169 60 209c28.667 28.667 68.667 43 120 43c60 0 106.333 -21 139 -63v277h72v-712zM383 246c0 27.333 -1.5 51 -4.5 71s-8.5 39.5 -16.5 58.5
s-20.667 33.5 -38 43.5s-38.666 15 -63.999 15s-46.666 -5 -63.999 -15s-30.166 -24.5 -38.499 -43.5s-14 -38.5 -17 -58.5s-4.5 -43.667 -4.5 -71s1.5 -51 4.5 -71s8.66699 -39.5 17 -58.5s21.166 -33.5 38.499 -43.5s38.666 -15 63.999 -15s46.666 5 63.999 15
s30 24.5 38 43.5s13.5 38.5 16.5 58.5s4.5 43.667 4.5 71z" />
    <glyph glyph-name="e" unicode="e" 
d="M467 227h-331.999c0 -54 12.5 -95.833 37.5 -125.5s60.833 -44.5 107.5 -44.5c28 0 51.5 4.33301 70.5 13s38.5 23 58.5 43l49 -43c-26.667 -26.667 -53.334 -46 -80.001 -58s-60 -18 -100 -18c-67.333 0 -120 20.833 -158 62.5s-57 104.834 -57 189.501
c0 79.333 18 141.166 54 185.499s85.333 66.5 148 66.5c63.333 0 112.833 -21.333 148.5 -64s53.5 -100.667 53.5 -174v-33zM395.001 281c-2 34.667 -7 62 -15 82c-9.33301 22.667 -24.333 40.667 -45 54s-44 20 -70 20s-49.333 -6.66699 -70 -20s-35.667 -31.333 -45 -54
c-8 -20 -13 -47.333 -15 -82h260z" />
    <glyph glyph-name="f" unicode="f" horiz-adv-x="314" 
d="M283 434l-105 -0.000976562v-434h-72v434h-63v55h63v93c0 38.667 10.833 70.334 32.5 95.001s52.5 37 92.5 37h52v-62h-39c-44 0 -66 -24 -66 -72v-91h105v-55z" />
    <glyph glyph-name="g" unicode="g" horiz-adv-x="543" 
d="M453 -15c0 -62 -18.332 -112.667 -54.999 -152s-86.667 -59 -150 -59c-36 0 -66.167 5 -90.5 15s-49.833 27 -76.5 51l47 46c20 -18 38 -30.667 54 -38s37.333 -11 64 -11c45.333 0 79.166 14 101.499 42s33.5 64.333 33.5 109v77c-33.333 -42.667 -79.333 -64 -138 -64
c-50 0 -89.667 14.667 -119 44c-40 40 -60 108.333 -60 205s20 165 60 205c28.667 28.667 68.667 43 120 43c59.333 0 105.333 -21.333 138 -64v58h71v-507zM381.001 250c0 26 -1.5 48.667 -4.5 68s-8.5 38.5 -16.5 57.5s-20.5 33.5 -37.5 43.5s-38.167 15 -63.5 15
s-46.666 -5 -63.999 -15s-30 -24.5 -38 -43.5s-13.5 -38.167 -16.5 -57.5s-4.5 -42 -4.5 -68s1.5 -48.667 4.5 -68s8.5 -38.5 16.5 -57.5s20.667 -33.5 38 -43.5s38.666 -15 63.999 -15s46.5 5 63.5 15s29.5 24.5 37.5 43.5s13.5 38.167 16.5 57.5s4.5 42 4.5 68z" />
    <glyph glyph-name="h" unicode="h" horiz-adv-x="562" 
d="M477 0h-71.999v304c0 42 -10.5 74.167 -31.5 96.5s-50.5 33.5 -88.5 33.5s-68 -11.167 -90 -33.5s-33 -54.5 -33 -96.5v-304h-72v712h72v-274c35.333 40 81.333 60 138 60c55.333 0 98.666 -16.333 129.999 -49s47 -77 47 -133v-316z" />
    <glyph glyph-name="i" unicode="i" horiz-adv-x="253" 
d="M162 0h-72v492h72v-492zM167 632h-81v81h81v-81z" />
    <glyph glyph-name="j" unicode="j" horiz-adv-x="253" 
d="M162 -89c0 -39.333 -10.5 -71.168 -31.5 -95.501s-52.167 -36.5 -93.5 -36.5h-52v63h39c24 0 41 5.83301 51 17.5s15 29.834 15 54.501v575h72v-578zM167 631.998h-81v81h81v-81z" />
    <glyph glyph-name="k" unicode="k" horiz-adv-x="536" 
d="M503 0h-89l-156 252l-96 -110v-142h-72v712h72v-476l222 256h90l-167 -188z" />
    <glyph glyph-name="l" unicode="l" horiz-adv-x="297" 
d="M265 0l-52 0.000976562c-41.333 0 -72.5 12 -93.5 36s-31.5 55.667 -31.5 95v581h72v-578c0 -24.667 5 -42.834 15 -54.501s27 -17.5 51 -17.5h39v-62z" />
    <glyph glyph-name="m" unicode="m" horiz-adv-x="879" 
d="M794 0h-71.999v303c0 42.667 -10.667 75.167 -32 97.5s-51 33.5 -89 33.5c-36.667 0 -66.334 -11 -89.001 -33s-34 -52 -34 -90v-311h-72v303c0 42.667 -10.667 75.167 -32 97.5s-51 33.5 -89 33.5s-68 -11.333 -90 -34s-33 -55 -33 -97v-303h-72v492h72v-54
c34.667 40 81 60 139 60c70 0 120.333 -27.333 151 -82c38.667 54.667 92.667 82 162 82c52.667 0 95 -15.333 127 -46c35.333 -34 53 -79.667 53 -137v-315z" />
    <glyph glyph-name="n" unicode="n" horiz-adv-x="562" 
d="M477 0h-72v303c0 42.667 -10.667 75.167 -32 97.5s-51 33.5 -89 33.5s-67.833 -11.333 -89.5 -34s-32.5 -55 -32.5 -97v-303h-72v492h72v-54c34.667 40 80.667 60 138 60c53.333 0 95.333 -15.333 126 -46c34 -33.333 51 -79 51 -137v-315z" />
    <glyph glyph-name="o" unicode="o" 
d="M466 246c0 -90 -20 -155.333 -60 -196c-37.333 -37.333 -84.333 -56 -141 -56s-103.667 18.667 -141 56c-40 40.667 -60 106 -60 196s20 155.333 60 196c37.333 37.333 84.333 56 141 56s103.667 -18.667 141 -56c40 -40.667 60 -106 60 -196zM394 246
c0 75.333 -13 126.002 -39 152.002c-24 24 -54 36 -90 36c-35.333 0 -65 -12 -89 -36c-26.667 -26.667 -40 -77.334 -40 -152.001s13.333 -125.334 40 -152.001c24 -24 53.667 -36 89 -36c36 0 66 12 90 36c26 26 39 76.667 39 152z" />
    <glyph glyph-name="p" unicode="p" horiz-adv-x="545" 
d="M481 246c0 -99.333 -20.001 -169 -60.001 -209c-28.667 -28.667 -68.667 -43 -120 -43c-59.333 0 -105.666 21.333 -138.999 64v-278h-72v712h72v-58c32.667 42.667 79 64 139 64c51.333 0 91.333 -14.333 120 -43c40 -40 60 -109.667 60 -209zM408.999 246
c0 27.333 -1.5 51 -4.5 71s-8.5 39.5 -16.5 58.5s-20.667 33.5 -38 43.5s-38.666 15 -63.999 15s-46.666 -5 -63.999 -15s-30.166 -24.5 -38.499 -43.5s-14 -38.5 -17 -58.5s-4.5 -43.667 -4.5 -71s1.5 -51 4.5 -71s8.66699 -39.5 17 -58.5s21.166 -33.5 38.499 -43.5
s38.666 -15 63.999 -15s46.666 5 63.999 15s30 24.5 38 43.5s13.5 38.5 16.5 58.5s4.5 43.667 4.5 71z" />
    <glyph glyph-name="q" unicode="q" horiz-adv-x="545" 
d="M455 -220h-72.002v278c-33.333 -42.667 -79.666 -64 -138.999 -64c-51.333 0 -91.333 14.333 -120 43c-40 40 -60 109.667 -60 209s20 169 60 209c28.667 28.667 68.667 43 120 43c60.667 0 107.334 -21.333 140.001 -64v58h71v-712zM382.998 246
c0 27.333 -1.5 51 -4.5 71s-8.5 39.5 -16.5 58.5s-20.667 33.5 -38 43.5s-38.666 15 -63.999 15s-46.666 -5 -63.999 -15s-30.166 -24.5 -38.499 -43.5s-14 -38.5 -17 -58.5s-4.5 -43.667 -4.5 -71s1.5 -51 4.5 -71s8.66699 -39.5 17 -58.5s21.166 -33.5 38.499 -43.5
s38.666 -15 63.999 -15s46.666 5 63.999 15s30 24.5 38 43.5s13.5 38.5 16.5 58.5s4.5 43.667 4.5 71z" />
    <glyph glyph-name="r" unicode="r" horiz-adv-x="421" 
d="M418 452l-53.001 -54c-13.333 13.333 -26.166 22.666 -38.499 27.999s-27.833 8 -46.5 8c-35.333 0 -63.833 -12.5 -85.5 -37.5s-32.5 -56.5 -32.5 -94.5v-302h-72v492h72v-60c13.333 20.667 32.5 36.834 57.5 48.501s51.833 17.5 80.5 17.5c48 0 87.333 -15.333 118 -46
z" />
    <glyph glyph-name="s" unicode="s" horiz-adv-x="496" 
d="M445 144c0 -46.667 -18.168 -83.335 -54.501 -110.002s-84.833 -40 -145.5 -40c-85.333 0 -152.666 23.667 -201.999 71l48 48c36 -38 87 -57 153 -57c41.333 0 73.5 7.33301 96.5 22s34.5 36.334 34.5 65.001c0 43.333 -27.333 67.333 -82 72l-81 7
c-98 8 -147 52 -147 132c0 44 16.833 79 50.5 105s77.167 39 130.5 39c74.667 0 133.667 -17.667 177 -53l-47 -47c-34 26 -77.667 39 -131 39c-35.333 0 -62.5 -7.16699 -81.5 -21.5s-28.5 -34.166 -28.5 -59.499c0 -43.333 28.667 -67.333 86 -72l79 -7
c46.667 -4 82.5 -16.333 107.5 -37s37.5 -52.667 37.5 -96z" />
    <glyph glyph-name="t" unicode="t" horiz-adv-x="332" 
d="M279 0l-50.999 -0.000976562c-40.667 0 -71.834 12.333 -93.501 37s-32.5 56.334 -32.5 95.001v302h-62v55h62v154h72v-154h105v-55h-105v-300c0 -48 22.333 -72 67 -72h38v-62z" />
    <glyph glyph-name="u" unicode="u" horiz-adv-x="562" 
d="M472 0h-71.001v55c-35.333 -40.667 -81.666 -61 -138.999 -61c-54 0 -96.333 15.333 -127 46c-33.333 32.667 -50 78.667 -50 138v314h72v-303c0 -42.667 10.5 -75.167 31.5 -97.5s50.5 -33.5 88.5 -33.5s68 11.333 90 34s33 55 33 97v303h72v-492z" />
    <glyph glyph-name="v" unicode="v" horiz-adv-x="447" 
d="M436 492l-181 -492h-64l-180 492h78l134 -395l135 395h78z" />
    <glyph glyph-name="w" unicode="w" horiz-adv-x="724" 
d="M713 492l-155 -492h-67l-129 382l-128 -382h-67l-156 492h78l113 -395l129 395h62l130 -395l112 395h78z" />
    <glyph glyph-name="x" unicode="x" horiz-adv-x="478" 
d="M445 0h-87l-118 191l-120 -191h-87l167 251l-160 241h87l113 -182l111 182h87l-160 -241z" />
    <glyph glyph-name="y" unicode="y" horiz-adv-x="447" 
d="M436 492l-224 -611c-9.33301 -26 -21 -45.333 -35 -58c-23.333 -22.667 -55.333 -34 -96 -34h-31v64h22c24 0 41.5 4.33301 52.5 13s20.5 24.667 28.5 48l35 96l-177 482h78l135 -395l134 395h78z" />
    <glyph glyph-name="z" unicode="z" horiz-adv-x="459" 
d="M407 0h-357v62l274 366h-259v64h342v-61l-275 -367h275v-64z" />
    <glyph glyph-name="braceleft" unicode="{" horiz-adv-x="354" 
d="M305 -74h-37c-47.333 0 -81 10 -101 30s-30 53 -30 99v191c0 28 -6 48 -18 60s-27 18 -45 18h-26v64h26c18 0 33 6 45 18s18 32 18 60v191c0 46 10 79 30 99s53.667 30 101 30h37v-64h-23c-30.667 0 -50.334 -4.33301 -59.001 -13c-9.33301 -9.33301 -14 -31 -14 -65
v-188c0 -26.667 -5.33301 -47.5 -16 -62.5s-26.334 -27.5 -47.001 -37.5c20.667 -10 36.334 -22.5 47.001 -37.5s16 -35.833 16 -62.5v-188c0 -34 4.66699 -55.667 14 -65c8.66699 -8.66699 28.334 -13 59.001 -13h23v-64z" />
    <glyph glyph-name="bar" unicode="|" horiz-adv-x="326" 
d="M199 -74h-72v860h72v-860z" />
    <glyph glyph-name="braceright" unicode="}" horiz-adv-x="354" 
d="M305 324h-25c-18 0 -33 -6 -45 -18s-18 -32 -18 -60v-191c0 -46 -10 -79 -30 -99s-53.667 -30 -101 -30h-38v64h24c30 0 49.333 4.33301 58 13c10 10 15 31.667 15 65v188c0 26.667 5.33301 47.5 16 62.5s26.334 27.5 47.001 37.5c-20.667 10 -36.334 22.5 -47.001 37.5
s-16 35.833 -16 62.5v188c0 33.333 -5 55 -15 65c-8.66699 8.66699 -28 13 -58 13h-24v64h38c47.333 0 81 -10 101 -30s30 -53 30 -99v-191c0 -28 6 -48 18 -60s27 -18 45 -18h25v-64z" />
    <glyph glyph-name="asciitilde" unicode="~" horiz-adv-x="539" 
d="M490 278c-27.333 -27.333 -49.833 -45.5 -67.5 -54.5s-38.167 -13.5 -61.5 -13.5c-24.667 0 -60 10.333 -106 31c-34.667 16 -60.667 24 -78 24c-14.667 0 -27.667 -2.83301 -39 -8.5s-26.333 -17.834 -45 -36.501l-44 45c27.333 27.333 49.833 45.5 67.5 54.5
s38.167 13.5 61.5 13.5c24 0 59 -10.333 105 -31c34.667 -16 60.667 -24 78 -24c14.667 0 27.667 2.83301 39 8.5s26.333 17.834 45 36.501z" />
    <glyph glyph-name="uni00A0" unicode="&#x2020;" horiz-adv-x="249" 
 />
    <glyph glyph-name="exclamdown" unicode="&#xb0;" horiz-adv-x="316" 
d="M184 -220h-83l10 512h62zM185 408h-86v84h86v-84z" />
    <glyph glyph-name="cent" unicode="&#xa2;" horiz-adv-x="498" 
d="M448 189c-22.667 -24.667 -45.167 -42.6689 -67.5 -54.002s-48.166 -18 -77.499 -20v-115h-59v117c-56 8 -100.167 33.833 -132.5 77.5s-48.5 100.834 -48.5 171.501s16.167 127.834 48.5 171.501s76.5 69.5 132.5 77.5v97h59v-95c29.333 -2 55.166 -8.66699 77.499 -20
s44.833 -29.333 67.5 -54l-49 -46c-30 34 -63.333 52.333 -100 55v-372c36.667 2.66699 70 21 100 55zM248 181.998v368c-32.667 -6 -59.334 -23.333 -80.001 -52c-22 -30.667 -33 -74.667 -33 -132s11 -101.333 33 -132c20.667 -28.667 47.334 -46 80.001 -52z" />
    <glyph glyph-name="sterling" unicode="&#xa3;" horiz-adv-x="548" 
d="M496 0l-385.999 0.000976562v330h-63v54h63v112c0 67.333 20.667 121.166 62 161.499s95 60.5 161 60.5s120.333 -21.333 163 -64l-52 -51c-16 16 -31.833 27.833 -47.5 35.5s-36.834 11.5 -63.501 11.5c-46.667 0 -82.667 -14.167 -108 -42.5s-38 -68.833 -38 -121.5
v-102h146v-54h-146v-262h309v-68z" />
    <glyph glyph-name="currency" unicode="&#xa7;" horiz-adv-x="660" 
d="M582 65l-46 -46l-75 74c-39.333 -29.333 -83 -44 -131 -44c-48.667 0 -92.667 14.667 -132 44l-74 -74l-46 46l74 74c-29.333 39.333 -44 83.333 -44 132s14.667 92.667 44 132l-74 73l46 46l74 -73c38 28.667 82 43 132 43c49.333 0 93 -14.333 131 -43l75 73l46 -46
l-74 -73c29.333 -39.333 44 -83.333 44 -132s-14.667 -92.667 -44 -132zM485 271c0 43.333 -15.1689 80 -45.502 110s-66.833 45 -109.5 45c-43.333 0 -80.166 -15.167 -110.499 -45.5s-45.5 -66.833 -45.5 -109.5c0 -43.333 15.333 -80.166 46 -110.499
s67.334 -45.5 110.001 -45.5s79.167 15.167 109.5 45.5s45.5 67.166 45.5 110.499z" />
    <glyph glyph-name="yen" unicode="&#x2022;" horiz-adv-x="514" 
d="M506 712l-157 -311h100v-54h-127l-26 -53v-52h153v-55h-153v-187h-77v187h-154v55h154v52l-26 53h-128v54h100l-157 311h82l168 -341l167 341h81z" />
    <glyph glyph-name="brokenbar" unicode="&#xb6;" horiz-adv-x="335" 
d="M199 436h-72v350h72v-350zM199 -74h-72v350h72v-350z" />
    <glyph glyph-name="section" unicode="&#xdf;" horiz-adv-x="557" 
d="M470 254c0 -38 -10 -71.166 -30 -99.499s-44.667 -49.833 -74 -64.5c29.333 -10.667 52.833 -28.5 70.5 -53.5s26.5 -55.167 26.5 -90.5c0 -51.333 -17.5 -92.833 -52.5 -124.5s-78.833 -47.5 -131.5 -47.5c-52 0 -95.833 14 -131.5 42s-54.834 67.667 -57.501 119h73
c2.66699 -30.667 14.167 -54.167 34.5 -70.5s47.5 -24.5 81.5 -24.5c34.667 0 61.834 9.16699 81.501 27.5s29.5 44.166 29.5 77.499c0 23.333 -7.83301 44.166 -23.5 62.499s-37.167 31.5 -64.5 39.5l-78 22c-44 12.667 -77.833 34.834 -101.5 66.501
s-35.5 70.5 -35.5 116.5c0 38.667 10 72 30 100s45 49.333 75 64c-62 28 -93 74 -93 138c0 48.667 16.833 88.167 50.5 118.5s76.834 45.5 129.501 45.5s95.667 -14.167 129 -42.5s51 -66.5 53 -114.5h-72c-4.66699 62 -41.334 93 -110.001 93c-34 0 -60.5 -8.5 -79.5 -25.5
s-28.5 -41.5 -28.5 -73.5c0 -48 28 -80 84 -96l78 -22c43.333 -12.667 77 -35 101 -67s36 -70.667 36 -116zM397 253.001c0 40 -10.667 70.667 -32 92c-24 24 -52.667 36 -86 36c-35.333 0 -64 -12 -86 -36s-33 -54.667 -33 -92s11 -68 33 -92s50.667 -36 86 -36
s64 12 86 36c21.333 23.333 32 54 32 92z" />
    <glyph glyph-name="dieresis" unicode="&#xae;" horiz-adv-x="500" 
d="M392 602h-72v89h72v-89zM180 602h-72v89h72v-89z" />
    <glyph glyph-name="copyright" unicode="&#xa9;" horiz-adv-x="881" 
d="M802 356c0 -100 -35.333 -185.333 -106 -256s-156 -106 -256 -106s-185.333 35.333 -256 106s-106 156 -106 256s35.333 185.333 106 256s156 106 256 106s185.333 -35.333 256 -106s106 -156 106 -256zM744 356c0 84.667 -29.667 157.167 -89 217.5s-131 90.5 -215 90.5
s-155.5 -30.167 -214.5 -90.5s-88.5 -132.833 -88.5 -217.5s29.5 -157.167 88.5 -217.5s130.5 -90.5 214.5 -90.5s155.667 30.167 215 90.5s89 132.833 89 217.5zM576 205c-38.667 -34.667 -82.334 -52.001 -131.001 -52.001c-56.667 0 -100.5 18.667 -131.5 56
s-46.5 86.333 -46.5 147s15.5 109.834 46.5 147.501s74.833 56.5 131.5 56.5c47.333 0 91 -17.667 131 -53l-36 -36c-29.333 26 -61 39 -95 39c-42.667 0 -73.667 -14.167 -93 -42.5s-29 -65.5 -29 -111.5s9.66699 -83 29 -111s50.333 -42 93 -42
c34.667 0 66.334 12.667 95.001 38z" />
    <glyph glyph-name="ordfeminine" unicode="&#x2122;" horiz-adv-x="449" 
d="M365 319l-58.002 0.000976562v36c-28 -27.333 -65 -41 -111 -41c-49.333 0 -86 12 -110 36c-20 21.333 -30 47.666 -30 78.999c0 35.333 11.833 63.166 35.5 83.499s56.834 30.5 99.501 30.5h115v36c0 28.667 -7.5 49.834 -22.5 63.501s-39.833 20.5 -74.5 20.5
c-24.667 0 -44.167 -3.16699 -58.5 -9.5s-27.5 -17.833 -39.5 -34.5l-41 37c17.333 22 36.833 37.5 58.5 46.5s48.834 13.5 81.501 13.5c103.333 0 155 -44 155 -132v-265zM305.998 458.001v40h-107c-56 0 -84 -22.333 -84 -67c0 -43.333 28.667 -65 86 -65
c40 0 68.667 8.33301 86 25c12.667 12 19 34.333 19 67z" />
    <glyph glyph-name="guillemotleft" unicode="&#xb4;" horiz-adv-x="554" 
d="M250 58l-210 210l210 210v-90l-120 -120l120 -121v-89zM476 58l-210 210l210 210v-90l-121 -120l121 -121v-89z" />
    <glyph glyph-name="logicalnot" unicode="&#xa8;" horiz-adv-x="522" 
d="M471 103h-67v137h-353v67h420v-204z" />
    <glyph glyph-name="uni00AD" unicode="&#x2260;" horiz-adv-x="426" 
d="M350 236h-274v67h274v-67z" />
    <glyph glyph-name="registered" unicode="&#xc6;" horiz-adv-x="881" 
d="M802 356c0 -100 -35.333 -185.333 -106 -256s-156 -106 -256 -106s-185.333 35.333 -256 106s-106 156 -106 256s35.333 185.333 106 256s156 106 256 106s185.333 -35.333 256 -106s106 -156 106 -256zM745 356c0 85.333 -29.833 158.166 -89.5 218.499
s-131.5 90.5 -215.5 90.5s-155.667 -30.167 -215 -90.5s-89 -133.166 -89 -218.499s29.667 -158.166 89 -218.499s131 -90.5 215 -90.5s155.833 30.167 215.5 90.5s89.5 133.166 89.5 218.499zM592 158l-64 -0.000976562l-91 162h-60v-162h-55v397h135
c34.667 0 64.167 -11.5 88.5 -34.5s36.5 -51.167 36.5 -84.5c0 -55.333 -28.333 -91.666 -85 -108.999zM526 435.999c0 20 -7 36.667 -21 50s-32 20 -54 20h-74v-139h74c22 0 40 6.5 54 19.5s21 29.5 21 49.5z" />
    <glyph glyph-name="macron" unicode="&#xd8;" horiz-adv-x="500" 
d="M99 613v57h301v-57h-301z" />
    <glyph glyph-name="degree" unicode="&#x221e;" horiz-adv-x="463" 
d="M396 557c0 -45.333 -16 -84 -48 -116s-70.667 -48 -116 -48s-84.166 16 -116.499 48s-48.5 70.667 -48.5 116s16.167 84 48.5 116s71.166 48 116.499 48s84 -16 116 -48s48 -70.667 48 -116zM335 557c0 30 -10 55.167 -30 75.5s-44.667 30.5 -74 30.5
s-53.833 -10.167 -73.5 -30.5s-29.5 -45.5 -29.5 -75.5s10 -55.167 30 -75.5s44.667 -30.5 74 -30.5s53.833 10.167 73.5 30.5s29.5 45.5 29.5 75.5z" />
    <glyph glyph-name="plusminus" unicode="&#xb1;" horiz-adv-x="522" 
d="M470 289h-175v-177h-67v177h-176v67h176v175h67v-175h175v-67zM470 0h-418v67h418v-67z" />
    <glyph glyph-name="twosuperior" unicode="&#x2264;" horiz-adv-x="342" 
d="M294 285l-246.001 0.000976562v52l165 202c15.333 19.333 23 38.666 23 57.999c0 20 -5.83301 36.167 -17.5 48.5s-27.5 18.5 -47.5 18.5c-18.667 0 -34.167 -5.5 -46.5 -16.5s-18.5 -27.833 -18.5 -50.5h-58c0 36 11.5 64.833 34.5 86.5s52.5 32.5 88.5 32.5
c36.667 0 66.334 -10.833 89.001 -32.5s34 -50.5 34 -86.5c0 -29.333 -13 -60 -39 -92l-138 -168h177v-52z" />
    <glyph glyph-name="threesuperior" unicode="&#x2265;" horiz-adv-x="356" 
d="M308 405c0 -39.333 -12.1641 -70.001 -36.4971 -92.001s-55.166 -33 -92.499 -33c-36.667 0 -67.334 10.167 -92.001 30.5s-37.667 49.833 -39 88.5h58c0.666992 -22 8 -38.667 22 -50s31 -17 51 -17c21.333 0 38.666 6.5 51.999 19.5s20 30.833 20 53.5
s-6.33301 40.5 -19 53.5s-31.334 19.5 -56.001 19.5h-9v50h9c22.667 0 39.667 6 51 18s17 28.667 17 50s-6.33301 38 -19 50s-28.334 18 -47.001 18c-19.333 0 -35 -5.66699 -47 -17s-18.667 -26.666 -20 -45.999h-57c2 35.333 14.667 63.333 38 84s52 31 86 31
c36 0 65.5 -11 88.5 -33s34.5 -50.667 34.5 -86c0 -44.667 -18 -75.334 -54 -92.001c40.667 -17.333 61 -50.666 61 -99.999z" />
    <glyph glyph-name="acute" unicode="&#xa5;" horiz-adv-x="500" 
d="M375 747l-108 -153h-66l88 153h86z" />
    <glyph glyph-name="uni00B5" unicode="&#xb5;" horiz-adv-x="561" 
d="M471 0h-72v55c-35.333 -40.667 -81.333 -61 -138 -61c-44 0 -79.333 12.333 -106 37v-251h-72v712h72v-303c0 -42.667 10.667 -75.167 32 -97.5s51 -33.5 89 -33.5s68 11.333 90 34s33 55 33 97v303h72v-492z" />
    <glyph glyph-name="paragraph" unicode="&#x2202;" horiz-adv-x="603" 
d="M500 -220l-72 0.000976562v864h-117v-864h-72v546c-58 0 -105.333 19.167 -142 57.5s-55 83.166 -55 134.499c0 55.333 19.5 101.5 58.5 138.5s91.833 55.5 158.5 55.5h241v-932z" />
    <glyph glyph-name="periodcentered" unicode="&#x2211;" horiz-adv-x="270" 
d="M182 223h-94v94h94v-94z" />
    <glyph glyph-name="cedilla" unicode="&#x220f;" horiz-adv-x="500" 
d="M313 -67l-59 -149h-79l71 149h67z" />
    <glyph glyph-name="onesuperior" unicode="&#x3c0;" horiz-adv-x="261" 
d="M183 285h-57v363l-83 -73v66l83 71h57v-427z" />
    <glyph glyph-name="ordmasculine" unicode="&#x222b;" horiz-adv-x="455" 
d="M387 515c0 -71.333 -16.002 -123.333 -48.002 -156c-29.333 -29.333 -66.666 -44 -111.999 -44s-82.666 14.667 -111.999 44c-32 32.667 -48 84.667 -48 156s16 123.333 48 156c30 30 67.333 45 112 45s82 -15 112 -45c32 -32.667 48 -84.667 48 -156zM327.998 515
c0 58.667 -10.3311 98.333 -30.998 119c-18.667 18.667 -42 28 -70 28s-51.333 -9.33301 -70 -28c-20 -20 -30 -59.667 -30 -119c0 -58.667 10 -98 30 -118c19.333 -19.333 42.666 -29 69.999 -29s50.666 9.66699 69.999 29c20.667 20.667 31 60 31 118z" />
    <glyph glyph-name="guillemotright" unicode="&#xaa;" horiz-adv-x="554" 
d="M514 268l-210 -210v89l120 121l-120 120v90zM288 268l-210 -210v89l121 121l-121 120v90z" />
    <glyph glyph-name="onequarter" unicode="&#xba;" horiz-adv-x="777" 
d="M737 64h-47v-64h-56v64h-172v53l151 310h62l-150 -310h109v105h56v-105h47v-53zM566 712l-333 -712h-60l333 712h60zM183 285h-57v363l-83 -73v66l83 71h57v-427z" />
    <glyph glyph-name="onehalf" unicode="&#x3a9;" horiz-adv-x="790" 
d="M742 0l-246.001 0.000976562v52l165 202c15.333 19.333 23 38.666 23 57.999c0 20 -5.83301 36.167 -17.5 48.5s-27.5 18.5 -47.5 18.5c-18.667 0 -34.167 -5.5 -46.5 -16.5s-18.5 -27.833 -18.5 -50.5h-58c0 36 11.5 64.833 34.5 86.5s52.5 32.5 88.5 32.5
c36.667 0 66.334 -10.833 89.001 -32.5s34 -50.5 34 -86.5c0 -29.333 -13 -60 -39 -92l-137 -168h176v-52zM553.999 712.001l-333 -712h-60l333 712h60zM182.999 285.001h-57v363l-83 -73v66l83 71h57v-427z" />
    <glyph glyph-name="threequarters" unicode="&#xe6;" horiz-adv-x="822" 
d="M308 405c0 -39.333 -12.1641 -70.001 -36.4971 -92.001s-55.166 -33 -92.499 -33c-36.667 0 -67.334 10.167 -92.001 30.5s-37.667 49.833 -39 88.5h58c0.666992 -22 8 -38.667 22 -50s31 -17 51 -17c21.333 0 38.666 6.5 51.999 19.5s20 30.833 20 53.5
s-6.33301 40.5 -19 53.5s-31.334 19.5 -56.001 19.5h-9v50h9c22.667 0 39.667 6 51 18s17 28.667 17 50s-6.33301 38 -19 50s-28.334 18 -47.001 18c-19.333 0 -35 -5.66699 -47 -17s-18.667 -26.666 -20 -45.999h-57c2 35.333 14.667 63.333 38 84s52 31 86 31
c36 0 65.5 -11 88.5 -33s34.5 -50.667 34.5 -86c0 -44.667 -18 -75.334 -54 -92.001c40.667 -17.333 61 -50.666 61 -99.999zM782.003 63.999h-47v-64h-56v64h-172v53l151 310h62l-151 -310h110v105h56v-105h47v-53zM619.003 711.999l-334 -712h-60l334 712h60z" />
    <glyph glyph-name="questiondown" unicode="&#xf8;" horiz-adv-x="497" 
d="M421 -43c0 -51.333 -17.833 -94.668 -53.5 -130.001s-80.167 -53 -133.5 -53s-98 17.333 -134 52s-54 78.334 -54 131.001c0 35.333 15.333 75.333 46 120l82 118c12 18 18 37.333 18 58v40h72v-41c0 -32 -10.667 -63.333 -32 -94l-81 -116c-22 -32.667 -33 -61 -33 -85
c0 -33.333 11 -61.333 33 -84s49.667 -34 83 -34c34.667 0 62.5 11.5 83.5 34.5s31.5 50.833 31.5 83.5h72zM270 407.998h-85v84h85v-84z" />
    <glyph glyph-name="Agrave" unicode="&#xbf;" horiz-adv-x="611" 
d="M599 0h-81l-57 161h-311l-57 -161h-81l262 712h64zM439 227l-132 376l-134 -376h266zM351 781h-66l-108 153h86z" />
    <glyph glyph-name="Aacute" unicode="&#xa1;" horiz-adv-x="611" 
d="M599 0h-81l-57 161h-311l-57 -161h-81l262 712h64zM439 227l-132 376l-134 -376h266zM427 934l-108 -153h-66l88 153h86z" />
    <glyph glyph-name="Acircumflex" unicode="&#xac;" horiz-adv-x="611" 
d="M599 0h-81l-57 161h-311l-57 -161h-81l262 712h64zM439 227l-132 376l-134 -376h266zM461 781h-69l-90 104l-90 -104h-69l125 153h68z" />
    <glyph glyph-name="Atilde" unicode="&#x221a;" horiz-adv-x="611" 
d="M599 0h-81l-57 161h-311l-57 -161h-81l262 712h64zM439 227l-132 376l-134 -376h266zM459 844c-34 -33.333 -65.668 -50 -95.001 -50c-21.333 0 -45 7.66699 -71 23c-24 14 -42.667 21 -56 21c-18 0 -37.667 -10.667 -59 -32l-37 36c34 34 65.667 51 95 51
c22.667 0 46.334 -8 71.001 -24c21.333 -13.333 40 -20 56 -20c18 0 37.667 10.667 59 32z" />
    <glyph glyph-name="Adieresis" unicode="&#x192;" horiz-adv-x="611" 
d="M599 0h-81l-57 161h-311l-57 -161h-81l262 712h64zM439 227l-132 376l-134 -376h266zM448 789h-72v89h72v-89zM236 789h-72v89h72v-89z" />
    <glyph glyph-name="Aring" unicode="&#x2248;" horiz-adv-x="611" 
d="M599 0h-81l-57 161h-311l-57 -161h-81l262 712h64zM439 227l-132 376l-134 -376h266zM420 867c0 -32.667 -11.5 -60.667 -34.5 -84s-50.833 -35 -83.5 -35s-60.5 11.667 -83.5 35s-34.5 51.333 -34.5 84s11.5 60.5 34.5 83.5s50.833 34.5 83.5 34.5
s60.5 -11.5 83.5 -34.5s34.5 -50.833 34.5 -83.5zM371 867c0 18.667 -6.6709 34.667 -20.0039 48s-29.666 20 -48.999 20s-35.666 -6.66699 -48.999 -20s-20 -29.333 -20 -48c0 -19.333 6.83301 -35.666 20.5 -48.999s29.834 -20 48.501 -20s34.834 6.66699 48.501 20
s20.5 29.666 20.5 48.999z" />
    <glyph glyph-name="AE" unicode="&#x394;" horiz-adv-x="922" 
d="M867 0h-441v169h-247l-88 -169h-83l376 712h483v-68h-366v-253h312v-68h-312v-255h366v-68zM426 235v409l-214 -409h214z" />
    <glyph glyph-name="AE" unicode="&#x2206;" horiz-adv-x="922" 
d="M867 0h-441v169h-247l-88 -169h-83l376 712h483v-68h-366v-253h312v-68h-312v-255h366v-68zM426 235v409l-214 -409h214z" />
    <glyph glyph-name="Ccedilla" unicode="&#xab;" horiz-adv-x="637" 
d="M572 206c-11.333 -66 -39.332 -117.833 -83.999 -155.5s-99 -56.5 -163 -56.5c-72 0 -132.667 24.667 -182 74c-30.667 30.667 -49.5 64.5 -56.5 101.5s-10.5 99.167 -10.5 186.5s3.5 149.5 10.5 186.5s25.833 70.833 56.5 101.5c49.333 49.333 110 74 182 74
c64.667 0 119 -18.667 163 -56s72 -89.333 84 -156h-78c-9.33301 44 -28.833 79 -58.5 105s-66.5 39 -110.5 39c-50 0 -91 -16.667 -123 -50c-21.333 -22 -35 -48.667 -41 -80s-9 -86 -9 -164s3 -132.667 9 -164s19.667 -58 41 -80c32 -33.333 73 -50 123 -50
c44 0 81.167 13 111.5 39s50.166 61 59.499 105h76zM370.001 -67l-59 -149h-79l71 149h67z" />
    <glyph glyph-name="Egrave" unicode="&#xbb;" horiz-adv-x="600" 
d="M545 0h-442v712h442v-68h-366v-251h312v-68h-312v-257h366v-68zM362 781h-66l-108 153h86z" />
    <glyph glyph-name="Eacute" unicode="&#x2026;" horiz-adv-x="600" 
d="M545 0h-442v712h442v-68h-366v-251h312v-68h-312v-257h366v-68zM438 934l-108 -153h-66l88 153h86z" />
    <glyph glyph-name="Ecircumflex" unicode="&#xa0;" horiz-adv-x="600" 
d="M545 0h-442v712h442v-68h-366v-251h312v-68h-312v-257h366v-68zM472 781h-69l-90 104l-90 -104h-69l125 153h68z" />
    <glyph glyph-name="Edieresis" unicode="&#xc0;" horiz-adv-x="600" 
d="M545 0h-442v712h442v-68h-366v-251h312v-68h-312v-257h366v-68zM455 789h-72v89h72v-89zM243 789h-72v89h72v-89z" />
    <glyph glyph-name="Igrave" unicode="&#xc3;" horiz-adv-x="282" 
d="M179 0h-76v712h76v-712zM179 781h-66l-108 153h86z" />
    <glyph glyph-name="Iacute" unicode="&#xd5;" horiz-adv-x="282" 
d="M179 0h-76v712h76v-712zM277 934l-108 -153h-66l88 153h86z" />
    <glyph glyph-name="Icircumflex" unicode="&#x152;" horiz-adv-x="282" 
d="M179 0h-76v712h76v-712zM299 781h-69l-90 104l-90 -104h-69l125 153h68z" />
    <glyph glyph-name="Idieresis" unicode="&#x153;" horiz-adv-x="282" 
d="M179 0h-76v712h76v-712zM283 789h-72v89h72v-89zM71 789h-72v89h72v-89z" />
    <glyph glyph-name="Eth" unicode="&#x2013;" horiz-adv-x="687" 
d="M611 356c0 -81.333 -2.66699 -136.832 -8 -166.499s-17.333 -57.834 -36 -84.501c-50 -70 -120.333 -105 -211 -105h-239v330h-78v59h78v323h245c90 0 158.333 -35.667 205 -107c20 -30.667 32.333 -60 37 -88s7 -81.667 7 -161zM535 352.001
c0 71.333 -2.00098 120.332 -6.00098 146.999s-14 51.334 -30 74.001c-35.333 48 -85.666 72 -150.999 72h-154v-256h161v-59h-161v-263h154c70.667 0 122.667 24.667 156 74c14 21.333 22.667 44 26 68s5 71.667 5 143z" />
    <glyph glyph-name="Ntilde" unicode="&#x2014;" horiz-adv-x="732" 
d="M629 0h-72l-378 571v-571h-76v712h72l378 -569v569h76v-712zM523 844c-34 -33.333 -65.668 -50 -95.001 -50c-21.333 0 -45 7.66699 -71 23c-24 14 -42.667 21 -56 21c-18 0 -37.667 -10.667 -59 -32l-37 36c34 34 65.667 51 95 51c22.667 0 46.334 -8 71.001 -24
c21.333 -13.333 40 -20 56 -20c18 0 37.667 10.667 59 32z" />
    <glyph glyph-name="Ograve" unicode="&#x201c;" horiz-adv-x="650" 
d="M574 356c0 -87.333 -3.5 -149.5 -10.5 -186.5s-25.833 -70.833 -56.5 -101.5c-49.333 -49.333 -110 -74 -182 -74s-132.667 24.667 -182 74c-30.667 30.667 -49.5 64.5 -56.5 101.5s-10.5 99.167 -10.5 186.5s3.5 149.5 10.5 186.5s25.833 70.833 56.5 101.5
c49.333 49.333 110 74 182 74s132.667 -24.667 182 -74c30.667 -30.667 49.5 -64.5 56.5 -101.5s10.5 -99.167 10.5 -186.5zM498 356c0 78 -3 132.5 -9 163.5s-19.667 57.5 -41 79.5c-32.667 34 -73.667 51 -123 51s-90.333 -17 -123 -51c-21.333 -22 -35 -48.5 -41 -79.5
s-9 -85.5 -9 -163.5s3 -132.5 9 -163.5s19.667 -57.5 41 -79.5c32.667 -34 73.667 -51 123 -51s90.333 17 123 51c21.333 22 35 48.5 41 79.5s9 85.5 9 163.5zM374 781h-66l-108 153h86z" />
    <glyph glyph-name="Oacute" unicode="&#x201d;" horiz-adv-x="650" 
d="M574 356c0 -87.333 -3.5 -149.5 -10.5 -186.5s-25.833 -70.833 -56.5 -101.5c-49.333 -49.333 -110 -74 -182 -74s-132.667 24.667 -182 74c-30.667 30.667 -49.5 64.5 -56.5 101.5s-10.5 99.167 -10.5 186.5s3.5 149.5 10.5 186.5s25.833 70.833 56.5 101.5
c49.333 49.333 110 74 182 74s132.667 -24.667 182 -74c30.667 -30.667 49.5 -64.5 56.5 -101.5s10.5 -99.167 10.5 -186.5zM498 356c0 78 -3 132.5 -9 163.5s-19.667 57.5 -41 79.5c-32.667 34 -73.667 51 -123 51s-90.333 -17 -123 -51c-21.333 -22 -35 -48.5 -41 -79.5
s-9 -85.5 -9 -163.5s3 -132.5 9 -163.5s19.667 -57.5 41 -79.5c32.667 -34 73.667 -51 123 -51s90.333 17 123 51c21.333 22 35 48.5 41 79.5s9 85.5 9 163.5zM450 934l-108 -153h-66l88 153h86z" />
    <glyph glyph-name="Ocircumflex" unicode="&#x2018;" horiz-adv-x="650" 
d="M574 356c0 -87.333 -3.5 -149.5 -10.5 -186.5s-25.833 -70.833 -56.5 -101.5c-49.333 -49.333 -110 -74 -182 -74s-132.667 24.667 -182 74c-30.667 30.667 -49.5 64.5 -56.5 101.5s-10.5 99.167 -10.5 186.5s3.5 149.5 10.5 186.5s25.833 70.833 56.5 101.5
c49.333 49.333 110 74 182 74s132.667 -24.667 182 -74c30.667 -30.667 49.5 -64.5 56.5 -101.5s10.5 -99.167 10.5 -186.5zM498 356c0 78 -3 132.5 -9 163.5s-19.667 57.5 -41 79.5c-32.667 34 -73.667 51 -123 51s-90.333 -17 -123 -51c-21.333 -22 -35 -48.5 -41 -79.5
s-9 -85.5 -9 -163.5s3 -132.5 9 -163.5s19.667 -57.5 41 -79.5c32.667 -34 73.667 -51 123 -51s90.333 17 123 51c21.333 22 35 48.5 41 79.5s9 85.5 9 163.5zM484 781h-69l-90 104l-90 -104h-69l125 153h68z" />
    <glyph glyph-name="Otilde" unicode="&#x2019;" horiz-adv-x="650" 
d="M574 356c0 -87.333 -3.5 -149.5 -10.5 -186.5s-25.833 -70.833 -56.5 -101.5c-49.333 -49.333 -110 -74 -182 -74s-132.667 24.667 -182 74c-30.667 30.667 -49.5 64.5 -56.5 101.5s-10.5 99.167 -10.5 186.5s3.5 149.5 10.5 186.5s25.833 70.833 56.5 101.5
c49.333 49.333 110 74 182 74s132.667 -24.667 182 -74c30.667 -30.667 49.5 -64.5 56.5 -101.5s10.5 -99.167 10.5 -186.5zM498 356c0 78 -3 132.5 -9 163.5s-19.667 57.5 -41 79.5c-32.667 34 -73.667 51 -123 51s-90.333 -17 -123 -51c-21.333 -22 -35 -48.5 -41 -79.5
s-9 -85.5 -9 -163.5s3 -132.5 9 -163.5s19.667 -57.5 41 -79.5c32.667 -34 73.667 -51 123 -51s90.333 17 123 51c21.333 22 35 48.5 41 79.5s9 85.5 9 163.5zM482 844c-34 -33.333 -65.667 -50 -95 -50c-21.333 0 -45 7.66699 -71 23c-24 14 -42.667 21 -56 21
c-18 0 -37.667 -10.667 -59 -32l-37 36c34 34 65.667 51 95 51c22 0 45.667 -8 71 -24c21.333 -13.333 40 -20 56 -20c18 0 37.667 10.667 59 32z" />
    <glyph glyph-name="Odieresis" unicode="&#xf7;" horiz-adv-x="650" 
d="M574 356c0 -87.333 -3.5 -149.5 -10.5 -186.5s-25.833 -70.833 -56.5 -101.5c-49.333 -49.333 -110 -74 -182 -74s-132.667 24.667 -182 74c-30.667 30.667 -49.5 64.5 -56.5 101.5s-10.5 99.167 -10.5 186.5s3.5 149.5 10.5 186.5s25.833 70.833 56.5 101.5
c49.333 49.333 110 74 182 74s132.667 -24.667 182 -74c30.667 -30.667 49.5 -64.5 56.5 -101.5s10.5 -99.167 10.5 -186.5zM498 356c0 78 -3 132.5 -9 163.5s-19.667 57.5 -41 79.5c-32.667 34 -73.667 51 -123 51s-90.333 -17 -123 -51c-21.333 -22 -35 -48.5 -41 -79.5
s-9 -85.5 -9 -163.5s3 -132.5 9 -163.5s19.667 -57.5 41 -79.5c32.667 -34 73.667 -51 123 -51s90.333 17 123 51c21.333 22 35 48.5 41 79.5s9 85.5 9 163.5zM467 789h-72v89h72v-89zM255 789h-72v89h72v-89z" />
    <glyph glyph-name="multiply" unicode="&#x25ca;" horiz-adv-x="522" 
d="M457 119l-45 -45l-151 151l-151 -151l-45 45l151 151l-151 151l45 45l151 -152l151 152l45 -45l-152 -151z" />
    <glyph glyph-name="Oslash" unicode="&#xff;" horiz-adv-x="652" 
d="M574 356c0 -87.333 -3.50098 -149.499 -10.501 -186.499s-25.833 -70.833 -56.5 -101.5c-49.333 -49.333 -110 -74 -182 -74c-46.667 0 -88.667 10.667 -126 32l-33 -70h-65l50 104l-8 8c-30.667 30.667 -49.5 64.5 -56.5 101.5s-10.5 99.167 -10.5 186.5
s3.5 149.5 10.5 186.5s25.833 70.833 56.5 101.5c49.333 49.333 110 74 182 74c46.667 0 88.334 -10.333 125.001 -31l34 69h65l-50 -104c0.666992 -0.666992 1.5 -1.33398 2.5 -2.00098s2 -1.66699 3 -3s1.83301 -2.33301 2.5 -3c30.667 -30.667 49.5 -64.5 56.5 -101.5
s10.5 -99.167 10.5 -186.5zM420.999 621.001c-30 19.333 -62 28.999 -96 28.999c-49.333 0 -90.333 -17 -123 -51c-21.333 -22 -35 -48.5 -41 -79.5s-9 -85.5 -9 -163.5c0 -69.333 2.16699 -119.166 6.5 -149.499s13.833 -55.5 28.5 -75.5zM496.999 356
c0 70 -2 119.999 -6 149.999s-13.333 55 -28 75l-234 -490c30 -19.333 62 -29 96 -29c49.333 0 90.333 17 123 51c21.333 22 34.833 48.333 40.5 79s8.5 85.334 8.5 164.001z" />
    <glyph glyph-name="Ugrave" unicode="&#x178;" horiz-adv-x="683" 
d="M590 235c0 -70.667 -23.5 -128.5 -70.5 -173.5s-106.5 -67.5 -178.5 -67.5s-131.333 22.5 -178 67.5s-70 102.833 -70 173.5v477h76v-471c0 -54 15.667 -97.333 47 -130s73 -49 125 -49s93.833 16.333 125.5 49s47.5 76 47.5 130v471h76v-477zM390 781h-66l-108 153h86z
" />
    <glyph glyph-name="Uacute" unicode="&#x2044;" horiz-adv-x="683" 
d="M590 235c0 -70.667 -23.5 -128.5 -70.5 -173.5s-106.5 -67.5 -178.5 -67.5s-131.333 22.5 -178 67.5s-70 102.833 -70 173.5v477h76v-471c0 -54 15.667 -97.333 47 -130s73 -49 125 -49s93.833 16.333 125.5 49s47.5 76 47.5 130v471h76v-477zM466 934l-108 -153h-66
l88 153h86z" />
    <glyph glyph-name="Ucircumflex" unicode="&#x20ac;" horiz-adv-x="683" 
d="M590 235c0 -70.667 -23.5 -128.5 -70.5 -173.5s-106.5 -67.5 -178.5 -67.5s-131.333 22.5 -178 67.5s-70 102.833 -70 173.5v477h76v-471c0 -54 15.667 -97.333 47 -130s73 -49 125 -49s93.833 16.333 125.5 49s47.5 76 47.5 130v471h76v-477zM500 781h-69l-90 104
l-90 -104h-69l125 153h68z" />
    <glyph glyph-name="Udieresis" unicode="&#x2039;" horiz-adv-x="683" 
d="M590 235c0 -70.667 -23.5 -128.5 -70.5 -173.5s-106.5 -67.5 -178.5 -67.5s-131.333 22.5 -178 67.5s-70 102.833 -70 173.5v477h76v-471c0 -54 15.667 -97.333 47 -130s73 -49 125 -49s93.833 16.333 125.5 49s47.5 76 47.5 130v471h76v-477zM483 789h-72v89h72v-89z
M271 789h-72v89h72v-89z" />
    <glyph glyph-name="Yacute" unicode="&#x203a;" horiz-adv-x="514" 
d="M506 712l-210 -418v-294h-76v294l-212 418h82l168 -341l166 341h82zM382 934l-108 -153h-66l88 153h86z" />
    <glyph glyph-name="Thorn" unicode="&#xfb01;" horiz-adv-x="642" 
d="M588 359c0 -63.333 -20.333 -114.001 -61 -152.001s-93.667 -57 -159 -57h-189v-150h-76v712h76v-143h189c65.333 0 118.333 -19.167 159 -57.5s61 -89.166 61 -152.499zM512 358.999c0 46 -13.667 81 -41 105s-64 36 -110 36h-182v-282h182c46 0 82.667 12 110 36
s41 59 41 105z" />
    <glyph glyph-name="germandbls" unicode="&#xfb02;" horiz-adv-x="556" 
d="M484 141c0 -46 -13 -80.998 -39 -104.998s-60.333 -36 -103 -36h-54v62h40c23.333 0 43 6.66699 59 20c16.667 13.333 25 35.666 25 66.999v169c0 27.333 -7 48 -21 62s-33.667 21 -59 21h-44v60h36c26 0 47.167 8.16699 63.5 24.5s24.5 38.5 24.5 66.5
c0 30.667 -10.333 55.667 -31 75c-20 19.333 -51.333 29 -94 29c-82.667 0 -124 -45 -124 -135v-521h-73v524c0 62 18 110 54 144s85 51 147 51c56.667 0 103 -14 139 -42s54 -69.333 54 -124c0 -52 -21 -91.667 -63 -119c24 -12.667 40.5 -27.834 49.5 -45.501
s13.5 -42.5 13.5 -74.5v-173z" />
    <glyph glyph-name="agrave" unicode="&#x2021;" horiz-adv-x="526" 
d="M441 0l-72.002 -0.000976562v47c-20 -20 -40.333 -33.833 -61 -41.5s-47.667 -11.5 -81 -11.5c-63.333 0 -109.666 15 -138.999 45c-24.667 24.667 -37 58 -37 100c0 44 14.833 78.667 44.5 104s71.5 38 125.5 38h148v47c0 36.667 -10 63.834 -30 81.501
s-52 26.5 -96 26.5c-31.333 0 -56.166 -4.16699 -74.499 -12.5s-34.833 -22.833 -49.5 -43.5l-49 45c21.333 27.333 45.333 46.333 72 57s60.667 16 102 16c131.333 0 197 -54.667 197 -164v-334zM368.998 173.999l-0.000976562 53h-138c-73.333 0 -110 -29 -110 -87
c0 -56 37.667 -84 113 -84c50.667 0 87.334 11 110.001 33c16.667 16 25 44.333 25 85zM300.997 593.999h-66l-108 153h86z" />
    <glyph glyph-name="aacute" unicode="&#xb7;" horiz-adv-x="526" 
d="M441 0l-72.002 -0.000976562v47c-20 -20 -40.333 -33.833 -61 -41.5s-47.667 -11.5 -81 -11.5c-63.333 0 -109.666 15 -138.999 45c-24.667 24.667 -37 58 -37 100c0 44 14.833 78.667 44.5 104s71.5 38 125.5 38h148v47c0 36.667 -10 63.834 -30 81.501
s-52 26.5 -96 26.5c-31.333 0 -56.166 -4.16699 -74.499 -12.5s-34.833 -22.833 -49.5 -43.5l-49 45c21.333 27.333 45.333 46.333 72 57s60.667 16 102 16c131.333 0 197 -54.667 197 -164v-334zM368.998 173.999l-0.000976562 53h-138c-73.333 0 -110 -29 -110 -87
c0 -56 37.667 -84 113 -84c50.667 0 87.334 11 110.001 33c16.667 16 25 44.333 25 85zM376.997 746.999l-108 -153h-66l88 153h86z" />
    <glyph glyph-name="acircumflex" unicode="&#x201a;" horiz-adv-x="526" 
d="M441 0l-72.002 -0.000976562v47c-20 -20 -40.333 -33.833 -61 -41.5s-47.667 -11.5 -81 -11.5c-63.333 0 -109.666 15 -138.999 45c-24.667 24.667 -37 58 -37 100c0 44 14.833 78.667 44.5 104s71.5 38 125.5 38h148v47c0 36.667 -10 63.834 -30 81.501
s-52 26.5 -96 26.5c-31.333 0 -56.166 -4.16699 -74.499 -12.5s-34.833 -22.833 -49.5 -43.5l-49 45c21.333 27.333 45.333 46.333 72 57s60.667 16 102 16c131.333 0 197 -54.667 197 -164v-334zM368.998 173.999l-0.000976562 53h-138c-73.333 0 -110 -29 -110 -87
c0 -56 37.667 -84 113 -84c50.667 0 87.334 11 110.001 33c16.667 16 25 44.333 25 85zM410.997 593.999h-69l-90 104l-90 -104h-69l125 153h68z" />
    <glyph glyph-name="atilde" unicode="&#x201e;" horiz-adv-x="526" 
d="M441 0l-72.002 -0.000976562v47c-20 -20 -40.333 -33.833 -61 -41.5s-47.667 -11.5 -81 -11.5c-63.333 0 -109.666 15 -138.999 45c-24.667 24.667 -37 58 -37 100c0 44 14.833 78.667 44.5 104s71.5 38 125.5 38h148v47c0 36.667 -10 63.834 -30 81.501
s-52 26.5 -96 26.5c-31.333 0 -56.166 -4.16699 -74.499 -12.5s-34.833 -22.833 -49.5 -43.5l-49 45c21.333 27.333 45.333 46.333 72 57s60.667 16 102 16c131.333 0 197 -54.667 197 -164v-334zM368.998 173.999l-0.000976562 53h-138c-73.333 0 -110 -29 -110 -87
c0 -56 37.667 -84 113 -84c50.667 0 87.334 11 110.001 33c16.667 16 25 44.333 25 85zM408.997 657.999c-33.333 -34 -65.001 -51 -95.001 -51c-20 0 -43.667 8 -71 24c-23.333 13.333 -42 20 -56 20c-18 0 -37.667 -10.667 -59 -32l-37 36c34 34 65.667 51 95 51
c22.667 0 46.334 -8 71.001 -24c23.333 -13.333 42 -20 56 -20c18 0 37.667 10.667 59 32z" />
    <glyph glyph-name="adieresis" unicode="&#x2030;" horiz-adv-x="526" 
d="M441 0l-72.002 -0.000976562v47c-20 -20 -40.333 -33.833 -61 -41.5s-47.667 -11.5 -81 -11.5c-63.333 0 -109.666 15 -138.999 45c-24.667 24.667 -37 58 -37 100c0 44 14.833 78.667 44.5 104s71.5 38 125.5 38h148v47c0 36.667 -10 63.834 -30 81.501
s-52 26.5 -96 26.5c-31.333 0 -56.166 -4.16699 -74.499 -12.5s-34.833 -22.833 -49.5 -43.5l-49 45c21.333 27.333 45.333 46.333 72 57s60.667 16 102 16c131.333 0 197 -54.667 197 -164v-334zM368.998 173.999l-0.000976562 53h-138c-73.333 0 -110 -29 -110 -87
c0 -56 37.667 -84 113 -84c50.667 0 87.334 11 110.001 33c16.667 16 25 44.333 25 85zM393.997 601.999h-72v89h72v-89zM181.997 601.999h-72v89h72v-89z" />
    <glyph glyph-name="aring" unicode="&#xc2;" horiz-adv-x="526" 
d="M441 0l-72.002 -0.000976562v47c-20 -20 -40.333 -33.833 -61 -41.5s-47.667 -11.5 -81 -11.5c-63.333 0 -109.666 15 -138.999 45c-24.667 24.667 -37 58 -37 100c0 44 14.833 78.667 44.5 104s71.5 38 125.5 38h148v47c0 36.667 -10 63.834 -30 81.501
s-52 26.5 -96 26.5c-31.333 0 -56.166 -4.16699 -74.499 -12.5s-34.833 -22.833 -49.5 -43.5l-49 45c21.333 27.333 45.333 46.333 72 57s60.667 16 102 16c131.333 0 197 -54.667 197 -164v-334zM368.998 173.999l-0.000976562 53h-138c-73.333 0 -110 -29 -110 -87
c0 -56 37.667 -84 113 -84c50.667 0 87.334 11 110.001 33c16.667 16 25 44.333 25 85zM369.997 686.999c0 -32.667 -11.5 -60.667 -34.5 -84s-50.833 -35 -83.5 -35s-60.5 11.667 -83.5 35s-34.5 51.333 -34.5 84s11.5 60.5 34.5 83.5s50.833 34.5 83.5 34.5
s60.5 -11.5 83.5 -34.5s34.5 -50.833 34.5 -83.5zM320.997 686.999c0 18.667 -6.6709 34.667 -20.0039 48s-29.666 20 -48.999 20s-35.666 -6.66699 -48.999 -20s-20 -29.333 -20 -48c0 -19.333 6.83301 -35.666 20.5 -48.999s29.834 -20 48.501 -20
s34.834 6.66699 48.501 20s20.5 29.666 20.5 48.999z" />
    <glyph glyph-name="ae" unicode="&#xca;" horiz-adv-x="835" 
d="M773 227l-333.004 -0.000976562c0 -54 12.667 -95.833 38 -125.5s61.333 -44.5 108 -44.5c27.333 0 50.5 4.33301 69.5 13s38.5 23 58.5 43l50 -43c-26.667 -26.667 -53.667 -46 -81 -58s-61 -18 -101 -18c-81.333 0 -139.666 28.333 -174.999 85
c-22 -31.333 -46.667 -53.333 -74 -66s-62.666 -19 -105.999 -19c-63.333 0 -109.666 15 -138.999 45c-24.667 24.667 -37 58 -37 100c0 44 14.833 78.667 44.5 104s71.5 38 125.5 38h148v47c0 36.667 -10 63.834 -30 81.501s-52 26.5 -96 26.5
c-31.333 0 -56.166 -4.16699 -74.499 -12.5s-34.833 -22.833 -49.5 -43.5l-49 45c21.333 27.333 45.333 46.333 72 57s60.667 16 102 16c88 0 145.667 -25.667 173 -77c34.667 51.333 86 77 154 77c63.333 0 112.833 -21.333 148.5 -64s53.5 -100.667 53.5 -174v-33z
M368.996 173.999l-0.000976562 53h-138c-73.333 0 -110 -29 -110 -87c0 -56 37.667 -84 113 -84c50.667 0 87.334 11 110.001 33c16.667 16 25 44.333 25 85zM700.995 280.999c-2 34.667 -7.00098 62 -15.001 82c-9.33301 22.667 -24.333 40.667 -45 54s-44 20 -70 20
s-49.333 -6.66699 -70 -20s-35.667 -31.333 -45 -54c-9.33301 -22 -14.666 -49.333 -15.999 -82h261z" />
    <glyph glyph-name="ccedilla" unicode="&#xc1;" horiz-adv-x="490" 
d="M443 67c-25.333 -27.333 -50 -46.3311 -74 -56.998s-53.333 -16 -88 -16c-64.667 0 -117.167 21.667 -157.5 65s-60.5 105.666 -60.5 186.999s20.167 143.666 60.5 186.999s92.833 65 157.5 65c34.667 0 64 -5.33301 88 -16s48.667 -29.667 74 -57l-49 -46
c-18.667 20.667 -36.334 35 -53.001 43s-36.667 12 -60 12c-50 0 -88 -18.667 -114 -56c-21.333 -30 -32 -74 -32 -132s10.667 -102 32 -132c26 -37.333 64 -56 114 -56c23.333 0 43.333 4.16699 60 12.5s34.334 22.833 53.001 43.5zM313 -66.998l-59 -149h-79l71 149h67z
" />
    <glyph glyph-name="egrave" unicode="&#xcb;" 
d="M467 227h-331.999c0 -54 12.5 -95.833 37.5 -125.5s60.833 -44.5 107.5 -44.5c28 0 51.5 4.33301 70.5 13s38.5 23 58.5 43l49 -43c-26.667 -26.667 -53.334 -46 -80.001 -58s-60 -18 -100 -18c-67.333 0 -120 20.833 -158 62.5s-57 104.834 -57 189.501
c0 79.333 18 141.166 54 185.499s85.333 66.5 148 66.5c63.333 0 112.833 -21.333 148.5 -64s53.5 -100.667 53.5 -174v-33zM395.001 281c-2 34.667 -7 62 -15 82c-9.33301 22.667 -24.333 40.667 -45 54s-44 20 -70 20s-49.333 -6.66699 -70 -20s-35.667 -31.333 -45 -54
c-8 -20 -13 -47.333 -15 -82h260zM317.001 594h-66l-108 153h86z" />
    <glyph glyph-name="eacute" unicode="&#xc8;" 
d="M467 227h-331.999c0 -54 12.5 -95.833 37.5 -125.5s60.833 -44.5 107.5 -44.5c28 0 51.5 4.33301 70.5 13s38.5 23 58.5 43l49 -43c-26.667 -26.667 -53.334 -46 -80.001 -58s-60 -18 -100 -18c-67.333 0 -120 20.833 -158 62.5s-57 104.834 -57 189.501
c0 79.333 18 141.166 54 185.499s85.333 66.5 148 66.5c63.333 0 112.833 -21.333 148.5 -64s53.5 -100.667 53.5 -174v-33zM395.001 281c-2 34.667 -7 62 -15 82c-9.33301 22.667 -24.333 40.667 -45 54s-44 20 -70 20s-49.333 -6.66699 -70 -20s-35.667 -31.333 -45 -54
c-8 -20 -13 -47.333 -15 -82h260zM393.001 747l-108 -153h-66l88 153h86z" />
    <glyph glyph-name="ecircumflex" unicode="&#xcd;" 
d="M467 227h-331.999c0 -54 12.5 -95.833 37.5 -125.5s60.833 -44.5 107.5 -44.5c28 0 51.5 4.33301 70.5 13s38.5 23 58.5 43l49 -43c-26.667 -26.667 -53.334 -46 -80.001 -58s-60 -18 -100 -18c-67.333 0 -120 20.833 -158 62.5s-57 104.834 -57 189.501
c0 79.333 18 141.166 54 185.499s85.333 66.5 148 66.5c63.333 0 112.833 -21.333 148.5 -64s53.5 -100.667 53.5 -174v-33zM395.001 281c-2 34.667 -7 62 -15 82c-9.33301 22.667 -24.333 40.667 -45 54s-44 20 -70 20s-49.333 -6.66699 -70 -20s-35.667 -31.333 -45 -54
c-8 -20 -13 -47.333 -15 -82h260zM427.001 594h-69l-90 104l-90 -104h-69l125 153h68z" />
    <glyph glyph-name="edieresis" unicode="&#xce;" 
d="M467 227h-331.999c0 -54 12.5 -95.833 37.5 -125.5s60.833 -44.5 107.5 -44.5c28 0 51.5 4.33301 70.5 13s38.5 23 58.5 43l49 -43c-26.667 -26.667 -53.334 -46 -80.001 -58s-60 -18 -100 -18c-67.333 0 -120 20.833 -158 62.5s-57 104.834 -57 189.501
c0 79.333 18 141.166 54 185.499s85.333 66.5 148 66.5c63.333 0 112.833 -21.333 148.5 -64s53.5 -100.667 53.5 -174v-33zM395.001 281c-2 34.667 -7 62 -15 82c-9.33301 22.667 -24.333 40.667 -45 54s-44 20 -70 20s-49.333 -6.66699 -70 -20s-35.667 -31.333 -45 -54
c-8 -20 -13 -47.333 -15 -82h260zM409.001 602h-72v89h72v-89zM197.001 602h-72v89h72v-89z" />
    <glyph glyph-name="igrave" unicode="&#xcf;" horiz-adv-x="253" 
d="M162 0h-72v492h72v-492zM163 594h-66l-108 153h86z" />
    <glyph glyph-name="iacute" unicode="&#xcc;" horiz-adv-x="253" 
d="M162 0h-72v492h72v-492zM264 747l-108 -153h-66l88 153h86z" />
    <glyph glyph-name="icircumflex" unicode="&#xd3;" horiz-adv-x="253" 
d="M162 0h-72v492h72v-492zM288 594h-69l-90 104l-90 -104h-69l125 153h68z" />
    <glyph glyph-name="idieresis" unicode="&#xd4;" horiz-adv-x="253" 
d="M162 0h-72v492h72v-492zM269 602h-72v89h72v-89zM57 602h-72v89h72v-89z" />
    <glyph glyph-name="eth" unicode="&#xe01e;" 
d="M465 244c0 -90 -20.001 -154.999 -60.001 -194.999c-35.333 -36.667 -82 -55 -140 -55s-104.667 18.333 -140 55c-39.333 39.333 -59 104.333 -59 195s19.667 155.667 59 195c30.667 31.333 71.334 48.666 122.001 51.999c32.667 1.33301 57.667 -2 75 -10l-58 99h-116
v52h88l-47 82h75l47 -82h82v-52h-54l63 -111c26 -45.333 43 -83 51 -113s12 -67.333 12 -112zM392.999 244.001c0 74.667 -13 125 -39 151c-24 24 -53.667 36 -89 36c-34.667 0 -64 -12 -88 -36c-26 -26 -39 -76.333 -39 -151c0 -74 13 -124 39 -150
c24 -24 53.333 -36 88 -36c35.333 0 65 12 89 36c26 26 39 76 39 150z" />
    <glyph glyph-name="eth" unicode="&#xf8ff;" 
d="M465 244c0 -90 -20.001 -154.999 -60.001 -194.999c-35.333 -36.667 -82 -55 -140 -55s-104.667 18.333 -140 55c-39.333 39.333 -59 104.333 -59 195s19.667 155.667 59 195c30.667 31.333 71.334 48.666 122.001 51.999c32.667 1.33301 57.667 -2 75 -10l-58 99h-116
v52h88l-47 82h75l47 -82h82v-52h-54l63 -111c26 -45.333 43 -83 51 -113s12 -67.333 12 -112zM392.999 244.001c0 74.667 -13 125 -39 151c-24 24 -53.667 36 -89 36c-34.667 0 -64 -12 -88 -36c-26 -26 -39 -76.333 -39 -151c0 -74 13 -124 39 -150
c24 -24 53.333 -36 88 -36c35.333 0 65 12 89 36c26 26 39 76 39 150z" />
    <glyph glyph-name="ntilde" unicode="&#xd2;" horiz-adv-x="562" 
d="M477 0h-72v303c0 42.667 -10.667 75.167 -32 97.5s-51 33.5 -89 33.5s-67.833 -11.333 -89.5 -34s-32.5 -55 -32.5 -97v-303h-72v492h72v-54c34.667 40 80.667 60 138 60c53.333 0 95.333 -15.333 126 -46c34 -33.333 51 -79 51 -137v-315zM442 658
c-33.333 -34 -65 -51 -95 -51c-20 0 -43.667 8 -71 24c-23.333 13.333 -42 20 -56 20c-18 0 -37.667 -10.667 -59 -32l-37 36c34 34 65.667 51 95 51c22 0 45.667 -8 71 -24c23.333 -13.333 42 -20 56 -20c18 0 37.667 10.667 59 32z" />
    <glyph glyph-name="ograve" unicode="&#xda;" 
d="M466 246c0 -90 -20 -155.333 -60 -196c-37.333 -37.333 -84.333 -56 -141 -56s-103.667 18.667 -141 56c-40 40.667 -60 106 -60 196s20 155.333 60 196c37.333 37.333 84.333 56 141 56s103.667 -18.667 141 -56c40 -40.667 60 -106 60 -196zM394 246
c0 75.333 -13 126.002 -39 152.002c-24 24 -54 36 -90 36c-35.333 0 -65 -12 -89 -36c-26.667 -26.667 -40 -77.334 -40 -152.001s13.333 -125.334 40 -152.001c24 -24 53.667 -36 89 -36c36 0 66 12 90 36c26 26 39 76.667 39 152zM304 594.002h-66l-108 153h86z" />
    <glyph glyph-name="oacute" unicode="&#xdb;" 
d="M466 246c0 -90 -20 -155.333 -60 -196c-37.333 -37.333 -84.333 -56 -141 -56s-103.667 18.667 -141 56c-40 40.667 -60 106 -60 196s20 155.333 60 196c37.333 37.333 84.333 56 141 56s103.667 -18.667 141 -56c40 -40.667 60 -106 60 -196zM394 246
c0 75.333 -13 126.002 -39 152.002c-24 24 -54 36 -90 36c-35.333 0 -65 -12 -89 -36c-26.667 -26.667 -40 -77.334 -40 -152.001s13.333 -125.334 40 -152.001c24 -24 53.667 -36 89 -36c36 0 66 12 90 36c26 26 39 76.667 39 152zM390 747.002l-108 -153h-66l88 153h86z
" />
    <glyph glyph-name="ocircumflex" unicode="&#xd9;" 
d="M466 246c0 -90 -20 -155.333 -60 -196c-37.333 -37.333 -84.333 -56 -141 -56s-103.667 18.667 -141 56c-40 40.667 -60 106 -60 196s20 155.333 60 196c37.333 37.333 84.333 56 141 56s103.667 -18.667 141 -56c40 -40.667 60 -106 60 -196zM394 246
c0 75.333 -13 126.002 -39 152.002c-24 24 -54 36 -90 36c-35.333 0 -65 -12 -89 -36c-26.667 -26.667 -40 -77.334 -40 -152.001s13.333 -125.334 40 -152.001c24 -24 53.667 -36 89 -36c36 0 66 12 90 36c26 26 39 76.667 39 152zM424 594.002h-69l-90 104l-90 -104h-69
l125 153h68z" />
    <glyph glyph-name="otilde" unicode="&#x131;" 
d="M466 246c0 -90 -20 -155.333 -60 -196c-37.333 -37.333 -84.333 -56 -141 -56s-103.667 18.667 -141 56c-40 40.667 -60 106 -60 196s20 155.333 60 196c37.333 37.333 84.333 56 141 56s103.667 -18.667 141 -56c40 -40.667 60 -106 60 -196zM394 246
c0 75.333 -13 126.002 -39 152.002c-24 24 -54 36 -90 36c-35.333 0 -65 -12 -89 -36c-26.667 -26.667 -40 -77.334 -40 -152.001s13.333 -125.334 40 -152.001c24 -24 53.667 -36 89 -36c36 0 66 12 90 36c26 26 39 76.667 39 152zM422 658.002
c-33.333 -34 -65.001 -51 -95.001 -51c-20 0 -43.667 8 -71 24c-23.333 13.333 -42 20 -56 20c-18 0 -37.667 -10.667 -59 -32l-37 36c34 34 65.667 51 95 51c22.667 0 46.334 -8 71.001 -24c23.333 -13.333 42 -20 56 -20c18 0 37.667 10.667 59 32z" />
    <glyph glyph-name="odieresis" unicode="&#x2c6;" 
d="M466 246c0 -90 -20 -155.333 -60 -196c-37.333 -37.333 -84.333 -56 -141 -56s-103.667 18.667 -141 56c-40 40.667 -60 106 -60 196s20 155.333 60 196c37.333 37.333 84.333 56 141 56s103.667 -18.667 141 -56c40 -40.667 60 -106 60 -196zM394 246
c0 75.333 -13 126.002 -39 152.002c-24 24 -54 36 -90 36c-35.333 0 -65 -12 -89 -36c-26.667 -26.667 -40 -77.334 -40 -152.001s13.333 -125.334 40 -152.001c24 -24 53.667 -36 89 -36c36 0 66 12 90 36c26 26 39 76.667 39 152zM407 602.002h-72v89h72v-89zM195 602.002
h-72v89h72v-89z" />
    <glyph glyph-name="divide" unicode="&#x2dc;" horiz-adv-x="522" 
d="M471 236h-420v67h420v-67zM304 49h-86v86h86v-86zM304 404h-86v86h86v-86z" />
    <glyph glyph-name="oslash" unicode="&#xaf;" 
d="M466 246c0 -90 -20 -155.333 -60 -196c-37.333 -37.333 -84.333 -56 -141 -56c-39.333 0 -74.333 9 -105 27l-38 -65h-57l57 96c-38.667 40 -58 104.667 -58 194c0 90 20 155.333 60 196c37.333 37.333 84.333 56 141 56c39.333 0 74.333 -9 105 -27l39 65h56l-57 -96
c38.667 -40 58 -104.667 58 -194zM394 246c0 62.667 -8 107 -24 133l-177 -299c20.667 -14.667 44.667 -22 72 -22c36 0 66 12 90 36c26 26 39 76.667 39 152zM337 413c-20 14 -44 21 -72 21c-35.333 0 -65 -12 -89 -36c-26.667 -26.667 -40 -77.334 -40 -152.001
c0 -61.333 8.33301 -105.666 25 -132.999z" />
    <glyph glyph-name="ugrave" unicode="&#x2d8;" horiz-adv-x="562" 
d="M472 0h-71.001v55c-35.333 -40.667 -81.666 -61 -138.999 -61c-54 0 -96.333 15.333 -127 46c-33.333 32.667 -50 78.667 -50 138v314h72v-303c0 -42.667 10.5 -75.167 31.5 -97.5s50.5 -33.5 88.5 -33.5s68 11.333 90 34s33 55 33 97v303h72v-492zM326.999 594h-66
l-108 153h86z" />
    <glyph glyph-name="uacute" unicode="&#x2d9;" horiz-adv-x="562" 
d="M472 0h-71.001v55c-35.333 -40.667 -81.666 -61 -138.999 -61c-54 0 -96.333 15.333 -127 46c-33.333 32.667 -50 78.667 -50 138v314h72v-303c0 -42.667 10.5 -75.167 31.5 -97.5s50.5 -33.5 88.5 -33.5s68 11.333 90 34s33 55 33 97v303h72v-492zM402.999 747
l-108 -153h-66l88 153h86z" />
    <glyph glyph-name="ucircumflex" unicode="&#x2da;" horiz-adv-x="562" 
d="M472 0h-71.001v55c-35.333 -40.667 -81.666 -61 -138.999 -61c-54 0 -96.333 15.333 -127 46c-33.333 32.667 -50 78.667 -50 138v314h72v-303c0 -42.667 10.5 -75.167 31.5 -97.5s50.5 -33.5 88.5 -33.5s68 11.333 90 34s33 55 33 97v303h72v-492zM436.999 594h-69
l-90 104l-90 -104h-69l125 153h68z" />
    <glyph glyph-name="udieresis" unicode="&#xb8;" horiz-adv-x="562" 
d="M472 0h-71.001v55c-35.333 -40.667 -81.666 -61 -138.999 -61c-54 0 -96.333 15.333 -127 46c-33.333 32.667 -50 78.667 -50 138v314h72v-303c0 -42.667 10.5 -75.167 31.5 -97.5s50.5 -33.5 88.5 -33.5s68 11.333 90 34s33 55 33 97v303h72v-492zM418.999 602h-72v89
h72v-89zM206.999 602h-72v89h72v-89z" />
    <glyph glyph-name="yacute" unicode="&#x2dd;" horiz-adv-x="445" 
d="M436 492l-224 -611c-9.33301 -26 -21 -45.333 -35 -58c-23.333 -22.667 -55.333 -34 -96 -34h-31v64h22c24 0 41.5 4.33301 52.5 13s20.5 24.667 28.5 48l35 96l-177 482h78l135 -395l134 395h78zM349 747l-108 -153h-66l88 153h86z" />
    <glyph glyph-name="thorn" unicode="&#x2db;" horiz-adv-x="546" 
d="M481 246c0 -99.333 -20.001 -169 -60.001 -209c-28.667 -28.667 -68.667 -43 -120 -43c-59.333 0 -105.666 21.333 -138.999 64v-278h-72v932h72v-277c32.667 42 79 63 139 63c51.333 0 91.333 -14.333 120 -43c40 -40 60 -109.667 60 -209zM408.999 246
c0 27.333 -1.5 51 -4.5 71s-8.5 39.5 -16.5 58.5s-20.667 33.5 -38 43.5s-38.666 15 -63.999 15s-46.666 -5 -63.999 -15s-30.166 -24.5 -38.499 -43.5s-14 -38.5 -17 -58.5s-4.5 -43.667 -4.5 -71s1.5 -51 4.5 -71s8.66699 -39.5 17 -58.5s21.166 -33.5 38.499 -43.5
s38.666 -15 63.999 -15s46.666 5 63.999 15s30 24.5 38 43.5s13.5 38.5 16.5 58.5s4.5 43.667 4.5 71z" />
    <glyph glyph-name="ydieresis" unicode="&#x2c7;" horiz-adv-x="445" 
d="M436 492l-224 -611c-9.33301 -26 -21 -45.333 -35 -58c-23.333 -22.667 -55.333 -34 -96 -34h-31v64h22c24 0 41.5 4.33301 52.5 13s20.5 24.667 28.5 48l35 96l-177 482h78l135 -395l134 395h78zM366 602h-72v89h72v-89zM154 602h-72v89h72v-89z" />
    <glyph glyph-name="Amacron" horiz-adv-x="611" 
d="M599 0h-81l-57 161h-311l-57 -161h-81l262 712h64zM439 227l-132 376l-134 -376h266zM154 798v57h301v-57h-301z" />
    <glyph glyph-name="amacron" horiz-adv-x="526" 
d="M441 0l-72.002 -0.000976562v47c-20 -20 -40.333 -33.833 -61 -41.5s-47.667 -11.5 -81 -11.5c-63.333 0 -109.666 15 -138.999 45c-24.667 24.667 -37 58 -37 100c0 44 14.833 78.667 44.5 104s71.5 38 125.5 38h148v47c0 36.667 -10 63.834 -30 81.501
s-52 26.5 -96 26.5c-31.333 0 -56.166 -4.16699 -74.499 -12.5s-34.833 -22.833 -49.5 -43.5l-49 45c21.333 27.333 45.333 46.333 72 57s60.667 16 102 16c131.333 0 197 -54.667 197 -164v-334zM368.998 173.999l-0.000976562 53h-138c-73.333 0 -110 -29 -110 -87
c0 -56 37.667 -84 113 -84c50.667 0 87.334 11 110.001 33c16.667 16 25 44.333 25 85zM413.997 601.999h-302v57h302v-57z" />
    <glyph glyph-name="Abreve" horiz-adv-x="611" 
d="M599 0h-81l-57 161h-311l-57 -161h-81l262 712h64zM439 227l-132 376l-134 -376h266zM472 928c-8 -92.667 -62.998 -139 -164.998 -139s-157 46.333 -165 139h56c3.33301 -26.667 14.666 -47.167 33.999 -61.5s44.333 -21.5 75 -21.5s55.667 7.16699 75 21.5
s30.666 34.833 33.999 61.5h56z" />
    <glyph glyph-name="abreve" horiz-adv-x="526" 
d="M441 0l-72.002 -0.000976562v47c-20 -20 -40.333 -33.833 -61 -41.5s-47.667 -11.5 -81 -11.5c-63.333 0 -109.666 15 -138.999 45c-24.667 24.667 -37 58 -37 100c0 44 14.833 78.667 44.5 104s71.5 38 125.5 38h148v47c0 36.667 -10 63.834 -30 81.501
s-52 26.5 -96 26.5c-31.333 0 -56.166 -4.16699 -74.499 -12.5s-34.833 -22.833 -49.5 -43.5l-49 45c21.333 27.333 45.333 46.333 72 57s60.667 16 102 16c131.333 0 197 -54.667 197 -164v-334zM368.998 173.999l-0.000976562 53h-138c-73.333 0 -110 -29 -110 -87
c0 -56 37.667 -84 113 -84c50.667 0 87.334 11 110.001 33c16.667 16 25 44.333 25 85zM408.997 708.999c-8 -92.667 -62.998 -139 -164.998 -139s-157 46.333 -165 139h56c3.33301 -26.667 14.666 -47.167 33.999 -61.5s44.333 -21.5 75 -21.5s55.667 7.16699 75 21.5
s30.666 34.833 33.999 61.5h56z" />
    <glyph glyph-name="Aogonek" horiz-adv-x="611" 
d="M599 0h-81l-57 161h-311l-57 -161h-81l262 712h64zM439 227l-132 376l-134 -376h266zM585 -67l-59 -149h-79l71 149h67z" />
    <glyph glyph-name="aogonek" horiz-adv-x="526" 
d="M441 0l-72.002 -0.000976562v47c-20 -20 -40.333 -33.833 -61 -41.5s-47.667 -11.5 -81 -11.5c-63.333 0 -109.666 15 -138.999 45c-24.667 24.667 -37 58 -37 100c0 44 14.833 78.667 44.5 104s71.5 38 125.5 38h148v47c0 36.667 -10 63.834 -30 81.501
s-52 26.5 -96 26.5c-31.333 0 -56.166 -4.16699 -74.499 -12.5s-34.833 -22.833 -49.5 -43.5l-49 45c21.333 27.333 45.333 46.333 72 57s60.667 16 102 16c131.333 0 197 -54.667 197 -164v-334zM368.998 173.999l-0.000976562 53h-138c-73.333 0 -110 -29 -110 -87
c0 -56 37.667 -84 113 -84c50.667 0 87.334 11 110.001 33c16.667 16 25 44.333 25 85zM435.997 -67.001l-59 -149h-79l71 149h67z" />
    <glyph glyph-name="Cacute" horiz-adv-x="637" 
d="M572 206c-11.333 -66 -39.332 -117.833 -83.999 -155.5s-99 -56.5 -163 -56.5c-72 0 -132.667 24.667 -182 74c-30.667 30.667 -49.5 64.5 -56.5 101.5s-10.5 99.167 -10.5 186.5s3.5 149.5 10.5 186.5s25.833 70.833 56.5 101.5c49.333 49.333 110 74 182 74
c64.667 0 119 -18.667 163 -56s72 -89.333 84 -156h-78c-9.33301 44 -28.833 79 -58.5 105s-66.5 39 -110.5 39c-50 0 -91 -16.667 -123 -50c-21.333 -22 -35 -48.667 -41 -80s-9 -86 -9 -164s3 -132.667 9 -164s19.667 -58 41 -80c32 -33.333 73 -50 123 -50
c44 0 81.167 13 111.5 39s50.166 61 59.499 105h76zM443.001 934l-108 -153h-66l88 153h86z" />
    <glyph glyph-name="cacute" horiz-adv-x="490" 
d="M443 67c-25.333 -27.333 -50 -46.3311 -74 -56.998s-53.333 -16 -88 -16c-64.667 0 -117.167 21.667 -157.5 65s-60.5 105.666 -60.5 186.999s20.167 143.666 60.5 186.999s92.833 65 157.5 65c34.667 0 64 -5.33301 88 -16s48.667 -29.667 74 -57l-49 -46
c-18.667 20.667 -36.334 35 -53.001 43s-36.667 12 -60 12c-50 0 -88 -18.667 -114 -56c-21.333 -30 -32 -74 -32 -132s10.667 -102 32 -132c26 -37.333 64 -56 114 -56c23.333 0 43.333 4.16699 60 12.5s34.334 22.833 53.001 43.5zM391 747.002l-108 -153h-66l88 153h86z
" />
    <glyph glyph-name="Ccircumflex" horiz-adv-x="637" 
d="M572 206c-11.333 -66 -39.332 -117.833 -83.999 -155.5s-99 -56.5 -163 -56.5c-72 0 -132.667 24.667 -182 74c-30.667 30.667 -49.5 64.5 -56.5 101.5s-10.5 99.167 -10.5 186.5s3.5 149.5 10.5 186.5s25.833 70.833 56.5 101.5c49.333 49.333 110 74 182 74
c64.667 0 119 -18.667 163 -56s72 -89.333 84 -156h-78c-9.33301 44 -28.833 79 -58.5 105s-66.5 39 -110.5 39c-50 0 -91 -16.667 -123 -50c-21.333 -22 -35 -48.667 -41 -80s-9 -86 -9 -164s3 -132.667 9 -164s19.667 -58 41 -80c32 -33.333 73 -50 123 -50
c44 0 81.167 13 111.5 39s50.166 61 59.499 105h76zM484.001 781h-69l-90 104l-90 -104h-69l125 153h68z" />
    <glyph glyph-name="ccircumflex" horiz-adv-x="490" 
d="M443 67c-25.333 -27.333 -50 -46.3311 -74 -56.998s-53.333 -16 -88 -16c-64.667 0 -117.167 21.667 -157.5 65s-60.5 105.666 -60.5 186.999s20.167 143.666 60.5 186.999s92.833 65 157.5 65c34.667 0 64 -5.33301 88 -16s48.667 -29.667 74 -57l-49 -46
c-18.667 20.667 -36.334 35 -53.001 43s-36.667 12 -60 12c-50 0 -88 -18.667 -114 -56c-21.333 -30 -32 -74 -32 -132s10.667 -102 32 -132c26 -37.333 64 -56 114 -56c23.333 0 43.333 4.16699 60 12.5s34.334 22.833 53.001 43.5zM439 594.002h-69l-90 104l-90 -104h-69
l125 153h68z" />
    <glyph glyph-name="Cdotaccent" horiz-adv-x="637" 
d="M572 206c-11.333 -66 -39.332 -117.833 -83.999 -155.5s-99 -56.5 -163 -56.5c-72 0 -132.667 24.667 -182 74c-30.667 30.667 -49.5 64.5 -56.5 101.5s-10.5 99.167 -10.5 186.5s3.5 149.5 10.5 186.5s25.833 70.833 56.5 101.5c49.333 49.333 110 74 182 74
c64.667 0 119 -18.667 163 -56s72 -89.333 84 -156h-78c-9.33301 44 -28.833 79 -58.5 105s-66.5 39 -110.5 39c-50 0 -91 -16.667 -123 -50c-21.333 -22 -35 -48.667 -41 -80s-9 -86 -9 -164s3 -132.667 9 -164s19.667 -58 41 -80c32 -33.333 73 -50 123 -50
c44 0 81.167 13 111.5 39s50.166 61 59.499 105h76zM286.001 797v76h75v-76h-75z" />
    <glyph glyph-name="cdotaccent" horiz-adv-x="490" 
d="M443 67c-25.333 -27.333 -50 -46.3311 -74 -56.998s-53.333 -16 -88 -16c-64.667 0 -117.167 21.667 -157.5 65s-60.5 105.666 -60.5 186.999s20.167 143.666 60.5 186.999s92.833 65 157.5 65c34.667 0 64 -5.33301 88 -16s48.667 -29.667 74 -57l-49 -46
c-18.667 20.667 -36.334 35 -53.001 43s-36.667 12 -60 12c-50 0 -88 -18.667 -114 -56c-21.333 -30 -32 -74 -32 -132s10.667 -102 32 -132c26 -37.333 64 -56 114 -56c23.333 0 43.333 4.16699 60 12.5s34.334 22.833 53.001 43.5zM242 610.002v77h75v-77h-75z" />
    <glyph glyph-name="Ccaron" horiz-adv-x="637" 
d="M572 206c-11.333 -66 -39.332 -117.833 -83.999 -155.5s-99 -56.5 -163 -56.5c-72 0 -132.667 24.667 -182 74c-30.667 30.667 -49.5 64.5 -56.5 101.5s-10.5 99.167 -10.5 186.5s3.5 149.5 10.5 186.5s25.833 70.833 56.5 101.5c49.333 49.333 110 74 182 74
c64.667 0 119 -18.667 163 -56s72 -89.333 84 -156h-78c-9.33301 44 -28.833 79 -58.5 105s-66.5 39 -110.5 39c-50 0 -91 -16.667 -123 -50c-21.333 -22 -35 -48.667 -41 -80s-9 -86 -9 -164s3 -132.667 9 -164s19.667 -58 41 -80c32 -33.333 73 -50 123 -50
c44 0 81.167 13 111.5 39s50.166 61 59.499 105h76zM477.001 934l-125 -153h-68l-125 153h69l90 -105l90 105h69z" />
    <glyph glyph-name="ccaron" horiz-adv-x="490" 
d="M443 67c-25.333 -27.333 -50 -46.3311 -74 -56.998s-53.333 -16 -88 -16c-64.667 0 -117.167 21.667 -157.5 65s-60.5 105.666 -60.5 186.999s20.167 143.666 60.5 186.999s92.833 65 157.5 65c34.667 0 64 -5.33301 88 -16s48.667 -29.667 74 -57l-49 -46
c-18.667 20.667 -36.334 35 -53.001 43s-36.667 12 -60 12c-50 0 -88 -18.667 -114 -56c-21.333 -30 -32 -74 -32 -132s10.667 -102 32 -132c26 -37.333 64 -56 114 -56c23.333 0 43.333 4.16699 60 12.5s34.334 22.833 53.001 43.5zM440 747.002l-125 -153h-68l-125 153h69
l90 -105l90 105h69z" />
    <glyph glyph-name="Dcaron" horiz-adv-x="673" 
d="M597 364c0 -89.333 -4.33203 -152.332 -12.999 -188.999c-11.333 -46 -30.333 -82.333 -57 -109c-44 -44 -104 -66 -180 -66h-244v712h244c76 0 136 -22 180 -66c14 -14 25.833 -30.833 35.5 -50.5s16.667 -36.334 21 -50.001s7.66602 -34.667 9.99902 -63
s3.5 -46.833 3.5 -55.5v-63zM521.001 364.001c0 41.333 -0.333008 71.502 -1 90.502s-4.66699 42.667 -12 71s-18.666 50.5 -33.999 66.5c-34 34.667 -80.667 52 -140 52h-155v-576h155c59.333 0 106 17.333 140 52c15.333 16 26.666 39.667 33.999 71
s11.333 57.166 12 77.499s1 52.166 1 95.499zM495.001 934.003l-125 -153h-68l-125 153h69l90 -105l90 105h69z" />
    <glyph glyph-name="dcaron" horiz-adv-x="545" 
d="M455 0h-71v59c-33.333 -43.333 -80 -65 -140 -65c-51.333 0 -91.333 14.333 -120 43c-40 40 -60 109.667 -60 209s20 169 60 209c28.667 28.667 68.667 43 120 43c60 0 106.333 -21 139 -63v277h72v-712zM383 246c0 27.333 -1.5 51 -4.5 71s-8.5 39.5 -16.5 58.5
s-20.667 33.5 -38 43.5s-38.666 15 -63.999 15s-46.666 -5 -63.999 -15s-30.166 -24.5 -38.499 -43.5s-14 -38.5 -17 -58.5s-4.5 -43.667 -4.5 -71s1.5 -51 4.5 -71s8.66699 -39.5 17 -58.5s21.166 -33.5 38.499 -43.5s38.666 -15 63.999 -15s46.666 5 63.999 15
s30 24.5 38 43.5s13.5 38.5 16.5 58.5s4.5 43.667 4.5 71zM626 719l-51 -152h-58l39 152h70z" />
    <glyph glyph-name="Dcroat" horiz-adv-x="687" 
d="M611 356c0 -81.333 -2.66699 -136.832 -8 -166.499s-17.333 -57.834 -36 -84.501c-50 -70 -120.333 -105 -211 -105h-239v330h-78v59h78v323h245c90 0 158.333 -35.667 205 -107c20 -30.667 32.333 -60 37 -88s7 -81.667 7 -161zM535 352.001
c0 71.333 -2.00098 120.332 -6.00098 146.999s-14 51.334 -30 74.001c-35.333 48 -85.666 72 -150.999 72h-154v-256h161v-59h-161v-263h154c70.667 0 122.667 24.667 156 74c14 21.333 22.667 44 26 68s5 71.667 5 143z" />
    <glyph glyph-name="dcroat" horiz-adv-x="545" 
d="M523 572h-68v-572h-71v59c-33.333 -43.333 -80 -65 -140 -65c-51.333 0 -91.333 14.333 -120 43c-40 40 -60 109.667 -60 209s20 169 60 209c28.667 28.667 68.667 43 120 43c60 0 106.333 -21 139 -63v137h-82v48h82v92h72v-92h68v-48zM383 246
c0 27.333 -1.5 51 -4.5 71s-8.5 39.5 -16.5 58.5s-20.667 33.5 -38 43.5s-38.666 15 -63.999 15s-46.666 -5 -63.999 -15s-30.166 -24.5 -38.499 -43.5s-14 -38.5 -17 -58.5s-4.5 -43.667 -4.5 -71s1.5 -51 4.5 -71s8.66699 -39.5 17 -58.5s21.166 -33.5 38.499 -43.5
s38.666 -15 63.999 -15s46.666 5 63.999 15s30 24.5 38 43.5s13.5 38.5 16.5 58.5s4.5 43.667 4.5 71z" />
    <glyph glyph-name="Emacron" horiz-adv-x="600" 
d="M545 0h-442v712h442v-68h-366v-251h312v-68h-312v-257h366v-68zM161 798v57h301v-57h-301z" />
    <glyph glyph-name="emacron" 
d="M467 227h-331.999c0 -54 12.5 -95.833 37.5 -125.5s60.833 -44.5 107.5 -44.5c28 0 51.5 4.33301 70.5 13s38.5 23 58.5 43l49 -43c-26.667 -26.667 -53.334 -46 -80.001 -58s-60 -18 -100 -18c-67.333 0 -120 20.833 -158 62.5s-57 104.834 -57 189.501
c0 79.333 18 141.166 54 185.499s85.333 66.5 148 66.5c63.333 0 112.833 -21.333 148.5 -64s53.5 -100.667 53.5 -174v-33zM395.001 281c-2 34.667 -7 62 -15 82c-9.33301 22.667 -24.333 40.667 -45 54s-44 20 -70 20s-49.333 -6.66699 -70 -20s-35.667 -31.333 -45 -54
c-8 -20 -13 -47.333 -15 -82h260zM415.001 602h-302v57h302v-57z" />
    <glyph glyph-name="Edotaccent" horiz-adv-x="600" 
d="M545 0h-442v712h442v-68h-366v-251h312v-68h-312v-257h366v-68zM274 797v76h75v-76h-75z" />
    <glyph glyph-name="edotaccent" 
d="M467 227h-331.999c0 -54 12.5 -95.833 37.5 -125.5s60.833 -44.5 107.5 -44.5c28 0 51.5 4.33301 70.5 13s38.5 23 58.5 43l49 -43c-26.667 -26.667 -53.334 -46 -80.001 -58s-60 -18 -100 -18c-67.333 0 -120 20.833 -158 62.5s-57 104.834 -57 189.501
c0 79.333 18 141.166 54 185.499s85.333 66.5 148 66.5c63.333 0 112.833 -21.333 148.5 -64s53.5 -100.667 53.5 -174v-33zM395.001 281c-2 34.667 -7 62 -15 82c-9.33301 22.667 -24.333 40.667 -45 54s-44 20 -70 20s-49.333 -6.66699 -70 -20s-35.667 -31.333 -45 -54
c-8 -20 -13 -47.333 -15 -82h260zM226.001 610v77h75v-77h-75z" />
    <glyph glyph-name="Eogonek" horiz-adv-x="600" 
d="M545 0h-442v712h442v-68h-366v-251h312v-68h-312v-257h366v-68zM545 -67l-59 -149h-79l71 149h67z" />
    <glyph glyph-name="eogonek" 
d="M467 227h-331.999c0 -54 12.5 -95.833 37.5 -125.5s60.833 -44.5 107.5 -44.5c28 0 51.5 4.33301 70.5 13s38.5 23 58.5 43l49 -43c-26.667 -26.667 -53.334 -46 -80.001 -58s-60 -18 -100 -18c-67.333 0 -120 20.833 -158 62.5s-57 104.834 -57 189.501
c0 79.333 18 141.166 54 185.499s85.333 66.5 148 66.5c63.333 0 112.833 -21.333 148.5 -64s53.5 -100.667 53.5 -174v-33zM395.001 281c-2 34.667 -7 62 -15 82c-9.33301 22.667 -24.333 40.667 -45 54s-44 20 -70 20s-49.333 -6.66699 -70 -20s-35.667 -31.333 -45 -54
c-8 -20 -13 -47.333 -15 -82h260zM369.001 -67l-59 -149h-79l71 149h67z" />
    <glyph glyph-name="Ecaron" horiz-adv-x="600" 
d="M545 0h-442v712h442v-68h-366v-251h312v-68h-312v-257h366v-68zM470 934l-125 -153h-68l-125 153h69l90 -105l90 105h69z" />
    <glyph glyph-name="ecaron" 
d="M467 227h-331.999c0 -54 12.5 -95.833 37.5 -125.5s60.833 -44.5 107.5 -44.5c28 0 51.5 4.33301 70.5 13s38.5 23 58.5 43l49 -43c-26.667 -26.667 -53.334 -46 -80.001 -58s-60 -18 -100 -18c-67.333 0 -120 20.833 -158 62.5s-57 104.834 -57 189.501
c0 79.333 18 141.166 54 185.499s85.333 66.5 148 66.5c63.333 0 112.833 -21.333 148.5 -64s53.5 -100.667 53.5 -174v-33zM395.001 281c-2 34.667 -7 62 -15 82c-9.33301 22.667 -24.333 40.667 -45 54s-44 20 -70 20s-49.333 -6.66699 -70 -20s-35.667 -31.333 -45 -54
c-8 -20 -13 -47.333 -15 -82h260zM424.001 747l-125 -153h-68l-125 153h69l90 -105l90 105h69z" />
    <glyph glyph-name="Gcircumflex" horiz-adv-x="650" 
d="M576 260c0 -79.333 -20.333 -140.667 -61 -184c-50.667 -54.667 -114 -82 -190 -82c-72 0 -132.667 24.667 -182 74c-30.667 30.667 -49.5 64.5 -56.5 101.5s-10.5 99.167 -10.5 186.5s3.5 149.5 10.5 186.5s25.833 70.833 56.5 101.5c49.333 49.333 110 74 182 74
c66.667 0 122.167 -19.5 166.5 -58.5s71.833 -90.5 82.5 -154.5h-76c-10 45.333 -30.333 80.833 -61 106.5s-68 38.5 -112 38.5c-49.333 0 -90.333 -17 -123 -51c-21.333 -22 -35 -48.5 -41 -79.5s-9 -85.5 -9 -163.5s3 -132.667 9 -164s19.667 -58 41 -80
c32 -33.333 73 -50 123 -50c56.667 0 101.667 20.333 135 61c26.667 32 40 75 40 129v54h-175v67h251v-113zM484 780.999h-69l-90 104l-90 -104h-69l125 153h68z" />
    <glyph glyph-name="gcircumflex" horiz-adv-x="543" 
d="M453 -15c0 -62 -18.332 -112.667 -54.999 -152s-86.667 -59 -150 -59c-36 0 -66.167 5 -90.5 15s-49.833 27 -76.5 51l47 46c20 -18 38 -30.667 54 -38s37.333 -11 64 -11c45.333 0 79.166 14 101.499 42s33.5 64.333 33.5 109v77c-33.333 -42.667 -79.333 -64 -138 -64
c-50 0 -89.667 14.667 -119 44c-40 40 -60 108.333 -60 205s20 165 60 205c28.667 28.667 68.667 43 120 43c59.333 0 105.333 -21.333 138 -64v58h71v-507zM381.001 250c0 26 -1.5 48.667 -4.5 68s-8.5 38.5 -16.5 57.5s-20.5 33.5 -37.5 43.5s-38.167 15 -63.5 15
s-46.666 -5 -63.999 -15s-30 -24.5 -38 -43.5s-13.5 -38.167 -16.5 -57.5s-4.5 -42 -4.5 -68s1.5 -48.667 4.5 -68s8.5 -38.5 16.5 -57.5s20.667 -33.5 38 -43.5s38.666 -15 63.999 -15s46.5 5 63.5 15s29.5 24.5 37.5 43.5s13.5 38.167 16.5 57.5s4.5 42 4.5 68z
M418.001 594h-69l-90 104l-90 -104h-69l125 153h68z" />
    <glyph glyph-name="Gbreve" horiz-adv-x="650" 
d="M576 260c0 -79.333 -20.333 -140.667 -61 -184c-50.667 -54.667 -114 -82 -190 -82c-72 0 -132.667 24.667 -182 74c-30.667 30.667 -49.5 64.5 -56.5 101.5s-10.5 99.167 -10.5 186.5s3.5 149.5 10.5 186.5s25.833 70.833 56.5 101.5c49.333 49.333 110 74 182 74
c66.667 0 122.167 -19.5 166.5 -58.5s71.833 -90.5 82.5 -154.5h-76c-10 45.333 -30.333 80.833 -61 106.5s-68 38.5 -112 38.5c-49.333 0 -90.333 -17 -123 -51c-21.333 -22 -35 -48.5 -41 -79.5s-9 -85.5 -9 -163.5s3 -132.667 9 -164s19.667 -58 41 -80
c32 -33.333 73 -50 123 -50c56.667 0 101.667 20.333 135 61c26.667 32 40 75 40 129v54h-175v67h251v-113zM490 927.999c-8 -92.667 -62.998 -139 -164.998 -139s-157 46.333 -165 139h56c3.33301 -26.667 14.666 -47.167 33.999 -61.5s44.333 -21.5 75 -21.5
s55.667 7.16699 75 21.5s30.666 34.833 33.999 61.5h56z" />
    <glyph glyph-name="gbreve" horiz-adv-x="543" 
d="M453 -15c0 -62 -18.332 -112.667 -54.999 -152s-86.667 -59 -150 -59c-36 0 -66.167 5 -90.5 15s-49.833 27 -76.5 51l47 46c20 -18 38 -30.667 54 -38s37.333 -11 64 -11c45.333 0 79.166 14 101.499 42s33.5 64.333 33.5 109v77c-33.333 -42.667 -79.333 -64 -138 -64
c-50 0 -89.667 14.667 -119 44c-40 40 -60 108.333 -60 205s20 165 60 205c28.667 28.667 68.667 43 120 43c59.333 0 105.333 -21.333 138 -64v58h71v-507zM381.001 250c0 26 -1.5 48.667 -4.5 68s-8.5 38.5 -16.5 57.5s-20.5 33.5 -37.5 43.5s-38.167 15 -63.5 15
s-46.666 -5 -63.999 -15s-30 -24.5 -38 -43.5s-13.5 -38.167 -16.5 -57.5s-4.5 -42 -4.5 -68s1.5 -48.667 4.5 -68s8.5 -38.5 16.5 -57.5s20.667 -33.5 38 -43.5s38.666 -15 63.999 -15s46.5 5 63.5 15s29.5 24.5 37.5 43.5s13.5 38.167 16.5 57.5s4.5 42 4.5 68z
M424.001 709c-8 -92.667 -62.998 -139 -164.998 -139s-157 46.333 -165 139h56c3.33301 -26.667 14.666 -47.167 33.999 -61.5s44.333 -21.5 75 -21.5s55.667 7.16699 75 21.5s30.666 34.833 33.999 61.5h56z" />
    <glyph glyph-name="Gdotaccent" horiz-adv-x="650" 
d="M576 260c0 -79.333 -20.333 -140.667 -61 -184c-50.667 -54.667 -114 -82 -190 -82c-72 0 -132.667 24.667 -182 74c-30.667 30.667 -49.5 64.5 -56.5 101.5s-10.5 99.167 -10.5 186.5s3.5 149.5 10.5 186.5s25.833 70.833 56.5 101.5c49.333 49.333 110 74 182 74
c66.667 0 122.167 -19.5 166.5 -58.5s71.833 -90.5 82.5 -154.5h-76c-10 45.333 -30.333 80.833 -61 106.5s-68 38.5 -112 38.5c-49.333 0 -90.333 -17 -123 -51c-21.333 -22 -35 -48.5 -41 -79.5s-9 -85.5 -9 -163.5s3 -132.667 9 -164s19.667 -58 41 -80
c32 -33.333 73 -50 123 -50c56.667 0 101.667 20.333 135 61c26.667 32 40 75 40 129v54h-175v67h251v-113zM286 796.999v76h75v-76h-75z" />
    <glyph glyph-name="gdotaccent" horiz-adv-x="543" 
d="M453 -15c0 -62 -18.332 -112.667 -54.999 -152s-86.667 -59 -150 -59c-36 0 -66.167 5 -90.5 15s-49.833 27 -76.5 51l47 46c20 -18 38 -30.667 54 -38s37.333 -11 64 -11c45.333 0 79.166 14 101.499 42s33.5 64.333 33.5 109v77c-33.333 -42.667 -79.333 -64 -138 -64
c-50 0 -89.667 14.667 -119 44c-40 40 -60 108.333 -60 205s20 165 60 205c28.667 28.667 68.667 43 120 43c59.333 0 105.333 -21.333 138 -64v58h71v-507zM381.001 250c0 26 -1.5 48.667 -4.5 68s-8.5 38.5 -16.5 57.5s-20.5 33.5 -37.5 43.5s-38.167 15 -63.5 15
s-46.666 -5 -63.999 -15s-30 -24.5 -38 -43.5s-13.5 -38.167 -16.5 -57.5s-4.5 -42 -4.5 -68s1.5 -48.667 4.5 -68s8.5 -38.5 16.5 -57.5s20.667 -33.5 38 -43.5s38.666 -15 63.999 -15s46.5 5 63.5 15s29.5 24.5 37.5 43.5s13.5 38.167 16.5 57.5s4.5 42 4.5 68z
M220.001 610v77h75v-77h-75z" />
    <glyph glyph-name="Gcommaaccent" horiz-adv-x="650" 
d="M576 260c0 -79.333 -20.333 -140.667 -61 -184c-50.667 -54.667 -114 -82 -190 -82c-72 0 -132.667 24.667 -182 74c-30.667 30.667 -49.5 64.5 -56.5 101.5s-10.5 99.167 -10.5 186.5s3.5 149.5 10.5 186.5s25.833 70.833 56.5 101.5c49.333 49.333 110 74 182 74
c66.667 0 122.167 -19.5 166.5 -58.5s71.833 -90.5 82.5 -154.5h-76c-10 45.333 -30.333 80.833 -61 106.5s-68 38.5 -112 38.5c-49.333 0 -90.333 -17 -123 -51c-21.333 -22 -35 -48.5 -41 -79.5s-9 -85.5 -9 -163.5s3 -132.667 9 -164s19.667 -58 41 -80
c32 -33.333 73 -50 123 -50c56.667 0 101.667 20.333 135 61c26.667 32 40 75 40 129v54h-175v67h251v-113zM329 -216.001h-78l71 149h66z" />
    <glyph glyph-name="gcommaaccent" horiz-adv-x="543" 
d="M453 -15c0 -62 -18.332 -112.667 -54.999 -152s-86.667 -59 -150 -59c-36 0 -66.167 5 -90.5 15s-49.833 27 -76.5 51l47 46c20 -18 38 -30.667 54 -38s37.333 -11 64 -11c45.333 0 79.166 14 101.499 42s33.5 64.333 33.5 109v77c-33.333 -42.667 -79.333 -64 -138 -64
c-50 0 -89.667 14.667 -119 44c-40 40 -60 108.333 -60 205s20 165 60 205c28.667 28.667 68.667 43 120 43c59.333 0 105.333 -21.333 138 -64v58h71v-507zM381.001 250c0 26 -1.5 48.667 -4.5 68s-8.5 38.5 -16.5 57.5s-20.5 33.5 -37.5 43.5s-38.167 15 -63.5 15
s-46.666 -5 -63.999 -15s-30 -24.5 -38 -43.5s-13.5 -38.167 -16.5 -57.5s-4.5 -42 -4.5 -68s1.5 -48.667 4.5 -68s8.5 -38.5 16.5 -57.5s20.667 -33.5 38 -43.5s38.666 -15 63.999 -15s46.5 5 63.5 15s29.5 24.5 37.5 43.5s13.5 38.167 16.5 57.5s4.5 42 4.5 68z
M396.001 747l-108 -153h-66l88 153h86z" />
    <glyph glyph-name="Hcircumflex" horiz-adv-x="696" 
d="M593 0h-76v325h-338v-325h-76v712h76v-319h338v319h76v-712zM507 781h-69l-90 104l-90 -104h-69l125 153h68z" />
    <glyph glyph-name="hcircumflex" horiz-adv-x="562" 
d="M477 0h-71.999v304c0 42 -10.5 74.167 -31.5 96.5s-50.5 33.5 -88.5 33.5s-68 -11.167 -90 -33.5s-33 -54.5 -33 -96.5v-304h-72v712h72v-274c35.333 40 81.333 60 138 60c55.333 0 98.666 -16.333 129.999 -49s47 -77 47 -133v-316zM286.001 780h-69l-90 104l-90 -104
h-69l125 153h68z" />
    <glyph glyph-name="Hbar" horiz-adv-x="718" 
d="M678 515h-74v-515h-76v325h-338v-325h-76v515h-74v58h74v139h76v-139h338v139h76v-139h74v-58zM528 393v122h-338v-122h338z" />
    <glyph glyph-name="hbar" horiz-adv-x="562" 
d="M477 0h-71.999v304c0 42 -10.5 74.167 -31.5 96.5s-50.5 33.5 -88.5 33.5s-68 -11.167 -90 -33.5s-33 -54.5 -33 -96.5v-304h-72v572h-60v48h60v92h72v-92h124v-48h-124v-134c35.333 40 81.333 60 138 60c55.333 0 98.666 -16.333 129.999 -49s47 -77 47 -133v-316z" />
    <glyph glyph-name="Imacron" horiz-adv-x="282" 
d="M179 0h-76v712h76v-712zM-9 798v57h301v-57h-301z" />
    <glyph glyph-name="imacron" horiz-adv-x="253" 
d="M162 0h-72v492h72v-492zM278 602h-302v57h302v-57z" />
    <glyph glyph-name="Iogonek" horiz-adv-x="282" 
d="M179 0h-76v712h76v-712zM170 -67l-59 -149h-79l71 149h67z" />
    <glyph glyph-name="iogonek" horiz-adv-x="253" 
d="M162 0h-72v492h72v-492zM167 632h-81v81h81v-81zM158 -67l-59 -149h-79l71 149h67z" />
    <glyph glyph-name="Idotaccent" horiz-adv-x="282" 
d="M179 0h-76v712h76v-712zM103 797v76h75v-76h-75z" />
    <glyph glyph-name="dotlessi" horiz-adv-x="253" 
d="M162 0h-72v492h72v-492z" />
    <glyph glyph-name="Jcircumflex" horiz-adv-x="501" 
d="M408 216c0 -68 -20.499 -122 -61.499 -162s-94.5 -60 -160.5 -60s-120.333 21.333 -163 64l51 51c15.333 -15.333 31.166 -27 47.499 -35s37.833 -12 64.5 -12c46.667 0 82.667 14.167 108 42.5s38 68.833 38 121.5v486h76v-496zM529.001 781h-69l-90 104l-90 -104h-69
l125 153h68z" />
    <glyph glyph-name="jcircumflex" horiz-adv-x="253" 
d="M162 -89c0 -39.333 -10.5 -71.168 -31.5 -95.501s-52.167 -36.5 -93.5 -36.5h-52v63h39c24 0 41 5.83301 51 17.5s15 29.834 15 54.501v575h72v-578zM285 593.998h-69l-90 104l-90 -104h-69l125 153h68z" />
    <glyph glyph-name="Kcommaaccent" horiz-adv-x="650" 
d="M636 0h-90l-217 379l-150 -180v-199h-76v712h76v-409l332 409h93l-224 -275zM328 -216h-78l71 149h66z" />
    <glyph glyph-name="kcommaaccent" horiz-adv-x="536" 
d="M503 0h-89l-156 252l-96 -110v-142h-72v712h72v-476l222 256h90l-167 -188zM271 -216h-78l71 149h66z" />
    <glyph glyph-name="Lacute" horiz-adv-x="573" 
d="M543 0h-440v712h76v-644h364v-68zM320 934l-108 -153h-66l88 153h86z" />
    <glyph glyph-name="lacute" horiz-adv-x="297" 
d="M265 0l-52 0.000976562c-41.333 0 -72.5 12 -93.5 36s-31.5 55.667 -31.5 95v581h72v-578c0 -24.667 5 -42.834 15 -54.501s27 -17.5 51 -17.5h39v-62zM274 934.001l-108 -153h-66l88 153h86z" />
    <glyph glyph-name="Lcommaaccent" horiz-adv-x="573" 
d="M543 0h-440v712h76v-644h364v-68zM289 -216h-78l71 149h66z" />
    <glyph glyph-name="lcommaaccent" horiz-adv-x="297" 
d="M265 0l-52 0.000976562c-41.333 0 -72.5 12 -93.5 36s-31.5 55.667 -31.5 95v581h72v-578c0 -24.667 5 -42.834 15 -54.501s27 -17.5 51 -17.5h39v-62zM152 -215.999h-78l71 149h66z" />
    <glyph glyph-name="Lcaron" horiz-adv-x="573" 
d="M543 0h-440v712h76v-644h364v-68zM405 712l-51 -152h-58l39 152h70z" />
    <glyph glyph-name="lcaron" horiz-adv-x="297" 
d="M265 0l-52 0.000976562c-41.333 0 -72.5 12 -93.5 36s-31.5 55.667 -31.5 95v581h72v-578c0 -24.667 5 -42.834 15 -54.501s27 -17.5 51 -17.5h39v-62zM331 719.001l-51 -152h-58l39 152h70z" />
    <glyph glyph-name="Lslash" horiz-adv-x="582" 
d="M552 0h-440v289l-73 -46v67l73 46v356h77v-308l154 98v-66l-154 -98v-270h363v-68z" />
    <glyph glyph-name="lslash" horiz-adv-x="315" 
d="M278 0l-52.001 0.000976562c-41.333 0 -72.666 12 -93.999 36s-32 55.667 -32 95v211l-63 -39v62l63 39v308h72v-264l81 50v-62l-81 -50v-252c0 -24.667 5 -42.834 15 -54.501s27 -17.5 51 -17.5h40v-62z" />
    <glyph glyph-name="Nacute" horiz-adv-x="732" 
d="M629 0h-72l-378 571v-571h-76v712h72l378 -569v569h76v-712zM491 934l-108 -153h-66l88 153h86z" />
    <glyph glyph-name="nacute" horiz-adv-x="562" 
d="M477 0h-72v303c0 42.667 -10.667 75.167 -32 97.5s-51 33.5 -89 33.5s-67.833 -11.333 -89.5 -34s-32.5 -55 -32.5 -97v-303h-72v492h72v-54c34.667 40 80.667 60 138 60c53.333 0 95.333 -15.333 126 -46c34 -33.333 51 -79 51 -137v-315zM406 747l-108 -153h-66l88 153
h86z" />
    <glyph glyph-name="Ncommaaccent" horiz-adv-x="732" 
d="M629 0h-72l-378 571v-571h-76v712h72l378 -569v569h76v-712zM359 -216h-78l71 149h66z" />
    <glyph glyph-name="ncommaaccent" horiz-adv-x="562" 
d="M477 0h-72v303c0 42.667 -10.667 75.167 -32 97.5s-51 33.5 -89 33.5s-67.833 -11.333 -89.5 -34s-32.5 -55 -32.5 -97v-303h-72v492h72v-54c34.667 40 80.667 60 138 60c53.333 0 95.333 -15.333 126 -46c34 -33.333 51 -79 51 -137v-315zM284 -216h-78l71 149h66z" />
    <glyph glyph-name="Ncaron" horiz-adv-x="732" 
d="M629 0h-72l-378 571v-571h-76v712h72l378 -569v569h76v-712zM525 934l-125 -153h-68l-125 153h69l90 -105l90 105h69z" />
    <glyph glyph-name="ncaron" horiz-adv-x="562" 
d="M477 0h-72v303c0 42.667 -10.667 75.167 -32 97.5s-51 33.5 -89 33.5s-67.833 -11.333 -89.5 -34s-32.5 -55 -32.5 -97v-303h-72v492h72v-54c34.667 40 80.667 60 138 60c53.333 0 95.333 -15.333 126 -46c34 -33.333 51 -79 51 -137v-315zM440 747l-125 -153h-68
l-125 153h69l90 -105l90 105h69z" />
    <glyph glyph-name="Omacron" horiz-adv-x="650" 
d="M574 356c0 -87.333 -3.5 -149.5 -10.5 -186.5s-25.833 -70.833 -56.5 -101.5c-49.333 -49.333 -110 -74 -182 -74s-132.667 24.667 -182 74c-30.667 30.667 -49.5 64.5 -56.5 101.5s-10.5 99.167 -10.5 186.5s3.5 149.5 10.5 186.5s25.833 70.833 56.5 101.5
c49.333 49.333 110 74 182 74s132.667 -24.667 182 -74c30.667 -30.667 49.5 -64.5 56.5 -101.5s10.5 -99.167 10.5 -186.5zM498 356c0 78 -3 132.5 -9 163.5s-19.667 57.5 -41 79.5c-32.667 34 -73.667 51 -123 51s-90.333 -17 -123 -51c-21.333 -22 -35 -48.5 -41 -79.5
s-9 -85.5 -9 -163.5s3 -132.5 9 -163.5s19.667 -57.5 41 -79.5c32.667 -34 73.667 -51 123 -51s90.333 17 123 51c21.333 22 35 48.5 41 79.5s9 85.5 9 163.5zM173 798v57h301v-57h-301z" />
    <glyph glyph-name="omacron" 
d="M466 246c0 -90 -20 -155.333 -60 -196c-37.333 -37.333 -84.333 -56 -141 -56s-103.667 18.667 -141 56c-40 40.667 -60 106 -60 196s20 155.333 60 196c37.333 37.333 84.333 56 141 56s103.667 -18.667 141 -56c40 -40.667 60 -106 60 -196zM394 246
c0 75.333 -13 126.002 -39 152.002c-24 24 -54 36 -90 36c-35.333 0 -65 -12 -89 -36c-26.667 -26.667 -40 -77.334 -40 -152.001s13.333 -125.334 40 -152.001c24 -24 53.667 -36 89 -36c36 0 66 12 90 36c26 26 39 76.667 39 152zM416 602.002h-302v57h302v-57z" />
    <glyph glyph-name="Ohungarumlaut" horiz-adv-x="650" 
d="M574 356c0 -87.333 -3.5 -149.5 -10.5 -186.5s-25.833 -70.833 -56.5 -101.5c-49.333 -49.333 -110 -74 -182 -74s-132.667 24.667 -182 74c-30.667 30.667 -49.5 64.5 -56.5 101.5s-10.5 99.167 -10.5 186.5s3.5 149.5 10.5 186.5s25.833 70.833 56.5 101.5
c49.333 49.333 110 74 182 74s132.667 -24.667 182 -74c30.667 -30.667 49.5 -64.5 56.5 -101.5s10.5 -99.167 10.5 -186.5zM498 356c0 78 -3 132.5 -9 163.5s-19.667 57.5 -41 79.5c-32.667 34 -73.667 51 -123 51s-90.333 -17 -123 -51c-21.333 -22 -35 -48.5 -41 -79.5
s-9 -85.5 -9 -163.5s3 -132.5 9 -163.5s19.667 -57.5 41 -79.5c32.667 -34 73.667 -51 123 -51s90.333 17 123 51c21.333 22 35 48.5 41 79.5s9 85.5 9 163.5zM379 934l-108 -153h-66l89 153h85zM542 934l-109 -153h-65l89 153h85z" />
    <glyph glyph-name="ohungarumlaut" 
d="M466 246c0 -90 -20 -155.333 -60 -196c-37.333 -37.333 -84.333 -56 -141 -56s-103.667 18.667 -141 56c-40 40.667 -60 106 -60 196s20 155.333 60 196c37.333 37.333 84.333 56 141 56s103.667 -18.667 141 -56c40 -40.667 60 -106 60 -196zM394 246
c0 75.333 -13 126.002 -39 152.002c-24 24 -54 36 -90 36c-35.333 0 -65 -12 -89 -36c-26.667 -26.667 -40 -77.334 -40 -152.001s13.333 -125.334 40 -152.001c24 -24 53.667 -36 89 -36c36 0 66 12 90 36c26 26 39 76.667 39 152zM319 747.002l-108 -153h-66l89 153h85z
M482 747.002l-109 -153h-65l89 153h85z" />
    <glyph glyph-name="OE" horiz-adv-x="989" 
d="M933 0h-436v74c-43.333 -53.333 -101 -80 -173 -80c-71.333 0 -131.666 24.667 -180.999 74c-30.667 30.667 -49.5 64.667 -56.5 102s-10.5 99.333 -10.5 186s3.5 148.667 10.5 186s25.833 71.333 56.5 102c49.333 49.333 109.666 74 180.999 74
c72 0 129.667 -26.667 173 -80v74h434v-67h-357v-254h304v-64h-305v-260h360v-67zM497 356c0 78.667 -2.83301 133.332 -8.5 163.999s-19.167 57 -40.5 79c-32.667 34 -73.667 51 -123 51s-90.333 -17 -123 -51c-21.333 -22 -35 -48.5 -41 -79.5s-9 -85.5 -9 -163.5
s3 -132.5 9 -163.5s19.667 -57.5 41 -79.5c32.667 -34 73.667 -51 123 -51s90.333 17 123 51c21.333 22 34.833 48.333 40.5 79s8.5 85.334 8.5 164.001z" />
    <glyph glyph-name="oe" horiz-adv-x="861" 
d="M798 227h-332.001c0 -54 12.5 -95.833 37.5 -125.5s60.833 -44.5 107.5 -44.5c28 0 51.5 4.33301 70.5 13s38.5 23 58.5 43l49 -43c-26.667 -26.667 -53.334 -46 -80.001 -58s-60 -18 -100 -18c-82.667 0 -141.667 31.667 -177 95
c-15.333 -30 -37.666 -53.333 -66.999 -70s-62.666 -25 -99.999 -25c-56.667 0 -103.667 18.667 -141 56c-40 40.667 -60 106 -60 196s20 155.333 60 196c37.333 37.333 84.333 56 141 56c37.333 0 70.833 -8.33301 100.5 -25s52.167 -40 67.5 -70
c34 63.333 88.333 95 163 95c63.333 0 112.833 -21.333 148.5 -64s53.5 -100.667 53.5 -174v-33zM393.999 246c0 75.333 -13 126.002 -39 152.002c-24 24 -54 36 -90 36c-35.333 0 -65 -12 -89 -36c-26.667 -26.667 -40 -77.334 -40 -152.001s13.333 -125.334 40 -152.001
c24 -24 53.667 -36 89 -36c36 0 66 12 90 36c26 26 39 76.667 39 152zM726.999 281.002c-1.33301 32.667 -6.66699 60 -16 82c-9.33301 22.667 -24.333 40.667 -45 54s-44 20 -70 20s-49.333 -6.66699 -70 -20s-35.667 -31.333 -45 -54c-8 -20 -13 -47.333 -15 -82h261z" />
    <glyph glyph-name="Racute" horiz-adv-x="656" 
d="M601 0l-89 0.000976562l-162 316h-171v-316h-76v712h273c62.667 0 113.5 -17.833 152.5 -53.5s58.5 -83.834 58.5 -144.501c0 -50.667 -14 -92.667 -42 -126s-65.667 -55 -113 -65zM511 513.001c0 42 -13 74.333 -39 97s-60.333 34 -103 34h-190v-261h190
c43.333 0 77.833 11.167 103.5 33.5s38.5 54.5 38.5 96.5zM453 934.001l-108 -153h-66l88 153h86z" />
    <glyph glyph-name="racute" horiz-adv-x="421" 
d="M418 452l-53.001 -54c-13.333 13.333 -26.166 22.666 -38.499 27.999s-27.833 8 -46.5 8c-35.333 0 -63.833 -12.5 -85.5 -37.5s-32.5 -56.5 -32.5 -94.5v-302h-72v492h72v-60c13.333 20.667 32.5 36.834 57.5 48.501s51.833 17.5 80.5 17.5c48 0 87.333 -15.333 118 -46
zM335.999 747l-108 -153h-66l88 153h86z" />
    <glyph glyph-name="Rcommaaccent" horiz-adv-x="656" 
d="M601 0l-89 0.000976562l-162 316h-171v-316h-76v712h273c62.667 0 113.5 -17.833 152.5 -53.5s58.5 -83.834 58.5 -144.501c0 -50.667 -14 -92.667 -42 -126s-65.667 -55 -113 -65zM511 513.001c0 42 -13 74.333 -39 97s-60.333 34 -103 34h-190v-261h190
c43.333 0 77.833 11.167 103.5 33.5s38.5 54.5 38.5 96.5zM331 -215.999h-78l71 149h66z" />
    <glyph glyph-name="rcommaaccent" horiz-adv-x="421" 
d="M418 452l-53.001 -54c-13.333 13.333 -26.166 22.666 -38.499 27.999s-27.833 8 -46.5 8c-35.333 0 -63.833 -12.5 -85.5 -37.5s-32.5 -56.5 -32.5 -94.5v-302h-72v492h72v-60c13.333 20.667 32.5 36.834 57.5 48.501s51.833 17.5 80.5 17.5c48 0 87.333 -15.333 118 -46
zM135.999 -216h-78l71 149h66z" />
    <glyph glyph-name="Rcaron" horiz-adv-x="656" 
d="M601 0l-89 0.000976562l-162 316h-171v-316h-76v712h273c62.667 0 113.5 -17.833 152.5 -53.5s58.5 -83.834 58.5 -144.501c0 -50.667 -14 -92.667 -42 -126s-65.667 -55 -113 -65zM511 513.001c0 42 -13 74.333 -39 97s-60.333 34 -103 34h-190v-261h190
c43.333 0 77.833 11.167 103.5 33.5s38.5 54.5 38.5 96.5zM487 934.001l-125 -153h-68l-125 153h69l90 -105l90 105h69z" />
    <glyph glyph-name="rcaron" horiz-adv-x="421" 
d="M418 452l-53.001 -54c-13.333 13.333 -26.166 22.666 -38.499 27.999s-27.833 8 -46.5 8c-35.333 0 -63.833 -12.5 -85.5 -37.5s-32.5 -56.5 -32.5 -94.5v-302h-72v492h72v-60c13.333 20.667 32.5 36.834 57.5 48.501s51.833 17.5 80.5 17.5c48 0 87.333 -15.333 118 -46
zM389.999 747l-125 -153h-68l-125 153h69l90 -105l90 105h69z" />
    <glyph glyph-name="Sacute" horiz-adv-x="588" 
d="M532 196c0 -62 -22.332 -111.165 -66.999 -147.498s-104.334 -54.5 -179.001 -54.5c-53.333 0 -99 7.33301 -137 22s-73.667 38.667 -107 72l52 52c28.667 -28.667 57.834 -48.834 87.501 -60.501s65.167 -17.5 106.5 -17.5c52 0 93 11.667 123 35s45 55.666 45 96.999
c0 39.333 -11.333 69 -34 89c-11.333 10 -23 17.167 -35 21.5s-31.333 8.5 -58 12.5l-83 13c-56.667 9.33301 -100.334 27.333 -131.001 54c-36 32 -54 76.333 -54 133c0 60.667 20.5 109.334 61.5 146.001s96.5 55 166.5 55c45.333 0 84.333 -6 117 -18
s64.334 -32 95.001 -60l-49 -49c-44.667 40.667 -100 61 -166 61c-46.667 0 -83.334 -12 -110.001 -36s-40 -56 -40 -96c0 -36 10.667 -63.333 32 -82c22 -19.333 54 -32.333 96 -39l78 -12c58 -8.66699 101.333 -25.334 130 -50.001c40 -34 60 -81 60 -141z
M419.001 934.002l-108 -153h-66l88 153h86z" />
    <glyph glyph-name="sacute" horiz-adv-x="496" 
d="M445 144c0 -46.667 -18.168 -83.335 -54.501 -110.002s-84.833 -40 -145.5 -40c-85.333 0 -152.666 23.667 -201.999 71l48 48c36 -38 87 -57 153 -57c41.333 0 73.5 7.33301 96.5 22s34.5 36.334 34.5 65.001c0 43.333 -27.333 67.333 -82 72l-81 7
c-98 8 -147 52 -147 132c0 44 16.833 79 50.5 105s77.167 39 130.5 39c74.667 0 133.667 -17.667 177 -53l-47 -47c-34 26 -77.667 39 -131 39c-35.333 0 -62.5 -7.16699 -81.5 -21.5s-28.5 -34.166 -28.5 -59.499c0 -43.333 28.667 -67.333 86 -72l79 -7
c46.667 -4 82.5 -16.333 107.5 -37s37.5 -52.667 37.5 -96zM372.999 746.999l-108 -153h-66l88 153h86z" />
    <glyph glyph-name="Scircumflex" horiz-adv-x="588" 
d="M532 196c0 -62 -22.332 -111.165 -66.999 -147.498s-104.334 -54.5 -179.001 -54.5c-53.333 0 -99 7.33301 -137 22s-73.667 38.667 -107 72l52 52c28.667 -28.667 57.834 -48.834 87.501 -60.501s65.167 -17.5 106.5 -17.5c52 0 93 11.667 123 35s45 55.666 45 96.999
c0 39.333 -11.333 69 -34 89c-11.333 10 -23 17.167 -35 21.5s-31.333 8.5 -58 12.5l-83 13c-56.667 9.33301 -100.334 27.333 -131.001 54c-36 32 -54 76.333 -54 133c0 60.667 20.5 109.334 61.5 146.001s96.5 55 166.5 55c45.333 0 84.333 -6 117 -18
s64.334 -32 95.001 -60l-49 -49c-44.667 40.667 -100 61 -166 61c-46.667 0 -83.334 -12 -110.001 -36s-40 -56 -40 -96c0 -36 10.667 -63.333 32 -82c22 -19.333 54 -32.333 96 -39l78 -12c58 -8.66699 101.333 -25.334 130 -50.001c40 -34 60 -81 60 -141z
M448.001 781.002h-69l-90 104l-90 -104h-69l125 153h68z" />
    <glyph glyph-name="scircumflex" horiz-adv-x="496" 
d="M445 144c0 -46.667 -18.168 -83.335 -54.501 -110.002s-84.833 -40 -145.5 -40c-85.333 0 -152.666 23.667 -201.999 71l48 48c36 -38 87 -57 153 -57c41.333 0 73.5 7.33301 96.5 22s34.5 36.334 34.5 65.001c0 43.333 -27.333 67.333 -82 72l-81 7
c-98 8 -147 52 -147 132c0 44 16.833 79 50.5 105s77.167 39 130.5 39c74.667 0 133.667 -17.667 177 -53l-47 -47c-34 26 -77.667 39 -131 39c-35.333 0 -62.5 -7.16699 -81.5 -21.5s-28.5 -34.166 -28.5 -59.499c0 -43.333 28.667 -67.333 86 -72l79 -7
c46.667 -4 82.5 -16.333 107.5 -37s37.5 -52.667 37.5 -96zM404.999 593.999h-69l-90 104l-90 -104h-69l125 153h68z" />
    <glyph glyph-name="Scedilla" horiz-adv-x="588" 
d="M532 196c0 -62 -22.332 -111.165 -66.999 -147.498s-104.334 -54.5 -179.001 -54.5c-53.333 0 -99 7.33301 -137 22s-73.667 38.667 -107 72l52 52c28.667 -28.667 57.834 -48.834 87.501 -60.501s65.167 -17.5 106.5 -17.5c52 0 93 11.667 123 35s45 55.666 45 96.999
c0 39.333 -11.333 69 -34 89c-11.333 10 -23 17.167 -35 21.5s-31.333 8.5 -58 12.5l-83 13c-56.667 9.33301 -100.334 27.333 -131.001 54c-36 32 -54 76.333 -54 133c0 60.667 20.5 109.334 61.5 146.001s96.5 55 166.5 55c45.333 0 84.333 -6 117 -18
s64.334 -32 95.001 -60l-49 -49c-44.667 40.667 -100 61 -166 61c-46.667 0 -83.334 -12 -110.001 -36s-40 -56 -40 -96c0 -36 10.667 -63.333 32 -82c22 -19.333 54 -32.333 96 -39l78 -12c58 -8.66699 101.333 -25.334 130 -50.001c40 -34 60 -81 60 -141z
M357.001 -66.998l-59 -149h-79l71 149h67z" />
    <glyph glyph-name="scedilla" horiz-adv-x="496" 
d="M445 144c0 -46.667 -18.168 -83.335 -54.501 -110.002s-84.833 -40 -145.5 -40c-85.333 0 -152.666 23.667 -201.999 71l48 48c36 -38 87 -57 153 -57c41.333 0 73.5 7.33301 96.5 22s34.5 36.334 34.5 65.001c0 43.333 -27.333 67.333 -82 72l-81 7
c-98 8 -147 52 -147 132c0 44 16.833 79 50.5 105s77.167 39 130.5 39c74.667 0 133.667 -17.667 177 -53l-47 -47c-34 26 -77.667 39 -131 39c-35.333 0 -62.5 -7.16699 -81.5 -21.5s-28.5 -34.166 -28.5 -59.499c0 -43.333 28.667 -67.333 86 -72l79 -7
c46.667 -4 82.5 -16.333 107.5 -37s37.5 -52.667 37.5 -96zM310.999 -67.001l-59 -149h-79l71 149h67z" />
    <glyph glyph-name="Scaron" horiz-adv-x="588" 
d="M532 196c0 -62 -22.332 -111.165 -66.999 -147.498s-104.334 -54.5 -179.001 -54.5c-53.333 0 -99 7.33301 -137 22s-73.667 38.667 -107 72l52 52c28.667 -28.667 57.834 -48.834 87.501 -60.501s65.167 -17.5 106.5 -17.5c52 0 93 11.667 123 35s45 55.666 45 96.999
c0 39.333 -11.333 69 -34 89c-11.333 10 -23 17.167 -35 21.5s-31.333 8.5 -58 12.5l-83 13c-56.667 9.33301 -100.334 27.333 -131.001 54c-36 32 -54 76.333 -54 133c0 60.667 20.5 109.334 61.5 146.001s96.5 55 166.5 55c45.333 0 84.333 -6 117 -18
s64.334 -32 95.001 -60l-49 -49c-44.667 40.667 -100 61 -166 61c-46.667 0 -83.334 -12 -110.001 -36s-40 -56 -40 -96c0 -36 10.667 -63.333 32 -82c22 -19.333 54 -32.333 96 -39l78 -12c58 -8.66699 101.333 -25.334 130 -50.001c40 -34 60 -81 60 -141z
M448.001 934.002l-125 -153h-68l-125 153h69l90 -105l90 105h69z" />
    <glyph glyph-name="scaron" horiz-adv-x="496" 
d="M445 144c0 -46.667 -18.168 -83.335 -54.501 -110.002s-84.833 -40 -145.5 -40c-85.333 0 -152.666 23.667 -201.999 71l48 48c36 -38 87 -57 153 -57c41.333 0 73.5 7.33301 96.5 22s34.5 36.334 34.5 65.001c0 43.333 -27.333 67.333 -82 72l-81 7
c-98 8 -147 52 -147 132c0 44 16.833 79 50.5 105s77.167 39 130.5 39c74.667 0 133.667 -17.667 177 -53l-47 -47c-34 26 -77.667 39 -131 39c-35.333 0 -62.5 -7.16699 -81.5 -21.5s-28.5 -34.166 -28.5 -59.499c0 -43.333 28.667 -67.333 86 -72l79 -7
c46.667 -4 82.5 -16.333 107.5 -37s37.5 -52.667 37.5 -96zM404.999 746.999l-125 -153h-68l-125 153h69l90 -105l90 105h69z" />
    <glyph glyph-name="Tcommaaccent" horiz-adv-x="548" 
d="M518 644h-206v-644h-76v644h-206v68h488v-68zM278 -216h-78l71 149h66z" />
    <glyph glyph-name="tcommaaccent" horiz-adv-x="332" 
d="M279 0l-50.999 -0.000976562c-40.667 0 -71.834 12.333 -93.501 37s-32.5 56.334 -32.5 95.001v302h-62v55h62v154h72v-154h105v-55h-105v-300c0 -48 22.333 -72 67 -72h38v-62zM169.001 -216.001h-78l71 149h66z" />
    <glyph glyph-name="Tcaron" horiz-adv-x="548" 
d="M518 644h-206v-644h-76v644h-206v68h488v-68zM433 934l-125 -153h-68l-125 153h69l90 -105l90 105h69z" />
    <glyph glyph-name="tcaron" horiz-adv-x="332" 
d="M279 0l-50.999 -0.000976562c-40.667 0 -71.834 12.333 -93.501 37s-32.5 56.334 -32.5 95.001v302h-62v55h62v154h72v-154h105v-55h-105v-300c0 -48 22.333 -72 67 -72h38v-62zM336.001 718.999l-51 -152h-58l39 152h70z" />
    <glyph glyph-name="Umacron" horiz-adv-x="683" 
d="M590 235c0 -70.667 -23.5 -128.5 -70.5 -173.5s-106.5 -67.5 -178.5 -67.5s-131.333 22.5 -178 67.5s-70 102.833 -70 173.5v477h76v-471c0 -54 15.667 -97.333 47 -130s73 -49 125 -49s93.833 16.333 125.5 49s47.5 76 47.5 130v471h76v-477zM190 798v57h301v-57h-301z
" />
    <glyph glyph-name="umacron" horiz-adv-x="562" 
d="M472 0h-71.001v55c-35.333 -40.667 -81.666 -61 -138.999 -61c-54 0 -96.333 15.333 -127 46c-33.333 32.667 -50 78.667 -50 138v314h72v-303c0 -42.667 10.5 -75.167 31.5 -97.5s50.5 -33.5 88.5 -33.5s68 11.333 90 34s33 55 33 97v303h72v-492zM430.999 602h-302v57
h302v-57z" />
    <glyph glyph-name="Ubreve" horiz-adv-x="683" 
d="M590 235c0 -70.667 -23.5 -128.5 -70.5 -173.5s-106.5 -67.5 -178.5 -67.5s-131.333 22.5 -178 67.5s-70 102.833 -70 173.5v477h76v-471c0 -54 15.667 -97.333 47 -130s73 -49 125 -49s93.833 16.333 125.5 49s47.5 76 47.5 130v471h76v-477zM506 928
c-8 -92.667 -62.998 -139 -164.998 -139s-157 46.333 -165 139h56c3.33301 -26.667 14.666 -47.167 33.999 -61.5s44.333 -21.5 75 -21.5s55.667 7.16699 75 21.5s30.666 34.833 33.999 61.5h56z" />
    <glyph glyph-name="ubreve" horiz-adv-x="562" 
d="M472 0h-71.001v55c-35.333 -40.667 -81.666 -61 -138.999 -61c-54 0 -96.333 15.333 -127 46c-33.333 32.667 -50 78.667 -50 138v314h72v-303c0 -42.667 10.5 -75.167 31.5 -97.5s50.5 -33.5 88.5 -33.5s68 11.333 90 34s33 55 33 97v303h72v-492zM441.999 729
c-8 -92.667 -62.998 -139 -164.998 -139s-157 46.333 -165 139h56c3.33301 -26.667 14.666 -47.167 33.999 -61.5s44.333 -21.5 75 -21.5s55.667 7.16699 75 21.5s30.666 34.833 33.999 61.5h56z" />
    <glyph glyph-name="Uring" horiz-adv-x="683" 
d="M590 235c0 -70.667 -23.5 -128.5 -70.5 -173.5s-106.5 -67.5 -178.5 -67.5s-131.333 22.5 -178 67.5s-70 102.833 -70 173.5v477h76v-471c0 -54 15.667 -97.333 47 -130s73 -49 125 -49s93.833 16.333 125.5 49s47.5 76 47.5 130v471h76v-477zM459 874
c0 -32.667 -11.5 -60.667 -34.5 -84s-50.833 -35 -83.5 -35s-60.5 11.667 -83.5 35s-34.5 51.333 -34.5 84s11.5 60.5 34.5 83.5s50.833 34.5 83.5 34.5s60.5 -11.5 83.5 -34.5s34.5 -50.833 34.5 -83.5zM410 874c0 18.667 -6.66699 34.667 -20 48s-29.666 20 -48.999 20
s-35.666 -6.66699 -48.999 -20s-20 -29.333 -20 -48s6.66699 -34.834 20 -48.501s29.666 -20.5 48.999 -20.5s35.666 6.83301 48.999 20.5s20 29.834 20 48.501z" />
    <glyph glyph-name="uring" horiz-adv-x="562" 
d="M472 0h-71.001v55c-35.333 -40.667 -81.666 -61 -138.999 -61c-54 0 -96.333 15.333 -127 46c-33.333 32.667 -50 78.667 -50 138v314h72v-303c0 -42.667 10.5 -75.167 31.5 -97.5s50.5 -33.5 88.5 -33.5s68 11.333 90 34s33 55 33 97v303h72v-492zM398.999 687
c0 -32.667 -11.5 -60.667 -34.5 -84s-50.833 -35 -83.5 -35s-60.5 11.667 -83.5 35s-34.5 51.333 -34.5 84s11.5 60.5 34.5 83.5s50.833 34.5 83.5 34.5s60.5 -11.5 83.5 -34.5s34.5 -50.833 34.5 -83.5zM349.999 687c0 18.667 -6.66699 34.667 -20 48
s-29.666 20 -48.999 20s-35.666 -6.66699 -48.999 -20s-20 -29.333 -20 -48c0 -19.333 6.66699 -35.666 20 -48.999s29.666 -20 48.999 -20s35.666 6.66699 48.999 20s20 29.666 20 48.999z" />
    <glyph glyph-name="Uhungarumlaut" horiz-adv-x="683" 
d="M590 235c0 -70.667 -23.5 -128.5 -70.5 -173.5s-106.5 -67.5 -178.5 -67.5s-131.333 22.5 -178 67.5s-70 102.833 -70 173.5v477h76v-471c0 -54 15.667 -97.333 47 -130s73 -49 125 -49s93.833 16.333 125.5 49s47.5 76 47.5 130v471h76v-477zM395 934l-108 -153h-66
l89 153h85zM558 934l-109 -153h-65l89 153h85z" />
    <glyph glyph-name="uhungarumlaut" horiz-adv-x="562" 
d="M472 0h-71.001v55c-35.333 -40.667 -81.666 -61 -138.999 -61c-54 0 -96.333 15.333 -127 46c-33.333 32.667 -50 78.667 -50 138v314h72v-303c0 -42.667 10.5 -75.167 31.5 -97.5s50.5 -33.5 88.5 -33.5s68 11.333 90 34s33 55 33 97v303h72v-492zM334.999 747
l-108 -153h-66l89 153h85zM497.999 747l-109 -153h-65l89 153h85z" />
    <glyph glyph-name="Uogonek" horiz-adv-x="683" 
d="M590 235c0 -70.667 -23.5 -128.5 -70.5 -173.5s-106.5 -67.5 -178.5 -67.5s-131.333 22.5 -178 67.5s-70 102.833 -70 173.5v477h76v-471c0 -54 15.667 -97.333 47 -130s73 -49 125 -49s93.833 16.333 125.5 49s47.5 76 47.5 130v471h76v-477zM478 -67l-59 -149h-79
l71 149h67z" />
    <glyph glyph-name="uogonek" horiz-adv-x="562" 
d="M472 0h-71.001v55c-35.333 -40.667 -81.666 -61 -138.999 -61c-54 0 -96.333 15.333 -127 46c-33.333 32.667 -50 78.667 -50 138v314h72v-303c0 -42.667 10.5 -75.167 31.5 -97.5s50.5 -33.5 88.5 -33.5s68 11.333 90 34s33 55 33 97v303h72v-492zM467.999 -67l-59 -149
h-79l71 149h67z" />
    <glyph glyph-name="Ydieresis" horiz-adv-x="514" 
d="M506 712l-210 -418v-294h-76v294l-212 418h82l168 -341l166 341h82zM399 789h-72v89h72v-89zM187 789h-72v89h72v-89z" />
    <glyph glyph-name="Zacute" horiz-adv-x="556" 
d="M499 0h-442v72l356 572h-342v68h428v-64l-359 -580h359v-68zM403 934l-108 -153h-66l88 153h86z" />
    <glyph glyph-name="zacute" horiz-adv-x="459" 
d="M407 0h-357v62l274 366h-259v64h342v-61l-275 -367h275v-64zM355 747l-108 -153h-66l88 153h86z" />
    <glyph glyph-name="Zdotaccent" horiz-adv-x="556" 
d="M499 0h-442v72l356 572h-342v68h428v-64l-359 -580h359v-68zM239 797v76h75v-76h-75z" />
    <glyph glyph-name="zdotaccent" horiz-adv-x="459" 
d="M407 0h-357v62l274 366h-259v64h342v-61l-275 -367h275v-64zM192 610v77h75v-77h-75z" />
    <glyph glyph-name="Zcaron" horiz-adv-x="556" 
d="M499 0h-442v72l356 572h-342v68h428v-64l-359 -580h359v-68zM443 934l-125 -153h-68l-125 153h69l90 -105l90 105h69z" />
    <glyph glyph-name="zcaron" horiz-adv-x="459" 
d="M407 0h-357v62l274 366h-259v64h342v-61l-275 -367h275v-64zM395 747l-125 -153h-68l-125 153h69l90 -105l90 105h69z" />
    <glyph glyph-name="florin" horiz-adv-x="403" 
d="M373 652l-50 -0.000976562c-44 0 -70.333 -24 -79 -72l-34 -196h105v-54h-115l-97 -550h-72l97 550h-98v54h108l34 198c6.66699 38.667 23.167 70.334 49.5 95.001s59.5 37 99.5 37h52v-62z" />
    <glyph glyph-name="Scommaaccent" horiz-adv-x="588" 
d="M532 196c0 -62 -22.332 -111.165 -66.999 -147.498s-104.334 -54.5 -179.001 -54.5c-53.333 0 -99 7.33301 -137 22s-73.667 38.667 -107 72l52 52c28.667 -28.667 57.834 -48.834 87.501 -60.501s65.167 -17.5 106.5 -17.5c52 0 93 11.667 123 35s45 55.666 45 96.999
c0 39.333 -11.333 69 -34 89c-11.333 10 -23 17.167 -35 21.5s-31.333 8.5 -58 12.5l-83 13c-56.667 9.33301 -100.334 27.333 -131.001 54c-36 32 -54 76.333 -54 133c0 60.667 20.5 109.334 61.5 146.001s96.5 55 166.5 55c45.333 0 84.333 -6 117 -18
s64.334 -32 95.001 -60l-49 -49c-44.667 40.667 -100 61 -166 61c-46.667 0 -83.334 -12 -110.001 -36s-40 -56 -40 -96c0 -36 10.667 -63.333 32 -82c22 -19.333 54 -32.333 96 -39l78 -12c58 -8.66699 101.333 -25.334 130 -50.001c40 -34 60 -81 60 -141z
M283.001 -215.998h-78l71 149h66z" />
    <glyph glyph-name="scommaaccent" horiz-adv-x="496" 
d="M445 144c0 -46.667 -18.168 -83.335 -54.501 -110.002s-84.833 -40 -145.5 -40c-85.333 0 -152.666 23.667 -201.999 71l48 48c36 -38 87 -57 153 -57c41.333 0 73.5 7.33301 96.5 22s34.5 36.334 34.5 65.001c0 43.333 -27.333 67.333 -82 72l-81 7
c-98 8 -147 52 -147 132c0 44 16.833 79 50.5 105s77.167 39 130.5 39c74.667 0 133.667 -17.667 177 -53l-47 -47c-34 26 -77.667 39 -131 39c-35.333 0 -62.5 -7.16699 -81.5 -21.5s-28.5 -34.166 -28.5 -59.499c0 -43.333 28.667 -67.333 86 -72l79 -7
c46.667 -4 82.5 -16.333 107.5 -37s37.5 -52.667 37.5 -96zM238.999 -216.001h-78l71 149h66z" />
    <glyph glyph-name="uni021A" horiz-adv-x="548" 
d="M518 644h-206v-644h-76v644h-206v68h488v-68zM283 -216h-78l71 149h66z" />
    <glyph glyph-name="uni021B" horiz-adv-x="332" 
d="M279 0l-50.999 -0.000976562c-40.667 0 -71.834 12.333 -93.501 37s-32.5 56.334 -32.5 95.001v302h-62v55h62v154h72v-154h105v-55h-105v-300c0 -48 22.333 -72 67 -72h38v-62zM175.001 -216.001h-78l71 149h66z" />
    <glyph glyph-name="dotlessj" horiz-adv-x="253" 
d="M162 -89c0 -39.333 -10.5 -71.168 -31.5 -95.501s-52.167 -36.5 -93.5 -36.5h-52v63h39c24 0 41 5.83301 51 17.5s15 29.834 15 54.501v575h72v-578z" />
    <glyph glyph-name="circumflex" horiz-adv-x="500" 
d="M409 594h-69l-90 104l-90 -104h-69l125 153h68z" />
    <glyph glyph-name="caron" horiz-adv-x="500" 
d="M409 747l-125 -153h-68l-125 153h69l90 -105l90 105h69z" />
    <glyph glyph-name="breve" horiz-adv-x="500" 
d="M415 729c-8 -92.667 -62.998 -139 -164.998 -139s-157 46.333 -165 139h56c3.33301 -26.667 14.666 -47.167 33.999 -61.5s44.333 -21.5 75 -21.5s55.667 7.16699 75 21.5s30.666 34.833 33.999 61.5h56z" />
    <glyph glyph-name="dotaccent" horiz-adv-x="500" 
d="M212 610v77h75v-77h-75z" />
    <glyph glyph-name="ring" horiz-adv-x="500" 
d="M368 687c0 -32.667 -11.5 -60.667 -34.5 -84s-50.833 -35 -83.5 -35s-60.5 11.667 -83.5 35s-34.5 51.333 -34.5 84s11.5 60.5 34.5 83.5s50.833 34.5 83.5 34.5s60.5 -11.5 83.5 -34.5s34.5 -50.833 34.5 -83.5zM319 687c0 18.667 -6.6709 34.667 -20.0039 48
s-29.666 20 -48.999 20s-35.666 -6.66699 -48.999 -20s-20 -29.333 -20 -48c0 -19.333 6.83301 -35.666 20.5 -48.999s29.834 -20 48.501 -20s34.834 6.66699 48.501 20s20.5 29.666 20.5 48.999z" />
    <glyph glyph-name="ogonek" horiz-adv-x="500" 
d="M369 -67l-59 -149h-79l71 149h67z" />
    <glyph glyph-name="tilde" 
d="M422 658c-33.333 -34 -65.001 -51 -95.001 -51c-20 0 -43.667 8 -71 24c-23.333 13.333 -42 20 -56 20c-18 0 -37.667 -10.667 -59 -32l-37 36c34 34 65.667 51 95 51c22.667 0 46.334 -8 71.001 -24c23.333 -13.333 42 -20 56 -20c18 0 37.667 10.667 59 32z" />
    <glyph glyph-name="hungarumlaut" horiz-adv-x="500" 
d="M304 747l-108 -153h-66l89 153h85zM467 747l-109 -153h-65l89 153h85z" />
    <glyph glyph-name="tonos" horiz-adv-x="255" 
d="M165 613l-76 -38v137h76v-99z" />
    <glyph glyph-name="dieresistonos" horiz-adv-x="488" 
d="M282 613l-76 -38v137h76v-99zM398 589h-72v90h72v-90zM161 589h-71v90h71v-90z" />
    <glyph glyph-name="Alphatonos" horiz-adv-x="611" 
d="M599 0h-81l-57 161h-311l-57 -161h-81l262 712h64zM439 227l-132 376l-134 -376h266zM78 613l-76 -38v137h76v-99z" />
    <glyph glyph-name="anoteleia" horiz-adv-x="270" 
d="M182 223h-94v94h94v-94z" />
    <glyph glyph-name="Epsilontonos" horiz-adv-x="600" 
d="M545 0h-442v712h442v-68h-366v-251h312v-68h-312v-257h366v-68zM18 613l-76 -38v137h76v-99z" />
    <glyph glyph-name="Etatonos" horiz-adv-x="696" 
d="M593 0h-76v325h-338v-325h-76v712h76v-319h338v319h76v-712zM18 613l-76 -38v137h76v-99z" />
    <glyph glyph-name="Iotatonos" horiz-adv-x="282" 
d="M179 0h-76v712h76v-712zM18 613l-76 -38v137h76v-99z" />
    <glyph glyph-name="Omicrontonos" horiz-adv-x="650" 
d="M574 356c0 -87.333 -3.5 -149.5 -10.5 -186.5s-25.833 -70.833 -56.5 -101.5c-49.333 -49.333 -110 -74 -182 -74s-132.667 24.667 -182 74c-30.667 30.667 -49.5 64.5 -56.5 101.5s-10.5 99.167 -10.5 186.5s3.5 149.5 10.5 186.5s25.833 70.833 56.5 101.5
c49.333 49.333 110 74 182 74s132.667 -24.667 182 -74c30.667 -30.667 49.5 -64.5 56.5 -101.5s10.5 -99.167 10.5 -186.5zM498 356c0 78 -3 132.5 -9 163.5s-19.667 57.5 -41 79.5c-32.667 34 -73.667 51 -123 51s-90.333 -17 -123 -51c-21.333 -22 -35 -48.5 -41 -79.5
s-9 -85.5 -9 -163.5s3 -132.5 9 -163.5s19.667 -57.5 41 -79.5c32.667 -34 73.667 -51 123 -51s90.333 17 123 51c21.333 22 35 48.5 41 79.5s9 85.5 9 163.5zM38 613l-76 -38v137h76v-99z" />
    <glyph glyph-name="Upsilontonos" horiz-adv-x="514" 
d="M506 712l-210 -418v-294h-76v294l-212 418h82l168 -341l166 341h82zM-32 613l-76 -38v137h76v-99z" />
    <glyph glyph-name="Omegatonos" horiz-adv-x="650" 
d="M574 0l-195.002 -0.000976562v64c42.667 20 73.334 45.333 92.001 76c10.667 17.333 17.667 41.833 21 73.5s5 78.5 5 140.5c0 78.667 -2.83301 133.834 -8.5 165.501s-19.167 58.167 -40.5 79.5c-34 34 -75 51 -123 51s-89 -17 -123 -51
c-21.333 -22 -35 -48.833 -41 -80.5s-9 -86.5 -9 -164.5c0 -114 9 -185.333 27 -214c18.667 -30.667 49.334 -56 92.001 -76v-64h-195v67h82c-24 20 -42.333 42.333 -55 67c-8.66699 16.667 -15 37.667 -19 63s-6.33301 47 -7 65s-1 44.333 -1 79v15
c0 87.333 3.5 149.5 10.5 186.5s25.833 70.833 56.5 101.5c49.333 49.333 110 74 182 74s132.667 -24.667 182 -74c30.667 -30.667 49.5 -64.5 56.5 -101.5s10.5 -99.167 10.5 -186.5c0 -88.667 -4 -148.667 -12 -180c-4 -16 -9 -30 -15 -42
c-12 -24 -30.667 -46.333 -56 -67h83v-67zM37.998 612.999l-76 -38v137h76v-99z" />
    <glyph glyph-name="iotadieresistonos" horiz-adv-x="297" 
d="M265 0l-52 0.000976562c-41.333 0 -72.5 11.833 -93.5 35.5s-31.5 55.5 -31.5 95.5v361h72v-358c0 -24.667 5 -42.834 15 -54.501s27 -17.5 51 -17.5h39v-62zM164 613.001l-76 -38v137h76v-99zM280 589.001h-72v90h72v-90zM43 589.001h-71v90h71v-90z" />
    <glyph glyph-name="Alpha" horiz-adv-x="611" 
d="M599 0h-81l-57 161h-311l-57 -161h-81l262 712h64zM439 227l-132 376l-134 -376h266z" />
    <glyph glyph-name="Beta" horiz-adv-x="668" 
d="M592 197c0 -63.333 -19.167 -112.001 -57.5 -146.001s-89.833 -51 -154.5 -51h-277v712h268c62.667 0 113.334 -17 152.001 -51s58 -80.333 58 -139c0 -36.667 -9.83301 -69 -29.5 -97s-44.834 -47.667 -75.501 -59c35.333 -12.667 63.5 -33.667 84.5 -63
s31.5 -64.666 31.5 -105.999zM516 198.999c0 40 -12.833 71.667 -38.5 95s-60.5 35 -104.5 35h-194v-261h194c44 0 78.833 11.833 104.5 35.5s38.5 55.5 38.5 95.5zM505 520.999c0 40.667 -12.833 71.333 -38.5 92s-59.5 31 -101.5 31h-186v-247h186
c41.333 0 75 10.5 101 31.5s39 51.833 39 92.5z" />
    <glyph glyph-name="Gamma" horiz-adv-x="549" 
d="M529 644h-350v-644h-76v712h426v-68z" />
    <glyph glyph-name="Delta" horiz-adv-x="603" 
d="M594 0h-586l262 712h63zM495 66l-193 537l-194 -537h387z" />
    <glyph glyph-name="Epsilon" horiz-adv-x="600" 
d="M545 0h-442v712h442v-68h-366v-251h312v-68h-312v-257h366v-68z" />
    <glyph glyph-name="Zeta" horiz-adv-x="556" 
d="M499 0h-442v72l356 572h-342v68h428v-64l-359 -580h359v-68z" />
    <glyph glyph-name="Eta" horiz-adv-x="696" 
d="M593 0h-76v325h-338v-325h-76v712h76v-319h338v319h76v-712z" />
    <glyph glyph-name="Theta" horiz-adv-x="650" 
d="M574 356c0 -87.333 -3.5 -149.5 -10.5 -186.5s-25.833 -70.833 -56.5 -101.5c-49.333 -49.333 -110 -74 -182 -74s-132.667 24.667 -182 74c-30.667 30.667 -49.5 64.5 -56.5 101.5s-10.5 99.167 -10.5 186.5s3.5 149.5 10.5 186.5s25.833 70.833 56.5 101.5
c49.333 49.333 110 74 182 74s132.667 -24.667 182 -74c30.667 -30.667 49.5 -64.5 56.5 -101.5s10.5 -99.167 10.5 -186.5zM498 324h-346c0.666992 -63.333 4.16699 -109.166 10.5 -137.499s19.5 -52.833 39.5 -73.5c32.667 -34 73.667 -51 123 -51s90.333 17 123 51
c20 20.667 33.167 45.167 39.5 73.5s9.83301 74.166 10.5 137.499zM498 391c-0.666992 62 -4.16699 107 -10.5 135s-19.5 52.333 -39.5 73c-32.667 34 -73.667 51 -123 51s-90.333 -17 -123 -51c-20 -20.667 -33.167 -45 -39.5 -73s-9.83301 -73 -10.5 -135h346z" />
    <glyph glyph-name="Iota" horiz-adv-x="282" 
d="M179 0h-76v712h76v-712z" />
    <glyph glyph-name="Kappa" horiz-adv-x="650" 
d="M636 0h-90l-217 379l-150 -180v-199h-76v712h76v-409l332 409h93l-224 -275z" />
    <glyph glyph-name="Lambda" horiz-adv-x="598" 
d="M568 0h-80l-188 604l-190 -604h-80l234 712h70z" />
    <glyph glyph-name="Mu" horiz-adv-x="816" 
d="M713 0h-76v541l-195 -429h-65l-198 429v-541h-76v712h76l232 -505l226 505h76v-712z" />
    <glyph glyph-name="Nu" horiz-adv-x="732" 
d="M629 0h-72l-378 571v-571h-76v712h72l378 -569v569h76v-712z" />
    <glyph glyph-name="Xi" horiz-adv-x="573" 
d="M518 0h-463v68h193v257h-139v68h139v251h-193v68h463v-68h-194v-251h140v-68h-140v-257h194v-68z" />
    <glyph glyph-name="Omicron" horiz-adv-x="650" 
d="M574 356c0 -87.333 -3.5 -149.5 -10.5 -186.5s-25.833 -70.833 -56.5 -101.5c-49.333 -49.333 -110 -74 -182 -74s-132.667 24.667 -182 74c-30.667 30.667 -49.5 64.5 -56.5 101.5s-10.5 99.167 -10.5 186.5s3.5 149.5 10.5 186.5s25.833 70.833 56.5 101.5
c49.333 49.333 110 74 182 74s132.667 -24.667 182 -74c30.667 -30.667 49.5 -64.5 56.5 -101.5s10.5 -99.167 10.5 -186.5zM498 356c0 78 -3 132.5 -9 163.5s-19.667 57.5 -41 79.5c-32.667 34 -73.667 51 -123 51s-90.333 -17 -123 -51c-21.333 -22 -35 -48.5 -41 -79.5
s-9 -85.5 -9 -163.5s3 -132.5 9 -163.5s19.667 -57.5 41 -79.5c32.667 -34 73.667 -51 123 -51s90.333 17 123 51c21.333 22 35 48.5 41 79.5s9 85.5 9 163.5z" />
    <glyph glyph-name="Pi" horiz-adv-x="681" 
d="M578 0h-76v644h-323v-644h-76v712h475v-712z" />
    <glyph glyph-name="Rho" horiz-adv-x="630" 
d="M588 503c0 -63.333 -20.333 -114.167 -61 -152.5s-93.667 -57.5 -159 -57.5h-189v-293h-76v712h265c65.333 0 118.333 -19 159 -57s61 -88.667 61 -152zM512 502.999c0 46 -13.667 81 -41 105s-64 36 -110 36h-182v-283h182c46 0 82.667 12.167 110 36.5
s41 59.5 41 105.5z" />
    <glyph glyph-name="Sigma" horiz-adv-x="557" 
d="M500 644h-339l168 -261l-189 -315h359v-68h-442v71l187 310l-172 269v62h428v-68z" />
    <glyph glyph-name="Tau" horiz-adv-x="548" 
d="M518 644h-206v-644h-76v644h-206v68h488v-68z" />
    <glyph glyph-name="Upsilon" horiz-adv-x="514" 
d="M506 712l-210 -418v-294h-76v294l-212 418h82l168 -341l166 341h82z" />
    <glyph glyph-name="Phi" horiz-adv-x="732" 
d="M670 361c0 -50.667 -4 -93.5 -12 -128.5s-25.667 -66.167 -53 -93.5c-51.333 -51.333 -118.333 -77 -201 -77v-62h-76v62c-82.667 0 -149.667 25.667 -201 77c-27.333 27.333 -45 58.5 -53 93.5s-12 77.833 -12 128.5s4 93.5 12 128.5s25.667 66.167 53 93.5
c51.333 51.333 118.333 77 201 77v52h76v-52c82.667 0 149.667 -25.667 201 -77c27.333 -27.333 45 -58.5 53 -93.5s12 -77.833 12 -128.5zM594 361c0 27.333 -0.666016 49 -1.99902 65s-5.66602 35.167 -12.999 57.5s-18 40.833 -32 55.5
c-34.667 35.333 -82.334 53 -143.001 53v-462c62 0 109.667 17.667 143 53c14 14.667 24.667 33.167 32 55.5s11.666 41.5 12.999 57.5s2 37.667 2 65zM328.001 130l0.00195312 462c-60 0 -107.333 -17.667 -142 -53c-20.667 -21.333 -33.834 -46.166 -39.501 -74.499
s-8.5 -62.833 -8.5 -103.5c0 -26.667 0.666992 -48.334 2 -65.001s5.83301 -36 13.5 -58s18.5 -40.333 32.5 -55c33.333 -35.333 80.666 -53 141.999 -53z" />
    <glyph glyph-name="Chi" horiz-adv-x="551" 
d="M536 0h-88l-173 299l-174 -299h-86l218 365l-204 347h88l158 -281l158 281h88l-205 -347z" />
    <glyph glyph-name="Psi" horiz-adv-x="675" 
d="M623 370c0 -36 -4.83105 -66.333 -14.498 -91s-25.834 -48.334 -48.501 -71.001c-49.333 -49.333 -110 -74 -182 -74h-2v-134h-76v134h-3c-72 0 -132.667 24.667 -182 74c-22.667 22.667 -38.834 46.334 -48.501 71.001s-14.5 55 -14.5 91v342h76v-342
c0 -28 3.66699 -50.5 11 -67.5s19 -33.833 35 -50.5c32 -33.333 73 -50 123 -50h3v510h76v-510h2c50 0 91 16.667 123 50c16 16.667 27.667 33.5 35 50.5s11 39.5 11 67.5v342h76v-342z" />
    <glyph glyph-name="Omega" horiz-adv-x="650" 
d="M574 0l-195.002 -0.000976562v64c42.667 20 73.334 45.333 92.001 76c10.667 17.333 17.667 41.833 21 73.5s5 78.5 5 140.5c0 78.667 -2.83301 133.834 -8.5 165.501s-19.167 58.167 -40.5 79.5c-34 34 -75 51 -123 51s-89 -17 -123 -51
c-21.333 -22 -35 -48.833 -41 -80.5s-9 -86.5 -9 -164.5c0 -114 9 -185.333 27 -214c18.667 -30.667 49.334 -56 92.001 -76v-64h-195v67h82c-24 20 -42.333 42.333 -55 67c-8.66699 16.667 -15 37.667 -19 63s-6.33301 47 -7 65s-1 44.333 -1 79v15
c0 87.333 3.5 149.5 10.5 186.5s25.833 70.833 56.5 101.5c49.333 49.333 110 74 182 74s132.667 -24.667 182 -74c30.667 -30.667 49.5 -64.5 56.5 -101.5s10.5 -99.167 10.5 -186.5c0 -88.667 -4 -148.667 -12 -180c-4 -16 -9 -30 -15 -42
c-12 -24 -30.667 -46.333 -56 -67h83v-67z" />
    <glyph glyph-name="Iotadieresis" horiz-adv-x="282" 
d="M179 0h-76v712h76v-712zM285 789h-72v89h72v-89zM73 789h-72v89h72v-89z" />
    <glyph glyph-name="Upsilondieresis" horiz-adv-x="514" 
d="M506 712l-210 -418v-294h-76v294l-212 418h82l168 -341l166 341h82zM399 789h-72v89h72v-89zM187 789h-72v89h72v-89z" />
    <glyph glyph-name="alphatonos" horiz-adv-x="545" 
d="M455 0h-71v59c-34 -43.333 -80.667 -65 -140 -65c-51.333 0 -91.333 14.333 -120 43c-40 40 -60 109.667 -60 209s20 169 60 209c28.667 28.667 68.667 43 120 43c30 0 55.833 -4.5 77.5 -13.5s42.167 -25.5 61.5 -49.5v57h72v-492zM383 246c0 27.333 -1.5 51 -4.5 71
s-8.5 39.5 -16.5 58.5s-20.667 33.5 -38 43.5s-38.666 15 -63.999 15s-46.666 -5 -63.999 -15s-30.166 -24.5 -38.499 -43.5s-14 -38.5 -17 -58.5s-4.5 -43.667 -4.5 -71s1.5 -51 4.5 -71s8.66699 -39.5 17 -58.5s21.166 -33.5 38.499 -43.5s38.666 -15 63.999 -15
s46.666 5 63.999 15s30 24.5 38 43.5s13.5 38.5 16.5 58.5s4.5 43.667 4.5 71zM304 613l-76 -38v137h76v-99z" />
    <glyph glyph-name="epsilontonos" horiz-adv-x="493" 
d="M450 73c-56 -52.667 -126.001 -79.001 -210.001 -79.001c-50 0 -92.167 12.333 -126.5 37s-51.5 59.667 -51.5 105c0 55.333 26.667 94 80 116c-47.333 18.667 -71 54.334 -71 107.001c0 42.667 17.333 76.5 52 101.5s75.667 37.5 123 37.5
c42.667 0 78.334 -5.33301 107.001 -16s57 -29 85 -55l-45 -48c-42.667 38.667 -90.667 58 -144 58c-26.667 0 -50.667 -7.5 -72 -22.5s-32 -34.167 -32 -57.5c0 -24 7.83301 -43 23.5 -57s38.167 -21 67.5 -21h87v-57h-85c-36 0 -61.833 -7.83301 -77.5 -23.5
s-23.5 -35.5 -23.5 -59.5s10.167 -43.833 30.5 -59.5s45.5 -23.5 75.5 -23.5c60.667 0 113 20.333 157 61zM293.999 612.999l-76 -38v137h76v-99z" />
    <glyph glyph-name="etatonos" horiz-adv-x="562" 
d="M477 0h-72v303c0 42.667 -10.667 75.167 -32 97.5s-51 33.5 -89 33.5s-67.833 -11.333 -89.5 -34s-32.5 -55 -32.5 -97v-303h-72v492h72v-54c34.667 40 80.667 60 138 60c53.333 0 95.333 -15.333 126 -46c34 -33.333 51 -79 51 -137v-315zM324 613l-76 -38v137h76v-99z
" />
    <glyph glyph-name="iotatonos" horiz-adv-x="297" 
d="M265 0l-52 0.000976562c-41.333 0 -72.5 11.833 -93.5 35.5s-31.5 55.5 -31.5 95.5v361h72v-358c0 -24.667 5 -42.834 15 -54.501s27 -17.5 51 -17.5h39v-62zM164 613.001l-76 -38v137h76v-99z" />
    <glyph glyph-name="upsilondieresistonos" horiz-adv-x="521" 
d="M453 245c0 -44 -3.50195 -81.499 -10.502 -112.499s-22.5 -58.5 -46.5 -82.5c-37.333 -37.333 -82.666 -56 -135.999 -56c-52.667 0 -97.667 18.667 -135 56c-24 24 -39.5 51.5 -46.5 82.5s-10.5 68.5 -10.5 112.5v247h71v-247v-10c0 -22 0.333008 -39.167 1 -51.5
s3.83398 -27.333 9.50098 -45s13.834 -31.834 24.501 -42.501c25.333 -25.333 54 -38 86 -38s60.667 12.667 86 38c12 12 20.667 28 26 48s8.16602 35 8.49902 45s0.5 28.667 0.5 56v247h72v-247zM297.998 613.001l-76 -38v137h76v-99zM413.998 589.001h-72v90h72v-90z
M176.998 589.001h-71v90h71v-90z" />
    <glyph glyph-name="alpha" horiz-adv-x="545" 
d="M455 0h-71v59c-34 -43.333 -80.667 -65 -140 -65c-51.333 0 -91.333 14.333 -120 43c-40 40 -60 109.667 -60 209s20 169 60 209c28.667 28.667 68.667 43 120 43c30 0 55.833 -4.5 77.5 -13.5s42.167 -25.5 61.5 -49.5v57h72v-492zM383 246c0 27.333 -1.5 51 -4.5 71
s-8.5 39.5 -16.5 58.5s-20.667 33.5 -38 43.5s-38.666 15 -63.999 15s-46.666 -5 -63.999 -15s-30.166 -24.5 -38.499 -43.5s-14 -38.5 -17 -58.5s-4.5 -43.667 -4.5 -71s1.5 -51 4.5 -71s8.66699 -39.5 17 -58.5s21.166 -33.5 38.499 -43.5s38.666 -15 63.999 -15
s46.666 5 63.999 15s30 24.5 38 43.5s13.5 38.5 16.5 58.5s4.5 43.667 4.5 71z" />
    <glyph glyph-name="beta" horiz-adv-x="553" 
d="M505 202c0 -56 -18.168 -104.668 -54.501 -146.001s-80.5 -62 -132.5 -62c-35.333 0 -65.166 4.5 -89.499 13.5s-46.833 26.167 -67.5 51.5v-59h-71v533c0 52 17.833 94.833 53.5 128.5s81.5 50.5 137.5 50.5c56.667 0 102 -14.667 136 -44s51 -71.333 51 -126
c0 -36 -7.83301 -68.667 -23.5 -98s-40.167 -48.666 -73.5 -57.999c89.333 -14.667 134 -76 134 -184zM434.999 204.999c0 30 -4.33398 55 -13.001 75s-21.167 34.833 -37.5 44.5s-33.166 16.167 -50.499 19.5s-38 5 -62 5h-59v57h61c83.333 0 125 42 125 126
c0 41.333 -10.667 71.833 -32 91.5s-49.333 29.5 -84 29.5c-40 0 -70.167 -12.667 -90.5 -38s-30.5 -59 -30.5 -101v-309c0 -41.333 11.167 -76.5 33.5 -105.5s55.833 -43.5 100.5 -43.5c46 0 80.667 14.833 104 44.5s35 64.5 35 104.5z" />
    <glyph glyph-name="gamma" horiz-adv-x="447" 
d="M435 492l-176 -487v-225h-71v225l-176 487h77l135 -398l134 398h77z" />
    <glyph glyph-name="delta" horiz-adv-x="531" 
d="M467 253c0 -94.667 -20.668 -163 -62.001 -205c-34.667 -36 -81.667 -54 -141 -54c-57.333 0 -103.333 18 -138 54c-41.333 42 -62 108 -62 198c0 85.333 20 148.333 60 189c34 35.333 77.333 53 130 53c22.667 0 41.667 -3.66699 57 -11l-193 175v60h306v-60h-217
l158 -146c38.667 -36 65.334 -74.5 80.001 -115.5s22 -86.833 22 -137.5zM393.999 246c0 70 -12.332 119 -36.999 147c-22.667 26 -52.334 39 -89.001 39c-38 0 -68.667 -12.333 -92 -37c-26.667 -27.333 -40 -77 -40 -149s12.667 -121.667 38 -149
c24 -26 54.333 -39 91 -39c38 0 68.667 12.667 92 38c24.667 26.667 37 76.667 37 150z" />
    <glyph glyph-name="epsilon" horiz-adv-x="493" 
d="M450 73c-56 -52.667 -126.001 -79.001 -210.001 -79.001c-50 0 -92.167 12.333 -126.5 37s-51.5 59.667 -51.5 105c0 55.333 26.667 94 80 116c-47.333 18.667 -71 54.334 -71 107.001c0 42.667 17.333 76.5 52 101.5s75.667 37.5 123 37.5
c42.667 0 78.334 -5.33301 107.001 -16s57 -29 85 -55l-45 -48c-42.667 38.667 -90.667 58 -144 58c-26.667 0 -50.667 -7.5 -72 -22.5s-32 -34.167 -32 -57.5c0 -24 7.83301 -43 23.5 -57s38.167 -21 67.5 -21h87v-57h-85c-36 0 -61.833 -7.83301 -77.5 -23.5
s-23.5 -35.5 -23.5 -59.5s10.167 -43.833 30.5 -59.5s45.5 -23.5 75.5 -23.5c60.667 0 113 20.333 157 61z" />
    <glyph glyph-name="zeta" horiz-adv-x="470" 
d="M434 -45c0 -33.333 -10.833 -60.833 -32.5 -82.5s-56.5 -32.5 -104.5 -32.5v56c48 0 72 18 72 54c0 18 -6 30.833 -18 38.5s-31 11.5 -57 11.5h-48c-66.667 -0 -115.667 9.83301 -147 29.5s-47 53.5 -47 101.5c0 52 22.333 96.667 67 134c112 98 177 152.333 195 163
h-232v64h343v-64l-152 -126l-43 -35c-18.667 -15.333 -31.167 -25.833 -37.5 -31.5l-26.5 -24.5c-11.333 -10.667 -18.833 -19.334 -22.5 -26.001s-7.16699 -14.667 -10.5 -24s-5 -19 -5 -29c0 -25.333 10.5 -42.666 31.5 -51.999s53.833 -14 98.5 -14h39
c41.333 0 74.5 -9 99.5 -27s37.5 -46 37.5 -84z" />
    <glyph glyph-name="eta" horiz-adv-x="562" 
d="M477 0h-72v303c0 42.667 -10.667 75.167 -32 97.5s-51 33.5 -89 33.5s-67.833 -11.333 -89.5 -34s-32.5 -55 -32.5 -97v-303h-72v492h72v-54c34.667 40 80.667 60 138 60c53.333 0 95.333 -15.333 126 -46c34 -33.333 51 -79 51 -137v-315z" />
    <glyph glyph-name="theta" horiz-adv-x="552" 
d="M482 356c0 -90.667 -3.99902 -154.669 -11.999 -192.002c-10.667 -48.667 -29.334 -86.667 -56.001 -114c-37.333 -37.333 -83.333 -56 -138 -56c-54 0 -99.667 18.667 -137 56c-16.667 16.667 -30 36.334 -40 59.001s-17 49.334 -21 80.001s-6.33301 55.334 -7 74.001
s-1 45 -1 79v14v14c0 33.333 0.333008 59.666 1 78.999s3 44 7 74s11 56.5 21 79.5s23.333 42.833 40 59.5c37.333 37.333 83 56 137 56c54.667 0 100.667 -18.667 138 -56c21.333 -21.333 37.333 -50.833 48 -88.5s16.667 -69.167 18 -94.5s2 -60.333 2 -105v-18z
M410.001 345.998l-269.003 -0.000976562c0 -39.333 0.333008 -69.5 1 -90.5s5 -49.333 13 -85s19.667 -61.167 35 -76.5c24.667 -24.667 53.334 -37 86.001 -37s61.334 12.333 86.001 37c14.667 14.667 25.834 38.334 33.501 71.001s12 60 13 82s1.5 51.333 1.5 88v11z
M409.998 408.997c-1.33301 108.667 -17.333 178.334 -48 209.001c-24 24 -52.667 36 -86 36s-62 -12 -86 -36c-30.667 -30.667 -46.667 -100.334 -48 -209.001h268z" />
    <glyph glyph-name="iota" horiz-adv-x="297" 
d="M265 0l-52 0.000976562c-41.333 0 -72.5 11.833 -93.5 35.5s-31.5 55.5 -31.5 95.5v361h72v-358c0 -24.667 5 -42.834 15 -54.501s27 -17.5 51 -17.5h39v-62z" />
    <glyph glyph-name="kappa" horiz-adv-x="536" 
d="M503 0h-89l-156 252l-96 -109v-143h-72v492h72v-256l222 256h89l-166 -188z" />
    <glyph glyph-name="lambda" horiz-adv-x="479" 
d="M487 0h-27.998c-34.667 -0 -63.334 10.333 -86.001 31c-15.333 14.667 -27.333 35 -36 61l-97 302l-1 -1l-145 -393h-78l191 483l-37 117c-6.66699 20.667 -15 34.5 -25 41.5s-25.667 10.5 -47 10.5h-18v62h23c33.333 0 60.166 -6.5 80.499 -19.5
s35.833 -35.5 46.5 -67.5l167 -507c12.667 -38.667 35 -58 67 -58h23v-62z" />
    <glyph glyph-name="mu" horiz-adv-x="561" 
d="M471 0h-72v55c-35.333 -40.667 -81.333 -61 -138 -61c-44 0 -79.333 12.333 -106 37v-251h-72v712h72v-303c0 -42.667 10.667 -75.167 32 -97.5s51 -33.5 89 -33.5s68 11.333 90 34s33 55 33 97v303h72v-492z" />
    <glyph glyph-name="nu" horiz-adv-x="447" 
d="M435 492l-180 -492h-63l-180 492h77l135 -395l134 395h77z" />
    <glyph glyph-name="xi" horiz-adv-x="492" 
d="M472 615l-46 -45c-43.333 45.333 -90 68 -140 68c-38 0 -68.167 -11.167 -90.5 -33.5s-33.5 -52.833 -33.5 -91.5c0 -75.333 40.667 -113 122 -113h120v-63h-118c-38 0 -72.667 -12.333 -104 -37s-47 -60 -47 -106c0 -44.667 14 -77.5 42 -98.5s64 -31.5 108 -31.5h53
c34.667 0 63.334 -9.16699 86.001 -27.5s34 -45.5 34 -81.5c0 -33.333 -10.833 -60.833 -32.5 -82.5s-56.5 -32.5 -104.5 -32.5v56c47.333 0 71 18 71 54c0 18 -6 30.833 -18 38.5s-30.667 11.5 -56 11.5h-55c-58.667 0 -107.167 17.667 -145.5 53s-57.5 81.333 -57.5 138
c0 44.667 11.333 83 34 115s52.667 53.667 90 65c-28.667 8.66699 -51.834 26 -69.501 52s-26.5 56 -26.5 90c0 54.667 18.5 99.5 55.5 134.5s84.5 52.5 142.5 52.5c72.667 0 134.667 -28.333 186 -85z" />
    <glyph glyph-name="omicron" 
d="M466 246c0 -90 -20 -155.333 -60 -196c-37.333 -37.333 -84.333 -56 -141 -56s-103.667 18.667 -141 56c-40 40.667 -60 106 -60 196s20 155.333 60 196c37.333 37.333 84.333 56 141 56s103.667 -18.667 141 -56c40 -40.667 60 -106 60 -196zM394 246
c0 75.333 -13 126.002 -39 152.002c-24 24 -54 36 -90 36c-35.333 0 -65 -12 -89 -36c-26.667 -26.667 -40 -77.334 -40 -152.001s13.333 -125.334 40 -152.001c24 -24 53.667 -36 89 -36c36 0 66 12 90 36c26 26 39 76.667 39 152z" />
    <glyph glyph-name="pi" horiz-adv-x="591" 
d="M490 0h-69v427h-250v-427h-70v492h389v-492z" />
    <glyph glyph-name="rho" horiz-adv-x="517" 
d="M453 245c0 -96.667 -22.002 -166.001 -66.002 -208.001c-30 -28.667 -70.333 -43 -121 -43c-49.333 0 -92.666 20.667 -129.999 62v-276h-72v495c0 74.667 19.333 131.334 58 170.001c35.333 35.333 80.333 53 135 53c62.667 0 111.334 -21 146.001 -63
c33.333 -40.667 50 -104 50 -190zM380.998 245.999c0 70.667 -10 119.669 -30 147.002c-20 26.667 -51 40 -93 40c-38 0 -67 -12.667 -87 -38c-23.333 -28.667 -35 -77.334 -35 -146.001c0 -66 8.33301 -112.333 25 -139c22 -34 54.333 -51 97 -51
c25.333 0 46.5 5.16699 63.5 15.5s29.667 25.166 38 44.499s14 38.833 17 58.5s4.5 42.5 4.5 68.5z" />
    <glyph glyph-name="sigma1" horiz-adv-x="490" 
d="M443 425l-48.999 -46c-18.667 20.667 -36.334 35 -53.001 43s-36.667 12 -60 12c-50 0 -88 -18.667 -114 -56c-21.333 -30 -32 -74 -32 -132c0 -53.333 10.333 -95 31 -125c25.333 -36 66.333 -54.667 123 -56c98.667 -1.33301 148 -38 148 -110
c0 -33.333 -11 -60.833 -33 -82.5s-57 -32.5 -105 -32.5v56c48 0 72 18 72 54c0 21.333 -7.33301 35 -22 41s-35 9 -61 9c-70 0.666992 -125 21.834 -165 63.501s-60 102.5 -60 182.5c0 81.333 20 143.666 60 186.999s92.667 65 158 65c34.667 0 64.167 -5.33301 88.5 -16
s48.833 -29.667 73.5 -57z" />
    <glyph glyph-name="sigma" horiz-adv-x="546" 
d="M486 428l-90 -0.00292969c46.667 -32.667 70 -93.334 70 -182.001c0 -45.333 -4.33301 -83.166 -13 -113.499s-24 -57.166 -46 -80.499c-37.333 -38.667 -85 -58 -143 -58c-57.333 0 -104.666 19.333 -141.999 58c-38.667 40.667 -58 105.334 -58 194.001
c0 45.333 4.16699 82.833 12.5 112.5s23.5 55.834 45.5 78.501c35.333 36.667 82.666 55 141.999 55h222v-64zM395 245.997c0 68.667 -12.668 117.332 -38.001 145.999c-23.333 25.333 -54.333 38 -93 38c-36.667 0 -67 -13 -91 -39c-24.667 -28 -37 -76.333 -37 -145
c0 -71.333 12 -120.666 36 -147.999c24.667 -26.667 55.334 -40 92.001 -40c37.333 0 68.333 13.333 93 40c25.333 28.667 38 78 38 148z" />
    <glyph glyph-name="tau" horiz-adv-x="378" 
d="M346 428h-121v-428h-72v428h-121v64h314v-64z" />
    <glyph glyph-name="upsilon" horiz-adv-x="521" 
d="M453 245c0 -44 -3.50195 -81.499 -10.502 -112.499s-22.5 -58.5 -46.5 -82.5c-37.333 -37.333 -82.666 -56 -135.999 -56c-52.667 0 -97.667 18.667 -135 56c-24 24 -39.5 51.5 -46.5 82.5s-10.5 68.5 -10.5 112.5v247h71v-247v-10c0 -22 0.333008 -39.167 1 -51.5
s3.83398 -27.333 9.50098 -45s13.834 -31.834 24.501 -42.501c25.333 -25.333 54 -38 86 -38s60.667 12.667 86 38c12 12 20.667 28 26 48s8.16602 35 8.49902 45s0.5 28.667 0.5 56v247h72v-247z" />
    <glyph glyph-name="phi" horiz-adv-x="659" 
d="M595 250c0 -84.667 -17.1689 -148.498 -51.502 -191.498s-93.833 -64.5 -178.5 -64.5v-214h-72v214c-152.667 2 -229 86.667 -229 254c0 116 43.333 197 130 243l22 -60c-53.333 -34 -80 -96 -80 -186c0 -26.667 1.83301 -49.834 5.5 -69.501
s10.834 -38.834 21.501 -57.501s26.834 -33 48.501 -43s48.834 -15.667 81.501 -17v434h83c77.333 0 133.166 -19.833 167.499 -59.5s51.5 -100.5 51.5 -182.5zM521.998 253.002c0 29.333 -1.66699 53.334 -5 72.001s-10.333 36.5 -21 53.5s-26.667 29.5 -48 37.5
s-49 12 -83 12v-370c34.667 0.666992 63 6 85 16s38 24.833 48 44.5s16.5 39.167 19.5 58.5s4.5 44.666 4.5 75.999z" />
    <glyph glyph-name="chi" horiz-adv-x="478" 
d="M445 0h-87l-118 191l-120 -191h-87l167 251l-160 241h87l113 -182l111 182h87l-160 -241z" />
    <glyph glyph-name="psi" horiz-adv-x="641" 
d="M573 246c0 -82.667 -16.666 -144.667 -49.999 -186s-89 -63 -167 -65v-215h-73v215c-78 2 -133.333 23.5 -166 64.5s-49 103.167 -49 186.5v246h72v-246c0 -64 9.66699 -110.333 29 -139s57.333 -44 114 -46v431h73v-431c57.333 2 95.666 17.333 114.999 46s29 75 29 139
v246h73v-246z" />
    <glyph glyph-name="omega" horiz-adv-x="723" 
d="M659 242c0 -76 -11.666 -134.332 -34.999 -174.999c-28 -48.667 -73.333 -73 -136 -73c-30.667 0 -56.834 8.66699 -78.501 26s-37.834 39.666 -48.501 66.999c-10.667 -27.333 -26.834 -49.666 -48.501 -66.999s-47.5 -26 -77.5 -26c-62.667 0 -108 24.333 -136 73
c-23.333 40.667 -35 99 -35 175c0 35.333 4.33301 70.666 13 105.999s21 62.333 37 81c36.667 43.333 79.334 66.333 128.001 69v-66c-15.333 -1.33301 -30.333 -7.33301 -45 -18s-26 -22.334 -34 -35.001c-10.667 -17.333 -18 -35.166 -22 -53.499s-6 -46.166 -6 -83.499
c0 -64 8 -110.333 24 -139c17.333 -30 42.666 -45 75.999 -45c40.667 0 68 26.333 82 79c5.33301 22.667 8 55.334 8 98.001v126h73v-126c0 -45.333 2.33301 -78 7 -98c12 -52.667 39.667 -79 83 -79c33.333 0 58.666 15 75.999 45c15.333 27.333 23 73.666 23 138.999
c0 38 -2 66 -6 84s-11 35.667 -21 53c-7.33301 12.667 -18.666 24.334 -33.999 35.001s-30.666 16.667 -45.999 18v66c48.667 -2.66699 91.334 -25.667 128.001 -69c16 -18.667 28.5 -45.834 37.5 -81.501s13.5 -70.834 13.5 -105.501z" />
    <glyph glyph-name="iotadieresis" horiz-adv-x="297" 
d="M265 0l-52 0.000976562c-41.333 0 -72.5 11.833 -93.5 35.5s-31.5 55.5 -31.5 95.5v361h72v-358c0 -24.667 5 -42.834 15 -54.501s27 -17.5 51 -17.5h39v-62zM269 602.001h-72v89h72v-89zM57 602.001h-72v89h72v-89z" />
    <glyph glyph-name="upsilondieresis" horiz-adv-x="521" 
d="M453 245c0 -44 -3.50195 -81.499 -10.502 -112.499s-22.5 -58.5 -46.5 -82.5c-37.333 -37.333 -82.666 -56 -135.999 -56c-52.667 0 -97.667 18.667 -135 56c-24 24 -39.5 51.5 -46.5 82.5s-10.5 68.5 -10.5 112.5v247h71v-247v-10c0 -22 0.333008 -39.167 1 -51.5
s3.83398 -27.333 9.50098 -45s13.834 -31.834 24.501 -42.501c25.333 -25.333 54 -38 86 -38s60.667 12.667 86 38c12 12 20.667 28 26 48s8.16602 35 8.49902 45s0.5 28.667 0.5 56v247h72v-247zM406.998 602.001h-72v89h72v-89zM194.998 602.001h-72v89h72v-89z" />
    <glyph glyph-name="omicrontonos" 
d="M466 246c0 -90 -20 -155.333 -60 -196c-37.333 -37.333 -84.333 -56 -141 -56s-103.667 18.667 -141 56c-40 40.667 -60 106 -60 196s20 155.333 60 196c37.333 37.333 84.333 56 141 56s103.667 -18.667 141 -56c40 -40.667 60 -106 60 -196zM394 246
c0 75.333 -13 126.002 -39 152.002c-24 24 -54 36 -90 36c-35.333 0 -65 -12 -89 -36c-26.667 -26.667 -40 -77.334 -40 -152.001s13.333 -125.334 40 -152.001c24 -24 53.667 -36 89 -36c36 0 66 12 90 36c26 26 39 76.667 39 152zM304 613.002l-76 -38v137h76v-99z" />
    <glyph glyph-name="upsilontonos" horiz-adv-x="521" 
d="M453 245c0 -44 -3.50195 -81.499 -10.502 -112.499s-22.5 -58.5 -46.5 -82.5c-37.333 -37.333 -82.666 -56 -135.999 -56c-52.667 0 -97.667 18.667 -135 56c-24 24 -39.5 51.5 -46.5 82.5s-10.5 68.5 -10.5 112.5v247h71v-247v-10c0 -22 0.333008 -39.167 1 -51.5
s3.83398 -27.333 9.50098 -45s13.834 -31.834 24.501 -42.501c25.333 -25.333 54 -38 86 -38s60.667 12.667 86 38c12 12 20.667 28 26 48s8.16602 35 8.49902 45s0.5 28.667 0.5 56v247h72v-247zM293.998 613.001l-76 -38v137h76v-99z" />
    <glyph glyph-name="omegatonos" horiz-adv-x="723" 
d="M659 242c0 -76 -11.666 -134.332 -34.999 -174.999c-28 -48.667 -73.333 -73 -136 -73c-30.667 0 -56.834 8.66699 -78.501 26s-37.834 39.666 -48.501 66.999c-10.667 -27.333 -26.834 -49.666 -48.501 -66.999s-47.5 -26 -77.5 -26c-62.667 0 -108 24.333 -136 73
c-23.333 40.667 -35 99 -35 175c0 35.333 4.33301 70.666 13 105.999s21 62.333 37 81c36.667 43.333 79.334 66.333 128.001 69v-66c-15.333 -1.33301 -30.333 -7.33301 -45 -18s-26 -22.334 -34 -35.001c-10.667 -17.333 -18 -35.166 -22 -53.499s-6 -46.166 -6 -83.499
c0 -64 8 -110.333 24 -139c17.333 -30 42.666 -45 75.999 -45c40.667 0 68 26.333 82 79c5.33301 22.667 8 55.334 8 98.001v126h73v-126c0 -45.333 2.33301 -78 7 -98c12 -52.667 39.667 -79 83 -79c33.333 0 58.666 15 75.999 45c15.333 27.333 23 73.666 23 138.999
c0 38 -2 66 -6 84s-11 35.667 -21 53c-7.33301 12.667 -18.666 24.334 -33.999 35.001s-30.666 16.667 -45.999 18v66c48.667 -2.66699 91.334 -25.667 128.001 -69c16 -18.667 28.5 -45.834 37.5 -81.501s13.5 -70.834 13.5 -105.501zM394.001 613.001l-76 -38v137h76v-99z
" />
    <glyph glyph-name="beta1" horiz-adv-x="553" 
d="M505 202c0 -56 -18.167 -104.668 -54.5 -146.001s-80.5 -62 -132.5 -62c-35.333 0 -65 4.33301 -89 13s-46.333 25.667 -67 51v-278h-72v753c0 52 17.833 94.833 53.5 128.5s81.5 50.5 137.5 50.5c56.667 0 102 -14.667 136 -44s51 -71.333 51 -126
c0 -36 -7.83301 -68.667 -23.5 -98s-40.167 -48.666 -73.5 -57.999c89.333 -14.667 134 -76 134 -184zM435 204.999c0 30 -4.33398 55 -13.001 75s-21.167 34.833 -37.5 44.5s-33.166 16.167 -50.499 19.5s-38 5 -62 5h-59v57h61c83.333 0 125 42 125 126
c0 41.333 -10.667 71.833 -32 91.5s-49.333 29.5 -84 29.5c-40 0 -70.167 -12.667 -90.5 -38s-30.5 -59 -30.5 -101v-309c0 -41.333 11.167 -76.5 33.5 -105.5s55.833 -43.5 100.5 -43.5c46 0 80.667 14.833 104 44.5s35 64.5 35 104.5z" />
    <glyph glyph-name="afii10023" horiz-adv-x="600" 
d="M545 0h-442v712h442v-68h-366v-251h312v-68h-312v-257h366v-68zM455 789h-72v89h72v-89zM243 789h-72v89h72v-89z" />
    <glyph glyph-name="afii10051" horiz-adv-x="744" 
d="M277 368v-368.001h-76v644h-175v68h487v-68h-236v-209h160c66 0 119 -19 159 -57s60 -88.333 60 -151v-19c0 -62.667 -20 -113 -60 -151s-93 -57 -159 -57h-41v66h33c47.333 0 84.333 12.5 111 37.5s40 59.833 40 104.5v19c0 44.667 -13.333 79.334 -40 104.001
s-63.667 37 -111 37h-152z" />
    <glyph glyph-name="afii10052" horiz-adv-x="569" 
d="M538 644h-352v-644h-76v712h428v-68zM441 934l-108 -153h-66l88 153h86z" />
    <glyph glyph-name="afii10053" horiz-adv-x="637" 
d="M497 206l75 0.000976562c-12 -66.667 -40.167 -118.667 -84.5 -156s-98.5 -56 -162.5 -56c-72 0 -132.667 24.667 -182 74c-30.667 30.667 -49.5 64.5 -56.5 101.5s-10.5 99.167 -10.5 186.5s3.5 149.5 10.5 186.5s25.833 70.833 56.5 101.5c49.333 49.333 110 74 182 74
c64.667 0 119 -18.667 163 -56s72 -89.333 84 -156h-77c-9.33301 44.667 -29 80 -59 106s-67 39 -111 39c-48.667 0 -90 -17 -124 -51c-20 -20.667 -33.167 -45 -39.5 -73s-9.5 -73 -9.5 -135h269v-67h-270c0.666992 -64.667 4.16699 -111.334 10.5 -140.001
s19.5 -53 39.5 -73c34 -34 75.333 -51 124 -51c44 0 81.167 13 111.5 39s50.5 61.333 60.5 106z" />
    <glyph glyph-name="afii10054" horiz-adv-x="588" 
d="M532 196c0 -62 -22.332 -111.165 -66.999 -147.498s-104.334 -54.5 -179.001 -54.5c-53.333 0 -99 7.33301 -137 22s-73.667 38.667 -107 72l52 52c28.667 -28.667 57.834 -48.834 87.501 -60.501s65.167 -17.5 106.5 -17.5c52 0 93 11.667 123 35s45 55.666 45 96.999
c0 39.333 -11.333 69 -34 89c-11.333 10 -23 17.167 -35 21.5s-31.333 8.5 -58 12.5l-83 13c-56.667 9.33301 -100.334 27.333 -131.001 54c-36 32 -54 76.333 -54 133c0 60.667 20.5 109.334 61.5 146.001s96.5 55 166.5 55c45.333 0 84.333 -6 117 -18
s64.334 -32 95.001 -60l-49 -49c-44.667 40.667 -100 61 -166 61c-46.667 0 -83.334 -12 -110.001 -36s-40 -56 -40 -96c0 -36 10.667 -63.333 32 -82c22 -19.333 54 -32.333 96 -39l78 -12c58 -8.66699 101.333 -25.334 130 -50.001c40 -34 60 -81 60 -141z" />
    <glyph glyph-name="afii10055" horiz-adv-x="282" 
d="M179 0h-76v712h76v-712z" />
    <glyph glyph-name="afii10056" horiz-adv-x="282" 
d="M179 0h-76v712h76v-712zM284 789h-72v89h72v-89zM72 789h-72v89h72v-89z" />
    <glyph glyph-name="afii10057" horiz-adv-x="501" 
d="M408 216c0 -68 -20.499 -122 -61.499 -162s-94.5 -60 -160.5 -60s-120.333 21.333 -163 64l51 51c15.333 -15.333 31.166 -27 47.499 -35s37.833 -12 64.5 -12c46.667 0 82.667 14.167 108 42.5s38 68.833 38 121.5v486h76v-496z" />
    <glyph glyph-name="afii10058" horiz-adv-x="1025" 
d="M909 209c0 44.667 -13.333 79.499 -40 104.499s-63.667 37.5 -111 37.5h-184v-283h184c47.333 0 84.333 12.333 111 37s40 59.334 40 104.001zM182 711.999l392 -0.00195312v-293h192c66 0 119 -19.167 159 -57.5s60 -89.166 60 -152.499
c0 -62.667 -20 -113.167 -60 -151.5s-93 -57.5 -159 -57.5h-268v644h-242v-244c0 -145.333 -17 -248.333 -51 -309s-86.333 -91 -157 -91h-36v68h19c24 0 44.5 4.83301 61.5 14.5s32.5 26.834 46.5 51.501s24.667 61 32 109s11 108 11 180v289z" />
    <glyph glyph-name="afii10059" horiz-adv-x="1043" 
d="M1003 209c0 -62.667 -20 -113.168 -60 -151.501s-93 -57.5 -159 -57.5h-268v351h-337v-351h-76v712h76v-293h337v293h76v-293h192c66 0 119 -19.167 159 -57.5s60 -89.166 60 -152.499zM927 208.999c0 44.667 -13.333 79.499 -40 104.499s-63.667 37.5 -111 37.5h-184
v-283h184c47.333 0 84.333 12.333 111 37s40 59.334 40 104.001z" />
    <glyph glyph-name="afii10060" horiz-adv-x="744" 
d="M656 0l-76 -0.000976562v227c0 44.667 -13.333 79.334 -40 104.001s-63.667 37 -111 37h-152v-368h-76v644h-175v68h487v-68h-236v-209h160c66 0 119 -19 159 -57s60 -88.333 60 -151v-227z" />
    <glyph glyph-name="afii10061" horiz-adv-x="610" 
d="M183 0h-76v712h76v-339l305 339h96l-312 -338l339 -374h-101l-327 371v-371zM453 934l-108 -153h-66l88 153h86z" />
    <glyph glyph-name="afii10062" horiz-adv-x="546" 
d="M429 883c-5.33301 -84 -54 -126 -146 -126s-140.667 42 -146 126h64c4 -49.333 31.333 -74 82 -74s78 24.667 82 74h64zM537 712l-258 -601c-32 -74 -78.667 -111 -140 -111h-62v68h45c24 0 43 5.5 57 16.5s26.333 29.167 37 54.5l29 67l-235 506h81l192 -421l173 421h81
z" />
    <glyph glyph-name="afii10145" horiz-adv-x="696" 
d="M592 0h-206v-172h-75v172h-208v712h76v-644h337v644h76v-712z" />
    <glyph glyph-name="afii10017" horiz-adv-x="611" 
d="M599 0h-81l-57 161h-311l-57 -161h-81l262 712h64zM439 227l-132 376l-134 -376h266z" />
    <glyph glyph-name="afii10018" horiz-adv-x="656" 
d="M591 209c0 -62.667 -20 -113.168 -60 -151.501s-93 -57.5 -159 -57.5h-269v712h444v-68h-368v-225h193c66 0 119 -19.167 159 -57.5s60 -89.166 60 -152.499zM515 208.999c0 44.667 -13.167 79.499 -39.5 104.499s-63.166 37.5 -110.499 37.5h-186v-283h186
c47.333 0 84.166 12.333 110.499 37s39.5 59.334 39.5 104.001z" />
    <glyph glyph-name="afii10019" horiz-adv-x="668" 
d="M592 195c0 -60.667 -18.834 -108.333 -56.501 -143s-89.5 -52 -155.5 -52h-277v712h268c62.667 0 113.334 -17.167 152.001 -51.5s58 -79.5 58 -135.5c0 -51.333 -17.333 -93.333 -52 -126c-11.333 -11.333 -29 -22.333 -53 -33c28 -12 49 -25 63 -39
c35.333 -34 53 -78 53 -132zM504.999 521.001c0 38.667 -12.333 68.833 -37 90.5s-59 32.5 -103 32.5h-186v-247h186c44 0 78.333 11 103 33s37 52.333 37 91zM515.999 199c0 40 -12.833 71.667 -38.5 95s-60.5 35 -104.5 35h-194v-261h194c44 0 78.833 11.833 104.5 35.5
s38.5 55.5 38.5 95.5z" />
    <glyph glyph-name="afii10020" horiz-adv-x="569" 
d="M538 644h-352v-644h-76v712h428v-68z" />
    <glyph glyph-name="afii10021" horiz-adv-x="694" 
d="M26 68h63c60 94 90 228.667 90 404v240h389v-644h85v-240h-75v172h-477v-172h-75v240zM174 68h318v576h-241v-219c0 -148 -25.667 -267 -77 -357z" />
    <glyph glyph-name="afii10022" horiz-adv-x="600" 
d="M545 0h-442v712h442v-68h-366v-251h312v-68h-312v-257h366v-68z" />
    <glyph glyph-name="afii10024" horiz-adv-x="900" 
d="M99 0h-100l326 374l-300 338h96l291 -339v339h76v-339l290 339h96l-299 -338l326 -374h-100l-313 371v-371h-76v371z" />
    <glyph glyph-name="afii10025" horiz-adv-x="616" 
d="M303 -6c-62.667 0 -115.831 18.833 -159.498 56.5s-71.167 89.5 -82.5 155.5h75c9.33301 -44.667 29.166 -80 59.499 -106s67.5 -39 111.5 -39c46 0 83.667 12.333 113 37s44 58 44 100c0 88.667 -48.333 133 -145 133h-90v66h93c41.333 0 73.5 11.167 96.5 33.5
s34.5 54.166 34.5 95.499c0 40 -13 71 -39 93s-61.333 33 -106 33c-44 0 -80.833 -13.167 -110.5 -39.5s-49.5 -61.833 -59.5 -106.5h-76c11.333 66.667 39 118.667 83 156s98.667 56 164 56c64.667 0 117.5 -17.167 158.5 -51.5s61.5 -80.166 61.5 -137.499
c0 -76.667 -34.333 -130.667 -103 -162c76 -28 114 -85 114 -171c0 -60.667 -22.333 -109.5 -67 -146.5s-101.334 -55.5 -170.001 -55.5z" />
    <glyph glyph-name="afii10026" horiz-adv-x="716" 
d="M613 0h-76v581l-362 -581h-72v712h76v-580l362 580h72v-712z" />
    <glyph glyph-name="afii10027" horiz-adv-x="716" 
d="M613 0h-76v581l-362 -581h-72v712h76v-580l362 580h72v-712zM504 883c-5.33301 -84 -54 -126 -146 -126s-140.667 42 -146 126h64c4 -49.333 31.333 -74 82 -74s78 24.667 82 74h64z" />
    <glyph glyph-name="afii10028" horiz-adv-x="610" 
d="M183 0h-76v712h76v-339l305 339h96l-312 -338l339 -374h-101l-327 371v-371z" />
    <glyph glyph-name="afii10029" horiz-adv-x="677" 
d="M574 0l-76 -0.000976562v644h-242v-244c0 -145.333 -17 -248.333 -51 -309s-86.333 -91 -157 -91h-36v68h19c24 0 44.5 4.83301 61.5 14.5s32.5 26.834 46.5 51.501s24.667 61 32 109s11 108 11 180v289h392v-712z" />
    <glyph glyph-name="afii10030" horiz-adv-x="816" 
d="M713 0h-76v541l-195 -429h-65l-198 429v-541h-76v712h76l232 -505l226 505h76v-712z" />
    <glyph glyph-name="afii10031" horiz-adv-x="696" 
d="M593 0h-76v325h-338v-325h-76v712h76v-319h338v319h76v-712z" />
    <glyph glyph-name="afii10032" horiz-adv-x="650" 
d="M574 405v-49.001c0 -82.667 -3.66699 -143.834 -11 -183.501s-26 -74.5 -56 -104.5c-49.333 -49.333 -110 -74 -182 -74s-132.667 24.667 -182 74c-30 30 -48.667 64.833 -56 104.5s-11 100.834 -11 183.501v55c0 52.667 4.33301 97.834 13 135.501
s26.667 70.167 54 97.5c49.333 49.333 110 74 182 74s132.667 -24.667 182 -74c28 -28 46.167 -61.167 54.5 -99.5s12.5 -84.833 12.5 -139.5zM498 320.999v73.0029c0 52 -3 93.833 -9 125.5s-19.667 58.167 -41 79.5c-34 34 -75 51 -123 51s-89 -17 -123 -51
c-16 -16 -27.833 -36.5 -35.5 -61.5s-12 -47.5 -13 -67.5s-1.5 -51 -1.5 -93v-71c0 -46.667 3.16699 -85.334 9.5 -116.001s19.833 -56.334 40.5 -77.001c34 -34 75 -51 123 -51s89 17 123 51c15.333 15.333 26.833 35.333 34.5 60s12.167 46.667 13.5 66s2 46.666 2 81.999
z" />
    <glyph glyph-name="afii10033" horiz-adv-x="696" 
d="M592 0h-76v644h-337v-644h-76v712h489v-712z" />
    <glyph glyph-name="afii10034" horiz-adv-x="630" 
d="M588 503c0 -63.333 -20.167 -114.167 -60.5 -152.5s-93.5 -57.5 -159.5 -57.5h-189v-293h-76v712h265c66 0 119.167 -19.167 159.5 -57.5s60.5 -88.833 60.5 -151.5zM512 502.999c0 44.667 -13.333 79.333 -40 104s-63.667 37 -111 37h-182v-283h182
c47.333 0 84.333 12.5 111 37.5s40 59.833 40 104.5z" />
    <glyph glyph-name="afii10035" horiz-adv-x="637" 
d="M572 206c-11.333 -66 -39.332 -117.833 -83.999 -155.5s-99 -56.5 -163 -56.5c-72 0 -132.667 24.667 -182 74c-30.667 30.667 -49.5 64.5 -56.5 101.5s-10.5 99.167 -10.5 186.5s3.5 149.5 10.5 186.5s25.833 70.833 56.5 101.5c49.333 49.333 110 74 182 74
c64.667 0 119 -18.667 163 -56s72 -89.333 84 -156h-78c-9.33301 44 -28.833 79 -58.5 105s-66.5 39 -110.5 39c-50 0 -91 -16.667 -123 -50c-21.333 -22 -35 -48.667 -41 -80s-9 -86 -9 -164s3 -132.667 9 -164s19.667 -58 41 -80c32 -33.333 73 -50 123 -50
c44 0 81.167 13 111.5 39s50.166 61 59.499 105h76z" />
    <glyph glyph-name="afii10036" horiz-adv-x="548" 
d="M518 644h-206v-644h-76v644h-206v68h488v-68z" />
    <glyph glyph-name="afii10037" horiz-adv-x="546" 
d="M537 712l-258 -601c-32 -74 -78.667 -111 -140 -111h-62v68h45c24 0 43 5.5 57 16.5s26.333 29.167 37 54.5l29 67l-235 506h81l192 -421l173 421h81z" />
    <glyph glyph-name="afii10038" horiz-adv-x="779" 
d="M428 606v-453c79.333 2 135.833 21.833 169.5 59.5s50.5 93.167 50.5 166.5c0 74 -16.333 129.833 -49 167.5s-89.667 57.5 -171 59.5zM352 153v453c-82 -2 -139.333 -21.833 -172 -59.5s-49 -93.5 -49 -167.5c0 -73.333 16.833 -128.833 50.5 -166.5
s90.5 -57.5 170.5 -59.5zM428 -4h-76.001v92c-103.333 3.33301 -178.666 29.5 -225.999 78.5s-71 120.833 -71 215.5c0 94 24 164.833 72 212.5s123 73.167 225 76.5v67h76v-67c102 -3.33301 176.833 -28.833 224.5 -76.5s71.5 -118.5 71.5 -212.5
c0 -95.333 -23.667 -167.333 -71 -216s-122.333 -74.667 -225 -78v-92z" />
    <glyph glyph-name="afii10039" horiz-adv-x="551" 
d="M536 0h-88l-173 299l-174 -299h-86l218 365l-204 347h88l158 -281l158 281h88l-205 -347z" />
    <glyph glyph-name="afii10040" horiz-adv-x="718" 
d="M677 -172h-75v172h-499v712h76v-644h337v644h76v-644h85v-240z" />
    <glyph glyph-name="afii10041" horiz-adv-x="645" 
d="M542 0h-75.999v291c-88 -18 -155 -27 -201 -27c-54.667 0 -99.834 14.167 -135.501 42.5s-53.5 73.5 -53.5 135.5v270h76v-256c0 -82.667 44 -124 132 -124c38 0 98.667 8.33301 182 25v355h76v-712z" />
    <glyph glyph-name="afii10042" horiz-adv-x="997" 
d="M894 0h-791v712h76v-644h281v644h77v-644h281v644h76v-712z" />
    <glyph glyph-name="afii10043" horiz-adv-x="1019" 
d="M978 -172h-75v172h-800v712h76v-644h281v644h77v-644h281v644h76v-644h84v-240z" />
    <glyph glyph-name="afii10044" horiz-adv-x="727" 
d="M687 209c0 -62.667 -20 -113.168 -60 -151.501s-93 -57.5 -159 -57.5h-268v644h-170v68h247v-293h191c66 0 119 -19.167 159 -57.5s60 -89.166 60 -152.499zM611 208.999c0 44.667 -13.167 79.499 -39.5 104.499s-63.166 37.5 -110.499 37.5h-184v-283h184
c47.333 0 84.166 12.333 110.499 37s39.5 59.334 39.5 104.001z" />
    <glyph glyph-name="afii10045" horiz-adv-x="864" 
d="M761 0h-76v712h76v-712zM590 209c0 -62.667 -20.167 -113.168 -60.5 -151.501s-93.5 -57.5 -159.5 -57.5h-267v712h76v-293h191c66.667 0 120 -19.167 160 -57.5s60 -89.166 60 -152.499zM513 208.999c0 44.667 -13.167 79.499 -39.5 104.499s-63.166 37.5 -110.499 37.5
h-184v-283h184c47.333 0 84.166 12.333 110.499 37s39.5 59.334 39.5 104.001z" />
    <glyph glyph-name="afii10046" horiz-adv-x="630" 
d="M590 209c0 -62.667 -20.167 -113.168 -60.5 -151.501s-93.5 -57.5 -159.5 -57.5h-267v712h76v-293h191c66.667 0 120 -19.167 160 -57.5s60 -89.166 60 -152.499zM513 208.999c0 44.667 -13.167 79.499 -39.5 104.499s-63.166 37.5 -110.499 37.5h-184v-283h184
c47.333 0 84.166 12.333 110.499 37s39.5 59.334 39.5 104.001z" />
    <glyph glyph-name="afii10047" horiz-adv-x="637" 
d="M65 206l75 -0.000976562c10 -44.667 30.167 -80 60.5 -106s67.5 -39 111.5 -39c48.667 0 90 17 124 51c20 20 33.167 44.333 39.5 73s9.83301 75.334 10.5 140.001h-270v67h269c0 62 -3.16699 107 -9.5 135s-19.5 52.333 -39.5 73c-34 34 -75.333 51 -124 51
c-44 0 -81 -13 -111 -39s-49.667 -61.333 -59 -106h-77c12 66.667 40 118.667 84 156s98.333 56 163 56c72 0 132.667 -24.667 182 -74c30.667 -30.667 49.5 -64.5 56.5 -101.5s10.5 -99.167 10.5 -186.5s-3.5 -149.5 -10.5 -186.5s-25.833 -70.833 -56.5 -101.5
c-49.333 -49.333 -110 -74 -182 -74c-64 0 -118.167 18.667 -162.5 56s-72.5 89.333 -84.5 156z" />
    <glyph glyph-name="afii10048" horiz-adv-x="903" 
d="M828 356c0 -86.667 -3.83496 -148.834 -11.502 -186.501s-26.167 -71.5 -55.5 -101.5c-49.333 -49.333 -110 -74 -182 -74s-132.667 24.667 -182 74c-28 28.667 -46.167 61 -54.5 97s-12.5 89.333 -12.5 160h-151v-325h-76v712h76v-319h151
c0.666992 67.333 4.83398 118.833 12.501 154.5s25.834 67.834 54.501 96.501c49.333 49.333 110 74 182 74s132.667 -24.667 182 -74c26 -26.667 43.667 -58 53 -94s14 -79.333 14 -130v-64zM750.998 344v30.999c0 69.333 -3.16699 119 -9.5 149s-19.5 55.333 -39.5 76
c-33.333 33.333 -74.333 50 -123 50c-50 0 -91 -16.667 -123 -50c-21.333 -21.333 -35 -48.666 -41 -81.999s-9 -85.333 -9 -156v-35c0 -64 3.5 -110.5 10.5 -139.5s20.167 -53.833 39.5 -74.5c34 -34 75 -51 123 -51c49.333 0 90.333 17 123 51
c15.333 16 26.833 36.333 34.5 61s12 47.667 13 69s1.5 55 1.5 101z" />
    <glyph glyph-name="afii10049" horiz-adv-x="655" 
d="M300 293l-155.001 -292.999h-89l164 304c-47.333 11.333 -84.666 34.666 -111.999 69.999s-41 78.333 -41 129c0 63.333 20.167 114 60.5 152s93.5 57 159.5 57h265v-712h-76v293h-176zM475.999 361.001v284h-182c-47.333 0 -84.333 -12.5 -111 -37.5
s-40 -59.833 -40 -104.5s13.333 -79.5 40 -104.5s63.667 -37.5 111 -37.5h182z" />
    <glyph glyph-name="afii10065" horiz-adv-x="526" 
d="M441 0l-72.001 0.00195312v47c-21.333 -20 -40 -33.333 -56 -40c-20 -8.66699 -49 -13 -87 -13c-56.667 0 -100 12.333 -130 37s-45 60.667 -45 108c0 44.667 15 79.5 45 104.5s71.667 37.5 125 37.5h148v47c0 37.333 -10.333 64.666 -31 81.999s-53.334 26 -98.001 26
c-30.667 0 -56 -5 -76 -15c-14.667 -6.66699 -29.667 -20.334 -45 -41.001l-49 45c22.667 26 43.334 43.667 62.001 53c26.667 13.333 63.334 20 110.001 20c132.667 0 199 -54.667 199 -164v-334zM368.999 174.002v52.999h-138c-73.333 0 -110 -29 -110 -87
c0 -29.333 9.5 -50.666 28.5 -63.999s49.167 -20 90.5 -20c46 0 79 9.16699 99 27.5s30 48.5 30 90.5z" />
    <glyph glyph-name="afii10066" horiz-adv-x="533" 
d="M273 58c36 0 65.332 12 87.999 36c26 28 39 77.333 39 148c0 76.667 -12.667 128 -38 154c-24 25.333 -53.667 38 -89 38c-36 0 -66 -12.667 -90 -38c-27.333 -29.333 -41 -80 -41 -152c0 -70.667 14 -120.667 42 -150c22.667 -24 52.334 -36 89.001 -36zM272.999 -6
c-45.333 0 -83.999 11.498 -115.999 34.498s-54.667 55.167 -68 96.5c-12 38 -18 110.667 -18 218c0 100.667 4 169.667 12 207s27 70 57 98c14 13.333 29.667 24.333 47 33s37.833 15.167 61.5 19.5s43 7.33301 58 9s37.667 3.16699 68 4.5s50.166 2.33301 59.499 3v-65
c-5.33301 -0.666992 -29.333 -2.16699 -72 -4.5s-77.5 -6.66602 -104.5 -12.999s-49.167 -16.833 -66.5 -31.5c-21.333 -18.667 -35.833 -42.167 -43.5 -70.5s-11.5 -65.166 -11.5 -110.499c12 22 31.667 39.667 59 53s57 20 89 20c50.667 0 91.667 -14.667 123 -44
c42.667 -40 64 -108 64 -204c0 -92.667 -20 -159 -60 -199c-34.667 -36 -80.667 -54 -138 -54z" />
    <glyph glyph-name="afii10067" horiz-adv-x="539" 
d="M472 136c0 -42 -13 -75.166 -39 -99.499s-62 -36.5 -108 -36.5h-234v492h228c43.333 0 78.333 -11.833 105 -35.5s40 -54.834 40 -93.501c0 -53.333 -26 -89.333 -78 -108c57.333 -21.333 86 -61 86 -119zM393 357.001c0 48.667 -29 73 -87 73h-144v-147h144
c58 0 87 24.667 87 74zM401 143.001c0 24.667 -7.83301 44.332 -23.5 58.999s-37.5 22 -65.5 22h-150v-162h150c28 0 49.833 7.33301 65.5 22s23.5 34.334 23.5 59.001z" />
    <glyph glyph-name="afii10068" horiz-adv-x="417" 
d="M406 430h-240v-430h-72v492h312v-62z" />
    <glyph glyph-name="afii10069" horiz-adv-x="556" 
d="M523 -147h-70v147h-366v-147h-69v209h58c22 49.333 38.333 97.333 49 144s16 110.667 16 192v94h309v-430h73v-209zM378 62l0.000976562 368h-168v-93c-0.666992 -100 -19.334 -191.667 -56.001 -275h224z" />
    <glyph glyph-name="afii10070" 
d="M467 227l-332.002 0.00195312c2 -39.333 7 -69 15 -89c22.667 -54 67.334 -81 134.001 -81c21.333 0 42.333 4 63 12c18.667 8 39.334 22.667 62.001 44l49 -43c-30 -29.333 -57.667 -49 -83 -59c-28 -11.333 -59.667 -17 -95 -17c-71.333 0 -125.333 21.667 -162 65
s-55 106.666 -55 189.999c0 77.333 18 138.166 54 182.499s85.333 66.5 148 66.5s112 -21.333 148 -64s54 -100.667 54 -174v-33zM394.998 281.002c-1.33301 30 -4.33398 51.667 -9.00098 65c-8.66699 28.667 -23.667 51 -45 67s-46.666 24 -75.999 24
c-26 0 -49.167 -6.5 -69.5 -19.5s-35.5 -31.167 -45.5 -54.5c-8.66699 -18.667 -13.667 -46 -15 -82h260z" />
    <glyph glyph-name="afii10072" horiz-adv-x="715" 
d="M97 0h-91l231 260l-211 232h88l208 -236v236h71v-236l209 236h87l-211 -232l231 -260h-91l-225 254v-254h-71v254z" />
    <glyph glyph-name="afii10073" horiz-adv-x="482" 
d="M415 139c0 -43.333 -18.168 -78.168 -54.501 -104.501s-80.166 -39.5 -131.499 -39.5c-80 0 -145.667 23.333 -197 70l45 47c22 -20 43.833 -34.167 65.5 -42.5s47.834 -12.5 78.501 -12.5c32 0 60.667 7.83301 86 23.5s38 36.167 38 61.5c0 26.667 -9.16699 47 -27.5 61
s-42.833 21 -73.5 21h-72v60h73c27.333 0 49.5 7 66.5 21s25.5 33.333 25.5 58s-9.83301 43.334 -29.5 56.001s-46.834 19 -81.501 19c-48.667 0 -92.667 -13.667 -132 -41l-41 48c48.667 35.333 108.667 53 180 53c50.667 0 92.334 -11.833 125.001 -35.5
s49 -56.167 49 -97.5c0 -24.667 -6.83301 -47 -20.5 -67s-32.834 -34.333 -57.501 -43c26 -8 46.833 -22.333 62.5 -43s23.5 -45 23.5 -73z" />
    <glyph glyph-name="afii10074" horiz-adv-x="577" 
d="M487 0h-72v381l-253 -381h-71v492h71v-379l253 379h72v-492z" />
    <glyph glyph-name="afii10075" horiz-adv-x="577" 
d="M435 704c-5.33301 -84 -54 -126 -146 -126s-140.667 42 -146 126h64c4 -50 31.333 -75 82 -75s78 25 82 75h64zM487 0h-72v381l-253 -381h-71v492h71v-379l253 379h72v-492z" />
    <glyph glyph-name="afii10076" horiz-adv-x="498" 
d="M166 0h-72v492h72v-236l217 236h89l-221 -232l241 -260h-93l-233 254v-254z" />
    <glyph glyph-name="afii10077" horiz-adv-x="546" 
d="M456 0l-72 0.000976562v430h-174v-170c0 -96.667 -13.667 -164.167 -41 -202.5s-65.666 -57.5 -114.999 -57.5h-33v62h16c10.667 0 20 1 28 3s17.167 7.16699 27.5 15.5s18.666 19.833 24.999 34.5s11.833 36.167 16.5 64.5s7 62.166 7 101.499v211h315v-492z" />
    <glyph glyph-name="afii10078" horiz-adv-x="656" 
d="M565 0h-72v350l-137 -272h-55l-139 272v-350h-71v492h71l167 -331l165 331h71v-492z" />
    <glyph glyph-name="afii10079" horiz-adv-x="562" 
d="M472 0h-72v223h-238v-223h-71v492h71v-207h238v207h72v-492z" />
    <glyph glyph-name="afii10080" 
d="M466 249c0 -92 -20 -158.333 -60 -199c-37.333 -37.333 -84.333 -56 -141 -56s-103.667 18.667 -141 56c-40 40.667 -60 106 -60 196s20 155.333 60 196c37.333 37.333 84.333 56 141 56s103.667 -18.667 141 -56c40 -40 60 -104.333 60 -193zM394 243
c0 42 -2.83203 74.667 -8.49902 98s-15.834 42.333 -30.501 57c-22.667 24 -52.667 36 -90 36c-36.667 0 -66.334 -12 -89.001 -36c-26.667 -26.667 -40 -77.334 -40 -152.001c0 -74 13.333 -124.667 40 -152c22.667 -24 52.334 -36 89.001 -36c37.333 0 67.333 12 90 36
c26 26.667 39 76.334 39 149.001z" />
    <glyph glyph-name="afii10081" horiz-adv-x="562" 
d="M472 0h-72v430h-238v-430h-71v492h381v-492z" />
    <glyph glyph-name="afii10082" horiz-adv-x="545" 
d="M481 245c0 -85.333 -14.8311 -148.5 -44.498 -189.5s-75.834 -61.5 -138.501 -61.5c-30.667 0 -57 5.33301 -79 16c-18 8.66699 -37 24.667 -57 48v-278h-72v712h72v-58c19.333 22.667 38 38.667 56 48c21.333 10.667 47.666 16 78.999 16
c63.333 0 109.833 -20.333 139.5 -61s44.5 -104.667 44.5 -192zM409.002 245c0 67.333 -9.66504 115.667 -28.998 145s-51 44 -95 44c-42.667 0 -73.834 -15 -93.501 -45s-29.5 -77.667 -29.5 -143c0 -66 9.83301 -113.833 29.5 -143.5s51.167 -44.5 94.5 -44.5
s74.666 14.833 93.999 44.5s29 77.167 29 142.5z" />
    <glyph glyph-name="afii10083" horiz-adv-x="490" 
d="M443 67c-27.333 -28.667 -52.666 -48.002 -75.999 -58.002c-24 -10 -51.667 -15 -83 -15c-68.667 0 -122.667 22.333 -162 67s-59 106.334 -59 185.001s19.667 140.334 59 185.001s93.333 67 162 67c31.333 0 59 -5 83 -15c23.333 -10 48.666 -29.333 75.999 -58l-49 -46
c-22 22.667 -40.667 37.334 -56 44.001c-16.667 7.33301 -35 11 -55 11c-98.667 0 -148 -62.667 -148 -188s49 -188 147 -188c20.667 0 38.667 3.33301 54 10c16 7.33301 35.333 22.666 58 45.999z" />
    <glyph glyph-name="afii10084" horiz-adv-x="423" 
d="M413 430h-161v-430h-72v430h-169v62h402v-62z" />
    <glyph glyph-name="afii10085" horiz-adv-x="447" 
d="M436 492l-223.999 -611c-22.667 -61.333 -66.334 -92 -131.001 -92h-31v64h22c23.333 0 40.5 4 51.5 12s20.833 24.333 29.5 49l35 96l-177 482h78l135 -395l134 395h78z" />
    <glyph glyph-name="afii10086" horiz-adv-x="690" 
d="M630 247c0 -79.333 -21.667 -140.333 -65 -183s-104.666 -66 -183.999 -70v-214h-72v214c-79.333 4 -140.666 27.333 -183.999 70s-65 103.667 -65 183s21.667 140 65 182s104.666 65 183.999 69v214h72v-214c79.333 -4 140.666 -27 183.999 -69s65 -102.667 65 -182z
M558 246c0 121.333 -59.333 184.002 -178 188.002v-376c58 1.33301 102.167 18.666 132.5 51.999s45.5 78.666 45.5 135.999zM310 58.002v375.998c-60.667 -2 -105.5 -19.667 -134.5 -53s-43.5 -78.333 -43.5 -135c0 -57.333 15.167 -102.666 45.5 -135.999
s74.5 -50.666 132.5 -51.999z" />
    <glyph glyph-name="afii10087" horiz-adv-x="478" 
d="M445 0h-87l-118 191l-120 -191h-87l167 251l-160 241h87l113 -182l111 182h87l-160 -241z" />
    <glyph glyph-name="afii10088" horiz-adv-x="579" 
d="M546 -147h-70v147h-385v492h71v-430h238v430h72v-430h74v-209z" />
    <glyph glyph-name="afii10089" horiz-adv-x="523" 
d="M433 0h-72v192c-58.667 -12.667 -108 -19 -148 -19c-44.667 0 -79.667 11.667 -105 35s-38 58.333 -38 105v179h72v-166c0 -31.333 7 -53.833 21 -67.5s35.333 -20.5 64 -20.5c37.333 0 82 5.33301 134 16v238h72v-492z" />
    <glyph glyph-name="afii10090" horiz-adv-x="801" 
d="M710 0h-619v492h71v-430h202v430h72v-430h202v430h72v-492z" />
    <glyph glyph-name="afii10091" horiz-adv-x="816" 
d="M784 -147h-70v147h-623v492h71v-430h202v430h72v-430h202v430h72v-430h74v-209z" />
    <glyph glyph-name="afii10092" horiz-adv-x="563" 
d="M523 148c0 -44.667 -14.3311 -80.5 -42.998 -107.5s-66.334 -40.5 -113.001 -40.5h-219v430h-137v62h208v-195h148c47.333 0 85.166 -13.667 113.499 -41s42.5 -63.333 42.5 -108zM451.002 148c0 27.333 -7.83301 48.5 -23.5 63.5s-38.5 22.5 -68.5 22.5h-140v-172h140
c30 0 52.833 7.5 68.5 22.5s23.5 36.167 23.5 63.5z" />
    <glyph glyph-name="afii10093" horiz-adv-x="718" 
d="M617 0h-72v492h72v-492zM466 148c0 -44.667 -14.3311 -80.5 -42.998 -107.5s-66.334 -40.5 -113.001 -40.5h-219v492h71v-195h148c47.333 0 85.166 -13.667 113.499 -41s42.5 -63.333 42.5 -108zM394.002 148c0 27.333 -7.83301 48.5 -23.5 63.5s-38.5 22.5 -68.5 22.5
h-140v-172h140c30 0 52.833 7.5 68.5 22.5s23.5 36.167 23.5 63.5z" />
    <glyph glyph-name="afii10094" horiz-adv-x="506" 
d="M466 148c0 -44.667 -14.3311 -80.5 -42.998 -107.5s-66.334 -40.5 -113.001 -40.5h-219v492h71v-195h148c47.333 0 85.166 -13.667 113.499 -41s42.5 -63.333 42.5 -108zM394.002 148c0 27.333 -7.83301 48.5 -23.5 63.5s-38.5 22.5 -68.5 22.5h-140v-172h140
c30 0 52.833 7.5 68.5 22.5s23.5 36.167 23.5 63.5z" />
    <glyph glyph-name="afii10095" horiz-adv-x="490" 
d="M426 247c0 -79.333 -19.334 -141.333 -58.001 -186s-92.667 -67 -162 -67c-34.667 0 -63.5 5.5 -86.5 16.5s-47.167 29.833 -72.5 56.5l48 46c18.667 -20 36.167 -34.333 52.5 -43s36.5 -13 60.5 -13c48.667 0 85 15.833 109 47.5s36.667 72.5 38 122.5h-202v54h201
c-3.33301 46.667 -17.333 84 -42 112s-59.667 42 -105 42c-23.333 0 -43.166 -4.5 -59.499 -13.5s-33.833 -23.167 -52.5 -42.5l-48 46c25.333 26.667 49.5 45.5 72.5 56.5s51.833 16.5 86.5 16.5c68.667 0 122.5 -22.167 161.5 -66.5s58.5 -105.833 58.5 -184.5z" />
    <glyph glyph-name="afii10096" horiz-adv-x="728" 
d="M664 249c0 -92.667 -20 -159.001 -60 -199.001c-36 -37.333 -83 -56 -141 -56c-54.667 0 -99.667 17 -135 51c-41.333 38.667 -63 97.667 -65 177h-101v-222h-71v492h71v-209h101c4 72.667 25.333 127.334 64 164.001c36 34 81.333 51 136 51c64 0 114 -22 150 -66
c34 -42 51 -103 51 -183zM592 244.999c0 72.667 -12.667 123 -38 151c-22 25.333 -52.333 38 -91 38s-69 -12.667 -91 -38c-25.333 -27.333 -38 -77 -38 -149c0 -40 2.66699 -71.167 8 -93.5s15 -41.166 29 -56.499c24 -26 54.667 -39 92 -39s68 13 92 39
c24.667 27.333 37 76.666 37 147.999z" />
    <glyph glyph-name="afii10097" horiz-adv-x="527" 
d="M365 252v181.001h-139c-31.333 0 -55.5 -7.83301 -72.5 -23.5s-25.5 -38.167 -25.5 -67.5c0 -28.667 8.5 -50.834 25.5 -66.501s41.167 -23.5 72.5 -23.5h139zM140 0.000976562l-83 0.00195312l115 202c-35.333 7.33301 -63.333 23.666 -84 48.999s-31 56.666 -31 93.999
c0 44 14.167 79.5 42.5 106.5s65.833 40.5 112.5 40.5h224v-492h-71v193h-118z" />
    <glyph glyph-name="afii10071" 
d="M467 227l-332.002 0.00195312c2 -39.333 7 -69 15 -89c22.667 -54 67.334 -81 134.001 -81c21.333 0 42.333 4 63 12c18.667 8 39.334 22.667 62.001 44l49 -43c-30 -29.333 -57.667 -49 -83 -59c-28 -11.333 -59.667 -17 -95 -17c-71.333 0 -125.333 21.667 -162 65
s-55 106.666 -55 189.999c0 77.333 18 138.166 54 182.499s85.333 66.5 148 66.5s112 -21.333 148 -64s54 -100.667 54 -174v-33zM394.998 281.002c-1.33301 30 -4.33398 51.667 -9.00098 65c-8.66699 28.667 -23.667 51 -45 67s-46.666 24 -75.999 24
c-26 0 -49.167 -6.5 -69.5 -19.5s-35.5 -31.167 -45.5 -54.5c-8.66699 -18.667 -13.667 -46 -15 -82h260zM409.997 602.002h-72v89h72v-89zM197.997 602.002h-72v89h72v-89z" />
    <glyph glyph-name="afii10099" horiz-adv-x="562" 
d="M477 -70c0 -44 -12.168 -80.166 -36.501 -108.499s-60.833 -42.5 -109.5 -42.5h-48v62h36c26.667 0 47.667 8.66699 63 26s23 39.333 23 66v365c0 87.333 -38.667 131 -116 131c-38.667 0 -69.5 -11.667 -92.5 -35s-34.5 -55.333 -34.5 -96v-298h-71v562h-58v54h58v96h71
v-96h248v-54h-248v-130c40.667 40.667 88.334 61 143.001 61c54 0 96.167 -16.333 126.5 -49s45.5 -77.334 45.5 -134.001v-380z" />
    <glyph glyph-name="afii10100" horiz-adv-x="417" 
d="M406 430h-240v-430h-72v492h312v-62zM345 747l-108 -153h-66l88 153h86z" />
    <glyph glyph-name="afii10101" horiz-adv-x="490" 
d="M443 67c-25.333 -26.667 -49.5039 -45.5 -72.5039 -56.5s-52.167 -16.5 -87.5 -16.5c-69.333 0 -123.333 22.333 -162 67s-58 106.667 -58 186c0 78.667 19.5 140.167 58.5 184.5s92.833 66.5 161.5 66.5c35.333 0 64.333 -5.5 87 -16.5s47 -29.833 73 -56.5l-48 -46
c-19.333 20 -37.166 34.333 -53.499 43s-36.166 13 -59.499 13c-45.333 0 -80.166 -14 -104.499 -42s-38.166 -65.333 -41.499 -112h209v-54h-210c1.33301 -50.667 13.833 -91.667 37.5 -123s60.167 -47 109.5 -47c24 0 44.167 4.33301 60.5 13s33.833 23 52.5 43z" />
    <glyph glyph-name="afii10102" horiz-adv-x="496" 
d="M445 144c0 -46.667 -18.168 -83.335 -54.501 -110.002s-84.833 -40 -145.5 -40c-85.333 0 -152.666 23.667 -201.999 71l48 48c36 -38 87 -57 153 -57c41.333 0 73.5 7.33301 96.5 22s34.5 36.334 34.5 65.001c0 43.333 -27.333 67.333 -82 72l-81 7
c-98 8 -147 52 -147 132c0 44 16.833 79 50.5 105s77.167 39 130.5 39c74.667 0 133.667 -17.667 177 -53l-47 -47c-34 26 -77.667 39 -131 39c-35.333 0 -62.5 -7.16699 -81.5 -21.5s-28.5 -34.166 -28.5 -59.499c0 -43.333 28.667 -67.333 86 -72l79 -7
c46.667 -4 82.5 -16.333 107.5 -37s37.5 -52.667 37.5 -96z" />
    <glyph glyph-name="afii10103" horiz-adv-x="253" 
d="M167 632h-81v81h81v-81zM162 0h-72v492h72v-492z" />
    <glyph glyph-name="afii10104" horiz-adv-x="253" 
d="M162 0h-72v492h72v-492zM269 602h-72v89h72v-89zM57 602h-72v89h72v-89z" />
    <glyph glyph-name="afii10105" horiz-adv-x="253" 
d="M167 632h-81v81h81v-81zM162 -89c0 -39.333 -10.5 -71.168 -31.5 -95.501s-52.167 -36.5 -93.5 -36.5h-52v63h39c24 0 41 5.83301 51 17.5s15 29.834 15 54.501v575h72v-578z" />
    <glyph glyph-name="afii10106" horiz-adv-x="801" 
d="M689 148c0 27.333 -7.83301 48.5 -23.5 63.5s-38.5 22.5 -68.5 22.5h-140v-172h140c30 0 52.833 7.5 68.5 22.5s23.5 36.167 23.5 63.5zM141 492l316.002 0.000976562v-195h148c47.333 0 85.166 -13.667 113.499 -41s42.5 -63.333 42.5 -108s-14.333 -80.5 -43 -107.5
s-66.334 -40.5 -113.001 -40.5h-219v430h-176v-170c0 -96.667 -13.667 -164.167 -41 -202.5s-65.666 -57.5 -114.999 -57.5h-33v62h16c10.667 0 20 1 28 3s17.167 7.16699 27.5 15.5s18.666 19.833 24.999 34.5s11.833 36.167 16.5 64.5s7 62.166 7 101.499v211z" />
    <glyph glyph-name="afii10107" horiz-adv-x="816" 
d="M776 148c0 -44.667 -14.3311 -80.5 -42.998 -107.5s-66.334 -40.5 -113.001 -40.5h-220v234h-238v-234h-71v492h71v-195h238v195h72v-195h148c47.333 0 85.166 -13.667 113.499 -41s42.5 -63.333 42.5 -108zM704.002 148c0 27.333 -7.83301 48.5 -23.5 63.5
s-38.5 22.5 -68.5 22.5h-140v-172h140c30 0 52.833 7.5 68.5 22.5s23.5 36.167 23.5 63.5z" />
    <glyph glyph-name="afii10108" horiz-adv-x="562" 
d="M477 0h-71.998v298c0 42 -10.333 74.333 -31 97s-50.334 34 -89.001 34s-68.834 -11.5 -90.501 -34.5s-32.5 -55.167 -32.5 -96.5v-298h-71v562h-58v54h58v96h71v-96h248v-54h-248v-130c21.333 21.333 42.5 36.833 63.5 46.5s46.167 14.5 75.5 14.5
c54 0 96.833 -16.5 128.5 -49.5s47.5 -77.5 47.5 -133.5v-310z" />
    <glyph glyph-name="afii10109" horiz-adv-x="498" 
d="M166 0h-72v492h72v-236l217 236h89l-221 -232l241 -260h-93l-233 254v-254zM387 747l-108 -153h-66l88 153h86z" />
    <glyph glyph-name="afii10110" horiz-adv-x="447" 
d="M370 704c-5.33301 -84 -54 -126 -146 -126s-140.667 42 -146 126h64c4 -50 31.333 -75 82 -75s78 25 82 75h64zM436 492l-223.999 -611c-22.667 -61.333 -66.334 -92 -131.001 -92h-31v64h22c23.333 0 40.5 4 51.5 12s20.833 24.333 29.5 49l35 96l-177 482h78l135 -395
l134 395h78z" />
    <glyph glyph-name="afii10193" horiz-adv-x="563" 
d="M472 0h-156v-147h-70v147h-155v492h71v-430h238v430h72v-492z" />
    <glyph glyph-name="afii10050" horiz-adv-x="569" 
d="M538 644h-352v-644h-76v712h353v172h75v-240z" />
    <glyph glyph-name="afii10098" horiz-adv-x="417" 
d="M406 430h-240v-430h-72v492h242v142h70v-204z" />
    <glyph glyph-name="endash" horiz-adv-x="522" 
d="M470 236h-418v67h418v-67z" />
    <glyph glyph-name="emdash" horiz-adv-x="914" 
d="M838 236h-762v68h762v-68z" />
    <glyph glyph-name="afii00208" horiz-adv-x="914" 
d="M838 236h-762v68h762v-68z" />
    <glyph glyph-name="quoteleft" horiz-adv-x="263" 
d="M175 628h-87v84l87 79v-163z" />
    <glyph glyph-name="quoteright" horiz-adv-x="263" 
d="M175 628l-87 -79v163h87v-84z" />
    <glyph glyph-name="quotesinglbase" horiz-adv-x="263" 
d="M175 0l-87 -79v163h87v-84z" />
    <glyph glyph-name="quotedblleft" horiz-adv-x="434" 
d="M346 628h-88v84l88 79v-163zM175 628h-87v84l87 79v-163z" />
    <glyph glyph-name="quotedblright" horiz-adv-x="434" 
d="M346 628l-88 -79v163h88v-84zM175 628l-87 -79v163h87v-84z" />
    <glyph glyph-name="quotedblbase" horiz-adv-x="434" 
d="M346 0l-88 -79v163h88v-84zM175 0l-87 -79v163h87v-84z" />
    <glyph glyph-name="dagger" horiz-adv-x="605" 
d="M531 445h-194v-445h-72v445h-191v64h191v203h72v-203h194v-64z" />
    <glyph glyph-name="daggerdbl" horiz-adv-x="605" 
d="M531 -16h-194v-204h-72v204h-191v64h191v397h-191v64h191v203h72v-203h194v-64h-194v-397h194v-64z" />
    <glyph glyph-name="bullet" horiz-adv-x="532" 
d="M429 334c0 -45.333 -15.833 -83.833 -47.5 -115.5s-70.167 -47.5 -115.5 -47.5s-83.833 15.833 -115.5 47.5s-47.5 70.167 -47.5 115.5s15.833 83.833 47.5 115.5s70.167 47.5 115.5 47.5s83.833 -15.833 115.5 -47.5s47.5 -70.167 47.5 -115.5z" />
    <glyph glyph-name="ellipsis" horiz-adv-x="757" 
d="M669 0h-92v92h92v-92zM180 0h-92v92h92v-92zM424 0h-92v92h92v-92z" />
    <glyph glyph-name="perthousand" horiz-adv-x="1179" 
d="M1115 128c0 -40.667 -12.667 -73.334 -38 -98.001s-57.666 -37 -96.999 -37s-71.666 12.333 -96.999 37s-38 57.334 -38 98.001v105c0 40.667 12.667 73.334 38 98.001s57.666 37 96.999 37s71.666 -12.333 96.999 -37s38 -57.334 38 -98.001v-105zM769 128
c0 -40.667 -12.667 -73.334 -38 -98.001s-57.666 -37 -96.999 -37s-71.666 12.333 -96.999 37s-38 57.334 -38 98.001v105c0 40.667 12.667 73.334 38 98.001s57.666 37 96.999 37s71.666 -12.333 96.999 -37s38 -57.334 38 -98.001v-105zM335 479
c0 -40 -12.667 -72.333 -38 -97s-57.666 -37 -96.999 -37s-71.666 12.333 -96.999 37s-38 57 -38 97v105c0 40.667 12.667 73.334 38 98.001s57.666 37 96.999 37s71.666 -12.333 96.999 -37s38 -57.334 38 -98.001v-105zM614 712l-334 -712h-60l334 712h60zM712 130v101
c0 58 -26 87 -78 87s-78 -29 -78 -87v-101c0 -58 26 -87 78 -87s78 29 78 87zM1058 130v101c0 58 -26 87 -78 87s-78 -29 -78 -87v-101c0 -58 26 -87 78 -87s78 29 78 87zM278 481v101c0 58 -26 87 -78 87s-78 -29 -78 -87v-101c0 -57.333 26 -86 78 -86s78 28.667 78 86z
" />
    <glyph glyph-name="guilsinglleft" horiz-adv-x="328" 
d="M250 58l-210 210l210 210v-90l-120 -120l120 -121v-89z" />
    <glyph glyph-name="guilsinglright" horiz-adv-x="328" 
d="M288 268l-210 -210v89l121 121l-121 120v90z" />
    <glyph glyph-name="fraction" horiz-adv-x="185" 
d="M289 712l-333 -712h-60l333 712h60z" />
    <glyph glyph-name="Euro" horiz-adv-x="678" 
d="M608 206c-12 -66.667 -40.167 -118.667 -84.5 -156s-98.5 -56 -162.5 -56c-71.333 0 -131.666 24.667 -180.999 74c-24 24 -40.5 50.333 -49.5 79s-14.5 66.334 -16.5 113.001h-67v50h66v98h-66v49h67c2 44.667 7.66699 81.167 17 109.5s25.666 54.166 48.999 77.499
c49.333 49.333 109.666 74 180.999 74c64.667 0 119 -18.667 163 -56s72 -89.333 84 -156h-77c-9.33301 44 -29 79 -59 105s-67 39 -111 39c-48.667 0 -89.667 -16.667 -123 -50c-16 -16.667 -27.333 -35.334 -34 -56.001s-11 -49.667 -13 -87h219v-49h-221v-98h221v-50
h-219c1.33301 -39.333 5.33301 -69.666 12 -90.999s18.334 -40.333 35.001 -57c33.333 -33.333 74.333 -50 123 -50c44 0 81.333 13 112 39s50.667 61 60 105h75z" />
    <glyph glyph-name="afii61352" horiz-adv-x="947" 
d="M553 0h-67l-334 574v-574h-71v712h67l334 -573v573h71v-712zM888 269h-269v57h269v-57zM830 541c0 52.667 -7.66699 86.332 -23 100.999c-12.667 14 -30 21 -52 21c-21.333 0 -39 -7 -53 -21c-15.333 -15.333 -23 -49 -23 -101s7.66699 -85.667 23 -101
c14 -14 31.667 -21 53 -21c22 0 39.333 7 52 21c15.333 14.667 23 48.334 23 101.001zM891 539.998c0 -65.333 -13.667 -111.666 -41 -138.999c-23.333 -24.667 -55 -37 -95 -37c-39.333 0 -71.333 12.333 -96 37c-27.333 27.333 -41 73.666 -41 138.999
s13.667 111.666 41 138.999c24.667 24.667 56.667 37 96 37c40 0 71.667 -12.333 95 -37c27.333 -27.333 41 -73.666 41 -138.999z" />
    <glyph glyph-name="trademark" horiz-adv-x="839" 
d="M781 285h-57v308l-102 -202h-56l-102 202v-308h-58v427h58l130 -259l130 259h57v-427zM331 659h-119v-374h-58v374h-118v53h295v-53z" />
    <glyph glyph-name="uni2126" horiz-adv-x="650" 
d="M574 0l-195.002 -0.000976562v64c42.667 20 73.334 45.333 92.001 76c10.667 17.333 17.667 41.833 21 73.5s5 78.5 5 140.5c0 78.667 -2.83301 133.834 -8.5 165.501s-19.167 58.167 -40.5 79.5c-34 34 -75 51 -123 51s-89 -17 -123 -51
c-21.333 -22 -35 -48.833 -41 -80.5s-9 -86.5 -9 -164.5c0 -114 9 -185.333 27 -214c18.667 -30.667 49.334 -56 92.001 -76v-64h-195v67h82c-24 20 -42.333 42.333 -55 67c-8.66699 16.667 -15 37.667 -19 63s-6.33301 47 -7 65s-1 44.333 -1 79v15
c0 87.333 3.5 149.5 10.5 186.5s25.833 70.833 56.5 101.5c49.333 49.333 110 74 182 74s132.667 -24.667 182 -74c30.667 -30.667 49.5 -64.5 56.5 -101.5s10.5 -99.167 10.5 -186.5c0 -88.667 -4 -148.667 -12 -180c-4 -16 -9 -30 -15 -42
c-12 -24 -30.667 -46.333 -56 -67h83v-67z" />
    <glyph glyph-name="arrowleft" horiz-adv-x="1027" 
d="M455 -130l-399 399l399 399h94l-365 -364h789v-70h-789l365 -364h-94z" />
    <glyph glyph-name="arrowup" horiz-adv-x="1027" 
d="M115 328l399 399l399 -399v-94l-364 365v-789h-70v789l-364 -365v94z" />
    <glyph glyph-name="arrowright" horiz-adv-x="1027" 
d="M480 -130l365 364h-789v70h789l-365 364h94l399 -399l-399 -399h-94z" />
    <glyph glyph-name="arrowdown" horiz-adv-x="1027" 
d="M913 208l-399 -399l-399 399v94l364 -365v789h70v-789l364 365v-94z" />
    <glyph glyph-name="uni2196" horiz-adv-x="1027" 
d="M189 28v565h565l66 -66h-515l558 -558l-50 -50l-557 558v-515z" />
    <glyph glyph-name="uni2197" horiz-adv-x="1027" 
d="M298 593h565v-565l-66 -66v515l-558 -558l-50 50l558 557h-515z" />
    <glyph glyph-name="uni2198" horiz-adv-x="1027" 
d="M842 -67h-564l-66 66l515 -1l-558 558l50 50l558 -558l-1 517l66 -68v-564z" />
    <glyph glyph-name="uni2199" horiz-adv-x="1027" 
d="M858 556l-558 -558l515 1l-66 -66h-564v564l66 68l-1 -517l558 558z" />
    <glyph glyph-name="partialdiff" horiz-adv-x="544" 
d="M453 244c0 -90.667 -18.998 -155.668 -56.998 -195.001c-34.667 -36.667 -80 -55 -136 -55c-56.667 0 -102.334 18.333 -137.001 55c-38 39.333 -57 104.333 -57 195c0 93.333 19 159.333 57 198c34 35.333 77.333 53 130 53c54 0 96.667 -19.333 128 -58v70
c0 42.667 -11.167 78.167 -33.5 106.5s-56.166 42.5 -101.499 42.5c-26.667 0 -47.834 -3.83301 -63.501 -11.5s-33.834 -20.5 -54.501 -38.5l-46 46c26.667 24 52 41 76 51s54 15 90 15c65.333 0 115.833 -19.667 151.5 -59s53.5 -91.666 53.5 -156.999v-258z
M381.002 243.999c0 74.667 -12.333 125 -37 151c-22.667 24 -50.667 36 -84 36c-34 0 -62.333 -12 -85 -36c-24.667 -26 -37 -76.333 -37 -151c0 -74 12.333 -124 37 -150c22.667 -24 51 -36 85 -36c33.333 0 61.333 12 84 36c24.667 26 37 76 37 150z" />
    <glyph glyph-name="uni2206" horiz-adv-x="603" 
d="M594 0h-586l262 712h63zM495 66l-193 537l-194 -537h387z" />
    <glyph glyph-name="product" horiz-adv-x="696" 
d="M593 -220h-76v912h-338v-912h-76v980h490v-980z" />
    <glyph glyph-name="summation" horiz-adv-x="551" 
d="M500 -220h-443v65l202 438l-201 413v64h441v-68h-353l180 -375v-69l-182 -400h356v-68z" />
    <glyph glyph-name="minus" horiz-adv-x="522" 
d="M470 236h-418v67h418v-67z" />
    <glyph glyph-name="uni2219" horiz-adv-x="270" 
d="M182 223h-94v94h94v-94z" />
    <glyph glyph-name="radical" horiz-adv-x="562" 
d="M532 644h-89l-211 -644h-61l-163 492h79l115 -356l184 576h146v-68z" />
    <glyph glyph-name="infinity" horiz-adv-x="808" 
d="M740 267c0 -46 -14.502 -83.999 -43.502 -113.999s-67.167 -45 -114.5 -45c-34 0 -64.667 8.16699 -92 24.5s-56 42.833 -86 79.5c-30 -36.667 -58.667 -63.334 -86 -80.001s-57.666 -25 -90.999 -25c-47.333 0 -85.833 15.167 -115.5 45.5s-44.5 68.5 -44.5 114.5
s14.833 84.167 44.5 114.5s68.167 45.5 115.5 45.5c32.667 0 62.834 -8.5 90.501 -25.5s56.5 -43.833 86.5 -80.5c30.667 37.333 59.5 64.333 86.5 81s57.5 25 91.5 25c47.333 0 85.5 -15.167 114.5 -45.5s43.5 -68.5 43.5 -114.5zM357.998 266.001
c-27.333 33.333 -50 57.332 -68 71.999s-38.333 22 -61 22c-27.333 0 -49.666 -8.66699 -66.999 -26s-26 -40 -26 -68s8.66699 -50.5 26 -67.5s39.666 -25.5 66.999 -25.5c22.667 0 43.167 7.33301 61.5 22s40.833 38.334 67.5 71.001zM670.998 266
c0 28 -8.5 50.502 -25.5 67.502s-39.167 25.5 -66.5 25.5c-22.667 0 -43.334 -7.33301 -62.001 -22s-41.334 -38.334 -68.001 -71.001c26.667 -32.667 49.334 -56.334 68.001 -71.001s39.334 -22 62.001 -22c27.333 0 49.5 8.5 66.5 25.5s25.5 39.5 25.5 67.5z" />
    <glyph glyph-name="uni2224" horiz-adv-x="270" 
d="M182 223h-94v94h94v-94z" />
    <glyph glyph-name="logicaland" horiz-adv-x="270" 
d="M182 223h-94v94h94v-94z" />
    <glyph glyph-name="integral" horiz-adv-x="372" 
d="M334 653h-38c-48.667 0 -73 -25.667 -73 -77v-654c0 -42.667 -12 -76.667 -36 -102s-57.333 -38 -100 -38h-50v62h39c48.667 0 73 25.667 73 77v654c0 42.667 12 76.667 36 102s57.333 38 100 38h49v-62z" />
    <glyph glyph-name="approxequal" horiz-adv-x="539" 
d="M490 189c-27.333 -27.333 -49.833 -45.5 -67.5 -54.5s-38.167 -13.5 -61.5 -13.5c-24.667 0 -60 10.333 -106 31c-34.667 16 -60.334 24 -77.001 24c-14.667 0 -27.667 -2.83301 -39 -8.5s-26.333 -17.834 -45 -36.501l-45 45c27.333 27.333 49.833 45.5 67.5 54.5
s38.167 13.5 61.5 13.5c24.667 0 60 -10.333 106 -31c34.667 -16 60.334 -24 77.001 -24c14.667 0 27.667 2.83301 39 8.5s26.333 17.834 45 36.501zM490 366c-27.333 -27.333 -49.833 -45.499 -67.5 -54.499s-38.167 -13.5 -61.5 -13.5c-22.667 0 -58 10.667 -106 32
c-33.333 15.333 -59.333 23 -78 23c-15.333 0 -28.5 -2.66699 -39.5 -8s-25.833 -17.333 -44.5 -36l-44 44c27.333 27.333 49.833 45.666 67.5 54.999s38.167 14 61.5 14c22 0 57 -10.667 105 -32c33.333 -15.333 59.333 -23 78 -23c15.333 0 28.5 2.66699 39.5 8
s25.833 17.333 44.5 36z" />
    <glyph glyph-name="notequal" horiz-adv-x="537" 
d="M485 151h-284l-103 -111l-46 40l67 71h-67v66h126l99 103h-225v67h284l104 111l45 -41l-67 -70h67v-67h-126l-98 -103h224v-66z" />
    <glyph glyph-name="lessequal" horiz-adv-x="522" 
d="M426 134l-331 168v65l331 168v-77l-250 -124l250 -123v-77zM426 -16l-331 168v77l331 -168v-77z" />
    <glyph glyph-name="greaterequal" horiz-adv-x="522" 
d="M426 302l-331 -168v77l250 123l-250 124v77l331 -168v-65zM426 152l-331 -168v77l331 168v-77z" />
    <glyph glyph-name="dotmath" horiz-adv-x="270" 
d="M182 223h-94v94h94v-94z" />
    <glyph glyph-name="lozenge" horiz-adv-x="649" 
d="M582 352l-257 -364l-258 364l258 364zM501 352l-176 253l-177 -253l177 -255z" />
    <glyph glyph-name="parenleft.case" horiz-adv-x="298" 
d="M234 -45l-49 -48.998c-36.667 36.667 -60.667 65.334 -72 86.001c-14 25.333 -21 59.666 -21 102.999v522c0 43.333 7 77.666 21 102.999c11.333 20.667 35.333 49.334 72 86.001l49 -49c-28.667 -28.667 -46.667 -50.334 -54 -65.001
c-10.667 -21.333 -16 -48.333 -16 -81v-510c0 -32.667 5.33301 -59.667 16 -81c7.33301 -14.667 25.333 -36.334 54 -65.001z" />
    <glyph glyph-name="parenright.case" horiz-adv-x="298" 
d="M205 95c0 -44 -6.66699 -78.3311 -20 -102.998c-11.333 -20.667 -35.333 -49.334 -72 -86.001l-51 51c30 30 48.333 51.667 55 65c9.33301 18.667 14 45 14 79v510c0 34 -4.66699 60.333 -14 79c-6.66699 13.333 -25 35 -55 65l51 51
c36.667 -36.667 60.667 -65.334 72 -86.001c13.333 -24.667 20 -59 20 -103v-522z" />
    <glyph glyph-name="hyphen.case" horiz-adv-x="426" 
d="M350 322h-274v67h274v-67z" />
    <glyph glyph-name="bracketleft.case" horiz-adv-x="313" 
d="M269 -74h-177v860h177v-64h-105v-732h105v-64z" />
    <glyph glyph-name="bracketright.case" horiz-adv-x="313" 
d="M221 -74h-177v62h108v736h-108v62h177v-860z" />
    <glyph glyph-name="braceleft.case" horiz-adv-x="354" 
d="M305 -74h-37c-47.333 0 -81 10 -101 30s-30 53 -30 99v191c0 28 -6 48 -18 60s-27 18 -45 18h-26v64h26c18 0 33 6 45 18s18 32 18 60v191c0 46 10 79 30 99s53.667 30 101 30h37v-64h-23c-30.667 0 -50.334 -4.33301 -59.001 -13c-9.33301 -9.33301 -14 -31 -14 -65
v-188c0 -26.667 -5.33301 -47.5 -16 -62.5s-26.334 -27.5 -47.001 -37.5c20.667 -10 36.334 -22.5 47.001 -37.5s16 -35.833 16 -62.5v-188c0 -34 4.66699 -55.667 14 -65c8.66699 -8.66699 28.334 -13 59.001 -13h23v-64z" />
    <glyph glyph-name="braceright.case" horiz-adv-x="354" 
d="M305 324h-25c-18 0 -33 -6 -45 -18s-18 -32 -18 -60v-191c0 -46 -10 -79 -30 -99s-53.667 -30 -101 -30h-38v64h24c30 0 49.333 4.33301 58 13c10 10 15 31.667 15 65v188c0 26.667 5.33301 47.5 16 62.5s26.334 27.5 47.001 37.5c-20.667 10 -36.334 22.5 -47.001 37.5
s-16 35.833 -16 62.5v188c0 33.333 -5 55 -15 65c-8.66699 8.66699 -28 13 -58 13h-24v64h38c47.333 0 81 -10 101 -30s30 -53 30 -99v-191c0 -28 6 -48 18 -60s27 -18 45 -18h25v-64z" />
    <glyph glyph-name="guillemotleft.case" horiz-adv-x="554" 
d="M250 146l-210 210l210 210v-90l-120 -120l120 -121v-89zM476 146l-210 210l210 210v-90l-121 -120l121 -121v-89z" />
    <glyph glyph-name="uni00AD.case" horiz-adv-x="426" 
d="M350 322h-274v67h274v-67z" />
    <glyph glyph-name="guillemotright.case" horiz-adv-x="554" 
d="M514 356l-210 -210v89l120 121l-120 120v90zM288 356l-210 -210v89l121 121l-121 120v90z" />
    <glyph glyph-name="endash.case" horiz-adv-x="522" 
d="M470 322h-418v67h418v-67z" />
    <glyph glyph-name="emdash.case" horiz-adv-x="914" 
d="M838 322h-762v68h762v-68z" />
    <glyph glyph-name="guilsinglleft.case" horiz-adv-x="328" 
d="M250 146l-210 210l210 210v-90l-120 -120l120 -121v-89z" />
    <glyph glyph-name="guilsinglright.case" horiz-adv-x="328" 
d="M288 356l-210 -210v89l121 121l-121 120v90z" />
    <glyph glyph-name="grave.lc" 
d="M304 594h-66l-108 153h86z" />
    <glyph glyph-name="dieresis.lc" 
d="M407 602h-72v89h72v-89zM195 602h-72v89h72v-89z" />
    <glyph glyph-name="macron.lc" horiz-adv-x="500" 
d="M401 602h-302v57h302v-57z" />
    <glyph glyph-name="acute.lc" 
d="M390 747l-108 -153h-66l88 153h86z" />
    <glyph glyph-name="circumflex.lc" 
d="M424 594h-69l-90 104l-90 -104h-69l125 153h68z" />
    <glyph glyph-name="caron.lc" horiz-adv-x="459" 
d="M395 747l-125 -153h-68l-125 153h69l90 -105l90 105h69z" />
    <glyph glyph-name="breve.lc" horiz-adv-x="500" 
d="M415 729c-8 -92.667 -62.998 -139 -164.998 -139s-157 46.333 -165 139h56c3.33301 -26.667 14.666 -47.167 33.999 -61.5s44.333 -21.5 75 -21.5s55.667 7.16699 75 21.5s30.666 34.833 33.999 61.5h56z" />
    <glyph glyph-name="dotaccent.lc" horiz-adv-x="500" 
d="M212 610v77h75v-77h-75z" />
    <glyph glyph-name="ring.lc" horiz-adv-x="526" 
d="M370 687c0 -32.667 -11.5 -60.667 -34.5 -84s-50.833 -35 -83.5 -35s-60.5 11.667 -83.5 35s-34.5 51.333 -34.5 84s11.5 60.5 34.5 83.5s50.833 34.5 83.5 34.5s60.5 -11.5 83.5 -34.5s34.5 -50.833 34.5 -83.5zM321 687c0 18.667 -6.6709 34.667 -20.0039 48
s-29.666 20 -48.999 20s-35.666 -6.66699 -48.999 -20s-20 -29.333 -20 -48c0 -19.333 6.83301 -35.666 20.5 -48.999s29.834 -20 48.501 -20s34.834 6.66699 48.501 20s20.5 29.666 20.5 48.999z" />
    <glyph glyph-name="tilde.lc" 
d="M422 658c-33.333 -34 -65.001 -51 -95.001 -51c-20 0 -43.667 8 -71 24c-23.333 13.333 -42 20 -56 20c-18 0 -37.667 -10.667 -59 -32l-37 36c34 34 65.667 51 95 51c22.667 0 46.334 -8 71.001 -24c23.333 -13.333 42 -20 56 -20c18 0 37.667 10.667 59 32z" />
    <glyph glyph-name="hungarumlaut.lc" horiz-adv-x="500" 
d="M304 747l-108 -153h-66l89 153h85zM467 747l-109 -153h-65l89 153h85z" />
    <glyph glyph-name="brevecyr.lc" horiz-adv-x="500" 
d="M396 704c-5.33301 -84 -54 -126 -146 -126s-140.667 42 -146 126h64c4 -50 31.333 -75 82 -75s78 25 82 75h64z" />
    <glyph glyph-name="diedot.lc" 
d="M195 602h-72v89h72v-89z" />
    <glyph glyph-name="zero.lf" horiz-adv-x="522" 
d="M456 190c0 -58 -18.5 -105.167 -55.5 -141.5s-83.5 -54.5 -139.5 -54.5s-102.5 18.167 -139.5 54.5s-55.5 83.5 -55.5 141.5v332c0 58 18.5 105.167 55.5 141.5s83.5 54.5 139.5 54.5s102.5 -18.167 139.5 -54.5s55.5 -83.5 55.5 -141.5v-332zM384 194v324
c0 40 -10.833 72.667 -32.5 98s-51.834 38 -90.501 38s-68.834 -12.667 -90.501 -38s-32.5 -58 -32.5 -98v-324c0 -40 10.833 -72.667 32.5 -98s51.834 -38 90.501 -38s68.834 12.667 90.501 38s32.5 58 32.5 98z" />
    <glyph glyph-name="one.lf" horiz-adv-x="372" 
d="M256 0h-72v632l-133 -117v82l133 115h72v-712z" />
    <glyph glyph-name="two.lf" horiz-adv-x="488" 
d="M434 0l-392.999 -0.00195312v64l281 357c26.667 34.667 40 69.667 40 105c0 38.667 -11 69.667 -33 93s-52.333 35 -91 35c-36 0 -65.667 -10.667 -89 -32s-35 -53.666 -35 -96.999h-72c0 56.667 18 103 54 139s83.333 54 142 54s106 -17.5 142 -52.5s54 -81.5 54 -139.5
c0 -27.333 -4.33301 -51.666 -13 -72.999s-23.334 -45 -44.001 -71l-249 -318h306v-64z" />
    <glyph glyph-name="three.lf" horiz-adv-x="512" 
d="M456 194c0 -63.333 -19.6689 -112.668 -59.002 -148.001s-89.333 -53 -150 -53c-59.333 0 -108.333 15.833 -147 47.5s-59.334 78.5 -62.001 140.5h72c2.66699 -42 16.834 -73.167 42.501 -93.5s57.167 -30.5 94.5 -30.5c39.333 0 72 12.333 98 37s39 58.334 39 101.001
c0 92 -46.667 138 -140 138h-15v63h15c42.667 0 74.5 11.167 95.5 33.5s31.5 54.166 31.5 95.499s-11.667 73.333 -35 96s-53 34 -89 34c-37.333 0 -67.166 -10.667 -89.499 -32s-35.166 -50.333 -38.499 -87h-72c4 56.667 24.5 101.334 61.5 134.001s83.167 49 138.5 49
c58 0 105.167 -17.667 141.5 -53s54.5 -82 54.5 -140c0 -76 -32 -128.667 -96 -158c72.667 -27.333 109 -85.333 109 -174z" />
    <glyph glyph-name="four.lf" horiz-adv-x="518" 
d="M478 113h-87v-113h-71v113h-284v65l257 534h77l-257 -534h207v202h71v-202h87v-65z" />
    <glyph glyph-name="five.lf" horiz-adv-x="517" 
d="M453 235c0 -42.667 -3.66797 -79 -11.001 -109s-22.666 -56.667 -45.999 -80c-35.333 -35.333 -82.666 -53 -141.999 -53c-61.333 0 -109 17 -143 51c-29.333 30 -46 71.333 -50 124h72c9.33301 -74 49.666 -111 120.999 -111c36.667 0 66 11 88 33
c26 26 39 74.333 39 145c0 24.667 -1.5 46.167 -4.5 64.5s-8.5 36.333 -16.5 54s-20.333 31.167 -37 40.5s-37.334 14 -62.001 14c-30.667 0 -56.167 -6.33301 -76.5 -19s-34.166 -29.667 -41.499 -51h-65v374h360v-64h-295v-226c29.333 32.667 72 49 128 49
c52 0 93 -15 123 -45c39.333 -39.333 59 -103 59 -191z" />
    <glyph glyph-name="six.lf" horiz-adv-x="489" 
d="M442 205c0 -61.333 -18 -111.833 -54 -151.5s-83.667 -59.5 -143 -59.5c-60 0 -108 18.667 -144 56s-54 87 -54 149c0 46.667 15 100 45 160l175 353h74l-159 -320c22 10 47 15 75 15c55.333 0 100 -18.833 134 -56.5s51 -86.167 51 -145.5zM370 202
c0 41.333 -11.168 75.667 -33.501 103s-53.166 41 -92.499 41c-38 0 -68.333 -13 -91 -39s-34 -61 -34 -105c0 -43.333 11.333 -78.166 34 -104.499s53 -39.5 91 -39.5s68.5 13.167 91.5 39.5s34.5 61.166 34.5 104.499z" />
    <glyph glyph-name="seven.lf" horiz-adv-x="471" 
d="M436 648l-247 -648h-76l247 648h-248v-112h-71v176h395v-64z" />
    <glyph glyph-name="eight.lf" horiz-adv-x="538" 
d="M479 196c0 -59.333 -20 -107.834 -60 -145.501s-90 -56.5 -150 -56.5s-110 18.833 -150 56.5s-60 86.167 -60 145.5c0 74.667 35.667 132.334 107 173.001c-62 35.333 -93 88 -93 158c0 55.333 18.5 101 55.5 137s83.833 54 140.5 54s103.5 -18 140.5 -54
s55.5 -81.667 55.5 -137c0 -70 -30.667 -122.667 -92 -158c70.667 -40 106 -97.667 106 -173zM407 196.999c0 39.333 -13.167 72.333 -39.5 99s-59.166 40 -98.499 40s-72.166 -13.333 -98.499 -40s-39.5 -59.667 -39.5 -99s13.167 -72.333 39.5 -99s59.166 -40 98.499 -40
s72.166 13.333 98.499 40s39.5 59.667 39.5 99zM393 525.999c0 37.333 -11.5 68 -34.5 92s-52.833 36 -89.5 36s-66.5 -12 -89.5 -36s-34.5 -54.667 -34.5 -92s11.5 -67.833 34.5 -91.5s52.833 -35.5 89.5 -35.5s66.5 11.833 89.5 35.5s34.5 54.167 34.5 91.5z" />
    <glyph glyph-name="nine.lf" horiz-adv-x="489" 
d="M442 513c0 -46.667 -15 -100 -45 -160l-175 -353h-75l160 320c-22 -10 -47.333 -15 -76 -15c-54.667 0 -99 18.833 -133 56.5s-51 86.167 -51 145.5c0 61.333 18 111.833 54 151.5s83.667 59.5 143 59.5c60 0 108 -18.667 144 -56s54 -87 54 -149zM370 510
c0 43.333 -11.5 78.165 -34.5 104.498s-53.5 39.5 -91.5 39.5s-68.333 -13.167 -91 -39.5s-34 -61.166 -34 -104.499c0 -41.333 11 -75.666 33 -102.999s52.667 -41 92 -41c38 0 68.5 13 91.5 39s34.5 61 34.5 105z" />
    <glyph glyph-name="zero.osf" horiz-adv-x="522" 
d="M456 190c0 -58 -18.5 -105.167 -55.5 -141.5s-83.5 -54.5 -139.5 -54.5s-102.5 18.167 -139.5 54.5s-55.5 83.5 -55.5 141.5v217c0 58 18.5 105.167 55.5 141.5s83.5 54.5 139.5 54.5s102.5 -18.167 139.5 -54.5s55.5 -83.5 55.5 -141.5v-217zM384 194v209
c0 40 -10.833 72.667 -32.5 98s-51.834 38 -90.501 38s-68.834 -12.667 -90.501 -38s-32.5 -58 -32.5 -98v-209c0 -40 10.833 -72.667 32.5 -98s51.834 -38 90.501 -38s68.834 12.667 90.501 38s32.5 58 32.5 98z" />
    <glyph glyph-name="one.osf" horiz-adv-x="373" 
d="M256 0h-72v517l-133 -117v82l133 115h72v-597z" />
    <glyph glyph-name="two.osf" horiz-adv-x="506" 
d="M450 0h-408.999v64l251 242c45.333 44 68 88.667 68 134c0 34 -11.5 62.333 -34.5 85s-52.167 34 -87.5 34c-34.667 0 -63.834 -11.167 -87.501 -33.5s-35.5 -51.5 -35.5 -87.5h-72c0 53.333 18.5 97.5 55.5 132.5s83.5 52.5 139.5 52.5c57.333 0 104 -17.333 140 -52
s54 -78 54 -130c0 -58 -30.667 -117 -92 -177l-204 -200h314v-64z" />
    </font>
</defs>
</svg>
