<?xml version="1.0" standalone="no"?>
<!DOCTYPE svg PUBLIC "-//W3C//DTD SVG 1.1//EN" "http://www.w3.org/Graphics/SVG/1.1/DTD/svg11.dtd" >
<svg>
<metadata>
Created by FontForge 20090914 at Thu Feb 27 14:32:41 2014
 By www-data
Copyright (c) 2009 by Eduardo Manso. All rights reserved.
</metadata>
<defs>
<font id="Geogrotesque-SemiBold" horiz-adv-x="540" >
  <font-face 
    font-family="Geogrotesque-SemiBold"
    font-weight="600"
    font-stretch="normal"
    units-per-em="1000"
    panose-1="2 0 0 0 0 0 0 0 0 0"
    ascent="750"
    descent="-250"
    x-height="498"
    cap-height="680"
    bbox="-73.3324 -261.089 1413 964"
    underline-thickness="50"
    underline-position="-50"
    unicode-range="U+0008-U+FB02"
  />
<missing-glyph horiz-adv-x="847" 
d="M671 94c-69.333 -68 -152.333 -101.999 -249 -101.999c-96 0 -178 34 -246 102c-68.667 67.333 -103 149.666 -103 246.999c0 96 34.333 178.333 103 247c68 68 150 102 246 102c98 0 181 -34 249 -102c68.667 -68.667 103 -151 103 -247s-34.333 -178.333 -103 -247z
M659 106.001c66 66 99 144.333 99 235s-33 169 -99 235c-65.333 65.333 -144.333 98 -237 98c-90.667 0 -168.667 -32.667 -234 -98c-66 -66 -99 -144.333 -99 -235c0 -92 33 -170.333 99 -235c65.333 -65.333 143.333 -98 234 -98c92.667 0 171.667 32.667 237 98z
M523 167.001l-100 100.999l-100 -100c-12.667 -12.667 -24.334 -12.667 -35.001 0l-42 42c-11.333 11.333 -11 22.333 1 33l100 100l-100 101c-12 12 -12.333 23.333 -1 34l41 42c12 12 24 11.667 36 -1l100 -100l100 100c12.667 12.667 24.334 13.334 35.001 2.00098
l42 -41c11.333 -13.333 11 -25.333 -1 -36l-100 -101l100 -100c12.667 -11.333 12.667 -23 0 -35l-42 -41c-10.667 -12 -22 -12 -34 0z" />
    <glyph glyph-name="ff" unicode="ff" horiz-adv-x="659" 
d="M97 496l2.99902 0.000976562v59c0 46.667 18 83 54 109s89.667 39 161 39h9c16.667 0 25 -8.33301 25 -25v-58c0 -16.667 -8.33301 -25 -25 -25h-9c-55.333 0 -83 -18 -83 -54v-45h175v62c0 46 18 82 54 108s89.667 39 161 39h9c16.667 0 25 -8 25 -24v-58
c0 -17.333 -8.33301 -26 -25 -26h-9c-55.333 0 -83 -18 -83 -54v-47h83c16.667 0 25 -7.66699 25 -23v-56c0 -16.667 -8.33301 -25 -25 -25h-83v-366c0 -17.333 -8 -26 -24 -26h-83c-16.667 0 -25 8.66699 -25 26v366h-175v-366c0 -17.333 -8 -26 -24 -26h-83
c-16.667 0 -25 8.66699 -25 26v366h-54c-16 0 -24 8.33301 -24 25v50c0 8 1.83301 13.667 5.5 17s9.83398 5.66602 18.501 6.99902z" />
    <glyph glyph-name="fi" unicode="fi" horiz-adv-x="595" 
d="M535 472v-445.999c0 -17.333 -7.66699 -26 -23 -26h-83c-16.667 0 -25 8.66699 -25 26v366h-175v-366c0 -17.333 -8 -26 -24 -26h-83c-16 0 -24 8.66699 -24 26v366h-54c-16.667 0 -25 8.33301 -25 25v50c0 8 1.83301 13.667 5.5 17s10.167 5.66602 19.5 6.99902l50 5h4
v55c0 46.667 17.833 83 53.5 109s89.167 39 160.5 39h192c16.667 0 25 -8.33301 25 -25v-58c0 -16.667 -8.33301 -25 -25 -25h-192c-55.333 0 -83 -18 -83 -54v-41h281c16.667 0 25 -8 25 -24z" />
    <glyph glyph-name="fl" unicode="fl" horiz-adv-x="595" 
d="M535 674v-647.999c0 -17.333 -7.66699 -26 -23 -26h-83c-16.667 0 -25 8.66699 -25 26v565h-92c-55.333 0 -83 -18 -83 -54v-41h83c16.667 0 25 -7.66699 25 -23v-56c0 -16.667 -8.33301 -25 -25 -25h-83v-366c0 -17.333 -8 -26 -24 -26h-83c-16 0 -24 8.66699 -24 26
v366h-54c-16.667 0 -25 8.33301 -25 25v50c0 8 1.83301 13.667 5.5 17s10.167 5.66602 19.5 6.99902l50 5h4v55c0 46.667 17.833 83 53.5 109s89.167 39 160.5 39h198c16.667 0 25 -8.33301 25 -25z" />
    <glyph glyph-name="ffi" unicode="ffi" horiz-adv-x="905" 
d="M97 496l2.99902 0.000976562v59c0 46.667 18 83 54 109s89.667 39 161 39h9c16.667 0 25 -8.33301 25 -25v-58c0 -16.667 -8.33301 -25 -25 -25h-9c-55.333 0 -83 -18 -83 -54v-45h175v55c0 46.667 18 83 54 109s89.667 39 161 39h192c17.333 0 26 -8.33301 26 -25v-58
c0 -16.667 -8.66699 -25 -26 -25h-192c-55.333 0 -83 -18 -83 -54v-41h281c17.333 0 26 -8 26 -24v-446c0 -17.333 -8 -26 -24 -26h-83c-16.667 0 -25 8.66699 -25 26v366h-175v-366c0 -17.333 -8 -26 -24 -26h-83c-16.667 0 -25 8.66699 -25 26v366h-175v-366
c0 -17.333 -8 -26 -24 -26h-83c-16.667 0 -25 8.66699 -25 26v366h-54c-16 0 -24 8.33301 -24 25v50c0 8 1.83301 13.667 5.5 17s9.83398 5.66602 18.501 6.99902z" />
    <glyph glyph-name="ffl" unicode="ffl" horiz-adv-x="905" 
d="M97 496l4 0.000976562v59c0 46.667 17.833 83 53.5 109s89.167 39 160.5 39h9c17.333 0 26 -8.33301 26 -25v-58c0 -16.667 -8.66699 -25 -26 -25h-9c-55.333 0 -83 -18 -83 -54v-45h175v55c0 46.667 18 83 54 109s89.667 39 161 39h198c17.333 0 26 -8.33301 26 -25
v-648c0 -17.333 -8 -26 -24 -26h-83c-16 0 -24 8.66699 -24 26v565h-93c-55.333 0 -83 -18 -83 -54v-41h83c16.667 0 25 -7.66699 25 -23v-56c0 -16.667 -8.33301 -25 -25 -25h-83v-366c0 -17.333 -8 -26 -24 -26h-83c-16.667 0 -25 8.66699 -25 26v366h-175v-366
c0 -17.333 -8 -26 -24 -26h-83c-16 0 -24 8.66699 -24 26v366h-54c-16.667 0 -25 8.33301 -25 25v50c0 8 1.83301 13.667 5.5 17s10.167 5.66602 19.5 6.99902z" />
    <glyph glyph-name=".notdef" horiz-adv-x="847" 
d="M671 94c-69.333 -68 -152.333 -101.999 -249 -101.999c-96 0 -178 34 -246 102c-68.667 67.333 -103 149.666 -103 246.999c0 96 34.333 178.333 103 247c68 68 150 102 246 102c98 0 181 -34 249 -102c68.667 -68.667 103 -151 103 -247s-34.333 -178.333 -103 -247z
M659 106.001c66 66 99 144.333 99 235s-33 169 -99 235c-65.333 65.333 -144.333 98 -237 98c-90.667 0 -168.667 -32.667 -234 -98c-66 -66 -99 -144.333 -99 -235c0 -92 33 -170.333 99 -235c65.333 -65.333 143.333 -98 234 -98c92.667 0 171.667 32.667 237 98z
M523 167.001l-100 100.999l-100 -100c-12.667 -12.667 -24.334 -12.667 -35.001 0l-42 42c-11.333 11.333 -11 22.333 1 33l100 100l-100 101c-12 12 -12.333 23.333 -1 34l41 42c12 12 24 11.667 36 -1l100 -100l100 100c12.667 12.667 24.334 13.334 35.001 2.00098
l42 -41c11.333 -13.333 11 -25.333 -1 -36l-100 -101l100 -100c12.667 -11.333 12.667 -23 0 -35l-42 -41c-10.667 -12 -22 -12 -34 0z" />
    <glyph glyph-name=".null" horiz-adv-x="0" 
 />
    <glyph glyph-name=".null" horiz-adv-x="0" 
 />
    <glyph glyph-name=".null" horiz-adv-x="0" 
 />
    <glyph glyph-name="nonmarkingreturn" unicode="&#x9;" horiz-adv-x="333" 
 />
    <glyph glyph-name="nonmarkingreturn" unicode="&#xd;" horiz-adv-x="333" 
 />
    <glyph glyph-name="space" unicode=" " horiz-adv-x="194" 
 />
    <glyph glyph-name="exclam" unicode="!" horiz-adv-x="277" 
d="M207 390l-13 -183c-0.666992 -9.33301 -2.66699 -15.833 -6 -19.5s-9.33301 -5.5 -18 -5.5h-62c-8.66699 0 -14.667 1.83301 -18 5.5s-5.33301 10.167 -6 19.5l-14 183v264c0 17.333 8.33301 26 25 26h88c16 0 24 -8.66699 24 -26v-264zM205 106v-81
c0 -16.667 -8 -25 -24 -25h-87c-16 -0 -24 8.33301 -24 25v81c0 16.667 8 25 24 25h87c16 0 24 -8.33301 24 -25z" />
    <glyph glyph-name="quotedbl" unicode="&#x22;" horiz-adv-x="427" 
d="M178 491c0 -16.667 -8 -25 -24 -25h-59c-8.66699 0 -14.667 1.83301 -18 5.5s-5.33301 10.167 -6 19.5l-11 163c-0.666992 17.333 7.33301 26 24 26h81c16 0 23.667 -8.66699 23 -26zM356 491c0 -16.667 -8 -25 -24 -25h-58c-16 0 -24.333 8.33301 -25 25l-10 163
c-0.666992 17.333 7.33301 26 24 26h80c16.667 0 24.667 -8.66699 24 -26z" />
    <glyph glyph-name="numbersign" unicode="#" horiz-adv-x="678" 
d="M92 272h69.001l21 75h-42c-17.333 0 -26 8 -26 24v44c0 15.333 8.66699 23 26 23h69l22 78c4.66699 17.333 15 26 31 26h59c16.667 0 22.667 -8.66699 18 -26l-23 -78h123l22 78c5.33301 17.333 15.666 26 30.999 26h59c16.667 0 22.667 -8.66699 18 -26l-22 -78h39
c16.667 0 25 -7.66699 25 -23v-44c0 -16 -8.33301 -24 -25 -24h-66l-21 -75h39c17.333 0 26 -7.66699 26 -23v-44c0 -16.667 -8.66699 -25 -26 -25h-66l-22 -78c-4.66699 -16.667 -14.667 -25 -30 -25h-59c-16.667 0 -22.667 8.33301 -18 25l22 78h-123l-22 -78
c-4.66699 -16.667 -14.667 -25 -30 -25h-60c-16 0 -21.667 8.33301 -17 25l22 78h-43c-16.667 0 -25 8.33301 -25 25v44c0 15.333 8.33301 23 25 23zM290.001 347l-22 -75h123l22 75h-123z" />
    <glyph glyph-name="dollar" unicode="$" horiz-adv-x="536" 
d="M343 445l-0.000976562 19.001c0 27.333 -24.333 41 -73 41c-48 0 -72 -13.667 -72 -41v-11c0 -16 10.333 -27.667 31 -35l144 -51c64 -22.667 96 -57.334 96 -104.001v-51c0 -28 -10.833 -53.333 -32.5 -76s-54.167 -38.334 -97.5 -47.001v-63
c0 -17.333 -7.66699 -26 -23 -26h-84c-16 0 -24 8.66699 -24 26v61c-48 7.33301 -83.5 22.5 -106.5 45.5s-34.5 49.5 -34.5 79.5v23c0 15.333 7.66699 23 23 23h74c15.333 0 23 -7.66699 23 -23v-17c0 -28 26.667 -42 80 -42c54 0 81 14 81 42v17
c0 8 -3.33301 14.833 -10 20.5s-18.334 11.5 -35.001 17.5l-145 53c-20.667 8 -39 21.833 -55 41.5s-24 41.167 -24 64.5v32c0 30 10.333 56.833 31 80.5s53.334 39.5 98.001 47.5v62c0 17.333 8 26 24 26h84c15.333 0 23 -8.66699 23 -26v-63
c42.667 -8.66699 73.834 -24.667 93.501 -48s29.5 -49.666 29.5 -78.999v-19c0 -8.66699 -1.66699 -14.667 -5 -18s-9.33301 -5 -18 -5h-74c-14.667 0 -22 7.66699 -22 23z" />
    <glyph glyph-name="percent" unicode="%" horiz-adv-x="869" 
d="M67 478v98c0 74.667 52 112 156 112s156 -37.333 156 -112v-98c0 -74.667 -52 -112 -156 -112s-156 37.333 -156 112zM272 482v90c0 20 -16.333 30 -49 30s-49 -10 -49 -30v-90c0 -20.667 16.333 -31 49 -31s49 10.333 49 31zM694 107v90c0 20 -16 30 -48 30
c-32.667 0 -49 -10 -49 -30v-90c0 -20.667 16.333 -31 49 -31c32 0 48 10.333 48 31zM490 102v98c0 74.667 52 112 156 112s156 -37.333 156 -112v-98c0 -74.667 -52 -112 -156 -112s-156 37.333 -156 112zM655 654l-320 -628c-8.66699 -17.333 -20.667 -26 -36 -26h-70
c-6.66699 0 -11.167 3 -13.5 9s-1.83301 11.667 1.5 17l321 628c8.66699 17.333 20.667 26 36 26h69c8 0 13 -2.66699 15 -8s1 -11.333 -3 -18z" />
    <glyph glyph-name="ampersand" unicode="&#x26;" horiz-adv-x="696" 
d="M301 404l337 -0.000976562c16.667 0 25 -8 25 -24v-59c0 -16.667 -8.33301 -25 -25 -25h-59v-141c0 -48 -19.833 -87.167 -59.5 -117.5s-106.5 -45.5 -200.5 -45.5c-171.333 0 -257 53 -257 159v89c0 55.333 28 93.333 84 114c-50 16.667 -75 51.334 -75 104.001v71
c0 106 74.333 159 223 159c150 0 225 -54.333 225 -163v-32c0 -16.667 -7.66699 -25 -23 -25h-84c-16 0 -24 8.33301 -24 25v13c0 49.333 -31 74 -93 74c-61.333 0 -92 -24.667 -92 -74v-28c0 -49.333 32.667 -74 98 -74zM321 99.999c84.667 0 127 24.667 127 74v122h-156
c-65.333 0 -98 -24.333 -98 -73v-49c0 -49.333 42.333 -74 127 -74z" />
    <glyph glyph-name="quotesingle" unicode="'" horiz-adv-x="248" 
d="M188 654l-10 -163c-0.666992 -16.667 -8.66699 -25 -24 -25h-59c-8.66699 0 -14.667 1.83301 -18 5.5s-5.33301 10.167 -6 19.5l-11 163c-0.666992 17.333 7.33301 26 24 26h81c16 0 23.667 -8.66699 23 -26z" />
    <glyph glyph-name="parenleft" unicode="(" horiz-adv-x="357" 
d="M62 -70v630c0 46.667 17.833 83 53.5 109s89.167 39 160.5 39h9c16.667 0 25 -8.33301 25 -25v-58c0 -16.667 -8.33301 -25 -25 -25h-9c-52.667 0 -79 -18 -79 -54v-602c0 -36 26.333 -54 79 -54h9c16.667 0 25 -8.33301 25 -25v-58c0 -16.667 -8.33301 -25 -25 -25h-9
c-71.333 0 -124.833 13 -160.5 39s-53.5 62.333 -53.5 109z" />
    <glyph glyph-name="parenright" unicode=")" horiz-adv-x="357" 
d="M295 560v-630.002c0 -46.667 -17.833 -83 -53.5 -109s-89.167 -39 -160.5 -39h-10c-16.667 0 -25 8.33301 -25 25v58c0 16.667 8.33301 25 25 25h10c28 0 48 4.33301 60 13s18 22.334 18 41.001v602c0 18.667 -6 32.334 -18 41.001s-32 13 -60 13h-10
c-16.667 0 -25 8.33301 -25 25v58c0 16.667 8.33301 25 25 25h10c71.333 0 124.833 -13 160.5 -39s53.5 -62.333 53.5 -109z" />
    <glyph glyph-name="asterisk" unicode="*" horiz-adv-x="541" 
d="M250 286c-16 0 -23.668 8.66797 -23.001 26.001l8 121l-106 -69c-14.667 -10 -26 -7 -34 9l-20 39c-7.33301 15.333 -3.66602 26.333 11.001 33l104 48l-104 49c-15.333 7.33301 -19 18.333 -11 33l20 38c8.66699 15.333 20 18.333 34 9l107 -69l-9 130
c-0.666992 9.33301 0.833008 15.833 4.5 19.5s10.167 5.5 19.5 5.5h43c16.667 0 24.667 -8.33301 24 -25l-10 -127l104 66c14.667 9.33301 26 6.66602 34 -8.00098l20 -39c8 -14.667 4.33301 -25.667 -11 -33l-104 -49l104 -48c15.333 -6.66699 19 -17.667 11 -33l-20 -40
c-8 -15.333 -19.333 -18 -34 -8l-103 65l9 -117c0.666992 -17.333 -7.33301 -26 -24 -26h-44z" />
    <glyph glyph-name="plus" unicode="+" horiz-adv-x="560" 
d="M226 143v141h-142c-16.667 0 -25 8.33301 -25 25v59c0 16 8.33301 24 25 24h142v142c0 17.333 7.66699 26 23 26h59c16.667 0 25 -8.66699 25 -26v-142h142c17.333 0 26 -8 26 -24v-59c0 -16.667 -8.66699 -25 -26 -25h-142v-141c0 -16.667 -8.33301 -25 -25 -25h-59
c-15.333 0 -23 8.33301 -23 25z" />
    <glyph glyph-name="comma" unicode="," horiz-adv-x="266" 
d="M75 39l-0.000976562 67.001c0 16.667 8 25 24 25h86c15.333 0 23 -8.33301 23 -25v-74c0 -76 -48 -125.333 -144 -148c-15.333 -4 -25.666 1.33301 -30.999 16l-20 56c-5.33301 15.333 0 25.666 16 30.999c30.667 10 46 27.333 46 52z" />
    <glyph glyph-name="hyphen" unicode="-" horiz-adv-x="436" 
d="M84 342h268c16.667 0 25 -8 25 -24v-59c0 -16 -8.33301 -24 -25 -24h-268c-16.667 0 -25 8 -25 24v59c0 16 8.33301 24 25 24z" />
    <glyph glyph-name="period" unicode="." horiz-adv-x="250" 
d="M192 106v-81c0 -16.667 -8 -25 -24 -25h-85c-16.667 -0 -25 8.33301 -25 25v81c0 16.667 8.33301 25 25 25h85c16 0 24 -8.33301 24 -25z" />
    <glyph glyph-name="slash" unicode="/" horiz-adv-x="366" 
d="M352 673l-197.999 -795c-4.66699 -17.333 -14.334 -26 -29.001 -26h-92c-16.667 0 -23 8.66699 -19 26l199 795c4 17.333 13.667 26 29 26h91c16.667 0 23 -8.66699 19 -26z" />
    <glyph glyph-name="zero" unicode="0" horiz-adv-x="562" 
d="M48 155v370c0 47.333 18.5 86.333 55.5 117s96.167 46 177.5 46c80.667 0 139.667 -15.333 177 -46s56 -69.667 56 -117v-370c0 -47.333 -18.667 -86.333 -56 -117s-96.333 -46 -177 -46c-81.333 0 -140.5 15.333 -177.5 46s-55.5 69.667 -55.5 117zM379 179v322
c0 50 -32.667 75 -98 75s-98 -25 -98 -75v-322c0 -50 32.667 -75 98 -75s98 25 98 75z" />
    <glyph glyph-name="one" unicode="1" horiz-adv-x="562" 
d="M91 642l245.999 45c6.66699 1.33301 12.334 0.333008 17.001 -3s7 -10.333 7 -21v-551h131c16.667 0 25 -8 25 -24v-63c0 -16.667 -8.33301 -25 -25 -25h-402c-16.667 -0 -25 8.33301 -25 25v63c0 16 8.33301 24 25 24h136v440l-135 -24
c-17.333 -3.33301 -26 3.66699 -26 21v66c0 14.667 8.66699 23.667 26 27z" />
    <glyph glyph-name="two" unicode="2" horiz-adv-x="562" 
d="M200 112l289.999 0.000976562c16.667 0 25 -8 25 -24v-63c0 -16.667 -8.33301 -25 -25 -25h-400c-17.333 0 -26 8.33301 -26 25v184c0 17.333 3.66699 32.333 11 45s15.333 21.667 24 27s19.667 11 33 17l205 86c26.667 10.667 40 30 40 58v61c0 50 -32.667 75 -98 75
c-64.667 0 -97 -25 -97 -75v-39c0 -16.667 -7.66699 -25 -23 -25h-83c-16.667 0 -25 8.33301 -25 25v61c0 47.333 17.833 86.333 53.5 117s93.834 46 174.501 46s139.5 -15.333 176.5 -46s55.5 -69.667 55.5 -117v-79c0 -75.333 -31.667 -126 -95 -152l-169 -70
c-16.667 -6.66699 -28.667 -13.834 -36 -21.501s-11 -19.167 -11 -34.5v-56z" />
    <glyph glyph-name="three" unicode="3" horiz-adv-x="562" 
d="M201 404l68 0.00195312c65.333 0 98 24.667 98 74v28c0 49.333 -30.333 74 -91 74c-62 0 -93 -24.667 -93 -74v-13c0 -16.667 -8.33301 -25 -25 -25h-83c-15.333 0 -23 8.33301 -23 25v32c0 108.667 75 163 225 163c148.667 0 223 -53 223 -159v-71
c0 -52.667 -25 -87.334 -75 -104.001c56 -20.667 84 -58.667 84 -114v-89c0 -46.667 -17.667 -84.834 -53 -114.501s-94.333 -44.5 -177 -44.5s-142 15.333 -178 46s-54 69.667 -54 117v32c0 16.667 8 25 24 25h83c16 0 24 -8.33301 24 -25v-13
c0 -49.333 33.333 -74 100 -74c65.333 0 98 24.667 98 74v49c0 48.667 -32.667 73 -98 73h-77c-16.667 0 -25 8.33301 -25 25v59c0 16 8.33301 24 25 24z" />
    <glyph glyph-name="four" unicode="4" horiz-adv-x="562" 
d="M285 654l-113 -357.001h191v357c0 17.333 8 26 24 26h87c16 0 24 -8.66699 24 -26v-628c0 -17.333 -8 -26 -24 -26h-87c-16 0 -24 8.66699 -24 26v159h-305c-16.667 0 -25 8 -25 24v61c0 4.66699 1.33301 12.334 4 23.001l113 361c5.33301 17.333 15.333 26 30 26h87
c17.333 0 23.333 -8.66699 18 -26z" />
    <glyph glyph-name="five" unicode="5" horiz-adv-x="562" 
d="M100 680l366.002 0.000976562c17.333 0 26 -8 26 -24v-63c0 -16.667 -8.66699 -25 -26 -25h-254v-131h68c80 0 138.667 -14.833 176 -44.5s56 -67.834 56 -114.501v-124c0 -48 -17.833 -87.167 -53.5 -117.5s-94.834 -45.5 -177.501 -45.5s-141.834 15.167 -177.501 45.5
s-53.5 69.5 -53.5 117.5v32c0 16.667 8 25 24 25h83c16.667 0 25 -8.33301 25 -25v-12c0 -50 32.333 -75 97 -75c65.333 0 98 25 98 75v85c0 46.667 -32.667 70 -98 70h-179c-15.333 0 -23 8.66699 -23 26v299c0 17.333 7.66699 26 23 26z" />
    <glyph glyph-name="six" unicode="6" horiz-adv-x="562" 
d="M55 155l-0.000976562 371c0 46.667 17.5 85.334 52.5 116.001s92.5 46 172.5 46s137 -15.333 171 -46s51 -69.334 51 -116.001v-26c0 -16.667 -8.33301 -25 -25 -25h-83c-8.66699 0 -14.667 1.83301 -18 5.5s-5 10.167 -5 19.5v7c0 48.667 -30.333 73 -91 73
c-61.333 0 -92 -24.333 -92 -73v-122c30 20.667 67.333 31 112 31c71.333 0 124 -15.667 158 -47s51 -70.333 51 -117v-97c0 -47.333 -17.667 -86.333 -53 -117s-93.666 -46 -174.999 -46c-80.667 0 -138.5 15.333 -173.5 46s-52.5 69.667 -52.5 117zM374.999 175v58
c0 49.333 -31.333 74 -94 74c-62 0 -93 -22.667 -93 -68v-64c0 -50 31 -75 93 -75c62.667 0 94 25 94 75z" />
    <glyph glyph-name="seven" unicode="7" horiz-adv-x="562" 
d="M67 680h435c16.667 0 25 -8 25 -24v-61c0 -5.33301 -1.66699 -12 -5 -20l-242 -549c-7.33301 -17.333 -18 -26 -32 -26h-98c-19.333 0 -25 8.66699 -17 26l241 542h-307c-16.667 0 -25 8.33301 -25 25v63c0 16 8.33301 24 25 24z" />
    <glyph glyph-name="eight" unicode="8" horiz-adv-x="562" 
d="M65 459v66c0 108.667 72 163 216 163c143.333 0 215 -54.333 215 -163v-66c0 -50.667 -25 -86 -75 -106c57.333 -20.667 86 -56.334 86 -107.001v-91c0 -47.333 -17.5 -86.333 -52.5 -117s-92.833 -46 -173.5 -46s-138.5 15.167 -173.5 45.5s-52.5 69.5 -52.5 117.5v91
c0 50.667 28.333 86.334 85 107.001c-50 20 -75 55.333 -75 106zM374 175l0.00195312 50c0 25.333 -7.33301 43.833 -22 55.5s-38.334 17.5 -71.001 17.5s-56.334 -5.83301 -71.001 -17.5s-22 -30.167 -22 -55.5v-50c0 -50 31 -75 93 -75s93 25 93 75zM365.002 480v25
c0 26 -6.33301 45 -19 57s-34.334 18 -65.001 18c-31.333 0 -53.166 -6 -65.499 -18s-18.5 -31 -18.5 -57v-25c0 -26 6.16699 -45 18.5 -57s34.166 -18 65.499 -18c30.667 0 52.334 6 65.001 18s19 31 19 57z" />
    <glyph glyph-name="nine" unicode="9" horiz-adv-x="562" 
d="M507 525l0.000976562 -371c0 -46.667 -17.5 -85.334 -52.5 -116.001s-92.5 -46 -172.5 -46s-137 15.333 -171 46s-51 69.334 -51 116.001v26c0 16.667 8.33301 25 25 25h83c15.333 0 23 -8.33301 23 -25v-7c0 -48.667 30.333 -73 91 -73s91 24.333 91 73v121
c-28 -20 -65 -30 -111 -30c-70.667 0 -123.167 15.667 -157.5 47s-51.5 70.333 -51.5 117v97c0 47.333 17.667 86.333 53 117s93.666 46 174.999 46c80.667 0 138.5 -15.333 173.5 -46s52.5 -69.667 52.5 -117zM373.001 446v60c0 49.333 -30.667 74 -92 74
c-63.333 0 -95 -25 -95 -75v-58c0 -49.333 31.667 -74 95 -74c61.333 0 92 24.333 92 73z" />
    <glyph glyph-name="colon" unicode=":" horiz-adv-x="250" 
d="M192 106v-81c0 -16.667 -8 -25 -24 -25h-85c-16.667 -0 -25 8.33301 -25 25v81c0 16.667 8.33301 25 25 25h85c16 0 24 -8.33301 24 -25zM192 473v-82c0 -16.667 -8 -25 -24 -25h-85c-16.667 0 -25 8.33301 -25 25v82c0 16.667 8.33301 25 25 25h85
c16 0 24 -8.33301 24 -25z" />
    <glyph glyph-name="semicolon" unicode=";" horiz-adv-x="290" 
d="M232 473v-82c0 -16.667 -7.66699 -25 -23 -25h-86c-16.667 0 -25 8.33301 -25 25v82c0 16.667 8.33301 25 25 25h86c15.333 0 23 -8.33301 23 -25zM98 39l0.000976562 67.001c0 16.667 8.33301 25 25 25h86c15.333 0 23 -8.33301 23 -25v-74
c0 -76 -48 -125.333 -144 -148c-16 -4 -26.667 1.33301 -32 16l-19 56c-5.33301 15.333 0 25.666 16 30.999c17.333 6 29.166 13 35.499 21s9.5 18.333 9.5 31z" />
    <glyph glyph-name="less" unicode="&#x3c;" horiz-adv-x="523" 
d="M438 435l-251 -96.002l251 -96c9.33301 -3.33301 15.833 -6.83301 19.5 -10.5s5.5 -9.5 5.5 -17.5v-79c0 -10 -2.16699 -17.333 -6.5 -22s-10.5 -5.33398 -18.5 -2.00098l-356 154c-5.33301 2.66699 -9.33301 4.83398 -12 6.50098s-5.16699 4.33398 -7.5 8.00098
s-3.5 8.5 -3.5 14.5v88c0 6 1.16699 10.833 3.5 14.5s4.83301 6.33398 7.5 8.00098s6.66699 3.83398 12 6.50098l356 154c8 3.33301 14.167 2.66602 18.5 -2.00098s6.5 -12 6.5 -22v-79c0 -8 -1.83301 -13.833 -5.5 -17.5s-10.167 -7.16699 -19.5 -10.5z" />
    <glyph glyph-name="equal" unicode="=" horiz-adv-x="581" 
d="M84 478h412c16.667 0 25 -8 25 -24v-60c0 -16 -8.33301 -24 -25 -24h-412c-16.667 0 -25 8 -25 24v60c0 16 8.33301 24 25 24zM84 273h412c16.667 0 25 -7.66699 25 -23v-60c0 -16.667 -8.33301 -25 -25 -25h-412c-16.667 0 -25 8.33301 -25 25v60
c0 15.333 8.33301 23 25 23z" />
    <glyph glyph-name="greater" unicode="&#x3e;" horiz-adv-x="523" 
d="M336 338l-252 96.001c-16.667 6.66699 -25 16 -25 28v80c0 9.33301 2.33301 16.666 7 21.999s10.667 6.33301 18 3l357 -154c14.667 -6 22 -15 22 -27v-94c0 -12 -7.33301 -21 -22 -27l-357 -154c-7.33301 -3.33301 -13.333 -2.5 -18 2.5s-7 12.167 -7 21.5v81
c0 6 1.16699 10.833 3.5 14.5s5 6.16699 8 7.5l13.5 6z" />
    <glyph glyph-name="question" unicode="?" horiz-adv-x="565" 
d="M187 206l-0.000976562 68.999c0 25.333 5.5 44.333 16.5 57s26.5 23.667 46.5 33l92 47c25.333 14 38 34.333 38 61v30c0 50 -33 75 -99 75s-99 -25 -99 -75v-39c0 -16.667 -7.66699 -25 -23 -25h-83c-16.667 0 -25 8.33301 -25 25v61c0 47.333 18.167 86.333 54.5 117
s94.833 46 175.5 46s139.5 -15.333 176.5 -46s55.833 -69.667 56.5 -117v-47c0 -76 -31 -127.667 -93 -155l-57 -26c-15.333 -7.33301 -26.166 -14.666 -32.499 -21.999s-9.5 -18.666 -9.5 -33.999v-35c0 -8.66699 -1.66699 -14.834 -5 -18.501s-9.33301 -5.5 -18 -5.5h-88
c-16 0 -24 8 -24 24zM321.999 105.999v-81c0 -16.667 -7.66699 -25 -23 -25h-88c-16 0 -24 8.33301 -24 25v81c0 16.667 8 25 24 25h88c15.333 0 23 -8.33301 23 -25z" />
    <glyph glyph-name="at" unicode="@" horiz-adv-x="954" 
d="M652 -150l-175.001 -0.00585938c-68 0 -127 4.5 -177 13.5s-89.5 20.333 -118.5 34s-52.167 30.834 -69.5 51.501s-28.666 40.834 -33.999 60.501s-8 41.834 -8 66.501v351c0 24.667 2.66699 46.834 8 66.501s16.666 39.834 33.999 60.501s40.5 37.834 69.5 51.501
s68.5 24.834 118.5 33.501s109 13 177 13c84 0 154.333 -6.16699 211 -18.5s98.667 -30 126 -53s46 -46.5 56 -70.5s15 -51.667 15 -83v-234c0 -106.667 -62 -160 -186 -160c-72.667 0 -122 20.667 -148 62c-46.667 -41.333 -99.334 -62 -158.001 -62
c-82.667 0 -124 40.333 -124 121c0 10.667 0.333008 19 1 25l12 133c8.66699 97.333 55.667 146 141 146c43.333 0 88.333 -16.333 135 -49l3 16c2.66699 16.667 11.667 25 27 25h73c16 0 23 -8.33301 21 -25l-21 -206c-1.33301 -16.667 -1.66602 -31.834 -0.999023 -45.501
s4.83398 -24.667 12.501 -33s19.167 -12.5 34.5 -12.5c20 0 33.5 7.16699 40.5 21.5s10.5 34.833 10.5 61.5v210c0 28 -7 50.5 -21 67.5s-42.167 30.833 -84.5 41.5s-100.833 16 -175.5 16s-133 -5.33301 -175 -16s-70 -24.5 -84 -41.5s-21 -39.5 -21 -67.5v-339
c0 -28 7 -50.667 21 -68s42 -31.333 84 -42s100.333 -16 175 -16h175c17.333 0 26 -8.33301 26 -25v-56c0 -16.667 -8.66699 -25 -26 -25zM406.999 285.994l-8 -84.999c-1.33301 -14.667 1.83398 -26.334 9.50098 -35.001s21.167 -13 40.5 -13c22.667 0 50 8 82 24v6l13 127
c-30.667 22 -57.334 33 -80.001 33c-34 0 -53 -19 -57 -57z" />
    <glyph glyph-name="A" unicode="A" horiz-adv-x="553" 
d="M233 680h86.999c16.667 0 27.334 -8.33301 32.001 -25l186 -630c5.33301 -16.667 -0.666992 -25 -18 -25h-90c-14 -0 -23.667 8.33301 -29 25l-35 122h-186l-35 -122c-5.33301 -16.667 -15.333 -25 -30 -25h-81c-18 -0 -24.333 8.33301 -19 25l187 630
c4.66699 16.667 15 25 31 25zM335.999 254l-33.002 110.999c-5.33301 17.333 -11.166 48.333 -17.499 93s-10.166 74.334 -11.499 89.001c-16 -104.667 -26.333 -165 -31 -181l-34 -112h127z" />
    <glyph glyph-name="B" unicode="B" horiz-adv-x="594" 
d="M308 0l-214 -0.000976562c-16 0 -24 8.66699 -24 26v628c0 17.333 8 26 24 26h183c85.333 0 147 -13.667 185 -41s57 -64 57 -110v-59c0 -51.333 -25 -88.666 -75 -111.999c70.667 -24.667 106 -65 106 -121v-79c0 -46.667 -19.167 -84.667 -57.5 -114
s-99.833 -44 -184.5 -44zM308 295.999l-103 0.000976562v-188h103c72.667 0 109 24.667 109 74v45c0 21.333 -9.83301 38.166 -29.5 50.499s-46.167 18.5 -79.5 18.5zM277 572h-72v-174h75c70 0 105 25 105 75v35c0 24 -9 40.667 -27 50s-45 14 -81 14z" />
    <glyph glyph-name="C" unicode="C" horiz-adv-x="569" 
d="M529 217v-62c0 -47.333 -18.167 -86.333 -54.5 -117s-96.5 -46 -180.5 -46s-144.167 15.333 -180.5 46s-54.5 69.667 -54.5 117v370c0 47.333 18.167 86.333 54.5 117s96.5 46 180.5 46s144.167 -15.333 180.5 -46s54.5 -69.667 54.5 -117v-48
c0 -16.667 -7.66699 -25 -23 -25h-83c-16.667 0 -25 8.33301 -25 25v24c0 50 -34 75 -102 75c-67.333 0 -101 -25 -101 -75v-322c0 -50 33.667 -75 101 -75c68 0 102 25 102 75v38c0 16.667 8.33301 25 25 25h83c15.333 0 23 -8.33301 23 -25z" />
    <glyph glyph-name="D" unicode="D" horiz-adv-x="615" 
d="M312 0h-221c-14 0 -21 8.66699 -21 26v628c0 17.333 8 26 24 26h218c84 0 145.667 -15.5 185 -46.5s59 -69.833 59 -116.5v-354c0 -46.667 -19.667 -85.5 -59 -116.5s-101 -46.5 -185 -46.5zM312 568h-107v-456h107c72.667 0 109 25 109 75v306c0 50 -36.333 75 -109 75z
" />
    <glyph glyph-name="E" unicode="E" horiz-adv-x="512" 
d="M446 0h-352c-16 0 -24 8.66699 -24 26v628c0 17.333 8 26 24 26h342c16.667 0 25 -8 25 -24v-63c0 -16.667 -8.33301 -25 -25 -25h-231v-162h214c17.333 0 26 -8 26 -24v-60c0 -16 -8.66699 -24 -26 -24h-214v-186h241c16.667 0 25 -8 25 -24v-63
c0 -16.667 -8.33301 -25 -25 -25z" />
    <glyph glyph-name="F" unicode="F" horiz-adv-x="518" 
d="M94 680h366c16.667 0 25 -8 25 -24v-63c0 -16.667 -8.33301 -25 -25 -25h-255v-162h238c16.667 0 25 -8 25 -24v-64c0 -16.667 -8.33301 -25 -25 -25h-238v-267c0 -17.333 -8 -26 -24 -26h-87c-16 0 -24 8.66699 -24 26v628c0 17.333 8 26 24 26z" />
    <glyph glyph-name="G" unicode="G" horiz-adv-x="581" 
d="M300 357h204c16.667 0 25 -8 25 -24v-178c0 -47.333 -18.167 -86.333 -54.5 -117s-96.5 -46 -180.5 -46s-144.167 15.333 -180.5 46s-54.5 69.667 -54.5 117v370c0 47.333 18.167 86.333 54.5 117s96.5 46 180.5 46s144.167 -15.333 180.5 -46s54.5 -69.667 54.5 -117
v-40c0 -16.667 -7.66699 -25 -23 -25h-83c-16.667 0 -25 8.33301 -25 25v16c0 50 -34 75 -102 75c-67.333 0 -101 -25 -101 -75v-322c0 -50 33.667 -75 101 -75c68 0 102 24.667 102 74v67h-98c-17.333 0 -26 8 -26 24v64c0 16 8.66699 24 26 24z" />
    <glyph glyph-name="H" unicode="H" horiz-adv-x="626" 
d="M205 654v-249h216v249c0 17.333 8 26 24 26h87c16 0 24 -8.66699 24 -26v-628c0 -17.333 -8 -26 -24 -26h-87c-16 0 -24 8.66699 -24 26v267h-216v-267c0 -17.333 -8 -26 -24 -26h-87c-16 0 -24 8.66699 -24 26v628c0 17.333 8 26 24 26h87c16 0 24 -8.66699 24 -26z" />
    <glyph glyph-name="I" unicode="I" horiz-adv-x="274" 
d="M205 654v-628c0 -17.333 -8 -26 -24 -26h-87c-16 0 -24 8.66699 -24 26v628c0 17.333 8 26 24 26h87c16 0 24 -8.66699 24 -26z" />
    <glyph glyph-name="J" unicode="J" horiz-adv-x="515" 
d="M149 215v-36c0 -50 28.667 -75 86 -75c28.667 0 49.167 6 61.5 18s18.5 31 18.5 57v475c0 17.333 8 26 24 26h87c16 0 24 -8.66699 24 -26v-499c0 -108.667 -71.667 -163 -215 -163c-78 0 -134 15.333 -168 46s-51 69.667 -51 117v60c0 16.667 8.33301 25 25 25h84
c16 0 24 -8.33301 24 -25z" />
    <glyph glyph-name="K" unicode="K" horiz-adv-x="584" 
d="M335 346l234.999 -321c4.66699 -6 5.83398 -11.667 3.50098 -17s-7.83301 -8 -16.5 -8h-111c-11.333 -0 -23.333 8.33301 -36 25l-188 262h-17v-262c0 -16.667 -8 -25 -24 -25h-87c-16 -0 -24 8.33301 -24 25v630c0 16.667 8 25 24 25h87c16 0 24 -8.33301 24 -25v-269
h16l178 269c10.667 16.667 24 25 40 25h93c8.66699 0 14 -2.5 16 -7.5s0.666992 -10.833 -4 -17.5z" />
    <glyph glyph-name="L" unicode="L" horiz-adv-x="477" 
d="M205 654v-542h223c16.667 0 25 -8 25 -24v-63c0 -16.667 -8.33301 -25 -25 -25h-337c-14 0 -21 8.66699 -21 26v628c0 17.333 8 26 24 26h87c16 0 24 -8.66699 24 -26z" />
    <glyph glyph-name="M" unicode="M" horiz-adv-x="746" 
d="M677 655l0.000976562 -630.001c0 -16.667 -8 -25 -24 -25h-83c-16 0 -24 8.33301 -24 25v380l-4 -11c-2 -8 -4.33301 -16.5 -7 -25.5s-5.83398 -18.833 -9.50098 -29.5l-8.5 -25l-76 -186c-7.33301 -16.667 -18.333 -25 -33 -25h-71
c-14.667 0 -25.334 8.33301 -32.001 25l-85 201c-12 24.667 -19.667 49.334 -23 74.001v-378c0 -16.667 -8 -25 -24 -25h-79c-16 -0 -24 8.33301 -24 25v630c0 16.667 8 25 24 25h79c10.667 0 18 -4.66699 22 -14l153 -349l25 -70c8.66699 26 17.334 49 26.001 69l148 352
c3.33301 8 11 12 23 12h83c16 0 24 -8.33301 24 -25z" />
    <glyph glyph-name="N" unicode="N" horiz-adv-x="625" 
d="M556 655v-630c0 -16.667 -8 -25 -24 -25h-79c-10.667 0 -18.334 4 -23.001 12l-193 331c-19.333 32.667 -32.666 59.667 -39.999 81v-399c0 -16.667 -8 -25 -24 -25h-79c-16 -0 -24 8.33301 -24 25v630c0 16.667 8 25 24 25h79c10 0 17 -3.33301 21 -10l201 -345l34 -70
v400c0 16.667 8 25 24 25h79c16 0 24 -8.33301 24 -25z" />
    <glyph glyph-name="O" unicode="O" horiz-adv-x="605" 
d="M59 155v370c0 46.667 19.5 85.5 58.5 116.5s100.5 46.5 184.5 46.5s145.5 -15.5 184.5 -46.5s58.5 -69.833 58.5 -116.5v-370c0 -46.667 -19.5 -85.5 -58.5 -116.5s-100.5 -46.5 -184.5 -46.5s-145.5 15.5 -184.5 46.5s-58.5 69.833 -58.5 116.5zM410 179v322
c0 50 -36 75 -108 75c-71.333 0 -107 -25 -107 -75v-322c0 -50 35.667 -75 107 -75c72 0 108 25 108 75z" />
    <glyph glyph-name="P" unicode="P" horiz-adv-x="580" 
d="M304 241h-99v-215c0 -17.333 -8 -26 -24 -26h-87c-16 0 -24 8.66699 -24 26v628c0 17.333 8 26 24 26h210c84 0 145.333 -15.333 184 -46s58 -69.667 58 -117v-113c0 -47.333 -19.333 -86.333 -58 -117s-100 -46 -184 -46zM304 568h-99v-215h99
c34 0 60.5 6.33301 79.5 19s28.5 31 28.5 55v66c0 50 -36 75 -108 75z" />
    <glyph glyph-name="Q" unicode="Q" horiz-adv-x="604" 
d="M545 525l-0.00195312 -369.999c0 -36 -11.167 -67.5 -33.5 -94.5s-57.5 -46.167 -105.5 -57.5l107 -95c13.333 -12 14.333 -23.667 3 -35l-44 -47c-11.333 -12.667 -22.666 -13.334 -33.999 -2.00098l-184 171c-67.333 5.33301 -116.666 22.833 -147.999 52.5
s-47 65.5 -47 107.5v370c0 46.667 19.5 85.5 58.5 116.5s100.5 46.5 184.5 46.5s145.5 -15.5 184.5 -46.5s58.5 -69.833 58.5 -116.5zM194.998 504.001v-328c0 -50 35.667 -75 107 -75c72 0 108 25 108 75v328c0 50 -36 75 -108 75c-71.333 0 -107 -25 -107 -75z" />
    <glyph glyph-name="R" unicode="R" horiz-adv-x="600" 
d="M304 259h-99v-233c0 -17.333 -8 -26 -24 -26h-87c-16 0 -24 8.66699 -24 26v628c0 17.333 8 26 24 26h210c84 0 145.333 -15.333 184 -46s58 -69.667 58 -117v-95c0 -69.333 -36.667 -117.333 -110 -144l108 -252c3.33301 -8 2.66602 -14.333 -2.00098 -19
s-11.667 -7 -21 -7h-88c-3.33301 0 -6.16602 0.5 -8.49902 1.5s-4.5 3 -6.5 6s-3.5 5.5 -4.5 7.5l-5.5 11l-98 233h-6zM304 568h-99v-197h99c72 0 108 25 108 75v47c0 50 -36 75 -108 75z" />
    <glyph glyph-name="S" unicode="S" horiz-adv-x="572" 
d="M389 484l0.000976562 23c0 48 -32.333 72 -97 72c-65.333 0 -98 -24 -98 -72v-15c0 -26 13.667 -44 41 -54l174 -62c78.667 -28 118 -76 118 -144v-77c0 -47.333 -18.833 -86.333 -56.5 -117s-98.167 -46 -181.5 -46c-82.667 0 -143.167 15.5 -181.5 46.5
s-57.5 69.833 -57.5 116.5v63c0 17.333 8 26 24 26h84c16 0 24 -8.66699 24 -26v-45c0 -48 35.333 -72 106 -72s106 24 106 72v32c0 12.667 -4.5 24 -13.5 34s-18.333 17.333 -28 22s-24.167 10.667 -43.5 18l-155 58c-25.333 9.33301 -46.833 26 -64.5 50
s-26.5 50.333 -26.5 79v59c0 47.333 17.667 86.333 53 117s93.333 46 174 46c81.333 0 140.166 -15.333 176.499 -46s54.5 -69.667 54.5 -117v-41c0 -16.667 -8.33301 -25 -25 -25h-84c-15.333 0 -23 8.33301 -23 25z" />
    <glyph glyph-name="T" unicode="T" horiz-adv-x="493" 
d="M36 680h420c16.667 0 25 -8 25 -24v-63c0 -16.667 -8.33301 -25 -25 -25h-142v-542c0 -17.333 -8 -26 -24 -26h-87c-16.667 0 -25 8.66699 -25 26v542h-142c-16.667 0 -25 8.33301 -25 25v63c0 16 8.33301 24 25 24z" />
    <glyph glyph-name="U" unicode="U" horiz-adv-x="615" 
d="M200 654v-475.001c0 -50 35.667 -75 107 -75c34 0 60.667 6.33301 80 19s29 31.334 29 56.001v475c0 17.333 8 26 24 26h87c15.333 0 23 -8.66699 23 -26v-499c0 -46.667 -19.5 -85.5 -58.5 -116.5s-100.5 -46.5 -184.5 -46.5s-145.5 15.5 -184.5 46.5
s-58.5 69.833 -58.5 116.5v499c0 17.333 8.33301 26 25 26h87c16 0 24 -8.66699 24 -26z" />
    <glyph glyph-name="V" unicode="V" horiz-adv-x="553" 
d="M320 0h-86.999c-16 -0 -26.333 8.33301 -31 25l-187 630c-5.33301 16.667 1 25 19 25h95c14 0 23.667 -8.33301 29 -25l97 -340c4.66699 -16 9 -36.167 13 -60.5s6.66699 -44.5 8 -60.5l3 -24c8 60.667 17 108.667 27 144l97 341c5.33301 16.667 15.333 25 30 25h87
c17.333 0 23.333 -8.33301 18 -25l-186 -630c-4.66699 -16.667 -15.334 -25 -32.001 -25z" />
    <glyph glyph-name="W" unicode="W" horiz-adv-x="838" 
d="M496 655l84 -340c6 -26.667 11.333 -59.667 16 -99c6 40.667 12 73.334 18 98.001l86 341c4 16.667 13.667 25 29 25h76c16.667 0 23 -8.33301 19 -25l-159 -630c-4 -16.667 -14.333 -25 -31 -25h-85c-14.667 0 -24 8.33301 -28 25l-88 348
c-6 21.333 -10.667 51.666 -14 90.999c-4 -38.667 -8.66699 -69 -14 -91l-88 -348c-4 -16.667 -14.333 -25 -31 -25h-85c-14.667 -0 -24 8.33301 -28 25l-159 630c-4 16.667 2.33301 25 19 25h89c15.333 0 25 -8.33301 29 -25l84 -341l16 -84c3.33301 22 9.33301 50 18 84
l86 341c4 16.667 14 25 30 25h81c16 0 26 -8.33301 30 -25z" />
    <glyph glyph-name="X" unicode="X" horiz-adv-x="574" 
d="M358 349l188 -324c4 -6 5 -11.667 3 -17s-7.33301 -8 -16 -8h-100c-14 -0 -26 8.33301 -36 25l-120 206l-109 -206c-8.66699 -16.667 -20.667 -25 -36 -25h-94c-8 0 -12.667 3.16699 -14 9.5s0 12.833 4 19.5l181 322l-174 301c-11.333 18.667 -8 28 10 28h100
c14.667 0 27 -8.33301 37 -25l111 -192l104 192c8.66699 16.667 20.667 25 36 25h93c17.333 0 21.333 -8.33301 12 -25z" />
    <glyph glyph-name="Y" unicode="Y" horiz-adv-x="545" 
d="M161 655l94.999 -228.001c7.33301 -20 13 -37.667 17 -53c6 22.667 12 40.334 18 53.001l106 228c7.33301 16.667 17 25 29 25h86c8.66699 0 14.834 -2.16699 18.501 -6.5s3.5 -10.5 -0.5 -18.5l-189 -395v-235c0 -16.667 -8 -25 -24 -25h-87
c-16.667 -0 -25 8.33301 -25 25v219l-190 411c-3.33301 7.33301 -3.5 13.333 -0.5 18s8.83301 7 17.5 7h99c13.333 0 23.333 -8.33301 30 -25z" />
    <glyph glyph-name="Z" unicode="Z" horiz-adv-x="497" 
d="M75 680l356 0.000976562c17.333 0 26 -8 26 -24v-62c0 -6.66699 -2 -13.334 -6 -20.001l-256 -462h254c16.667 0 25 -8 25 -24v-63c0 -16.667 -8.33301 -25 -25 -25h-391c-16.667 -0 -25 8.33301 -25 25v63c0 6 1.33301 11.667 4 17l257 463h-219
c-16.667 0 -25 8.33301 -25 25v63c0 16 8.33301 24 25 24z" />
    <glyph glyph-name="bracketleft" unicode="[" horiz-adv-x="394" 
d="M62 -185v858c0 17.333 8 26 24 26h229c16.667 0 25 -8 25 -24v-63c0 -16.667 -8.33301 -25 -25 -25h-118v-686h118c16.667 0 25 -8.33301 25 -25v-63c0 -16 -8.33301 -24 -25 -24h-229c-16 0 -24 8.66699 -24 26z" />
    <glyph glyph-name="backslash" unicode="\" horiz-adv-x="366" 
d="M213 -122l-199 795c-4 17.333 2.33301 26 19 26h92c15.333 0 25 -8.66699 29 -26l198 -795c4 -17.333 -2.33301 -26 -19 -26h-91c-15.333 0 -25 8.66699 -29 26z" />
    <glyph glyph-name="bracketright" unicode="]" horiz-adv-x="394" 
d="M332 673v-858c0 -17.333 -8 -26 -24 -26h-228c-17.333 0 -26 8 -26 24v63c0 16.667 8.66699 25 26 25h117v686h-117c-17.333 0 -26 8.33301 -26 25v63c0 16 8.66699 24 26 24h228c16 0 24 -8.66699 24 -26z" />
    <glyph glyph-name="asciicircum" unicode="^" horiz-adv-x="577" 
d="M384 301l-97.001 250l-95 -250c-3.33301 -9.33301 -6.83301 -16 -10.5 -20s-9.5 -6 -17.5 -6h-79c-9.33301 0 -16.5 2.33301 -21.5 7s-5.83301 11 -2.5 19l153 356c2.66699 5.33301 4.83398 9.33301 6.50098 12s4.16699 5.16699 7.5 7.5s7.66602 3.5 12.999 3.5h93
c5.33301 0 9.66602 -1.16699 12.999 -3.5s5.83301 -4.83301 7.5 -7.5s3.83398 -6.66699 6.50098 -12l154 -356c3.33301 -8 2.5 -14.333 -2.5 -19s-12.167 -7 -21.5 -7h-80c-8 0 -13.667 2 -17 6s-6.66602 10.667 -9.99902 20z" />
    <glyph glyph-name="underscore" unicode="_" horiz-adv-x="456" 
d="M46 -74h364c16.667 0 25 -7.66699 25 -23v-60c0 -16.667 -8.33301 -25 -25 -25h-364c-16.667 0 -25 8.33301 -25 25v60c0 15.333 8.33301 23 25 23z" />
    <glyph glyph-name="grave" unicode="`" horiz-adv-x="314" 
d="M132 577l-72 106c-5.33301 7.33301 -6.83301 13.333 -4.5 18s7.83301 7 16.5 7h87c15.333 0 27 -8.33301 35 -25l48 -98c7.33301 -16.667 3 -25 -13 -25h-65c-13.333 0 -24 5.66699 -32 17z" />
    <glyph glyph-name="a" unicode="a" horiz-adv-x="517" 
d="M60 349l0.00195312 13.001c0 96 67.333 144 202 144c134 0 201 -48 201 -144v-336c0 -17.333 -8 -26 -24 -26h-75c-8.66699 0 -14.5 2 -17.5 6s-5.16699 10.667 -6.5 20l-2 21c-44 -36.667 -93.333 -55 -148 -55c-46.667 0 -82.334 12 -107.001 36s-37 53.667 -37 89v45
c0 35.333 13.167 65.166 39.5 89.499s63.166 36.5 110.499 36.5h138v64c0 18.667 -5.5 32.667 -16.5 42s-30.5 14 -58.5 14s-47.833 -4.16699 -59.5 -12.5s-17.5 -21.5 -17.5 -39.5v-7c0 -16.667 -8 -25 -24 -25h-74c-16 0 -24 8.33301 -24 25zM224.002 96.001
c34.667 0 71.333 14.334 110 43.001v57h-112c-18 0 -30.5 -3.83301 -37.5 -11.5s-10.5 -18.834 -10.5 -33.501v-16c0 -26 16.667 -39 50 -39z" />
    <glyph glyph-name="b" unicode="b" 
d="M161 0h-77c-16.667 0 -25 8.66699 -25 26v647c0 17.333 8.33301 26 25 26h83c15.333 0 23 -8.66699 23 -26v-221c47.333 36 99.666 54 156.999 54c48 0 84.167 -12.833 108.5 -38.5s36.5 -61.5 36.5 -107.5v-222c0 -46 -12.167 -81.833 -36.5 -107.5
s-60.5 -38.5 -108.5 -38.5c-59.333 0 -112.666 18.667 -159.999 56l-2 -22c-1.33301 -9.33301 -3.5 -16 -6.5 -20s-8.83301 -6 -17.5 -6zM360 159v181c0 34.667 -18 52 -54 52c-37.333 0 -76 -15.333 -116 -46v-194c40 -30.667 78.667 -46 116 -46c36 0 54 17.667 54 53z
" />
    <glyph glyph-name="c" unicode="c" horiz-adv-x="492" 
d="M255 506c136.667 0 205 -49 205 -147v-17c0 -16 -8 -24 -24 -24h-77c-16.667 0 -25 8 -25 24v7c0 18.667 -5.83301 32.167 -17.5 40.5s-31.5 12.5 -59.5 12.5s-47.833 -4.16699 -59.5 -12.5s-17.5 -21.833 -17.5 -40.5v-199c0 -18.667 5.83301 -32.334 17.5 -41.001
s31.5 -13 59.5 -13s47.833 4.33301 59.5 13s17.5 22.334 17.5 41.001v15c0 16.667 8.33301 25 25 25h77c16 0 24 -8.33301 24 -25v-25c0 -98.667 -68.667 -148 -206 -148c-136.667 0 -205 49.333 -205 148v219c0 98 68.667 147 206 147z" />
    <glyph glyph-name="d" unicode="d" 
d="M355 26l-2.00098 22c-47.333 -37.333 -100.333 -56 -159 -56c-48 0 -84.167 12.833 -108.5 38.5s-36.5 61.5 -36.5 107.5v222c0 46 12.167 81.833 36.5 107.5s60.5 38.5 108.5 38.5c56.667 0 108.667 -18 156 -54v221c0 17.333 8 26 24 26h83c16 0 24 -8.66699 24 -26
v-647c0 -17.333 -8 -26 -24 -26h-77c-8.66699 0 -14.667 2 -18 6s-5.66602 10.667 -6.99902 20zM179.999 340v-181c0 -16 3.83301 -28.833 11.5 -38.5s22.167 -14.5 43.5 -14.5c36.667 0 75 15.333 115 46v194c-40 30.667 -78.333 46 -115 46s-55 -17.333 -55 -52z" />
    <glyph glyph-name="e" unicode="e" horiz-adv-x="499" 
d="M455 359l-0.00195312 -116c0 -15.333 -7.33301 -23 -22 -23h-256v-74c0 -18.667 5.83301 -32.5 17.5 -41.5s31.834 -13.5 60.501 -13.5s48.834 4.5 60.501 13.5s17.5 22.833 17.5 41.5v5c0 16.667 8.33301 25 25 25h70c16.667 0 25 -8.33301 25 -25v-11
c0 -98.667 -66.333 -148 -199 -148c-136.667 0 -205 49.333 -205 148v219c0 98 68.667 147 206 147c133.333 0 200 -49 200 -147zM176.998 352v-44h156v44c0 36.667 -26 55 -78 55s-78 -18.333 -78 -55z" />
    <glyph glyph-name="f" unicode="f" horiz-adv-x="349" 
d="M94 496l2.99902 0.000976562v62c0 46 18 82 54 108s89.667 39 161 39h9c16.667 0 25 -8 25 -24v-58c0 -17.333 -8.33301 -26 -25 -26h-9c-55.333 0 -83 -18 -83 -54v-47h83c16.667 0 25 -7.66699 25 -23v-56c0 -16.667 -8.33301 -25 -25 -25h-83v-366
c0 -17.333 -8 -26 -24 -26h-83c-16.667 0 -25 8.66699 -25 26v366h-54c-16 0 -24 8.33301 -24 25v50c0 8 1.83301 13.667 5.5 17s9.83398 5.66602 18.501 6.99902z" />
    <glyph glyph-name="g" unicode="g" 
d="M194 -8c-48 0 -84.166 12.833 -108.499 38.5s-36.5 61.5 -36.5 107.5v222c0 46 12.167 81.833 36.5 107.5s60.5 38.5 108.5 38.5c59.333 0 112.666 -19.333 159.999 -58l2 25c1.33301 9.33301 3.5 15.833 6.5 19.5s8.83301 5.5 17.5 5.5h77c16 0 24 -8.33301 24 -25v-527
c0 -46 -17.833 -82 -53.5 -108s-89.167 -39 -160.5 -39h-141c-16.667 0 -25 8 -25 24v58c0 17.333 8.33301 26 25 26h141c55.333 0 83 18 83 54v84c-48.667 -35.333 -100.667 -53 -156 -53zM180.001 340v-181c0 -16 3.83301 -28.833 11.5 -38.5s22.167 -14.5 43.5 -14.5
c36.667 0 75 15.333 115 46v194c-40 30.667 -78.333 46 -115 46s-55 -17.333 -55 -52z" />
    <glyph glyph-name="h" unicode="h" horiz-adv-x="545" 
d="M190 673l0.000976562 -219c46 34.667 98.333 52 157 52c45.333 0 80.833 -12.333 106.5 -37s38.5 -57 38.5 -97v-346c0 -17.333 -8.33301 -26 -25 -26h-81c-17.333 0 -26 8.66699 -26 26v313c0 18.667 -3.83301 32.167 -11.5 40.5s-21.834 12.5 -42.501 12.5
c-38 0 -76.667 -15 -116 -45v-321c0 -17.333 -7.66699 -26 -23 -26h-83c-16.667 0 -25 8.66699 -25 26v647c0 17.333 8.33301 26 25 26h83c15.333 0 23 -8.66699 23 -26z" />
    <glyph glyph-name="i" unicode="i" horiz-adv-x="250" 
d="M190 473v-447c0 -17.333 -7.66699 -26 -23 -26h-83c-16.667 0 -25 8.66699 -25 26v447c0 16.667 8.33301 25 25 25h83c15.333 0 23 -8.33301 23 -25zM190 673v-86c0 -16 -7.66699 -24 -23 -24h-83c-16.667 0 -25 8 -25 24v86c0 17.333 8.33301 26 25 26h83
c15.333 0 23 -8.66699 23 -26z" />
    <glyph glyph-name="j" unicode="j" horiz-adv-x="249" 
d="M190 673v-86c0 -16 -7.66699 -24 -23 -24h-84c-16 0 -24 8 -24 24v86c0 17.333 8 26 24 26h84c15.333 0 23 -8.66699 23 -26zM190 473v-527c0 -46 -17.833 -82 -53.5 -108s-89.167 -39 -160.5 -39h-9c-16.667 0 -25 8 -25 24v58c0 17.333 8.33301 26 25 26h9
c55.333 0 83 18 83 54v512c0 16.667 8 25 24 25h83c16 0 24 -8.33301 24 -25z" />
    <glyph glyph-name="k" unicode="k" horiz-adv-x="495" 
d="M316 283l175 -258c4.66699 -6 5.83398 -11.667 3.50098 -17s-7.5 -8 -15.5 -8h-91c-12.667 -0 -24.667 8.33301 -36 25l-140 204h-22v-204c0 -16.667 -7.66699 -25 -23 -25h-83c-16.667 -0 -25 8.33301 -25 25v649c0 16.667 8.33301 25 25 25h83
c15.333 0 23 -8.33301 23 -25v-346h22l124 145c15.333 16.667 28.666 25 39.999 25h90c8.66699 0 14.167 -2.66699 16.5 -8s0.833008 -11 -4.5 -17z" />
    <glyph glyph-name="l" unicode="l" horiz-adv-x="250" 
d="M190 673v-647c0 -17.333 -7.66699 -26 -23 -26h-83c-16.667 0 -25 8.66699 -25 26v647c0 17.333 8.33301 26 25 26h83c15.333 0 23 -8.66699 23 -26z" />
    <glyph glyph-name="m" unicode="m" horiz-adv-x="835" 
d="M84 498l76.999 0.000976562c8.66699 0 14.667 -1.83301 18 -5.5s5.33301 -9.83398 6 -18.501l1 -24c44 37.333 95.667 56 155 56c62.667 0 105.334 -22.333 128.001 -67c48.667 44.667 104.334 67 167.001 67c45.333 0 80.833 -12.333 106.5 -37s38.5 -57 38.5 -97v-346
c0 -17.333 -8 -26 -24 -26h-82c-16.667 0 -25 8.66699 -25 26v313c0 18.667 -4 32.167 -12 40.5s-22 12.5 -42 12.5c-39.333 0 -76 -14.667 -110 -44v-322c0 -17.333 -8.33301 -26 -25 -26h-81c-17.333 0 -26 8.66699 -26 26v313c0 18.667 -3.83301 32.167 -11.5 40.5
s-21.834 12.5 -42.501 12.5c-40 0 -76.667 -15 -110 -45v-321c0 -17.333 -7.66699 -26 -23 -26h-83c-16.667 0 -25 8.66699 -25 26v448c0 16 8.33301 24 25 24z" />
    <glyph glyph-name="n" unicode="n" horiz-adv-x="545" 
d="M84 498l77.002 0.000976562c8.66699 0 14.667 -1.83301 18 -5.5s5.33301 -9.83398 6 -18.501l2 -24c45.333 37.333 98.666 56 159.999 56c45.333 0 80.833 -12.333 106.5 -37s38.5 -57 38.5 -97v-346c0 -17.333 -8.33301 -26 -25 -26h-81c-17.333 0 -26 8.66699 -26 26
v313c0 18.667 -3.83301 32.167 -11.5 40.5s-21.834 12.5 -42.501 12.5c-38 0 -76.667 -15 -116 -45v-321c0 -17.333 -7.66699 -26 -23 -26h-83c-16.667 0 -25 8.66699 -25 26v448c0 16 8.33301 24 25 24z" />
    <glyph glyph-name="o" unicode="o" horiz-adv-x="530" 
d="M49 140v219c0 46 18.167 82 54.5 108s90.166 39 161.499 39s125.166 -13 161.499 -39s54.5 -62 54.5 -108v-219c0 -46.667 -18.167 -83 -54.5 -109s-90.166 -39 -161.499 -39s-125.166 13 -161.499 39s-54.5 62.333 -54.5 109zM350 151v197c0 36 -28.333 54 -85 54
s-85 -18 -85 -54v-197c0 -36.667 28.333 -55 85 -55s85 18.333 85 55z" />
    <glyph glyph-name="p" unicode="p" 
d="M84 498h77c8.66699 0 14.667 -1.83301 18 -5.5s5.33301 -10.167 6 -19.5l2 -24c48.667 38 102 57 160 57c48 0 84.167 -12.833 108.5 -38.5s36.5 -61.5 36.5 -107.5v-222c0 -46 -12.167 -81.833 -36.5 -107.5s-60.5 -38.5 -108.5 -38.5c-56 0 -108.333 17.667 -157 53
v-221c0 -16.667 -7.66699 -25 -23 -25h-83c-16.667 0 -25 8.33301 -25 25v649c0 16.667 8.33301 25 25 25zM360 159v181c0 34.667 -18 52 -54 52c-37.333 0 -76 -15.333 -116 -46v-194c40 -30.667 78.667 -46 116 -46c36 0 54 17.667 54 53z" />
    <glyph glyph-name="q" unicode="q" 
d="M353 449l2.00098 24c1.33301 9.33301 3.66602 15.833 6.99902 19.5s9.33301 5.5 18 5.5h77c16 0 24 -8.33301 24 -25v-649c0 -16.667 -8 -25 -24 -25h-83c-16 0 -24 8.33301 -24 25v221c-48.667 -35.333 -100.667 -53 -156 -53c-48 0 -84.167 12.833 -108.5 38.5
s-36.5 61.5 -36.5 107.5v222c0 46 12.167 81.833 36.5 107.5s60.5 38.5 108.5 38.5c57.333 0 110.333 -19 159 -57zM180.001 340v-181c0 -16 3.83301 -28.833 11.5 -38.5s22.167 -14.5 43.5 -14.5c36.667 0 75 15.333 115 46v194c-40 30.667 -78.333 46 -115 46
s-55 -17.333 -55 -52z" />
    <glyph glyph-name="r" unicode="r" horiz-adv-x="371" 
d="M334 506c17.333 0 26 -7.99805 26 -23.998v-64c0 -16.667 -8.66699 -25.334 -26 -26.001c-57.333 -4 -105.333 -23.667 -144 -59v-307c0 -17.333 -7.66699 -26 -23 -26h-83c-16.667 0 -25 8.66699 -25 26v448c0 16 8.33301 24 25 24h77
c8.66699 0 14.667 -1.83301 18 -5.5s5.33301 -9.83398 6 -18.501l3 -35c41.333 44.667 90 67 146 67z" />
    <glyph glyph-name="s" unicode="s" horiz-adv-x="472" 
d="M314 354v19.001c0 27.333 -24.333 41 -73 41c-48 0 -72 -13.667 -72 -41v-11c0 -16 10.333 -27.667 31 -35l144 -51c64 -22.667 96 -57.334 96 -104.001v-51c0 -36 -16.833 -66.5 -50.5 -91.5s-84.167 -37.5 -151.5 -37.5s-117.5 12.5 -150.5 37.5s-49.5 55.5 -49.5 91.5
v23c0 15.333 7.66699 23 23 23h74c15.333 0 23 -7.66699 23 -23v-17c0 -28 26.667 -42 80 -42c54 0 81 14 81 42v17c0 8 -3.33301 14.833 -10 20.5s-18.334 11.5 -35.001 17.5l-145 53c-20.667 8 -39 21.833 -55 41.5s-24 41.167 -24 64.5v32c0 36.667 15.333 68 46 94
s79.334 39 146.001 39c66 0 114.333 -13 145 -39s46 -57.333 46 -94v-19c0 -8.66699 -1.66699 -14.667 -5 -18s-9.33301 -5 -18 -5h-74c-14.667 0 -22 7.66699 -22 23z" />
    <glyph glyph-name="t" unicode="t" horiz-adv-x="363" 
d="M220 496l90.998 0.000976562c16.667 0 25 -7.66699 25 -23v-56c0 -16.667 -8.33301 -25 -25 -25h-91v-230c0 -36 26.667 -54 80 -54h22c16.667 0 25 -8.33301 25 -25v-58c0 -16.667 -8.33301 -25 -25 -25h-42c-71.333 0 -121.166 11.833 -149.499 35.5
s-42.5 61.167 -42.5 112.5v244h-49c-16 0 -24 8.33301 -24 25v50c0 8 1.83301 13.667 5.5 17s9.83398 5.66602 18.501 6.99902l46 5h3v96c0 16.667 8.33301 25 25 25h83c16 0 24 -8.33301 24 -25v-96z" />
    <glyph glyph-name="u" unicode="u" horiz-adv-x="539" 
d="M354 25l-2.00195 22c-41.333 -36.667 -92.666 -55 -153.999 -55c-44.667 0 -79.834 12.333 -105.501 37s-38.5 57 -38.5 97v347c0 16.667 8 25 24 25h82c16.667 0 25 -8.33301 25 -25v-314c0 -18.667 4 -32.167 12 -40.5s22 -12.5 42 -12.5
c36.667 0 73.334 14.667 110.001 44v323c0 16.667 8 25 24 25h83c16 0 24 -8.33301 24 -25v-448c0 -16.667 -8 -25 -24 -25h-77c-8.66699 -0 -14.667 1.83301 -18 5.5s-5.66602 10.167 -6.99902 19.5z" />
    <glyph glyph-name="v" unicode="v" horiz-adv-x="474" 
d="M281 0h-94.9951c-8.66699 0 -14.334 1.5 -17.001 4.5s-5.66699 9.16699 -9 18.5l-149 450c-2.66699 8 -1.83398 14.167 2.49902 18.5s11.166 6.5 20.499 6.5h86c13.333 0 22.666 -8.33301 27.999 -25l73 -227c6.66699 -21.333 12 -52 16 -92c4 34 10.667 64.333 20 91
l79 228c5.33301 16.667 14.666 25 27.999 25h76c9.33301 0 16.333 -2.16699 21 -6.5s5.66699 -10.5 3 -18.5l-158 -450c-3.33301 -9.33301 -6.33301 -15.5 -9 -18.5s-8 -4.5 -16 -4.5z" />
    <glyph glyph-name="w" unicode="w" horiz-adv-x="716" 
d="M705 473l-127.998 -449.999c-2.66699 -9.33301 -5.5 -15.5 -8.5 -18.5s-8.5 -4.5 -16.5 -4.5h-99c-8.66699 0 -14.667 1.66699 -18 5s-6 9.33301 -8 18l-56 237c-6 24 -9 41.667 -9 53l-2 -9l-5 -20l-6 -24l-69 -237c-2 -8.66699 -4.66699 -14.667 -8 -18s-9 -5 -17 -5
h-97c-8.66699 0 -14.667 1.66699 -18 5s-6 9.33301 -8 18l-121 450c-4.66699 16.667 3.33301 25 24 25h79c14 0 23.333 -8.33301 28 -25l69 -262c1.33301 -6 2.66602 -12.833 3.99902 -20.5s2.33301 -14 3 -19s1 -7.83301 1 -8.5c0 4.66699 4 20.667 12 48l73 262
c4.66699 16.667 13.667 25 27 25h80c15.333 0 24.666 -8.33301 27.999 -25l61 -262l4 -21c1.33301 -7.33301 2.5 -13.333 3.5 -18s1.5 -7.33398 1.5 -8.00098c0 3.33301 3.66699 19 11 47l68 262c4.66699 16.667 14 25 28 25h66c20 0 27.667 -8.33301 23 -25z" />
    <glyph glyph-name="x" unicode="x" horiz-adv-x="475" 
d="M306 250l149.999 -225c4.66699 -6 5.83398 -11.667 3.50098 -17s-7.83301 -8 -16.5 -8h-90c-12 -0 -23.667 8.33301 -35 25l-92 136l-88 -136c-11.333 -16.667 -23 -25 -35 -25h-80c-8 0 -13.167 2.66699 -15.5 8s-1.16602 11 3.50098 17l153 229l-146 219
c-4.66699 6.66699 -6 12.5 -4 17.5s7.33301 7.5 16 7.5h90c12.667 0 25 -8.33301 37 -25l87 -130l82 130c10.667 16.667 22.667 25 36 25h80c8 0 13.167 -2.5 15.5 -7.5s1.16602 -10.833 -3.50098 -17.5z" />
    <glyph glyph-name="y" unicode="y" horiz-adv-x="474" 
d="M145 473l74.9971 -229.001c0.666992 -1.33301 6.33398 -29.333 17.001 -84c12 46.667 19 73.334 21 80.001l79 233c2.66699 8.66699 5.83398 15 9.50098 19s9.5 6 17.5 6h76c9.33301 0 16.333 -2.16699 21 -6.5s5.66699 -10.5 3 -18.5l-221 -649
c-5.33301 -16.667 -14.666 -25 -27.999 -25h-60c-20.667 0 -28.667 8.33301 -24 25l49 163l-169 486c-2.66699 8 -1.66699 14.167 3 18.5s11.334 6.5 20.001 6.5h83c13.333 0 22.666 -8.33301 27.999 -25z" />
    <glyph glyph-name="z" unicode="z" horiz-adv-x="446" 
d="M74 498h303c16.667 0 25 -8 25 -24v-58c0 -7.33301 -2.66699 -14.666 -8 -21.999l-202 -287h203c16.667 0 25 -8 25 -24v-59c0 -16 -8.33301 -24 -25 -24h-338c-16.667 0 -25 8 -25 24v59c0 7.33301 2.66699 14.666 8 21.999l200 286h-166c-17.333 0 -26 8 -26 24v59
c0 16 8.66699 24 26 24z" />
    <glyph glyph-name="braceleft" unicode="{" horiz-adv-x="450" 
d="M155 357v203c0 46.667 17.833 83 53.5 109s89.167 39 160.5 39h9c16.667 0 25 -8.33301 25 -25v-58c0 -16.667 -8.33301 -25 -25 -25h-9c-52.667 0 -79 -18 -79 -54v-203c0 -46.667 -20.667 -78 -62 -94c41.333 -17.333 62 -49 62 -95v-210c0 -36 26.333 -54 79 -54h9
c16.667 0 25 -8.33301 25 -25v-58c0 -16.667 -8.33301 -25 -25 -25h-9c-71.333 0 -124.833 13 -160.5 39s-53.5 62.333 -53.5 109v211c0 36 -25.667 54 -77 54h-1c-16.667 0 -25 8.33301 -25 25v57c0 17.333 8.33301 26 25 26h1c51.333 0 77 18 77 54z" />
    <glyph glyph-name="bar" unicode="|" horiz-adv-x="274" 
d="M205 673v-858c0 -17.333 -8 -26 -24 -26h-87c-16 0 -24 8.66699 -24 26v858c0 17.333 8 26 24 26h87c16 0 24 -8.66699 24 -26z" />
    <glyph glyph-name="braceright" unicode="}" horiz-adv-x="450" 
d="M295 560v-203c0 -36 25.667 -54 77 -54h1c16.667 0 25 -8.66699 25 -26v-57c0 -16.667 -8.33301 -25 -25 -25h-1c-51.333 0 -77 -18 -77 -54v-211c0 -46.667 -17.833 -83 -53.5 -109s-89.167 -39 -160.5 -39h-10c-16.667 0 -25 8.33301 -25 25v58
c0 16.667 8.33301 25 25 25h10c52.667 0 79 18 79 54v210c0 46 20.333 77.667 61 95c-40.667 16 -61 47.333 -61 94v203c0 36 -26.333 54 -79 54h-10c-16.667 0 -25 8.33301 -25 25v58c0 16.667 8.33301 25 25 25h10c71.333 0 124.833 -13 160.5 -39s53.5 -62.333 53.5 -109
z" />
    <glyph glyph-name="asciitilde" unicode="~" horiz-adv-x="504" 
d="M173 261c-5.33301 0 -9.50195 -1.66895 -12.502 -5.00195s-5 -6.66602 -6 -9.99902s-2.16699 -8.66602 -3.5 -15.999l-1 -6c-1.33301 -8.66699 -4 -14.5 -8 -17.5s-10.333 -4.5 -19 -4.5h-43c-15.333 0 -22 9.33301 -20 28l4 48c2 29.333 11.167 51.333 27.5 66
s35.166 22 56.499 22c18.667 0 36.667 -3.66699 54 -11l90 -41c18.667 -8.66699 32 -13 40 -13c4.66699 0 8.33398 1.5 11.001 4.5s4.33398 6.16699 5.00098 9.5s2 9 4 17l1 5c2.66699 14.667 11.667 22 27 22h43c16 0 23 -9.66699 21 -29l-5 -41
c-4 -31.333 -13.667 -54.833 -29 -70.5s-33 -23.5 -53 -23.5c-19.333 0 -39.666 4.66699 -60.999 14l-91 42c-13.333 6.66699 -24 10 -32 10z" />
    <glyph glyph-name="exclamdown" unicode="&#xb0;" horiz-adv-x="277" 
d="M69 108l13 183c0.666992 9.33301 2.66699 15.833 6 19.5s9.33301 5.5 18 5.5h62c8.66699 0 14.667 -1.83301 18 -5.5s5.33301 -10.167 6 -19.5l14 -183v-264c0 -17.333 -8.33301 -26 -25 -26h-88c-16 0 -24 8.66699 -24 26v264zM71 392v81c0 16.667 8 25 24 25h87
c16 0 24 -8.33301 24 -25v-81c0 -16.667 -8 -25 -24 -25h-87c-16 0 -24 8.33301 -24 25z" />
    <glyph glyph-name="cent" unicode="&#xa2;" horiz-adv-x="545" 
d="M341 654v-62.001c91.333 -15.333 137 -62.666 137 -141.999v-17c0 -16 -8 -24 -24 -24h-77c-16.667 0 -25 8 -25 24v7c0 18.667 -5.83301 32.167 -17.5 40.5s-31.5 12.5 -59.5 12.5s-47.833 -4.16699 -59.5 -12.5s-17.5 -21.833 -17.5 -40.5v-199
c0 -18.667 5.83301 -32.334 17.5 -41.001s31.5 -13 59.5 -13s47.833 4.33301 59.5 13s17.5 22.334 17.5 41.001v15c0 16.667 8.33301 25 25 25h77c16 0 24 -8.33301 24 -25v-25c0 -80 -45.667 -127.667 -137 -143v-62c0 -17.333 -8 -26 -24 -26h-83
c-16 0 -24 8.66699 -24 26v61c-95.333 13.333 -143 61.333 -143 144v219c0 81.333 47.667 129 143 143v61c0 17.333 8 26 24 26h83c16 0 24 -8.66699 24 -26z" />
    <glyph glyph-name="sterling" unicode="&#xa3;" horiz-adv-x="687" 
d="M283 389l109 -0.000976562c16.667 0 25 -8 25 -24v-60c0 -16 -8.33301 -24 -25 -24h-109v-173h152c38 0 57 27 57 81v9c0 16.667 8.33301 25 25 25h78c16.667 0 25 -8.33301 25 -25v-9c0 -69.333 -12.833 -118.166 -38.5 -146.499s-62.5 -42.5 -110.5 -42.5h-379
c-16.667 -0 -25 8.33301 -25 25v59c0 16 8.33301 24 25 24h56v173h-56c-16.667 0 -25 8 -25 24v60c0 16 8.33301 24 25 24h56v138c0 47.333 17.333 86 52 116s91.667 45 171 45s136.5 -15 171.5 -45s52.5 -68.667 52.5 -116v-34c0 -17.333 -8 -26 -24 -26h-81
c-16 0 -24 8.66699 -24 26v10c0 48.667 -31.333 73 -94 73c-30.667 0 -53.167 -5.83301 -67.5 -17.5s-21.5 -30.167 -21.5 -55.5v-114z" />
    <glyph glyph-name="currency" unicode="&#xa7;" horiz-adv-x="630" 
d="M92 311h31v55h-31c-16.667 0 -25 8 -25 24v35c0 16 8.33301 24 25 24h31v76c0 47.333 18.167 86.333 54.5 117s96.5 46 180.5 46s144.167 -15.333 180.5 -46s54.5 -69.667 54.5 -117v-48c0 -16.667 -7.66699 -25 -23 -25h-83c-16.667 0 -25 8.33301 -25 25v24
c0 50 -34 75 -102 75c-67.333 0 -101 -25 -101 -75v-52h98c16.667 0 25 -8 25 -24v-35c0 -16 -8.33301 -24 -25 -24h-98v-55h98c16.667 0 25 -7.66699 25 -23v-35c0 -16.667 -8.33301 -25 -25 -25h-98v-49c0 -50 33.667 -75 101 -75c68 0 102 25 102 75v38
c0 16.667 8.33301 25 25 25h83c15.333 0 23 -8.33301 23 -25v-62c0 -47.333 -18.167 -86.333 -54.5 -117s-96.5 -46 -180.5 -46s-144.167 15.333 -180.5 46s-54.5 69.667 -54.5 117v73h-31c-16.667 0 -25 8.33301 -25 25v35c0 15.333 8.33301 23 25 23z" />
    <glyph glyph-name="yen" unicode="&#x2022;" horiz-adv-x="657" 
d="M533 231l-136.001 -0.000976562v-206c0 -16.667 -8 -25 -24 -25h-87c-16.667 0 -25 8.33301 -25 25v206h-135c-17.333 0 -26 8 -26 24v35c0 16 8.66699 24 26 24h102l-25 54h-77c-17.333 0 -26 8.33301 -26 25v35c0 15.333 8.66699 23 26 23h39l-94 204
c-3.33301 7.33301 -3.5 13.333 -0.5 18s8.83301 7 17.5 7h99c13.333 0 23.333 -8.33301 30 -25l95 -228c7.33301 -20 13 -37.667 17 -53c6 22.667 12 40.334 18 53.001l106 228c7.33301 16.667 17 25 29 25h86c8.66699 0 14.834 -2.16699 18.501 -6.5s3.5 -10.5 -0.5 -18.5
l-98 -204h45c16.667 0 25 -7.66699 25 -23v-35c0 -16.667 -8.33301 -25 -25 -25h-84l-26 -54h110c16.667 0 25 -8 25 -24v-35c0 -16 -8.33301 -24 -25 -24z" />
    <glyph glyph-name="brokenbar" unicode="&#xb6;" horiz-adv-x="250" 
d="M190 654v-314c0 -17.333 -7.66699 -26 -23 -26h-83c-16.667 0 -25 8.66699 -25 26v314c0 17.333 8.33301 26 25 26h83c15.333 0 23 -8.66699 23 -26zM190 129v-314c0 -17.333 -7.66699 -26 -23 -26h-83c-16.667 0 -25 8.66699 -25 26v314c0 17.333 8.33301 26 25 26h83
c15.333 0 23 -8.66699 23 -26z" />
    <glyph glyph-name="section" unicode="&#xdf;" horiz-adv-x="552" 
d="M468 281v-78c0 -16 -8.33301 -24 -25 -24h-73c-16 0 -24 8 -24 24v65c0 20.667 -12.667 35 -38 43l-140 44c-65.333 20.667 -98 61.667 -98 123v61c0 45.333 17 81.5 51 108.5s86 40.5 156 40.5c136.667 0 205 -47.667 205 -143v-9c0 -16.667 -8 -25 -24 -25h-73
c-16 0 -24 8.33301 -24 25v15c0 18 -6.33301 31 -19 39s-33 12 -61 12c-28.667 0 -49.5 -4 -62.5 -12s-19.5 -21.333 -19.5 -40v-64c0 -17.333 16 -31 48 -41l126 -39c26.667 -8.66699 49.167 -24 67.5 -46s27.5 -48.333 27.5 -79zM85 205l-0.00195312 77
c0 9.33301 1.83301 15.666 5.5 18.999s9.83398 5 18.501 5h73c16 0 24 -8 24 -24v-65c0 -20.667 12.667 -35 38 -43l140 -44c65.333 -20.667 98 -61.667 98 -123v-60c0 -45.333 -16.833 -81.666 -50.5 -108.999s-85.5 -41 -155.5 -41c-137.333 0 -206 48 -206 144v9
c0 16 8 24 24 24h73c16.667 0 25 -8 25 -24v-16c0 -18.667 6.16699 -31.834 18.5 -39.501s32.833 -11.5 61.5 -11.5s49.334 4 62.001 12s19 21.333 19 40v65c0 16.667 -16 30 -48 40l-126 39c-26 8 -48.167 23.333 -66.5 46s-27.5 49.334 -27.5 80.001z" />
    <glyph glyph-name="dieresis" unicode="&#xae;" horiz-adv-x="381" 
d="M168 681v-93c0 -16.667 -7.66699 -25 -23 -25h-49c-16 0 -24 8.33301 -24 25v93c0 16.667 8 25 24 25h49c15.333 0 23 -8.33301 23 -25zM308 681v-93c0 -16.667 -7.66699 -25 -23 -25h-49c-16.667 0 -25 8.33301 -25 25v93c0 16.667 8.33301 25 25 25h49
c15.333 0 23 -8.33301 23 -25z" />
    <glyph glyph-name="copyright" unicode="&#xa9;" horiz-adv-x="778" 
d="M709 456v-231c0 -25.333 -2 -47.833 -6 -67.5s-12.5 -40.334 -25.5 -62.001s-30.667 -39.667 -53 -54s-53.5 -26.166 -93.5 -35.499s-87.333 -14 -142 -14c-54 0 -101 4.66699 -141 14s-71.167 21.166 -93.5 35.499s-40 32.333 -53 54s-21.5 42.334 -25.5 62.001
s-6 42.167 -6 67.5v231c0 25.333 2 47.833 6 67.5s12.5 40.334 25.5 62.001s30.667 39.5 53 53.5s53.5 25.667 93.5 35s87 14 141 14c54.667 0 102 -4.66699 142 -14s71.167 -21 93.5 -35s40 -31.833 53 -53.5s21.5 -42.334 25.5 -62.001s6 -42.167 6 -67.5zM614 206v269
c0 88.667 -75 133 -225 133c-149.333 0 -224 -44.667 -224 -134v-267c0 -89.333 74.667 -134 224 -134c150 0 225 44.333 225 133zM391 546c61.333 0 104.833 -11.501 130.5 -34.501s38.5 -57.833 38.5 -104.5v-9c0 -16 -8.33301 -24 -25 -24h-67c-16 0 -24 8 -24 24v6
c0 18.667 -4.16699 32.334 -12.5 41.001s-21.833 13 -40.5 13s-32.167 -4.16699 -40.5 -12.5s-12.5 -22.166 -12.5 -41.499v-128c0 -18.667 4.16699 -32.334 12.5 -41.001s21.833 -13 40.5 -13c35.333 0 53 18 53 54v13c0 16.667 8 25 24 25h67c16.667 0 25 -8.33301 25 -25
v-17c0 -46.667 -12.833 -81.5 -38.5 -104.5s-69.5 -34.5 -131.5 -34.5c-61.333 0 -104.833 11.5 -130.5 34.5s-38.5 57.833 -38.5 104.5v135c0 46.667 13 81.5 39 104.5s69.667 34.5 131 34.5z" />
    <glyph glyph-name="ordfeminine" unicode="&#x2122;" horiz-adv-x="359" 
d="M56 594v7.00098c0 27.333 11 48.666 33 63.999s54 23 96 23c84.667 0 127 -30.333 127 -91v-197c0 -11.333 -6 -17 -18 -17h-56c-6.66699 0 -11 1 -13 3s-3.66699 6.66699 -5 14l-2 9c-25.333 -20.667 -53 -31 -83 -31c-29.333 0 -51.333 7.33301 -66 22s-22 33 -22 55
v25c0 21.333 8.83301 39.5 26.5 54.5s41.5 22.5 71.5 22.5h70v40c0 14.667 -11 22 -33 22s-33 -7 -33 -21v-4c0 -11.333 -5.66699 -17 -17 -17h-57c-12.667 0 -19 5.66699 -19 17zM167 447.001c17.333 0 33.333 7.33301 48 22v29h-50c-14 0 -21 -6.66699 -21 -20v-11
c0 -13.333 7.66699 -20 23 -20z" />
    <glyph glyph-name="guillemotleft" unicode="&#xb4;" horiz-adv-x="603" 
d="M513 319l-106 -73.999l106 -73c17.333 -12 26 -23.667 26 -35v-83c0 -8 -2.83301 -13.667 -8.5 -17s-11.5 -3 -17.5 1l-186 133c-15.333 11.333 -23 22.666 -23 33.999v81c0 10.667 7.66699 21.667 23 33l186 134c6.66699 4.66699 12.667 5.33398 18 2.00098
s8 -9.33301 8 -18v-83c0 -10.667 -8.66699 -22.334 -26 -35.001zM273 319.001l-106 -73.999l106 -73c17.333 -12 26 -23.667 26 -35v-83c0 -8 -2.83301 -13.667 -8.5 -17s-11.5 -3 -17.5 1l-186 133c-15.333 11.333 -23 22.666 -23 33.999v81c0 10.667 7.66699 21.667 23 33
l186 134c6.66699 4.66699 12.667 5.33398 18 2.00098s8 -9.33301 8 -18v-83c0 -10.667 -8.66699 -22.334 -26 -35.001z" />
    <glyph glyph-name="logicalnot" unicode="&#xa8;" horiz-adv-x="400" 
d="M74 320c0 35.333 12.1689 65.168 36.502 89.501s53.833 36.5 88.5 36.5c35.333 0 65.166 -12.333 89.499 -37s36.5 -54.334 36.5 -89.001s-12.333 -64.167 -37 -88.5s-54.334 -36.5 -89.001 -36.5s-64.167 12.167 -88.5 36.5s-36.5 53.833 -36.5 88.5z" />
    <glyph glyph-name="uni00AD" unicode="&#x2260;" horiz-adv-x="436" 
d="M84 342h268c16.667 0 25 -8 25 -24v-59c0 -16 -8.33301 -24 -25 -24h-268c-16.667 0 -25 8 -25 24v59c0 16 8.33301 24 25 24z" />
    <glyph glyph-name="registered" unicode="&#xc6;" horiz-adv-x="646" 
d="M577 523v-185c0 -16 -1.5 -30.667 -4.5 -44s-9.66699 -27.833 -20 -43.5s-24.166 -28.834 -41.499 -39.501s-42 -19.667 -74 -27s-69.667 -11 -113 -11s-81 3.66699 -113 11s-56.833 16.333 -74.5 27s-31.667 23.834 -42 39.501s-17 30.167 -20 43.5s-4.5 28 -4.5 44v185
c0 16 1.5 30.667 4.5 44s9.66699 27.833 20 43.5s24.333 28.834 42 39.501s42.5 19.667 74.5 27s69.667 11 113 11s81 -3.66699 113 -11s56.667 -16.333 74 -27s31.166 -23.834 41.499 -39.501s17 -30.167 20 -43.5s4.5 -28 4.5 -44zM490 329v202.001
c0 25.333 -12.167 45.166 -36.5 59.499s-67.5 21.5 -129.5 21.5c-112 0 -168 -27 -168 -81v-201c0 -54.667 56 -82 168 -82c110.667 0 166 27 166 81zM449 466.001c0 -32.667 -12.666 -55.668 -37.999 -69.001l34 -85c2 -5.33301 1.5 -9.66602 -1.5 -12.999
s-8.16699 -5 -15.5 -5h-53c-6.66699 0 -11.667 4.66699 -15 14c-0.666992 2 -1.33398 3.33301 -2.00098 4l-28 70h-34v-70c0 -12 -5.33301 -18 -16 -18h-54c-11.333 0 -17 6 -17 18v237c0 11.333 5.66699 17 17 17h113c73.333 0 110 -27.667 110 -83v-17zM330.001 503
h-34.001v-57h34c6.66699 0 13.334 2 20.001 6s10 9.33301 10 16v12c0 15.333 -10 23 -30 23z" />
    <glyph glyph-name="macron" unicode="&#xd8;" horiz-adv-x="406" 
d="M88 671h230c16.667 0 25 -8 25 -24v-51c0 -16 -8.33301 -24 -25 -24h-230c-17.333 0 -26 8 -26 24v51c0 16 8.66699 24 26 24z" />
    <glyph glyph-name="degree" unicode="&#x221e;" horiz-adv-x="435" 
d="M54 481v95c0 36.667 12.5 64.5 37.5 83.5s67.167 28.5 126.5 28.5s101.333 -9.66699 126 -29s37 -47 37 -83v-95c0 -36 -12.333 -63.5 -37 -82.5s-66.667 -28.5 -126 -28.5s-101.5 9.5 -126.5 28.5s-37.5 46.5 -37.5 82.5zM270 486v86c0 20 -17.667 30 -53 30
c-34.667 0 -52 -10 -52 -30v-86c0 -20.667 17.333 -31 52 -31c35.333 0 53 10.333 53 31z" />
    <glyph glyph-name="plusminus" unicode="&#xb1;" horiz-adv-x="560" 
d="M226 234v94h-142c-16.667 0 -25 8 -25 24v60c0 15.333 8.33301 23 25 23h142v94c0 16.667 7.66699 25 23 25h59c16.667 0 25 -8.33301 25 -25v-94h142c17.333 0 26 -7.66699 26 -23v-60c0 -16 -8.66699 -24 -26 -24h-142v-94c0 -16.667 -8.33301 -25 -25 -25h-59
c-15.333 0 -23 8.33301 -23 25zM84 153h391c17.333 0 26 -8 26 -24v-59c0 -16.667 -8.66699 -25 -26 -25h-391c-16.667 0 -25 8.33301 -25 25v59c0 16 8.33301 24 25 24z" />
    <glyph glyph-name="twosuperior" unicode="&#x2264;" horiz-adv-x="388" 
d="M158 356h165.999c12.667 0 19 -5.66699 19 -17v-46c0 -12 -6.33301 -18 -19 -18h-250c-12 0 -18 6 -18 18v107c0 15.333 2.83301 26.666 8.5 33.999s14.834 13.666 27.501 18.999l128 57c12.667 6 19 16.667 19 32v28c0 12.667 -4.5 22.334 -13.5 29.001
s-20.5 10 -34.5 10c-30.667 0 -46 -13 -46 -39v-21c0 -12.667 -5.66699 -19 -17 -19h-64c-12 0 -18 6.33301 -18 19v36c0 28.667 11.667 53 35 73s60 30 110 30s87.167 -10 111.5 -30s36.5 -44.333 36.5 -73v-38c0 -49.333 -19.333 -82.666 -58 -99.999l-109 -50
c-9.33301 -4 -14 -9 -14 -15v-26z" />
    <glyph glyph-name="threesuperior" unicode="&#x2265;" horiz-adv-x="387" 
d="M151 523h35c32 0 48 12.667 48 38v11c0 26 -14.333 39 -43 39s-43 -13 -43 -39v-5c0 -11.333 -6 -17 -18 -17h-64c-12 0 -18 5.66699 -18 17v20c0 29.333 11.167 53.666 33.5 72.999s59.5 29 111.5 29c94.667 0 142 -33.667 142 -101v-42c0 -29.333 -14 -49 -42 -59
c32 -14 48 -37 48 -69v-47c0 -29.333 -11.5 -53.333 -34.5 -72s-60.5 -28 -112.5 -28s-89.667 9.83301 -113 29.5s-35 43.834 -35 72.501v20c0 11.333 6 17 18 17h63c12.667 0 19 -5.66699 19 -17v-5c0 -26 15.667 -39 47 -39c32 0 48 13 48 39v18c0 26 -16.333 39 -49 39
h-41c-12.667 0 -19 5.66699 -19 17v43c0 12 6.33301 18 19 18z" />
    <glyph glyph-name="acute" unicode="&#xa5;" horiz-adv-x="314" 
d="M253 683l-72 -106c-8 -11.333 -18.667 -17 -32 -17h-65c-16 0 -20.333 8.33301 -13 25l48 98c8 16.667 19.667 25 35 25h87c8.66699 0 14.167 -2.33301 16.5 -7s0.833008 -10.667 -4.5 -18z" />
    <glyph glyph-name="uni00B5" unicode="&#xb5;" horiz-adv-x="539" 
d="M354 25l-2.00195 22c-41.333 -36.667 -91.333 -55 -150 -55c-9.33301 0 -17.333 1 -24 3l7 -171c0.666992 -16.667 -7.33301 -25 -24 -25h-83c-16 0 -24 8.33301 -24 25v649c0 16.667 8 25 24 25h82c16.667 0 25 -8.33301 25 -25v-314c0 -18.667 4 -32.167 12 -40.5
s22 -12.5 42 -12.5c36.667 0 73.334 14.667 110.001 44v323c0 16.667 8 25 24 25h83c16 0 24 -8.33301 24 -25v-448c0 -16.667 -8 -25 -24 -25h-77c-8.66699 -0 -14.667 1.83301 -18 5.5s-5.66602 10.167 -6.99902 19.5z" />
    <glyph glyph-name="paragraph" unicode="&#x2202;" horiz-adv-x="693" 
d="M422 655v-831c0 -16.667 -8 -25 -24 -25h-87c-16 0 -24 8.33301 -24 25v458h-24c-71.333 0 -121.333 11.333 -150 34s-43 55 -43 97v136c0 42 14.333 74.333 43 97s78.667 34 150 34h135c16 0 24 -8.33301 24 -25zM624 654v-830c0 -16.667 -8 -25 -24 -25h-87
c-16 0 -24 8.33301 -24 25v830c0 17.333 8 26 24 26h87c16 0 24 -8.66699 24 -26z" />
    <glyph glyph-name="periodcentered" unicode="&#x2211;" horiz-adv-x="250" 
d="M192 317v-81c0 -16.667 -8 -25 -24 -25h-85c-16.667 0 -25 8.33301 -25 25v81c0 16.667 8.33301 25 25 25h85c16 0 24 -8.33301 24 -25z" />
    <glyph glyph-name="cedilla" unicode="&#x220f;" horiz-adv-x="261" 
d="M131 -45l29.998 0.000976562c27.333 0 48.833 -6.83301 64.5 -20.5s23.5 -34.167 23.5 -61.5c0 -28 -7.83301 -49 -23.5 -63s-37.167 -21 -64.5 -21h-119c-16.667 0 -25 8.33301 -25 25v20c0 16 8.33301 24 25 24h98c12.667 0 19 5 19 15c0 10.667 -6.33301 16 -19 16
h-75c-27.333 0 -37.666 11 -30.999 33l26 91c4.66699 15.333 14.334 22.666 29.001 21.999l37 -3c17.333 -1.33301 23.333 -11.333 18 -30z" />
    <glyph glyph-name="onesuperior" unicode="&#x3c0;" horiz-adv-x="374" 
d="M65 662l157.999 25h8c2.66699 0 4.83398 -1.5 6.50098 -4.5s2.5 -7.16699 2.5 -12.5v-315h71c6.66699 0 11.167 -1.16699 13.5 -3.5s3.5 -6.83301 3.5 -13.5v-46c0 -12 -5.66699 -18 -17 -18h-246c-12.667 0 -19 6 -19 18v46c0 6.66699 1.33301 11.167 4 13.5
s7.66699 3.5 15 3.5h73v237l-73 -9c-12.667 -2 -19 3 -19 15v46c0 10 6.33301 16 19 18z" />
    <glyph glyph-name="ordmasculine" unicode="&#x222b;" horiz-adv-x="372" 
d="M46 471v123.002c0 29.333 12 52.333 36 69s58.667 25 104 25c44.667 0 79 -8.33301 103 -25s36 -39.667 36 -69v-123c0 -28.667 -12 -51.334 -36 -68.001s-58.333 -25 -103 -25c-45.333 0 -80 8.16699 -104 24.5s-36 39.166 -36 68.499zM225 480.002v106
c0 17.333 -13 26 -39 26c-26.667 0 -40 -8.66699 -40 -26v-106c0 -18 13.333 -27 40 -27c26 0 39 9 39 27z" />
    <glyph glyph-name="guillemotright" unicode="&#xaa;" horiz-adv-x="603" 
d="M330 179l106 73.999l-106 73c-17.333 12 -26 23.667 -26 35v83c0 8 2.83301 13.667 8.5 17s11.5 3 17.5 -1l186 -133c15.333 -11.333 23 -22.666 23 -33.999v-81c0 -10.667 -7.66699 -21.667 -23 -33l-186 -134c-6.66699 -4.66699 -12.667 -5.33398 -18 -2.00098
s-8 9.33301 -8 18v83c0 10.667 8.66699 22.334 26 35.001zM90 178.999l106 73.999l-106 73c-17.333 12 -26 23.667 -26 35v83c0 8 2.83301 13.667 8.5 17s11.5 3 17.5 -1l186 -133c15.333 -11.333 23 -22.666 23 -33.999v-81c0 -10.667 -7.66699 -21.667 -23 -33l-186 -134
c-6.66699 -4.66699 -12.667 -5.33398 -18 -2.00098s-8 9.33301 -8 18v83c0 10.667 8.66699 22.334 26 35.001z" />
    <glyph glyph-name="onequarter" unicode="&#xba;" horiz-adv-x="895" 
d="M717 390l-59 -207h89v207c0 12 6 18 18 18h66c12 0 18 -6 18 -18v-372c0 -12 -6 -18 -18 -18h-66c-12 0 -18 6 -18 18v85h-176c-13.333 0 -20 6 -20 18v37c0 6.66699 1 13 3 19l60 213c3.33301 12 10.666 18 21.999 18h67c12.667 0 17.334 -6 14.001 -18zM65 662
l157.999 25h8c2.66699 0 4.83398 -1.5 6.50098 -4.5s2.5 -7.16699 2.5 -12.5v-315h71c6.66699 0 11.167 -1.16699 13.5 -3.5s3.5 -6.83301 3.5 -13.5v-46c0 -12 -5.66699 -18 -17 -18h-246c-12.667 0 -19 6 -19 18v46c0 6.66699 1.33301 11.167 4 13.5s7.66699 3.5 15 3.5
h73v240l-73 -12c-12.667 -2 -19 3 -19 15v46c0 10 6.33301 16 19 18zM600.999 711l-179.999 -741.999c-1.33301 -6.66699 -3.33301 -11.334 -6 -14.001s-7.33398 -4 -14.001 -4h-70c-12.667 0 -17.334 6 -14.001 18l179 742c2.66699 12 10 18 22 18h69
c12.667 0 17.334 -6 14.001 -18z" />
    <glyph glyph-name="onehalf" unicode="&#x3a9;" horiz-adv-x="899" 
d="M65 662l157.999 25h8c2.66699 0 4.83398 -1.5 6.50098 -4.5s2.5 -7.16699 2.5 -12.5v-315h71c6.66699 0 11.167 -1.16699 13.5 -3.5s3.5 -6.83301 3.5 -13.5v-46c0 -12 -5.66699 -18 -17 -18h-246c-12.667 0 -19 6 -19 18v46c0 6.66699 1.33301 11.167 4 13.5
s7.66699 3.5 15 3.5h73v238l-73 -10c-12.667 -2 -19 3 -19 15v46c0 10 6.33301 16 19 18zM591.999 711l-180 -742c-2.66699 -12 -9.33398 -18 -20.001 -18h-70c-12 0 -16.667 6 -14 18l180 742c2.66699 12 9.66699 18 21 18h69c12.667 0 17.334 -6 14.001 -18zM667.999 81
l166.999 0.00195312c12 0 18 -5.66699 18 -17v-46c0 -12 -6 -18 -18 -18h-251c-12 0 -18 6 -18 18v107c0 15.333 2.83301 26.666 8.5 33.999s14.834 13.666 27.501 18.999l128 57c12.667 6 19 16.667 19 32v28c0 26 -15.667 39 -47 39s-47 -13 -47 -39v-21
c0 -12.667 -5.66699 -19 -17 -19h-64c-12 0 -18 6.33301 -18 19v36c0 28.667 11.667 53 35 73s60.333 30 111 30c50 0 87 -10 111 -30s36 -44.333 36 -73v-38c0 -48 -19.333 -81.333 -58 -100l-108 -50c-10 -4 -15 -8.66699 -15 -14v-27z" />
    <glyph glyph-name="threequarters" unicode="&#xe6;" horiz-adv-x="906" 
d="M151 522h35c32 0 48 12.667 48 38v11c0 26 -14.333 39 -43 39s-43 -13 -43 -39v-5c0 -11.333 -6 -17 -18 -17h-64c-12 0 -18 5.66699 -18 17v20c0 29.333 11.167 53.666 33.5 72.999s59.5 29 111.5 29c94.667 0 142 -33.667 142 -101v-42c0 -29.333 -14 -49 -42 -59
c32 -14 48 -37 48 -69v-47c0 -29.333 -11.5 -53.333 -34.5 -72s-60.5 -28 -112.5 -28s-89.667 9.83301 -113 29.5s-35 43.834 -35 72.501v20c0 11.333 6 17 18 17h63c12.667 0 19 -5.66699 19 -17v-5c0 -26 15.667 -39 47 -39c32 0 48 13 48 39v18c0 26 -16.333 39 -49 39
h-41c-12.667 0 -19 5.66699 -19 17v43c0 12 6.33301 18 19 18zM612 711l-180 -742c-2.66699 -12 -9.33398 -18 -20.001 -18h-70c-12 0 -16.667 6 -14 18l180 742c2.66699 12 9.66699 18 21 18h69c12.667 0 17.334 -6 14.001 -18zM728 390l-59 -207h89v207c0 12 6 18 18 18
h66c12 0 18 -6 18 -18v-372c0 -12 -6 -18 -18 -18h-66c-12 0 -18 6 -18 18v85h-176c-13.333 0 -20 6 -20 18v37c0 6.66699 1 13 3 19l60 213c3.33301 12 10.666 18 21.999 18h67c12.667 0 17.334 -6 14.001 -18z" />
    <glyph glyph-name="questiondown" unicode="&#xf8;" horiz-adv-x="565" 
d="M378 292l0.000976562 -68.999c0 -25.333 -5.5 -44.333 -16.5 -57s-26.5 -23.667 -46.5 -33l-92 -47c-25.333 -14 -38 -34.333 -38 -61v-30c0 -50 33 -75 99 -75s99 25 99 75v39c0 16.667 7.66699 25 23 25h83c16.667 0 25 -8.33301 25 -25v-61
c0 -47.333 -18.167 -86.333 -54.5 -117s-94.833 -46 -175.5 -46s-139.5 15.333 -176.5 46s-55.833 69.667 -56.5 117v47c0 76 31 127.667 93 155l57 26c15.333 7.33301 26.166 14.666 32.499 21.999s9.5 18.666 9.5 33.999v35c0 8.66699 1.66699 14.834 5 18.501
s9.33301 5.5 18 5.5h88c16 0 24 -8 24 -24zM243.001 392.001v81c0 16.667 7.66699 25 23 25h88c16 0 24 -8.33301 24 -25v-81c0 -16.667 -8 -25 -24 -25h-88c-15.333 0 -23 8.33301 -23 25z" />
    <glyph glyph-name="Agrave" unicode="&#xbf;" horiz-adv-x="553" 
d="M233 680h86.999c16.667 0 27.334 -8.33301 32.001 -25l186 -630c5.33301 -16.667 -0.666992 -25 -18 -25h-90c-14 -0 -23.667 8.33301 -29 25l-35 122h-186l-35 -122c-5.33301 -16.667 -15.333 -25 -30 -25h-81c-18 -0 -24.333 8.33301 -19 25l187 630
c4.66699 16.667 15 25 31 25zM335.999 254l-33.002 110.999c-5.33301 17.333 -11.166 48.333 -17.499 93s-10.166 74.334 -11.499 89.001c-16 -104.667 -26.333 -165 -31 -181l-34 -112h127zM203.997 746.999l-72.002 105c-5.33301 7.33301 -6.66602 13.5 -3.99902 18.5
s8.33398 7.5 17.001 7.5h87c14.667 0 26 -8.33301 34 -25l48 -98c7.33301 -16.667 3.33301 -25 -12 -25h-65c-13.333 0 -24.333 5.66699 -33 17z" />
    <glyph glyph-name="Aacute" unicode="&#xa1;" horiz-adv-x="553" 
d="M233 680h86.999c16.667 0 27.334 -8.33301 32.001 -25l186 -630c5.33301 -16.667 -0.666992 -25 -18 -25h-90c-14 -0 -23.667 8.33301 -29 25l-35 122h-186l-35 -122c-5.33301 -16.667 -15.333 -25 -30 -25h-81c-18 -0 -24.333 8.33301 -19 25l187 630
c4.66699 16.667 15 25 31 25zM335.999 254l-33.002 110.999c-5.33301 17.333 -11.166 48.333 -17.499 93s-10.166 74.334 -11.499 89.001c-16 -104.667 -26.333 -165 -31 -181l-34 -112h127zM413.997 852.999l-73.0029 -106c-8 -11.333 -18.667 -17 -32 -17h-65
c-17.333 0 -21.666 8.33301 -12.999 25l49 98c8 16.667 19.333 25 34 25h87c8.66699 0 14.334 -2.33301 17.001 -7s1.33398 -10.667 -3.99902 -18z" />
    <glyph glyph-name="Acircumflex" unicode="&#xac;" horiz-adv-x="553" 
d="M233 680h86.999c16.667 0 27.334 -8.33301 32.001 -25l186 -630c5.33301 -16.667 -0.666992 -25 -18 -25h-90c-14 -0 -23.667 8.33301 -29 25l-35 122h-186l-35 -122c-5.33301 -16.667 -15.333 -25 -30 -25h-81c-18 -0 -24.333 8.33301 -19 25l187 630
c4.66699 16.667 15 25 31 25zM335.999 254l-33.002 110.999c-5.33301 17.333 -11.166 48.333 -17.499 93s-10.166 74.334 -11.499 89.001c-16 -104.667 -26.333 -165 -31 -181l-34 -112h127zM276.997 799.999l-25.0029 -45c-9.33301 -16.667 -20.666 -25 -33.999 -25h-64
c-8.66699 0 -14.167 2.33301 -16.5 7s-1.16602 10.667 3.50098 18l73 98c12 16.667 25 25 39 25h48c12.667 0 25.667 -8.33301 39 -25l73 -98c4.66699 -7.33301 5.83398 -13.333 3.50098 -18s-7.83301 -7 -16.5 -7h-64c-14 0 -25.333 8.33301 -34 25z" />
    <glyph glyph-name="Atilde" unicode="&#x221a;" horiz-adv-x="553" 
d="M233 680h86.999c16.667 0 27.334 -8.33301 32.001 -25l186 -630c5.33301 -16.667 -0.666992 -25 -18 -25h-90c-14 -0 -23.667 8.33301 -29 25l-35 122h-186l-35 -122c-5.33301 -16.667 -15.333 -25 -30 -25h-81c-18 -0 -24.333 8.33301 -19 25l187 630
c4.66699 16.667 15 25 31 25zM335.999 254l-33.002 110.999c-5.33301 17.333 -11.166 48.333 -17.499 93s-10.166 74.334 -11.499 89.001c-16 -104.667 -26.333 -165 -31 -181l-34 -112h127zM215.997 785.999c-12.667 0 -18.999 -8.33398 -18.999 -25.001v-5
c0 -14.667 -9 -22 -27 -22h-43c-16 0 -23 9.66699 -21 29l4 41c2.66699 24.667 12.167 43.834 28.5 57.501s36.166 20.5 59.499 20.5c20 0 39.333 -4.33301 58 -13l43 -21c20 -10 32.333 -15 37 -15c6 0 10.333 1.66699 13 5s4.66699 9.66602 6 18.999l1 6
c2.66699 14.667 11.667 22 27 22h43c15.333 0 22.333 -9.66699 21 -29l-3 -39c-2 -25.333 -10.833 -44.666 -26.5 -57.999s-34.5 -20 -56.5 -20s-43.333 4.33301 -64 13l-43 19c-21.333 10 -34 15 -38 15z" />
    <glyph glyph-name="Adieresis" unicode="&#x192;" horiz-adv-x="553" 
d="M233 680h86.999c16.667 0 27.334 -8.33301 32.001 -25l186 -630c5.33301 -16.667 -0.666992 -25 -18 -25h-90c-14 -0 -23.667 8.33301 -29 25l-35 122h-186l-35 -122c-5.33301 -16.667 -15.333 -25 -30 -25h-81c-18 -0 -24.333 8.33301 -19 25l187 630
c4.66699 16.667 15 25 31 25zM335.999 254l-33.002 110.999c-5.33301 17.333 -11.166 48.333 -17.499 93s-10.166 74.334 -11.499 89.001c-16 -104.667 -26.333 -165 -31 -181l-34 -112h127zM255.997 849.999v-93c0 -16.667 -8 -25 -24 -25h-49c-16 0 -24 8.33301 -24 25v93
c0 17.333 8 26 24 26h49c16 0 24 -8.66699 24 -26zM394.997 849.999v-93c0 -16.667 -7.66699 -25 -23 -25h-49c-16 0 -24 8.33301 -24 25v93c0 17.333 8 26 24 26h49c15.333 0 23 -8.66699 23 -26z" />
    <glyph glyph-name="Aring" unicode="&#x2248;" horiz-adv-x="553" 
d="M233 680h86.999c16.667 0 27.334 -8.33301 32.001 -25l186 -630c5.33301 -16.667 -0.666992 -25 -18 -25h-90c-14 -0 -23.667 8.33301 -29 25l-35 122h-186l-35 -122c-5.33301 -16.667 -15.333 -25 -30 -25h-81c-18 -0 -24.333 8.33301 -19 25l187 630
c4.66699 16.667 15 25 31 25zM335.999 254l-33.002 110.999c-5.33301 17.333 -11.166 48.333 -17.499 93s-10.166 74.334 -11.499 89.001c-16 -104.667 -26.333 -165 -31 -181l-34 -112h127zM388.997 820.999v-29c0 -22 -9.5 -40.5 -28.5 -55.5s-46.833 -22.5 -83.5 -22.5
s-64.5 7.5 -83.5 22.5s-28.5 33.5 -28.5 55.5v29c0 22 9.5 40.5 28.5 55.5s46.833 22.5 83.5 22.5s64.5 -7.5 83.5 -22.5s28.5 -33.5 28.5 -55.5zM316.997 800.999v12c0 20 -13.333 30 -40 30s-40 -10 -40 -30v-12c0 -20.667 13.333 -31 40 -31s40 10.333 40 31z" />
    <glyph glyph-name="AE" unicode="&#x394;" horiz-adv-x="835" 
d="M427 680h332.001c16.667 0 25 -8 25 -24v-61c0 -16 -8.33301 -24 -25 -24h-231v-166h214c17.333 0 26 -8 26 -24v-57c0 -16.667 -8.66699 -25 -26 -25h-214v-190h242c16.667 0 25 -7.66699 25 -23v-62c0 -16 -8.33301 -24 -25 -24h-345c-16.667 -0 -25 8.33301 -25 25
v122h-183l-71 -122c-10 -16.667 -19.667 -25 -29 -25h-82c-8.66699 -0 -14.834 2.33301 -18.501 7s-3.5 10.667 0.5 18l375 631c10 16 21.667 24 35 24zM366.001 400l-85 -146h119v211c-12.667 -26 -24 -47.667 -34 -65z" />
    <glyph glyph-name="AE" unicode="&#x2206;" horiz-adv-x="835" 
d="M427 680h332.001c16.667 0 25 -8 25 -24v-61c0 -16 -8.33301 -24 -25 -24h-231v-166h214c17.333 0 26 -8 26 -24v-57c0 -16.667 -8.66699 -25 -26 -25h-214v-190h242c16.667 0 25 -7.66699 25 -23v-62c0 -16 -8.33301 -24 -25 -24h-345c-16.667 -0 -25 8.33301 -25 25
v122h-183l-71 -122c-10 -16.667 -19.667 -25 -29 -25h-82c-8.66699 -0 -14.834 2.33301 -18.501 7s-3.5 10.667 0.5 18l375 631c10 16 21.667 24 35 24zM366.001 400l-85 -146h119v211c-12.667 -26 -24 -47.667 -34 -65z" />
    <glyph glyph-name="Ccedilla" unicode="&#xab;" horiz-adv-x="569" 
d="M294 -45h30c27.333 0 48.833 -6.83301 64.5 -20.5s23.5 -34.167 23.5 -61.5c0 -28 -7.83301 -49 -23.5 -63s-37.167 -21 -64.5 -21h-119c-16.667 0 -25 8.33301 -25 25v20c0 16 8.33301 24 25 24h98c12.667 0 19 5 19 15c0 10.667 -6.33301 16 -19 16h-75
c-27.333 0 -37.666 11 -30.999 33l21 76c-56.667 8.66699 -97.334 27.167 -122.001 55.5s-37 62.166 -37 101.499v370c0 47.333 18.167 86.333 54.5 117s96.5 46 180.5 46s144.167 -15.333 180.5 -46s54.5 -69.667 54.5 -117v-48c0 -16.667 -7.66699 -25 -23 -25h-83
c-16.667 0 -25 8.33301 -25 25v24c0 50 -34 75 -102 75c-67.333 0 -101 -25 -101 -75v-322c0 -50 33.667 -75 101 -75c68 0 102 25 102 75v38c0 16.667 8.33301 25 25 25h83c15.333 0 23 -8.33301 23 -25v-62c0 -46.667 -17.5 -85.167 -52.5 -115.5
s-92.5 -46.166 -172.5 -47.499z" />
    <glyph glyph-name="Egrave" unicode="&#xbb;" horiz-adv-x="512" 
d="M205 747l-72.002 105c-5.33301 7.33301 -6.66602 13.5 -3.99902 18.5s8.33398 7.5 17.001 7.5h87c14.667 0 26 -8.33301 34 -25l48 -98c7.33301 -16.667 3.33301 -25 -12 -25h-65c-13.333 0 -24.333 5.66699 -33 17zM445.998 0h-352c-16 0 -24 8.66699 -24 26v628
c0 17.333 8 26 24 26h342c16.667 0 25 -8 25 -24v-63c0 -16.667 -8.33301 -25 -25 -25h-231v-162h214c17.333 0 26 -8 26 -24v-60c0 -16 -8.66699 -24 -26 -24h-214v-186h241c16.667 0 25 -8 25 -24v-63c0 -16.667 -8.33301 -25 -25 -25z" />
    <glyph glyph-name="Eacute" unicode="&#x2026;" horiz-adv-x="512" 
d="M446 0h-352c-16 0 -24 8.66699 -24 26v628c0 17.333 8 26 24 26h342c16.667 0 25 -8 25 -24v-63c0 -16.667 -8.33301 -25 -25 -25h-231v-162h214c17.333 0 26 -8 26 -24v-60c0 -16 -8.66699 -24 -26 -24h-214v-186h241c16.667 0 25 -8 25 -24v-63
c0 -16.667 -8.33301 -25 -25 -25zM388 853l-73.0029 -106c-8 -11.333 -18.667 -17 -32 -17h-65c-17.333 0 -21.666 8.33301 -12.999 25l49 98c8 16.667 19.333 25 34 25h87c8.66699 0 14.334 -2.33301 17.001 -7s1.33398 -10.667 -3.99902 -18z" />
    <glyph glyph-name="Ecircumflex" unicode="&#xa0;" horiz-adv-x="512" 
d="M256 800l-25.0029 -45c-9.33301 -16.667 -20.666 -25 -33.999 -25h-64c-8.66699 0 -14.167 2.33301 -16.5 7s-1.16602 10.667 3.50098 18l73 98c12 16.667 25 25 39 25h48c12.667 0 25.667 -8.33301 39 -25l73 -98c4.66699 -7.33301 5.83398 -13.333 3.50098 -18
s-7.83301 -7 -16.5 -7h-64c-14 0 -25.333 8.33301 -34 25zM445.997 0h-352c-16 0 -24 8.66699 -24 26v628c0 17.333 8 26 24 26h342c16.667 0 25 -8 25 -24v-63c0 -16.667 -8.33301 -25 -25 -25h-231v-162h214c17.333 0 26 -8 26 -24v-60c0 -16 -8.66699 -24 -26 -24h-214
v-186h241c16.667 0 25 -8 25 -24v-63c0 -16.667 -8.33301 -25 -25 -25z" />
    <glyph glyph-name="Edieresis" unicode="&#xc0;" horiz-adv-x="512" 
d="M446 0h-352c-16 0 -24 8.66699 -24 26v628c0 17.333 8 26 24 26h342c16.667 0 25 -8 25 -24v-63c0 -16.667 -8.33301 -25 -25 -25h-231v-162h214c17.333 0 26 -8 26 -24v-60c0 -16 -8.66699 -24 -26 -24h-214v-186h241c16.667 0 25 -8 25 -24v-63
c0 -16.667 -8.33301 -25 -25 -25zM242 850v-93c0 -16.667 -8 -25 -24 -25h-49c-16 0 -24 8.33301 -24 25v93c0 17.333 8 26 24 26h49c16 0 24 -8.66699 24 -26zM381 850v-93c0 -16.667 -7.66699 -25 -23 -25h-49c-16 0 -24 8.33301 -24 25v93c0 17.333 8 26 24 26h49
c15.333 0 23 -8.66699 23 -26z" />
    <glyph glyph-name="Igrave" unicode="&#xc3;" horiz-adv-x="274" 
d="M205 654v-628c0 -17.333 -8 -26 -24 -26h-87c-16 0 -24 8.66699 -24 26v628c0 17.333 8 26 24 26h87c16 0 24 -8.66699 24 -26zM71 747l-72.002 105c-5.33301 7.33301 -6.66602 13.5 -3.99902 18.5s8.33398 7.5 17.001 7.5h87c14.667 0 26 -8.33301 34 -25l48 -98
c7.33301 -16.667 3.33301 -25 -12 -25h-65c-13.333 0 -24.333 5.66699 -33 17z" />
    <glyph glyph-name="Iacute" unicode="&#xd5;" horiz-adv-x="274" 
d="M205 654v-628c0 -17.333 -8 -26 -24 -26h-87c-16 0 -24 8.66699 -24 26v628c0 17.333 8 26 24 26h87c16 0 24 -8.66699 24 -26zM269 853l-73.0029 -106c-8 -11.333 -18.667 -17 -32 -17h-65c-17.333 0 -21.666 8.33301 -12.999 25l49 98c8 16.667 19.333 25 34 25h87
c8.66699 0 14.334 -2.33301 17.001 -7s1.33398 -10.667 -3.99902 -18z" />
    <glyph glyph-name="Icircumflex" unicode="&#x152;" horiz-adv-x="274" 
d="M205 654v-628c0 -17.333 -8 -26 -24 -26h-87c-16 0 -24 8.66699 -24 26v628c0 17.333 8 26 24 26h87c16 0 24 -8.66699 24 -26zM137 800l-25.0029 -45c-9.33301 -16.667 -20.666 -25 -33.999 -25h-64c-8.66699 0 -14.167 2.33301 -16.5 7s-1.16602 10.667 3.50098 18
l73 98c12 16.667 25 25 39 25h48c12.667 0 25.667 -8.33301 39 -25l73 -98c4.66699 -7.33301 5.83398 -13.333 3.50098 -18s-7.83301 -7 -16.5 -7h-64c-14 0 -25.333 8.33301 -34 25z" />
    <glyph glyph-name="Idieresis" unicode="&#x153;" horiz-adv-x="274" 
d="M205 654v-628c0 -17.333 -8 -26 -24 -26h-87c-16 0 -24 8.66699 -24 26v628c0 17.333 8 26 24 26h87c16 0 24 -8.66699 24 -26zM116 850v-93c0 -16.667 -8 -25 -24 -25h-49c-16 0 -24 8.33301 -24 25v93c0 17.333 8 26 24 26h49c16 0 24 -8.66699 24 -26zM255 850v-93
c0 -16.667 -7.66699 -25 -23 -25h-49c-16 0 -24 8.33301 -24 25v93c0 17.333 8 26 24 26h49c15.333 0 23 -8.66699 23 -26z" />
    <glyph glyph-name="Eth" unicode="&#x2013;" horiz-adv-x="615" 
d="M312 0h-221c-14 0 -21 8.66699 -21 26v266h-42c-17.333 0 -26 8.33301 -26 25v51c0 15.333 8.66699 23 26 23h42v263c0 17.333 8 26 24 26h218c84 0 145.667 -15.5 185 -46.5s59 -69.833 59 -116.5v-354c0 -46.667 -19.667 -85.5 -59 -116.5s-101 -46.5 -185 -46.5z
M312 568h-107v-177h90c16.667 0 25 -7.66699 25 -23v-51c0 -16.667 -8.33301 -25 -25 -25h-90v-180h107c72.667 0 109 25 109 75v306c0 50 -36.333 75 -109 75z" />
    <glyph glyph-name="Ntilde" unicode="&#x2014;" horiz-adv-x="625" 
d="M556 655l0.000976562 -630.001c0 -16.667 -8 -25 -24 -25h-79c-10.667 0 -18.334 4 -23.001 12l-193 331c-22.667 36.667 -36 63.334 -40 80.001v-398c0 -16.667 -8 -25 -24 -25h-79c-16 -0 -24 8.33301 -24 25v630c0 16.667 8 25 24 25h79c10 0 17 -3.33301 21 -10
l201 -345l34 -70v400c0 16.667 8 25 24 25h79c16 0 24 -8.33301 24 -25zM252.001 785.999c-12.667 0 -18.999 -8.33398 -18.999 -25.001v-5c0 -14.667 -9 -22 -27 -22h-43c-16 0 -23 9.66699 -21 29l4 41c2.66699 24.667 12.167 43.834 28.5 57.501s36.166 20.5 59.499 20.5
c20 0 39.333 -4.33301 58 -13l43 -21c20 -10 32.333 -15 37 -15c6 0 10.333 1.66699 13 5s4.66699 9.66602 6 18.999l1 6c2.66699 14.667 11.667 22 27 22h43c15.333 0 22.333 -9.66699 21 -29l-3 -39c-2 -25.333 -10.833 -44.666 -26.5 -57.999s-34.5 -20 -56.5 -20
s-43.333 4.33301 -64 13l-43 19c-21.333 10 -34 15 -38 15z" />
    <glyph glyph-name="Ograve" unicode="&#x201c;" horiz-adv-x="605" 
d="M236 747l-72.002 105c-5.33301 7.33301 -6.66602 13.5 -3.99902 18.5s8.33398 7.5 17.001 7.5h87c14.667 0 26 -8.33301 34 -25l48 -98c7.33301 -16.667 3.33301 -25 -12 -25h-65c-13.333 0 -24.333 5.66699 -33 17zM58.998 155v370c0 46.667 19.5 85.5 58.5 116.5
s100.5 46.5 184.5 46.5s145.5 -15.5 184.5 -46.5s58.5 -69.833 58.5 -116.5v-370c0 -46.667 -19.5 -85.5 -58.5 -116.5s-100.5 -46.5 -184.5 -46.5s-145.5 15.5 -184.5 46.5s-58.5 69.833 -58.5 116.5zM409.998 179v322c0 50 -36 75 -108 75c-71.333 0 -107 -25 -107 -75
v-322c0 -50 35.667 -75 107 -75c72 0 108 25 108 75z" />
    <glyph glyph-name="Oacute" unicode="&#x201d;" horiz-adv-x="605" 
d="M425 853l-73.0029 -106c-8 -11.333 -18.667 -17 -32 -17h-65c-17.333 0 -21.666 8.33301 -12.999 25l49 98c8 16.667 19.333 25 34 25h87c8.66699 0 14.334 -2.33301 17.001 -7s1.33398 -10.667 -3.99902 -18zM58.9971 155v370c0 46.667 19.5 85.5 58.5 116.5
s100.5 46.5 184.5 46.5s145.5 -15.5 184.5 -46.5s58.5 -69.833 58.5 -116.5v-370c0 -46.667 -19.5 -85.5 -58.5 -116.5s-100.5 -46.5 -184.5 -46.5s-145.5 15.5 -184.5 46.5s-58.5 69.833 -58.5 116.5zM409.997 179v322c0 50 -36 75 -108 75c-71.333 0 -107 -25 -107 -75
v-322c0 -50 35.667 -75 107 -75c72 0 108 25 108 75z" />
    <glyph glyph-name="Ocircumflex" unicode="&#x2018;" horiz-adv-x="605" 
d="M302 800l-25.0029 -45c-9.33301 -16.667 -20.666 -25 -33.999 -25h-64c-8.66699 0 -14.167 2.33301 -16.5 7s-1.16602 10.667 3.50098 18l73 98c12 16.667 25 25 39 25h48c12.667 0 25.667 -8.33301 39 -25l73 -98c4.66699 -7.33301 5.83398 -13.333 3.50098 -18
s-7.83301 -7 -16.5 -7h-64c-14 0 -25.333 8.33301 -34 25zM58.9971 155v370c0 46.667 19.5 85.5 58.5 116.5s100.5 46.5 184.5 46.5s145.5 -15.5 184.5 -46.5s58.5 -69.833 58.5 -116.5v-370c0 -46.667 -19.5 -85.5 -58.5 -116.5s-100.5 -46.5 -184.5 -46.5
s-145.5 15.5 -184.5 46.5s-58.5 69.833 -58.5 116.5zM409.997 179v322c0 50 -36 75 -108 75c-71.333 0 -107 -25 -107 -75v-322c0 -50 35.667 -75 107 -75c72 0 108 25 108 75z" />
    <glyph glyph-name="Otilde" unicode="&#x2019;" horiz-adv-x="605" 
d="M59 155v370c0 46.667 19.5 85.5 58.5 116.5s100.5 46.5 184.5 46.5s145.5 -15.5 184.5 -46.5s58.5 -69.833 58.5 -116.5v-370c0 -46.667 -19.5 -85.5 -58.5 -116.5s-100.5 -46.5 -184.5 -46.5s-145.5 15.5 -184.5 46.5s-58.5 69.833 -58.5 116.5zM410 179v322
c0 50 -36 75 -108 75c-71.333 0 -107 -25 -107 -75v-322c0 -50 35.667 -75 107 -75c72 0 108 25 108 75zM242 786c-12.667 0 -18.999 -8.33398 -18.999 -25.001v-5c0 -14.667 -9 -22 -27 -22h-43c-16 0 -23 9.66699 -21 29l4 41c2.66699 24.667 12.167 43.834 28.5 57.501
s36.166 20.5 59.499 20.5c20 0 39.333 -4.33301 58 -13l43 -21c20 -10 32.333 -15 37 -15c6 0 10.333 1.66699 13 5s4.66699 9.66602 6 18.999l1 6c2.66699 14.667 11.667 22 27 22h43c15.333 0 22.333 -9.66699 21 -29l-3 -39c-2 -25.333 -10.833 -44.666 -26.5 -57.999
s-34.5 -20 -56.5 -20s-43.333 4.33301 -64 13l-43 19c-21.333 10 -34 15 -38 15z" />
    <glyph glyph-name="Odieresis" unicode="&#xf7;" horiz-adv-x="605" 
d="M59 155v370c0 46.667 19.5 85.5 58.5 116.5s100.5 46.5 184.5 46.5s145.5 -15.5 184.5 -46.5s58.5 -69.833 58.5 -116.5v-370c0 -46.667 -19.5 -85.5 -58.5 -116.5s-100.5 -46.5 -184.5 -46.5s-145.5 15.5 -184.5 46.5s-58.5 69.833 -58.5 116.5zM410 179v322
c0 50 -36 75 -108 75c-71.333 0 -107 -25 -107 -75v-322c0 -50 35.667 -75 107 -75c72 0 108 25 108 75zM281 850v-93c0 -16.667 -8 -25 -24 -25h-49c-16 0 -24 8.33301 -24 25v93c0 17.333 8 26 24 26h49c16 0 24 -8.66699 24 -26zM420 850v-93
c0 -16.667 -7.66699 -25 -23 -25h-49c-16 0 -24 8.33301 -24 25v93c0 17.333 8 26 24 26h49c15.333 0 23 -8.66699 23 -26z" />
    <glyph glyph-name="multiply" unicode="&#x25ca;" horiz-adv-x="541" 
d="M321 142l-71 121.999l-122 -70c-14.667 -8 -26 -5 -34 9l-29 51c-8 14.667 -4.66699 26 10 34l122 70l-71 123c-8 14.667 -5.33301 26 8 34l51 30c14 8.66699 25.333 5.33398 34 -9.99902l71 -123l123 71c14.667 8 26 5.33301 34 -8l29 -51
c8.66699 -15.333 5.66699 -27 -9 -35l-124 -71l71 -122c8 -14.667 5 -26 -9 -34l-51 -29c-14 -8 -25 -5 -33 9z" />
    <glyph glyph-name="Oslash" unicode="&#xff;" horiz-adv-x="605" 
d="M59 154v370c0 46.667 19.5 85.5 58.5 116.5s100.5 46.5 184.5 46.5c50.667 0 95 -6.66699 133 -20l9 17c10 20 21.333 30 34 30h28c14.667 0 17 -10 7 -30l-24 -46c37.333 -28 56 -66 56 -114v-370c0 -46.667 -19.5 -85.5 -58.5 -116.5s-100.5 -46.5 -184.5 -46.5
c-51.333 0 -96.333 6.66699 -135 20l-8 -16c-10 -20 -22 -30 -36 -30h-26c-15.333 0 -18 10 -8 30l23 46c-35.333 28 -53 65.667 -53 113zM410 178v305l-186 -362c18 -12 44 -18 78 -18c72 0 108 25 108 75zM195 500v-299l184 357c-19.333 11.333 -45 17 -77 17
c-71.333 0 -107 -25 -107 -75z" />
    <glyph glyph-name="Ugrave" unicode="&#x178;" horiz-adv-x="615" 
d="M249 747l-72.002 105c-5.33301 7.33301 -6.66602 13.5 -3.99902 18.5s8.33398 7.5 17.001 7.5h87c14.667 0 26 -8.33301 34 -25l48 -98c7.33301 -16.667 3.33301 -25 -12 -25h-65c-13.333 0 -24.333 5.66699 -33 17zM199.998 654v-475.001c0 -50 35.667 -75 107 -75
c34 0 60.667 6.33301 80 19s29 31.334 29 56.001v475c0 17.333 8 26 24 26h87c15.333 0 23 -8.66699 23 -26v-499c0 -46.667 -19.5 -85.5 -58.5 -116.5s-100.5 -46.5 -184.5 -46.5s-145.5 15.5 -184.5 46.5s-58.5 69.833 -58.5 116.5v499c0 17.333 8.33301 26 25 26h87
c16 0 24 -8.66699 24 -26z" />
    <glyph glyph-name="Uacute" unicode="&#x2044;" horiz-adv-x="615" 
d="M200 654v-475.001c0 -50 35.667 -75 107 -75c34 0 60.667 6.33301 80 19s29 31.334 29 56.001v475c0 17.333 8 26 24 26h87c15.333 0 23 -8.66699 23 -26v-499c0 -46.667 -19.5 -85.5 -58.5 -116.5s-100.5 -46.5 -184.5 -46.5s-145.5 15.5 -184.5 46.5
s-58.5 69.833 -58.5 116.5v499c0 17.333 8.33301 26 25 26h87c16 0 24 -8.66699 24 -26zM441 852.999l-73.0029 -106c-8 -11.333 -18.667 -17 -32 -17h-65c-17.333 0 -21.666 8.33301 -12.999 25l49 98c8 16.667 19.333 25 34 25h87c8.66699 0 14.334 -2.33301 17.001 -7
s1.33398 -10.667 -3.99902 -18z" />
    <glyph glyph-name="Ucircumflex" unicode="&#x20ac;" horiz-adv-x="615" 
d="M307 800l-25.0029 -45c-9.33301 -16.667 -20.666 -25 -33.999 -25h-64c-8.66699 0 -14.167 2.33301 -16.5 7s-1.16602 10.667 3.50098 18l73 98c12 16.667 25 25 39 25h48c12.667 0 25.667 -8.33301 39 -25l73 -98c4.66699 -7.33301 5.83398 -13.333 3.50098 -18
s-7.83301 -7 -16.5 -7h-64c-14 0 -25.333 8.33301 -34 25zM199.997 654v-475.001c0 -50 35.667 -75 107 -75c34 0 60.667 6.33301 80 19s29 31.334 29 56.001v475c0 17.333 8 26 24 26h87c15.333 0 23 -8.66699 23 -26v-499c0 -46.667 -19.5 -85.5 -58.5 -116.5
s-100.5 -46.5 -184.5 -46.5s-145.5 15.5 -184.5 46.5s-58.5 69.833 -58.5 116.5v499c0 17.333 8.33301 26 25 26h87c16 0 24 -8.66699 24 -26z" />
    <glyph glyph-name="Udieresis" unicode="&#x2039;" horiz-adv-x="615" 
d="M200 654v-475.001c0 -50 35.667 -75 107 -75c34 0 60.667 6.33301 80 19s29 31.334 29 56.001v475c0 17.333 8 26 24 26h87c15.333 0 23 -8.66699 23 -26v-499c0 -46.667 -19.5 -85.5 -58.5 -116.5s-100.5 -46.5 -184.5 -46.5s-145.5 15.5 -184.5 46.5
s-58.5 69.833 -58.5 116.5v499c0 17.333 8.33301 26 25 26h87c16 0 24 -8.66699 24 -26zM286 849.999v-93c0 -16.667 -8 -25 -24 -25h-49c-16 0 -24 8.33301 -24 25v93c0 17.333 8 26 24 26h49c16 0 24 -8.66699 24 -26zM425 849.999v-93c0 -16.667 -7.66699 -25 -23 -25
h-49c-16 0 -24 8.33301 -24 25v93c0 17.333 8 26 24 26h49c15.333 0 23 -8.66699 23 -26z" />
    <glyph glyph-name="Yacute" unicode="&#x203a;" horiz-adv-x="545" 
d="M161 655l94.999 -228l17 -52c2.66699 18 8.66699 35.333 18 52l106 228c7.33301 16.667 17 25 29 25h86c8.66699 0 14.834 -2.16699 18.501 -6.5s3.5 -10.5 -0.5 -18.5l-189 -395v-235c0 -16.667 -8 -25 -24 -25h-87c-16.667 -0 -25 8.33301 -25 25v219l-190 411
c-3.33301 7.33301 -3.5 13.333 -0.5 18s8.83301 7 17.5 7h99c13.333 0 23.333 -8.33301 30 -25zM413.999 853l-73.0029 -106c-8 -11.333 -18.667 -17 -32 -17h-65c-17.333 0 -21.666 8.33301 -12.999 25l49 98c8 16.667 19.333 25 34 25h87
c8.66699 0 14.334 -2.33301 17.001 -7s1.33398 -10.667 -3.99902 -18z" />
    <glyph glyph-name="Thorn" unicode="&#xfb01;" horiz-adv-x="580" 
d="M205 655v-157h99c84 0 145.333 -15.333 184 -46s58 -69.667 58 -117v-85c0 -47.333 -19.333 -86.333 -58 -117s-100 -46 -184 -46h-99v-62c0 -16.667 -8 -25 -24 -25h-87c-16 -0 -24 8.33301 -24 25v630c0 16.667 8 25 24 25h87c16 0 24 -8.33301 24 -25zM304 387
l-99 -0.00195312v-189h99c34 0 60.667 6.33301 80 19s29 31.334 29 56.001v39c0 24.667 -9.66699 43.334 -29 56.001s-46 19 -80 19z" />
    <glyph glyph-name="germandbls" unicode="&#xfb02;" horiz-adv-x="641" 
d="M229 553l0.000976562 -527c0 -17.333 -8 -26 -24 -26h-83c-16.667 0 -25 8.66699 -25 26v366h-54c-16 0 -24 8.33301 -24 25v50c0 15.333 8 23.333 24 24l51 5h3v64c0 46 19.167 82.167 57.5 108.5s95.166 39.5 170.499 39.5c147.333 0 221 -49.333 221 -148v-35
c0 -41.333 -23 -72 -69 -92l-67 -29l-5 -2.5c-2 -1 -3.5 -1.66699 -4.5 -2s-2.5 -1 -4.5 -2s-3.5 -1.83301 -4.5 -2.5s-2.16699 -1.66699 -3.5 -3s-2.33301 -2.66602 -3 -3.99902s-1.16699 -2.83301 -1.5 -4.5s-0.5 -3.5 -0.5 -5.5v-2c0 -12.667 10.667 -23.334 32 -32.001
l116 -53c23.333 -10.667 44 -25.5 62 -44.5s27 -40.833 27 -65.5v-45c0 -96 -59.667 -144 -179 -144c-63.333 0 -107.333 11.5 -132 34.5s-37 57.833 -37 104.5v5c0 16.667 8 25 24 25h57c16.667 0 25 -8.33301 25 -25v-10c0 -34 20.333 -51 61 -51c41.333 0 62 17 62 51v32
c0 16 -12.667 29.333 -38 40l-107 47c-54.667 24 -82 62.333 -82 115v20c0 40 21.667 69.333 65 88l46 20c26 11.333 39 27.333 39 48v17c0 40.667 -32.667 61 -98 61c-64.667 0 -97 -20.333 -97 -61z" />
    <glyph glyph-name="agrave" unicode="&#x2021;" horiz-adv-x="517" 
d="M60 349l0.00195312 13.001c0 96 67.333 144 202 144c134 0 201 -48 201 -144v-336c0 -17.333 -8 -26 -24 -26h-75c-8.66699 0 -14.5 2 -17.5 6s-5.16699 10.667 -6.5 20l-2 21c-44 -36.667 -93.333 -55 -148 -55c-46.667 0 -82.334 12 -107.001 36s-37 53.667 -37 89v45
c0 35.333 13.167 65.166 39.5 89.499s63.166 36.5 110.499 36.5h138v64c0 18.667 -5.5 32.667 -16.5 42s-30.5 14 -58.5 14s-47.833 -4.16699 -59.5 -12.5s-17.5 -21.5 -17.5 -39.5v-7c0 -16.667 -8 -25 -24 -25h-74c-16 0 -24 8.33301 -24 25zM224.002 96.001
c34.667 0 71.333 14.334 110 43.001v57h-112c-18 0 -30.5 -3.83301 -37.5 -11.5s-10.5 -18.834 -10.5 -33.501v-16c0 -26 16.667 -39 50 -39zM214.001 577.002l-72 106c-5.33301 7.33301 -6.83301 13.333 -4.5 18s7.83301 7 16.5 7h87c15.333 0 27 -8.33301 35 -25l48 -98
c7.33301 -16.667 3 -25 -13 -25h-65c-13.333 0 -24 5.66699 -32 17z" />
    <glyph glyph-name="aacute" unicode="&#xb7;" horiz-adv-x="517" 
d="M60 349l0.00195312 13.001c0 96 67.333 144 202 144c134 0 201 -48 201 -144v-336c0 -17.333 -8 -26 -24 -26h-75c-8.66699 0 -14.5 2 -17.5 6s-5.16699 10.667 -6.5 20l-2 21c-44 -36.667 -93.333 -55 -148 -55c-46.667 0 -82.334 12 -107.001 36s-37 53.667 -37 89v45
c0 35.333 13.167 65.166 39.5 89.499s63.166 36.5 110.499 36.5h138v64c0 18.667 -5.5 32.667 -16.5 42s-30.5 14 -58.5 14s-47.833 -4.16699 -59.5 -12.5s-17.5 -21.5 -17.5 -39.5v-7c0 -16.667 -8 -25 -24 -25h-74c-16 0 -24 8.33301 -24 25zM224.002 96.001
c34.667 0 71.333 14.334 110 43.001v57h-112c-18 0 -30.5 -3.83301 -37.5 -11.5s-10.5 -18.834 -10.5 -33.501v-16c0 -26 16.667 -39 50 -39zM377.001 683.002l-72 -106c-8 -11.333 -18.667 -17 -32 -17h-65c-16 0 -20.333 8.33301 -13 25l48 98c8 16.667 19.667 25 35 25
h87c8.66699 0 14.167 -2.33301 16.5 -7s0.833008 -10.667 -4.5 -18z" />
    <glyph glyph-name="acircumflex" unicode="&#x201a;" horiz-adv-x="517" 
d="M60 349l0.00195312 13.001c0 96 67.333 144 202 144c134 0 201 -48 201 -144v-336c0 -17.333 -8 -26 -24 -26h-75c-8.66699 0 -14.5 2 -17.5 6s-5.16699 10.667 -6.5 20l-2 21c-44 -36.667 -93.333 -55 -148 -55c-46.667 0 -82.334 12 -107.001 36s-37 53.667 -37 89v45
c0 35.333 13.167 65.166 39.5 89.499s63.166 36.5 110.499 36.5h138v64c0 18.667 -5.5 32.667 -16.5 42s-30.5 14 -58.5 14s-47.833 -4.16699 -59.5 -12.5s-17.5 -21.5 -17.5 -39.5v-7c0 -16.667 -8 -25 -24 -25h-74c-16 0 -24 8.33301 -24 25zM224.002 96.001
c34.667 0 71.333 14.334 110 43.001v57h-112c-18 0 -30.5 -3.83301 -37.5 -11.5s-10.5 -18.834 -10.5 -33.501v-16c0 -26 16.667 -39 50 -39zM261.001 630.002l-25.0029 -45c-9.33301 -16.667 -20.666 -25 -33.999 -25h-64c-8.66699 0 -14.167 2.33301 -16.5 7
s-1.16602 10.667 3.50098 18l73 98c12 16.667 25 25 39 25h48c12.667 0 25.667 -8.33301 39 -25l73 -98c4.66699 -7.33301 5.83398 -13.333 3.50098 -18s-7.83301 -7 -16.5 -7h-64c-14 0 -25.333 8.33301 -34 25z" />
    <glyph glyph-name="atilde" unicode="&#x201e;" horiz-adv-x="517" 
d="M60 349l0.00195312 13.001c0 96 67.333 144 202 144c134 0 201 -48 201 -144v-336c0 -17.333 -8 -26 -24 -26h-75c-8.66699 0 -14.5 2 -17.5 6s-5.16699 10.667 -6.5 20l-2 21c-44 -36.667 -93.333 -55 -148 -55c-46.667 0 -82.334 12 -107.001 36s-37 53.667 -37 89v45
c0 35.333 13.167 65.166 39.5 89.499s63.166 36.5 110.499 36.5h138v64c0 18.667 -5.5 32.667 -16.5 42s-30.5 14 -58.5 14s-47.833 -4.16699 -59.5 -12.5s-17.5 -21.5 -17.5 -39.5v-7c0 -16.667 -8 -25 -24 -25h-74c-16 0 -24 8.33301 -24 25zM224.002 96.001
c34.667 0 71.333 14.334 110 43.001v57h-112c-18 0 -30.5 -3.83301 -37.5 -11.5s-10.5 -18.834 -10.5 -33.501v-16c0 -26 16.667 -39 50 -39zM204.001 607.002c-6 0 -10.332 -1.66895 -12.999 -5.00195s-4.66699 -9.66602 -6 -18.999l-1 -6
c-2.66699 -14.667 -11.334 -22 -26.001 -22h-44c-15.333 0 -22 9.66699 -20 29l4 42c2.66699 24.667 12 43.667 28 57s35.667 20 59 20c22 0 41.667 -4.33301 59 -13l42 -20c21.333 -10 34 -15 38 -15c12.667 0 19 8 19 24v5c0 14.667 9 22 27 22h43
c15.333 0 22.333 -9.66699 21 -29l-3 -39c-2 -25.333 -10.667 -44.666 -26 -57.999s-34 -20 -56 -20c-23.333 0 -44.666 4.33301 -63.999 13l-43 19c-22.667 10 -35.334 15 -38.001 15z" />
    <glyph glyph-name="adieresis" unicode="&#x2030;" horiz-adv-x="517" 
d="M60 349l0.00195312 13.001c0 96 67.333 144 202 144c134 0 201 -48 201 -144v-336c0 -17.333 -8 -26 -24 -26h-75c-8.66699 0 -14.5 2 -17.5 6s-5.16699 10.667 -6.5 20l-2 21c-44 -36.667 -93.333 -55 -148 -55c-46.667 0 -82.334 12 -107.001 36s-37 53.667 -37 89v45
c0 35.333 13.167 65.166 39.5 89.499s63.166 36.5 110.499 36.5h138v64c0 18.667 -5.5 32.667 -16.5 42s-30.5 14 -58.5 14s-47.833 -4.16699 -59.5 -12.5s-17.5 -21.5 -17.5 -39.5v-7c0 -16.667 -8 -25 -24 -25h-74c-16 0 -24 8.33301 -24 25zM224.002 96.001
c34.667 0 71.333 14.334 110 43.001v57h-112c-18 0 -30.5 -3.83301 -37.5 -11.5s-10.5 -18.834 -10.5 -33.501v-16c0 -26 16.667 -39 50 -39zM239.001 681.002v-93c0 -16.667 -7.66699 -25 -23 -25h-49c-16 0 -24 8.33301 -24 25v93c0 16.667 8 25 24 25h49
c15.333 0 23 -8.33301 23 -25zM379.001 681.002v-93c0 -16.667 -7.66699 -25 -23 -25h-49c-16.667 0 -25 8.33301 -25 25v93c0 16.667 8.33301 25 25 25h49c15.333 0 23 -8.33301 23 -25z" />
    <glyph glyph-name="aring" unicode="&#xc2;" horiz-adv-x="517" 
d="M60 349l0.00195312 13.001c0 96 67.333 144 202 144c134 0 201 -48 201 -144v-336c0 -17.333 -8 -26 -24 -26h-75c-8.66699 0 -14.5 2 -17.5 6s-5.16699 10.667 -6.5 20l-2 21c-44 -36.667 -93.333 -55 -148 -55c-46.667 0 -82.334 12 -107.001 36s-37 53.667 -37 89v45
c0 35.333 13.167 65.166 39.5 89.499s63.166 36.5 110.499 36.5h138v64c0 18.667 -5.5 32.667 -16.5 42s-30.5 14 -58.5 14s-47.833 -4.16699 -59.5 -12.5s-17.5 -21.5 -17.5 -39.5v-7c0 -16.667 -8 -25 -24 -25h-74c-16 0 -24 8.33301 -24 25zM224.002 96.001
c34.667 0 71.333 14.334 110 43.001v57h-112c-18 0 -30.5 -3.83301 -37.5 -11.5s-10.5 -18.834 -10.5 -33.501v-16c0 -26 16.667 -39 50 -39zM374.001 654.002v-34c0 -22 -9.33301 -40.167 -28 -54.5s-46 -21.5 -82 -21.5c-36.667 0 -64.334 7.16699 -83.001 21.5
s-28 32.5 -28 54.5v34c0 22 9.33301 40.167 28 54.5s46.334 21.5 83.001 21.5c36 0 63.333 -7.16699 82 -21.5s28 -32.5 28 -54.5zM304.001 629.002v15c0 20 -13.333 30 -40 30c-27.333 0 -41 -10 -41 -30v-15c0 -20 13.667 -30 41 -30c26.667 0 40 10 40 30z" />
    <glyph glyph-name="ae" unicode="&#xca;" horiz-adv-x="785" 
d="M741 359v-114c0 -15.333 -7.66699 -23 -23 -23h-256v-79c0 -36 26 -54 78 -54s78 18.333 78 55v7c0 16 8.33301 24 25 24h69c16.667 0 25 -8 25 -24v-12c0 -98 -65.667 -147 -197 -147c-88.667 0 -148 20.667 -178 62c-52.667 -41.333 -110 -62 -172 -62
c-47.333 0 -83.333 12 -108 36s-37 53.667 -37 89v43c0 35.333 13.333 65 40 89s63.667 36 111 36h138v74c0 34.667 -25 52 -75 52c-28 0 -47.833 -4.16699 -59.5 -12.5s-17.5 -21.5 -17.5 -39.5v-10c0 -16 -8.33301 -24 -25 -24h-73c-16.667 0 -25 8 -25 24v14
c0 95.333 67.333 143 202 143c63.333 0 108.333 -15 135 -45c32 30 80 45 144 45c134 0 201 -49 201 -147zM224 94c32 0 68.667 15.333 110 46v57h-114c-31.333 0 -47 -14.667 -47 -44v-19c0 -26.667 17 -40 51 -40zM462 353v-44h156v44c0 37.333 -26 56 -78 56
s-78 -18.667 -78 -56z" />
    <glyph glyph-name="ccedilla" unicode="&#xc1;" horiz-adv-x="492" 
d="M252 -45h29.999c27.333 0 48.833 -6.83301 64.5 -20.5s23.5 -34.167 23.5 -61.5c0 -28 -7.83301 -49 -23.5 -63s-37.167 -21 -64.5 -21h-119c-16.667 0 -25 8.33301 -25 25v20c0 16 8.33301 24 25 24h98c12.667 0 19 5 19 15c0 10.667 -6.33301 16 -19 16h-75
c-27.333 0 -37.666 11 -30.999 33l22 77c-85.333 16 -128 63 -128 141v219c0 98 68.667 147 206 147c136.667 0 205 -49 205 -147v-17c0 -16 -8 -24 -24 -24h-77c-16.667 0 -25 8 -25 24v7c0 18.667 -5.83301 32.167 -17.5 40.5s-31.5 12.5 -59.5 12.5
s-47.833 -4.16699 -59.5 -12.5s-17.5 -21.833 -17.5 -40.5v-199c0 -18.667 5.83301 -32.334 17.5 -41.001s31.5 -13 59.5 -13s47.833 4.33301 59.5 13s17.5 22.334 17.5 41.001v15c0 16.667 8.33301 25 25 25h77c16 0 24 -8.33301 24 -25v-25c0 -96.667 -66 -146 -198 -148z
" />
    <glyph glyph-name="egrave" unicode="&#xcb;" horiz-adv-x="500" 
d="M455 359l-0.00195312 -116c0 -15.333 -7.33301 -23 -22 -23h-256v-74c0 -18.667 5.83301 -32.5 17.5 -41.5s31.834 -13.5 60.501 -13.5s48.834 4.5 60.501 13.5s17.5 22.833 17.5 41.5v5c0 16.667 8.33301 25 25 25h70c16.667 0 25 -8.33301 25 -25v-11
c0 -98.667 -66.333 -148 -199 -148c-136.667 0 -205 49.333 -205 148v219c0 98 68.667 147 206 147c133.333 0 200 -49 200 -147zM176.998 352v-44h156v44c0 36.667 -26 55 -78 55s-78 -18.333 -78 -55zM194.998 577l-72 106c-5.33301 7.33301 -6.83301 13.333 -4.5 18
s7.83301 7 16.5 7h87c15.333 0 27 -8.33301 35 -25l48 -98c7.33301 -16.667 3 -25 -13 -25h-65c-13.333 0 -24 5.66699 -32 17z" />
    <glyph glyph-name="eacute" unicode="&#xc8;" horiz-adv-x="500" 
d="M376 683l-72 -106c-8 -11.333 -18.667 -17 -32 -17h-65c-16 0 -20.333 8.33301 -13 25l48 98c8 16.667 19.667 25 35 25h87c8.66699 0 14.167 -2.33301 16.5 -7s0.833008 -10.667 -4.5 -18zM455 359l-0.00195312 -116c0 -15.333 -7.33301 -23 -22 -23h-256v-74
c0 -18.667 5.83301 -32.5 17.5 -41.5s31.834 -13.5 60.501 -13.5s48.834 4.5 60.501 13.5s17.5 22.833 17.5 41.5v5c0 16.667 8.33301 25 25 25h70c16.667 0 25 -8.33301 25 -25v-11c0 -98.667 -66.333 -148 -199 -148c-136.667 0 -205 49.333 -205 148v219
c0 98 68.667 147 206 147c133.333 0 200 -49 200 -147zM176.998 352v-44h156v44c0 36.667 -26 55 -78 55s-78 -18.333 -78 -55z" />
    <glyph glyph-name="ecircumflex" unicode="&#xcd;" horiz-adv-x="500" 
d="M255 630l-25.0029 -45c-9.33301 -16.667 -20.666 -25 -33.999 -25h-64c-8.66699 0 -14.167 2.33301 -16.5 7s-1.16602 10.667 3.50098 18l73 98c12 16.667 25 25 39 25h48c12.667 0 25.667 -8.33301 39 -25l73 -98c4.66699 -7.33301 5.83398 -13.333 3.50098 -18
s-7.83301 -7 -16.5 -7h-64c-14 0 -25.333 8.33301 -34 25zM454.997 359l-0.00195312 -116c0 -15.333 -7.33301 -23 -22 -23h-256v-74c0 -18.667 5.83301 -32.5 17.5 -41.5s31.834 -13.5 60.501 -13.5s48.834 4.5 60.501 13.5s17.5 22.833 17.5 41.5v5
c0 16.667 8.33301 25 25 25h70c16.667 0 25 -8.33301 25 -25v-11c0 -98.667 -66.333 -148 -199 -148c-136.667 0 -205 49.333 -205 148v219c0 98 68.667 147 206 147c133.333 0 200 -49 200 -147zM176.995 352v-44h156v44c0 36.667 -26 55 -78 55s-78 -18.333 -78 -55z" />
    <glyph glyph-name="edieresis" unicode="&#xce;" horiz-adv-x="500" 
d="M231 681v-93c0 -16.667 -7.66699 -25 -23 -25h-49c-16 0 -24 8.33301 -24 25v93c0 16.667 8 25 24 25h49c15.333 0 23 -8.33301 23 -25zM371 681v-93c0 -16.667 -7.66699 -25 -23 -25h-49c-16.667 0 -25 8.33301 -25 25v93c0 16.667 8.33301 25 25 25h49
c15.333 0 23 -8.33301 23 -25zM455 359l-0.00195312 -116c0 -15.333 -7.33301 -23 -22 -23h-256v-74c0 -18.667 5.83301 -32.5 17.5 -41.5s31.834 -13.5 60.501 -13.5s48.834 4.5 60.501 13.5s17.5 22.833 17.5 41.5v5c0 16.667 8.33301 25 25 25h70
c16.667 0 25 -8.33301 25 -25v-11c0 -98.667 -66.333 -148 -199 -148c-136.667 0 -205 49.333 -205 148v219c0 98 68.667 147 206 147c133.333 0 200 -49 200 -147zM176.998 352v-44h156v44c0 36.667 -26 55 -78 55s-78 -18.333 -78 -55z" />
    <glyph glyph-name="igrave" unicode="&#xcf;" horiz-adv-x="250" 
d="M190 473v-448c0 -16.667 -7.66699 -25 -23 -25h-83c-16.667 -0 -25 8.33301 -25 25v448c0 16.667 8.33301 25 25 25h83c15.333 0 23 -8.33301 23 -25zM62 577l-72 106c-5.33301 7.33301 -6.83301 13.333 -4.5 18s7.83301 7 16.5 7h87c15.333 0 27 -8.33301 35 -25l48 -98
c7.33301 -16.667 3 -25 -13 -25h-65c-13.333 0 -24 5.66699 -32 17z" />
    <glyph glyph-name="iacute" unicode="&#xcc;" horiz-adv-x="250" 
d="M257 683l-72 -106c-8 -11.333 -18.667 -17 -32 -17h-65c-16 0 -20.333 8.33301 -13 25l48 98c8 16.667 19.667 25 35 25h87c8.66699 0 14.167 -2.33301 16.5 -7s0.833008 -10.667 -4.5 -18zM190 473v-448c0 -16.667 -7.66699 -25 -23 -25h-83
c-16.667 -0 -25 8.33301 -25 25v448c0 16.667 8.33301 25 25 25h83c15.333 0 23 -8.33301 23 -25z" />
    <glyph glyph-name="icircumflex" unicode="&#xd3;" horiz-adv-x="250" 
d="M128 630l-25.0029 -45c-9.33301 -16.667 -20.666 -25 -33.999 -25h-64c-8.66699 0 -14.167 2.33301 -16.5 7s-1.16602 10.667 3.50098 18l73 98c12 16.667 25 25 39 25h48c12.667 0 25.667 -8.33301 39 -25l73 -98c4.66699 -7.33301 5.83398 -13.333 3.50098 -18
s-7.83301 -7 -16.5 -7h-64c-14 0 -25.333 8.33301 -34 25zM189.997 473v-448c0 -16.667 -7.66699 -25 -23 -25h-83c-16.667 -0 -25 8.33301 -25 25v448c0 16.667 8.33301 25 25 25h83c15.333 0 23 -8.33301 23 -25z" />
    <glyph glyph-name="idieresis" unicode="&#xd4;" horiz-adv-x="250" 
d="M104 681v-93c0 -16.667 -7.66699 -25 -23 -25h-49c-16 0 -24 8.33301 -24 25v93c0 16.667 8 25 24 25h49c15.333 0 23 -8.33301 23 -25zM244 681v-93c0 -16.667 -7.66699 -25 -23 -25h-49c-16.667 0 -25 8.33301 -25 25v93c0 16.667 8.33301 25 25 25h49
c15.333 0 23 -8.33301 23 -25zM190 473v-448c0 -16.667 -7.66699 -25 -23 -25h-83c-16.667 -0 -25 8.33301 -25 25v448c0 16.667 8.33301 25 25 25h83c15.333 0 23 -8.33301 23 -25z" />
    <glyph glyph-name="eth" unicode="&#xe01e;" horiz-adv-x="568" 
d="M279 583l44.001 23.001c-10.667 7.33301 -29.334 11 -56.001 11h-97c-17.333 0 -26 8.33301 -26 25v42c0 16 8.66699 24 26 24h97c71.333 0 124.666 -14.333 159.999 -43l44 24c14.667 8.66699 26 5.66699 34 -9l9 -15c8 -12.667 4.66699 -23.334 -10 -32.001l-39 -22
c5.33301 -13.333 8 -30 8 -50v-422c0 -98 -69.333 -147 -208 -147c-71.333 0 -125.166 13 -161.499 39s-54.5 62 -54.5 108v221c0 46 12.167 81.833 36.5 107.5s60.5 38.5 108.5 38.5c56.667 0 108.667 -18 156 -54v82c0 4 -1 7.33301 -3 10l-35 -17
c-14.667 -8 -26 -5 -34 9l-9 15c-8 13.333 -4.66699 24 10 32zM350.001 150.001v197c-40 30.667 -78.333 46 -115 46c-21.333 0 -35.833 -4.83301 -43.5 -14.5s-11.5 -22.5 -11.5 -38.5v-190c0 -36.667 28.333 -55 85 -55s85 18.333 85 55z" />
    <glyph glyph-name="eth" unicode="&#xf8ff;" horiz-adv-x="568" 
d="M279 583l44.001 23.001c-10.667 7.33301 -29.334 11 -56.001 11h-97c-17.333 0 -26 8.33301 -26 25v42c0 16 8.66699 24 26 24h97c71.333 0 124.666 -14.333 159.999 -43l44 24c14.667 8.66699 26 5.66699 34 -9l9 -15c8 -12.667 4.66699 -23.334 -10 -32.001l-39 -22
c5.33301 -13.333 8 -30 8 -50v-422c0 -98 -69.333 -147 -208 -147c-71.333 0 -125.166 13 -161.499 39s-54.5 62 -54.5 108v221c0 46 12.167 81.833 36.5 107.5s60.5 38.5 108.5 38.5c56.667 0 108.667 -18 156 -54v82c0 4 -1 7.33301 -3 10l-35 -17
c-14.667 -8 -26 -5 -34 9l-9 15c-8 13.333 -4.66699 24 10 32zM350.001 150.001v197c-40 30.667 -78.333 46 -115 46c-21.333 0 -35.833 -4.83301 -43.5 -14.5s-11.5 -22.5 -11.5 -38.5v-190c0 -36.667 28.333 -55 85 -55s85 18.333 85 55z" />
    <glyph glyph-name="ntilde" unicode="&#xd2;" horiz-adv-x="546" 
d="M84 498l77.002 0.000976562c8.66699 0 14.667 -1.83301 18 -5.5s5.33301 -9.83398 6 -18.501l2 -24c45.333 37.333 98.666 56 159.999 56c45.333 0 80.833 -12.333 106.5 -37s38.5 -57 38.5 -97v-346c0 -17.333 -8.33301 -26 -25 -26h-81c-17.333 0 -26 8.66699 -26 26
v313c0 18.667 -3.83301 32.167 -11.5 40.5s-21.834 12.5 -42.501 12.5c-38 0 -76.667 -15 -116 -45v-321c0 -17.333 -7.66699 -26 -23 -26h-83c-16.667 0 -25 8.66699 -25 26v448c0 16 8.33301 24 25 24zM211.002 615.001c-6 0 -10.332 -1.66895 -12.999 -5.00195
s-4.66699 -9.66602 -6 -18.999l-1 -6c-2.66699 -14.667 -11.334 -22 -26.001 -22h-44c-15.333 0 -22 9.66699 -20 29l4 42c2.66699 24.667 12 43.667 28 57s35.667 20 59 20c22 0 41.667 -4.33301 59 -13l42 -20c21.333 -10 34 -15 38 -15c12.667 0 19 8 19 24v5
c0 14.667 9 22 27 22h43c15.333 0 22.333 -9.66699 21 -29l-3 -39c-2 -25.333 -10.667 -44.666 -26 -57.999s-34 -20 -56 -20c-23.333 0 -44.666 4.33301 -63.999 13l-43 19c-22.667 10 -35.334 15 -38.001 15z" />
    <glyph glyph-name="ograve" unicode="&#xda;" horiz-adv-x="530" 
d="M49 140v219c0 46 18.167 82 54.5 108s90.166 39 161.499 39s125.166 -13 161.499 -39s54.5 -62 54.5 -108v-219c0 -46.667 -18.167 -83 -54.5 -109s-90.166 -39 -161.499 -39s-125.166 13 -161.499 39s-54.5 62.333 -54.5 109zM350 151v197c0 36 -28.333 54 -85 54
s-85 -18 -85 -54v-197c0 -36.667 28.333 -55 85 -55s85 18.333 85 55zM207 577l-72 106c-5.33301 7.33301 -6.83301 13.333 -4.5 18s7.83301 7 16.5 7h87c15.333 0 27 -8.33301 35 -25l48 -98c7.33301 -16.667 3 -25 -13 -25h-65c-13.333 0 -24 5.66699 -32 17z" />
    <glyph glyph-name="oacute" unicode="&#xdb;" horiz-adv-x="530" 
d="M394 683l-72 -106c-8 -11.333 -18.667 -17 -32 -17h-65c-16 0 -20.333 8.33301 -13 25l48 98c8 16.667 19.667 25 35 25h87c8.66699 0 14.167 -2.33301 16.5 -7s0.833008 -10.667 -4.5 -18zM49 140v219c0 46 18.167 82 54.5 108s90.166 39 161.499 39
s125.166 -13 161.499 -39s54.5 -62 54.5 -108v-219c0 -46.667 -18.167 -83 -54.5 -109s-90.166 -39 -161.499 -39s-125.166 13 -161.499 39s-54.5 62.333 -54.5 109zM350 151v197c0 36 -28.333 54 -85 54s-85 -18 -85 -54v-197c0 -36.667 28.333 -55 85 -55s85 18.333 85 55
z" />
    <glyph glyph-name="ocircumflex" unicode="&#xd9;" horiz-adv-x="530" 
d="M267 630l-25.0029 -45c-9.33301 -16.667 -20.666 -25 -33.999 -25h-64c-8.66699 0 -14.167 2.33301 -16.5 7s-1.16602 10.667 3.50098 18l73 98c12 16.667 25 25 39 25h48c12.667 0 25.667 -8.33301 39 -25l73 -98c4.66699 -7.33301 5.83398 -13.333 3.50098 -18
s-7.83301 -7 -16.5 -7h-64c-14 0 -25.333 8.33301 -34 25zM48.9971 140v219c0 46 18.167 82 54.5 108s90.166 39 161.499 39s125.166 -13 161.499 -39s54.5 -62 54.5 -108v-219c0 -46.667 -18.167 -83 -54.5 -109s-90.166 -39 -161.499 -39s-125.166 13 -161.499 39
s-54.5 62.333 -54.5 109zM349.997 151v197c0 36 -28.333 54 -85 54s-85 -18 -85 -54v-197c0 -36.667 28.333 -55 85 -55s85 18.333 85 55z" />
    <glyph glyph-name="otilde" unicode="&#x131;" horiz-adv-x="530" 
d="M49 140v219c0 46 18.167 82 54.5 108s90.166 39 161.499 39s125.166 -13 161.499 -39s54.5 -62 54.5 -108v-219c0 -46.667 -18.167 -83 -54.5 -109s-90.166 -39 -161.499 -39s-125.166 13 -161.499 39s-54.5 62.333 -54.5 109zM350 151v197c0 36 -28.333 54 -85 54
s-85 -18 -85 -54v-197c0 -36.667 28.333 -55 85 -55s85 18.333 85 55zM207 607c-6 0 -10.332 -1.66895 -12.999 -5.00195s-4.66699 -9.66602 -6 -18.999l-1 -6c-2.66699 -14.667 -11.334 -22 -26.001 -22h-44c-15.333 0 -22 9.66699 -20 29l4 42
c2.66699 24.667 12 43.667 28 57s35.667 20 59 20c22 0 41.667 -4.33301 59 -13l42 -20c21.333 -10 34 -15 38 -15c12.667 0 19 8 19 24v5c0 14.667 9 22 27 22h43c15.333 0 22.333 -9.66699 21 -29l-3 -39c-2 -25.333 -10.667 -44.666 -26 -57.999s-34 -20 -56 -20
c-23.333 0 -44.666 4.33301 -63.999 13l-43 19c-22.667 10 -35.334 15 -38.001 15z" />
    <glyph glyph-name="odieresis" unicode="&#x2c6;" horiz-adv-x="530" 
d="M245 681v-93c0 -16.667 -7.66699 -25 -23 -25h-49c-16 0 -24 8.33301 -24 25v93c0 16.667 8 25 24 25h49c15.333 0 23 -8.33301 23 -25zM385 681v-93c0 -16.667 -7.66699 -25 -23 -25h-49c-16.667 0 -25 8.33301 -25 25v93c0 16.667 8.33301 25 25 25h49
c15.333 0 23 -8.33301 23 -25zM49 140v219c0 46 18.167 82 54.5 108s90.166 39 161.499 39s125.166 -13 161.499 -39s54.5 -62 54.5 -108v-219c0 -46.667 -18.167 -83 -54.5 -109s-90.166 -39 -161.499 -39s-125.166 13 -161.499 39s-54.5 62.333 -54.5 109zM350 151v197
c0 36 -28.333 54 -85 54s-85 -18 -85 -54v-197c0 -36.667 28.333 -55 85 -55s85 18.333 85 55z" />
    <glyph glyph-name="divide" unicode="&#x2dc;" horiz-adv-x="581" 
d="M84 352h412c16.667 0 25 -8 25 -24v-60c0 -16 -8.33301 -24 -25 -24h-412c-16.667 0 -25 8 -25 24v60c0 16 8.33301 24 25 24zM357 161v-81c0 -16.667 -8 -25 -24 -25h-85c-16.667 0 -25 8.33301 -25 25v81c0 16.667 8.33301 25 25 25h85c16 0 24 -8.33301 24 -25z
M357 517v-81c0 -16.667 -8 -25 -24 -25h-85c-16.667 0 -25 8.33301 -25 25v81c0 16.667 8.33301 25 25 25h85c16 0 24 -8.33301 24 -25z" />
    <glyph glyph-name="oslash" unicode="&#xaf;" horiz-adv-x="530" 
d="M49 140l-0.000976562 218.999c0 46 18.167 82 54.5 108s90.166 39 161.499 39c37.333 0 70 -3.66699 98 -11l6 10c10.667 20 22 30 34 30h28c15.333 0 17.333 -10 6 -30l-18 -34c41.333 -25.333 62 -62.666 62 -111.999v-219c0 -46.667 -18.167 -83 -54.5 -109
s-90.166 -39 -161.499 -39c-37.333 0 -70.666 3.66699 -99.999 11l-4 -7c-6 -12 -11.167 -20 -15.5 -24s-11.5 -6 -21.5 -6h-25c-8 0 -12 3.5 -12 10.5s2 13.5 6 19.5l17 31c-40.667 26 -61 63.667 -61 113zM349.999 150.999l-0.000976562 193l-132 -243
c10.667 -3.33301 26.334 -5 47.001 -5c56.667 0 85 18.333 85 55zM179.998 347.999v-192l130 240c-12 4 -27 6 -45 6c-56.667 0 -85 -18 -85 -54z" />
    <glyph glyph-name="ugrave" unicode="&#x2d8;" 
d="M354 25l-2.00195 22c-41.333 -36.667 -92.666 -55 -153.999 -55c-44.667 0 -79.834 12.333 -105.501 37s-38.5 57 -38.5 97v347c0 16.667 8 25 24 25h82c16.667 0 25 -8.33301 25 -25v-314c0 -18.667 4 -32.167 12 -40.5s22 -12.5 42 -12.5
c36.667 0 73.334 14.667 110.001 44v323c0 16.667 8 25 24 25h83c16 0 24 -8.33301 24 -25v-448c0 -16.667 -8 -25 -24 -25h-77c-8.66699 -0 -14.667 1.83301 -18 5.5s-5.66602 10.167 -6.99902 19.5zM207.998 577l-72 106c-5.33301 7.33301 -6.83301 13.333 -4.5 18
s7.83301 7 16.5 7h87c15.333 0 27 -8.33301 35 -25l48 -98c7.33301 -16.667 3 -25 -13 -25h-65c-13.333 0 -24 5.66699 -32 17z" />
    <glyph glyph-name="uacute" unicode="&#x2d9;" 
d="M396 683l-72 -106c-8 -11.333 -18.667 -17 -32 -17h-65c-16 0 -20.333 8.33301 -13 25l48 98c8 16.667 19.667 25 35 25h87c8.66699 0 14.167 -2.33301 16.5 -7s0.833008 -10.667 -4.5 -18zM354 25l-2.00195 22c-41.333 -36.667 -92.666 -55 -153.999 -55
c-44.667 0 -79.834 12.333 -105.501 37s-38.5 57 -38.5 97v347c0 16.667 8 25 24 25h82c16.667 0 25 -8.33301 25 -25v-314c0 -18.667 4 -32.167 12 -40.5s22 -12.5 42 -12.5c36.667 0 73.334 14.667 110.001 44v323c0 16.667 8 25 24 25h83c16 0 24 -8.33301 24 -25v-448
c0 -16.667 -8 -25 -24 -25h-77c-8.66699 -0 -14.667 1.83301 -18 5.5s-5.66602 10.167 -6.99902 19.5z" />
    <glyph glyph-name="ucircumflex" unicode="&#x2da;" 
d="M257 630l-25.0029 -45c-9.33301 -16.667 -20.666 -25 -33.999 -25h-64c-8.66699 0 -14.167 2.33301 -16.5 7s-1.16602 10.667 3.50098 18l73 98c12 16.667 25 25 39 25h48c12.667 0 25.667 -8.33301 39 -25l73 -98c4.66699 -7.33301 5.83398 -13.333 3.50098 -18
s-7.83301 -7 -16.5 -7h-64c-14 0 -25.333 8.33301 -34 25zM353.997 25l-2.00195 22c-41.333 -36.667 -92.666 -55 -153.999 -55c-44.667 0 -79.834 12.333 -105.501 37s-38.5 57 -38.5 97v347c0 16.667 8 25 24 25h82c16.667 0 25 -8.33301 25 -25v-314
c0 -18.667 4 -32.167 12 -40.5s22 -12.5 42 -12.5c36.667 0 73.334 14.667 110.001 44v323c0 16.667 8 25 24 25h83c16 0 24 -8.33301 24 -25v-448c0 -16.667 -8 -25 -24 -25h-77c-8.66699 -0 -14.667 1.83301 -18 5.5s-5.66602 10.167 -6.99902 19.5z" />
    <glyph glyph-name="udieresis" unicode="&#xb8;" 
d="M244 681v-93c0 -16.667 -7.66699 -25 -23 -25h-49c-16 0 -24 8.33301 -24 25v93c0 16.667 8 25 24 25h49c15.333 0 23 -8.33301 23 -25zM384 681v-93c0 -16.667 -7.66699 -25 -23 -25h-49c-16.667 0 -25 8.33301 -25 25v93c0 16.667 8.33301 25 25 25h49
c15.333 0 23 -8.33301 23 -25zM354 25l-2.00195 22c-41.333 -36.667 -92.666 -55 -153.999 -55c-44.667 0 -79.834 12.333 -105.501 37s-38.5 57 -38.5 97v347c0 16.667 8 25 24 25h82c16.667 0 25 -8.33301 25 -25v-314c0 -18.667 4 -32.167 12 -40.5s22 -12.5 42 -12.5
c36.667 0 73.334 14.667 110.001 44v323c0 16.667 8 25 24 25h83c16 0 24 -8.33301 24 -25v-448c0 -16.667 -8 -25 -24 -25h-77c-8.66699 -0 -14.667 1.83301 -18 5.5s-5.66602 10.167 -6.99902 19.5z" />
    <glyph glyph-name="yacute" unicode="&#x2dd;" horiz-adv-x="474" 
d="M145 473l74.9971 -229.001c0.666992 -1.33301 6.33398 -29.333 17.001 -84c12 46.667 19 73.334 21 80.001l79 233c2.66699 8.66699 5.83398 15 9.50098 19s9.5 6 17.5 6h76c9.33301 0 16.333 -2.16699 21 -6.5s5.66699 -10.5 3 -18.5l-221 -649
c-5.33301 -16.667 -14.666 -25 -27.999 -25h-60c-20.667 0 -28.667 8.33301 -24 25l49 163l-169 486c-2.66699 8 -1.66699 14.167 3 18.5s11.334 6.5 20.001 6.5h83c13.333 0 22.666 -8.33301 27.999 -25zM372.997 682.999l-72 -106c-8 -11.333 -18.667 -17 -32 -17h-65
c-16 0 -20.333 8.33301 -13 25l48 98c8 16.667 19.667 25 35 25h87c8.66699 0 14.167 -2.33301 16.5 -7s0.833008 -10.667 -4.5 -18z" />
    <glyph glyph-name="thorn" unicode="&#x2db;" 
d="M190 674v-222c47.333 36 99.333 54 156 54c48.667 0 85.167 -12.833 109.5 -38.5s36.5 -61.5 36.5 -107.5v-222c0 -46 -12.167 -81.833 -36.5 -107.5s-60.833 -38.5 -109.5 -38.5c-55.333 0 -107.333 17.667 -156 53v-221c0 -16.667 -7.66699 -25 -23 -25h-83
c-16.667 0 -25 8.33301 -25 25v850c0 16.667 8.33301 25 25 25h82c16 0 24 -8.33301 24 -25zM360 158v182c0 35.333 -18 53 -54 53c-37.333 0 -76 -15.333 -116 -46v-196c40 -30.667 78.667 -46 116 -46c36 0 54 17.667 54 53z" />
    <glyph glyph-name="ydieresis" unicode="&#x2c7;" horiz-adv-x="474" 
d="M145 473l74.9971 -229.001c0.666992 -1.33301 6.33398 -29.333 17.001 -84c12 46.667 19 73.334 21 80.001l79 233c2.66699 8.66699 5.83398 15 9.50098 19s9.5 6 17.5 6h76c9.33301 0 16.333 -2.16699 21 -6.5s5.66699 -10.5 3 -18.5l-221 -649
c-5.33301 -16.667 -14.666 -25 -27.999 -25h-60c-20.667 0 -28.667 8.33301 -24 25l49 163l-169 486c-2.66699 8 -1.66699 14.167 3 18.5s11.334 6.5 20.001 6.5h83c13.333 0 22.666 -8.33301 27.999 -25zM217.997 680.999v-93c0 -16.667 -7.66699 -25 -23 -25h-49
c-16 0 -24 8.33301 -24 25v93c0 16.667 8 25 24 25h49c15.333 0 23 -8.33301 23 -25zM357.997 680.999v-93c0 -16.667 -7.66699 -25 -23 -25h-49c-16.667 0 -25 8.33301 -25 25v93c0 16.667 8.33301 25 25 25h49c15.333 0 23 -8.33301 23 -25z" />
    <glyph glyph-name="Amacron" horiz-adv-x="553" 
d="M233 680h86.999c16.667 0 27.334 -8.33301 32.001 -25l186 -630c5.33301 -16.667 -0.666992 -25 -18 -25h-90c-14 -0 -23.667 8.33301 -29 25l-35 122h-186l-35 -122c-5.33301 -16.667 -15.333 -25 -30 -25h-81c-18 -0 -24.333 8.33301 -19 25l187 630
c4.66699 16.667 15 25 31 25zM335.999 254l-33.002 110.999c-5.33301 17.333 -11.166 48.333 -17.499 93s-10.166 74.334 -11.499 89.001c-16 -104.667 -26.333 -165 -31 -181l-34 -112h127zM160.997 848.999h231c16.667 0 25 -7.66699 25 -23v-51
c0 -16.667 -8.33301 -25 -25 -25h-231c-16.667 0 -25 8.33301 -25 25v51c0 15.333 8.33301 23 25 23z" />
    <glyph glyph-name="amacron" horiz-adv-x="517" 
d="M60 349l0.00195312 13.001c0 96 67.333 144 202 144c134 0 201 -48 201 -144v-336c0 -17.333 -8 -26 -24 -26h-75c-8.66699 0 -14.5 2 -17.5 6s-5.16699 10.667 -6.5 20l-2 21c-44 -36.667 -93.333 -55 -148 -55c-46.667 0 -82.334 12 -107.001 36s-37 53.667 -37 89v45
c0 35.333 13.167 65.166 39.5 89.499s63.166 36.5 110.499 36.5h138v64c0 18.667 -5.5 32.667 -16.5 42s-30.5 14 -58.5 14s-47.833 -4.16699 -59.5 -12.5s-17.5 -21.5 -17.5 -39.5v-7c0 -16.667 -8 -25 -24 -25h-74c-16 0 -24 8.33301 -24 25zM224.002 96.001
c34.667 0 71.333 14.334 110 43.001v57h-112c-18 0 -30.5 -3.83301 -37.5 -11.5s-10.5 -18.834 -10.5 -33.501v-16c0 -26 16.667 -39 50 -39zM143.001 671.002h230c16.667 0 25 -8 25 -24v-51c0 -16 -8.33301 -24 -25 -24h-230c-17.333 0 -26 8 -26 24v51
c0 16 8.66699 24 26 24z" />
    <glyph glyph-name="Abreve" horiz-adv-x="553" 
d="M233 680h86.999c16.667 0 27.334 -8.33301 32.001 -25l186 -630c5.33301 -16.667 -0.666992 -25 -18 -25h-90c-14 -0 -23.667 8.33301 -29 25l-35 122h-186l-35 -122c-5.33301 -16.667 -15.333 -25 -30 -25h-81c-18 -0 -24.333 8.33301 -19 25l187 630
c4.66699 16.667 15 25 31 25zM335.999 254l-33.002 110.999c-5.33301 17.333 -11.166 48.333 -17.499 93s-10.166 74.334 -11.499 89.001c-16 -104.667 -26.333 -165 -31 -181l-34 -112h127zM231.997 859.999v-17c0 -29.333 15 -44 45 -44s45 14.667 45 44v17
c0 13.333 7.33301 20 22 20h50c14.667 0 22 -6.66699 22 -20v-14c0 -39.333 -12.167 -69.833 -36.5 -91.5s-59.5 -32.5 -105.5 -32.5c-90.667 0 -136 41.333 -136 124v14c0 13.333 7.33301 20 22 20h50c14.667 0 22 -6.66699 22 -20z" />
    <glyph glyph-name="abreve" horiz-adv-x="517" 
d="M60 349l0.00195312 13.001c0 96 67.333 144 202 144c134 0 201 -48 201 -144v-336c0 -17.333 -8 -26 -24 -26h-75c-8.66699 0 -14.5 2 -17.5 6s-5.16699 10.667 -6.5 20l-2 21c-44 -36.667 -93.333 -55 -148 -55c-46.667 0 -82.334 12 -107.001 36s-37 53.667 -37 89v45
c0 35.333 13.167 65.166 39.5 89.499s63.166 36.5 110.499 36.5h138v64c0 18.667 -5.5 32.667 -16.5 42s-30.5 14 -58.5 14s-47.833 -4.16699 -59.5 -12.5s-17.5 -21.5 -17.5 -39.5v-7c0 -16.667 -8 -25 -24 -25h-74c-16 0 -24 8.33301 -24 25zM224.002 96.001
c34.667 0 71.333 14.334 110 43.001v57h-112c-18 0 -30.5 -3.83301 -37.5 -11.5s-10.5 -18.834 -10.5 -33.501v-16c0 -26 16.667 -39 50 -39zM227.001 685.002v-17c0 -29.333 15.333 -44 46 -44c30 0 45 14.667 45 44v17c0 14 7.33301 21 22 21h49c14.667 0 22 -7 22 -21
v-14c0 -39.333 -12.167 -69.833 -36.5 -91.5s-59.5 -32.5 -105.5 -32.5c-90 0 -135 41.333 -135 124v14c0 14 7.33301 21 22 21h49c14.667 0 22 -7 22 -21z" />
    <glyph glyph-name="Aogonek" horiz-adv-x="554" 
d="M321 680c16 0 26.332 -8.33203 30.999 -24.999l187 -630c5.33301 -16.667 -1 -25 -19 -25h-35c-30.667 0 -46 -18.667 -46 -56c0 -21.333 12.667 -32 38 -32h25c16.667 0 25 -8 25 -24v-34c0 -16.667 -11 -25 -33 -25h-55c-25.333 0 -48.166 6.66699 -68.499 20
s-30.5 35.666 -30.5 66.999c0 44.667 19 85 57 121l-32 110h-186l-34 -122c-5.33301 -16.667 -15.333 -25 -30 -25h-82c-17.333 -0 -23.333 8.33301 -18 25l187 630c4.66699 16.667 15 25 31 25h88zM335.999 254.001l-32.999 111c-5.33301 18.667 -11.333 50.5 -18 95.5
s-10.334 73.5 -11.001 85.5c-16 -104 -26.333 -164 -31 -180l-34 -112h127z" />
    <glyph glyph-name="aogonek" horiz-adv-x="517" 
d="M60 349l0.00195312 13c0 96 67.333 144 202 144c134 0 201 -48 201 -144v-336c0 -17.333 -8 -26 -24 -26h-6c-15.333 -0.666992 -26.833 -6.16699 -34.5 -16.5s-11.5 -23.833 -11.5 -40.5c0 -20.667 12.667 -31 38 -31h14c16.667 0 25 -8 25 -24v-34
c0 -16.667 -11 -25 -33 -25h-46c-24 0 -46.167 6.83301 -66.5 20.5s-30.5 35.834 -30.5 66.501c0 40.667 17.333 77.667 52 111l-2 20c-44 -36.667 -93.333 -55 -148 -55c-46.667 0 -82.334 12 -107.001 36s-37 53.667 -37 89v45c0 35.333 13.167 65.166 39.5 89.499
s63.166 36.5 110.499 36.5h138v64c0 18.667 -5.5 32.667 -16.5 42s-30.5 14 -58.5 14s-47.833 -4.16699 -59.5 -12.5s-17.5 -21.5 -17.5 -39.5v-7c0 -16.667 -8 -25 -24 -25h-74c-16 0 -24 8.33301 -24 25zM224.002 96c34.667 0 71.333 14.334 110 43.001v57h-112
c-18 0 -30.5 -3.83301 -37.5 -11.5s-10.5 -18.834 -10.5 -33.501v-16c0 -26 16.667 -39 50 -39z" />
    <glyph glyph-name="Cacute" horiz-adv-x="569" 
d="M529 217v-62c0 -47.333 -18.167 -86.333 -54.5 -117s-96.5 -46 -180.5 -46s-144.167 15.333 -180.5 46s-54.5 69.667 -54.5 117v370c0 47.333 18.167 86.333 54.5 117s96.5 46 180.5 46s144.167 -15.333 180.5 -46s54.5 -69.667 54.5 -117v-48
c0 -16.667 -7.66699 -25 -23 -25h-83c-16.667 0 -25 8.33301 -25 25v24c0 50 -34 75 -102 75c-67.333 0 -101 -25 -101 -75v-322c0 -50 33.667 -75 101 -75c68 0 102 25 102 75v38c0 16.667 8.33301 25 25 25h83c15.333 0 23 -8.33301 23 -25zM421 853l-73.0029 -106
c-8 -11.333 -18.667 -17 -32 -17h-65c-17.333 0 -21.666 8.33301 -12.999 25l49 98c8 16.667 19.333 25 34 25h87c8.66699 0 14.334 -2.33301 17.001 -7s1.33398 -10.667 -3.99902 -18z" />
    <glyph glyph-name="cacute" horiz-adv-x="492" 
d="M381 683l-72 -106c-8 -11.333 -18.667 -17 -32 -17h-65c-16 0 -20.333 8.33301 -13 25l48 98c8 16.667 19.667 25 35 25h87c8.66699 0 14.167 -2.33301 16.5 -7s0.833008 -10.667 -4.5 -18zM255 506c136.667 0 205 -49 205 -147v-17c0 -16 -8 -24 -24 -24h-77
c-16.667 0 -25 8 -25 24v7c0 18.667 -5.83301 32.167 -17.5 40.5s-31.5 12.5 -59.5 12.5s-47.833 -4.16699 -59.5 -12.5s-17.5 -21.833 -17.5 -40.5v-199c0 -18.667 5.83301 -32.334 17.5 -41.001s31.5 -13 59.5 -13s47.833 4.33301 59.5 13s17.5 22.334 17.5 41.001v15
c0 16.667 8.33301 25 25 25h77c16 0 24 -8.33301 24 -25v-25c0 -98.667 -68.667 -148 -206 -148c-136.667 0 -205 49.333 -205 148v219c0 98 68.667 147 206 147z" />
    <glyph glyph-name="Ccircumflex" horiz-adv-x="569" 
d="M529 217v-62c0 -47.333 -18.167 -86.333 -54.5 -117s-96.5 -46 -180.5 -46s-144.167 15.333 -180.5 46s-54.5 69.667 -54.5 117v370c0 47.333 18.167 86.333 54.5 117s96.5 46 180.5 46s144.167 -15.333 180.5 -46s54.5 -69.667 54.5 -117v-48
c0 -16.667 -7.66699 -25 -23 -25h-83c-16.667 0 -25 8.33301 -25 25v24c0 50 -34 75 -102 75c-67.333 0 -101 -25 -101 -75v-322c0 -50 33.667 -75 101 -75c68 0 102 25 102 75v38c0 16.667 8.33301 25 25 25h83c15.333 0 23 -8.33301 23 -25zM289 800l-25.0029 -45
c-9.33301 -16.667 -20.666 -25 -33.999 -25h-64c-8.66699 0 -14.167 2.33301 -16.5 7s-1.16602 10.667 3.50098 18l73 98c12 16.667 25 25 39 25h48c12.667 0 25.667 -8.33301 39 -25l73 -98c4.66699 -7.33301 5.83398 -13.333 3.50098 -18s-7.83301 -7 -16.5 -7h-64
c-14 0 -25.333 8.33301 -34 25z" />
    <glyph glyph-name="ccircumflex" horiz-adv-x="492" 
d="M246 630l-25.0029 -45c-9.33301 -16.667 -20.666 -25 -33.999 -25h-64c-8.66699 0 -14.167 2.33301 -16.5 7s-1.16602 10.667 3.50098 18l73 98c12 16.667 25 25 39 25h48c12.667 0 25.667 -8.33301 39 -25l73 -98c4.66699 -7.33301 5.83398 -13.333 3.50098 -18
s-7.83301 -7 -16.5 -7h-64c-14 0 -25.333 8.33301 -34 25zM254.997 506c136.667 0 205 -49 205 -147v-17c0 -16 -8 -24 -24 -24h-77c-16.667 0 -25 8 -25 24v7c0 18.667 -5.83301 32.167 -17.5 40.5s-31.5 12.5 -59.5 12.5s-47.833 -4.16699 -59.5 -12.5
s-17.5 -21.833 -17.5 -40.5v-199c0 -18.667 5.83301 -32.334 17.5 -41.001s31.5 -13 59.5 -13s47.833 4.33301 59.5 13s17.5 22.334 17.5 41.001v15c0 16.667 8.33301 25 25 25h77c16 0 24 -8.33301 24 -25v-25c0 -98.667 -68.667 -148 -206 -148
c-136.667 0 -205 49.333 -205 148v219c0 98 68.667 147 206 147z" />
    <glyph glyph-name="Cdotaccent" horiz-adv-x="569" 
d="M351 839v-82c0 -8.66699 -1.83301 -14.834 -5.5 -18.501s-9.83398 -5.5 -18.501 -5.5h-85c-9.33301 0 -15.666 1.83301 -18.999 5.5s-5 9.83398 -5 18.501v82c0 16.667 8 25 24 25h85c16 0 24 -8.33301 24 -25zM529 217v-62c0 -47.333 -18.167 -86.333 -54.5 -117
s-96.5 -46 -180.5 -46s-144.167 15.333 -180.5 46s-54.5 69.667 -54.5 117v370c0 47.333 18.167 86.333 54.5 117s96.5 46 180.5 46s144.167 -15.333 180.5 -46s54.5 -69.667 54.5 -117v-48c0 -16.667 -7.66699 -25 -23 -25h-83c-16.667 0 -25 8.33301 -25 25v24
c0 50 -34 75 -102 75c-67.333 0 -101 -25 -101 -75v-322c0 -50 33.667 -75 101 -75c68 0 102 25 102 75v38c0 16.667 8.33301 25 25 25h83c15.333 0 23 -8.33301 23 -25z" />
    <glyph glyph-name="cdotaccent" horiz-adv-x="492" 
d="M255 506c136.667 0 205 -49 205 -147v-17c0 -16 -8 -24 -24 -24h-77c-16.667 0 -25 8 -25 24v7c0 18.667 -5.83301 32.167 -17.5 40.5s-31.5 12.5 -59.5 12.5s-47.833 -4.16699 -59.5 -12.5s-17.5 -21.833 -17.5 -40.5v-199c0 -18.667 5.83301 -32.334 17.5 -41.001
s31.5 -13 59.5 -13s47.833 4.33301 59.5 13s17.5 22.334 17.5 41.001v15c0 16.667 8.33301 25 25 25h77c16 0 24 -8.33301 24 -25v-25c0 -98.667 -68.667 -148 -206 -148c-136.667 0 -205 49.333 -205 148v219c0 98 68.667 147 206 147zM312 677v-81
c0 -16.667 -7.66699 -25 -23 -25h-86c-16 0 -24 8.33301 -24 25v81c0 16.667 8 25 24 25h86c15.333 0 23 -8.33301 23 -25z" />
    <glyph glyph-name="Ccaron" horiz-adv-x="569" 
d="M529 217v-62c0 -47.333 -18.167 -86.333 -54.5 -117s-96.5 -46 -180.5 -46s-144.167 15.333 -180.5 46s-54.5 69.667 -54.5 117v370c0 47.333 18.167 86.333 54.5 117s96.5 46 180.5 46s144.167 -15.333 180.5 -46s54.5 -69.667 54.5 -117v-48
c0 -16.667 -7.66699 -25 -23 -25h-83c-16.667 0 -25 8.33301 -25 25v24c0 50 -34 75 -102 75c-67.333 0 -101 -25 -101 -75v-322c0 -50 33.667 -75 101 -75c68 0 102 25 102 75v38c0 16.667 8.33301 25 25 25h83c15.333 0 23 -8.33301 23 -25zM259 854l25.002 -46l25 46
c8.66699 16 20 24 34 24h64c8.66699 0 14.167 -2.33301 16.5 -7s1.16602 -10.334 -3.50098 -17.001l-73 -99c-13.333 -16.667 -26.333 -25 -39 -25h-48c-12.667 0 -25.667 8.66699 -39 26l-73 98c-4.66699 6.66699 -5.83398 12.334 -3.50098 17.001s7.83301 7 16.5 7h64
c14 0 25.333 -8 34 -24z" />
    <glyph glyph-name="ccaron" horiz-adv-x="492" 
d="M221 684l25.002 -46l25 46c8.66699 16 20 24 34 24h64c8.66699 0 14.167 -2.33301 16.5 -7s1.16602 -10.334 -3.50098 -17.001l-73 -99c-13.333 -16.667 -26.333 -25 -39 -25h-48c-12.667 0 -25.667 8.66699 -39 26l-73 98
c-4.66699 6.66699 -5.83398 12.334 -3.50098 17.001s7.83301 7 16.5 7h64c14 0 25.333 -8 34 -24zM255.002 506c136.667 0 205 -49 205 -147v-17c0 -16 -8 -24 -24 -24h-77c-16.667 0 -25 8 -25 24v7c0 18.667 -5.83301 32.167 -17.5 40.5s-31.5 12.5 -59.5 12.5
s-47.833 -4.16699 -59.5 -12.5s-17.5 -21.833 -17.5 -40.5v-199c0 -18.667 5.83301 -32.334 17.5 -41.001s31.5 -13 59.5 -13s47.833 4.33301 59.5 13s17.5 22.334 17.5 41.001v15c0 16.667 8.33301 25 25 25h77c16 0 24 -8.33301 24 -25v-25
c0 -98.667 -68.667 -148 -206 -148c-136.667 0 -205 49.333 -205 148v219c0 98 68.667 147 206 147z" />
    <glyph glyph-name="Dcaron" horiz-adv-x="615" 
d="M312 0h-221c-14 0 -21 8.66699 -21 26v628c0 17.333 8 26 24 26h218c84 0 145.667 -15.5 185 -46.5s59 -69.833 59 -116.5v-354c0 -46.667 -19.667 -85.5 -59 -116.5s-101 -46.5 -185 -46.5zM312 568h-107v-456h107c72.667 0 109 25 109 75v306c0 50 -36.333 75 -109 75z
M280 854l25.002 -46l25 46c8.66699 16 20 24 34 24h64c8.66699 0 14.167 -2.33301 16.5 -7s1.16602 -10.334 -3.50098 -17.001l-73 -99c-13.333 -16.667 -26.333 -25 -39 -25h-48c-12.667 0 -25.667 8.66699 -39 26l-73 98
c-4.66699 6.66699 -5.83398 12.334 -3.50098 17.001s7.83301 7 16.5 7h64c14 0 25.333 -8 34 -24z" />
    <glyph glyph-name="dcaron" horiz-adv-x="643" 
d="M547 686l-0.000976562 29.999c0 16.667 8.33301 25 25 25h61c16 0 24 -8.33301 24 -25v-38c0 -40.667 -15 -85 -45 -133c-7.33301 -12 -18.333 -16.333 -33 -13l-46 11c-16.667 4 -21 15 -13 33c0.666992 2 3.16699 7.66699 7.5 17s6.83301 14.833 7.5 16.5
s2.33398 6.16699 5.00098 13.5s4.16699 13.333 4.5 18s0.833008 10.834 1.5 18.501s1 16.5 1 26.5zM354.999 25.999l-2.00098 22c-47.333 -37.333 -100.333 -56 -159 -56c-48 0 -84.167 12.833 -108.5 38.5s-36.5 61.5 -36.5 107.5v222c0 46 12.167 81.833 36.5 107.5
s60.5 38.5 108.5 38.5c56.667 0 108.667 -18 156 -54v221c0 17.333 8 26 24 26h83c16 0 24 -8.66699 24 -26v-647c0 -17.333 -8 -26 -24 -26h-77c-8.66699 0 -14.667 2 -18 6s-5.66602 10.667 -6.99902 20zM179.998 339.999v-181c0 -16 3.83301 -28.833 11.5 -38.5
s22.167 -14.5 43.5 -14.5c36.667 0 75 15.333 115 46v194c-40 30.667 -78.333 46 -115 46s-55 -17.333 -55 -52z" />
    <glyph glyph-name="Dcroat" horiz-adv-x="615" 
d="M312 0h-221c-14 0 -21 8.66699 -21 26v266h-42c-17.333 0 -26 8.33301 -26 25v51c0 15.333 8.66699 23 26 23h42v263c0 17.333 8 26 24 26h218c84 0 145.667 -15.5 185 -46.5s59 -69.833 59 -116.5v-354c0 -46.667 -19.667 -85.5 -59 -116.5s-101 -46.5 -185 -46.5z
M312 568h-107v-177h90c16.667 0 25 -7.66699 25 -23v-51c0 -16.667 -8.33301 -25 -25 -25h-90v-180h107c72.667 0 109 25 109 75v306c0 50 -36.333 75 -109 75z" />
    <glyph glyph-name="dcroat" 
d="M355 26l-2.00098 22c-47.333 -37.333 -100.333 -56 -159 -56c-48 0 -84.167 12.833 -108.5 38.5s-36.5 61.5 -36.5 107.5v222c0 46 12.167 81.833 36.5 107.5s60.5 38.5 108.5 38.5c56.667 0 108.667 -18 156 -54v89h-93c-16.667 0 -25 8.33301 -25 25v43
c0 15.333 8.33301 23 25 23h93v41c0 17.333 8 26 24 26h83c16 0 24 -8.66699 24 -26v-41h27c16.667 0 25 -7.66699 25 -23v-43c0 -16.667 -8.33301 -25 -25 -25h-27v-515c0 -17.333 -8 -26 -24 -26h-77c-8.66699 0 -14.667 2 -18 6s-5.66602 10.667 -6.99902 20z
M179.999 340v-181c0 -16 3.83301 -28.833 11.5 -38.5s22.167 -14.5 43.5 -14.5c36.667 0 75 15.333 115 46v194c-40 30.667 -78.333 46 -115 46s-55 -17.333 -55 -52z" />
    <glyph glyph-name="Emacron" horiz-adv-x="512" 
d="M446 0h-352c-16 0 -24 8.66699 -24 26v628c0 17.333 8 26 24 26h342c16.667 0 25 -8 25 -24v-63c0 -16.667 -8.33301 -25 -25 -25h-231v-162h214c17.333 0 26 -8 26 -24v-60c0 -16 -8.66699 -24 -26 -24h-214v-186h241c16.667 0 25 -8 25 -24v-63
c0 -16.667 -8.33301 -25 -25 -25zM142 849h231c16.667 0 25 -7.66699 25 -23v-51c0 -16.667 -8.33301 -25 -25 -25h-231c-16.667 0 -25 8.33301 -25 25v51c0 15.333 8.33301 23 25 23z" />
    <glyph glyph-name="emacron" horiz-adv-x="500" 
d="M455 359l-0.00195312 -116c0 -15.333 -7.33301 -23 -22 -23h-256v-74c0 -18.667 5.83301 -32.5 17.5 -41.5s31.834 -13.5 60.501 -13.5s48.834 4.5 60.501 13.5s17.5 22.833 17.5 41.5v5c0 16.667 8.33301 25 25 25h70c16.667 0 25 -8.33301 25 -25v-11
c0 -98.667 -66.333 -148 -199 -148c-136.667 0 -205 49.333 -205 148v219c0 98 68.667 147 206 147c133.333 0 200 -49 200 -147zM176.998 352v-44h156v44c0 36.667 -26 55 -78 55s-78 -18.333 -78 -55zM134.998 671h230c16.667 0 25 -8 25 -24v-51
c0 -16 -8.33301 -24 -25 -24h-230c-17.333 0 -26 8 -26 24v51c0 16 8.66699 24 26 24z" />
    <glyph glyph-name="Ebreve" horiz-adv-x="512" 
d="M446 0h-352c-16 0 -24 8.66699 -24 26v628c0 17.333 8 26 24 26h342c16.667 0 25 -8 25 -24v-63c0 -16.667 -8.33301 -25 -25 -25h-231v-162h214c17.333 0 26 -8 26 -24v-60c0 -16 -8.66699 -24 -26 -24h-214v-186h241c16.667 0 25 -8 25 -24v-63
c0 -16.667 -8.33301 -25 -25 -25zM211 860v-17c0 -29.333 15 -44 45 -44s45 14.667 45 44v17c0 13.333 7.33301 20 22 20h50c14.667 0 22 -6.66699 22 -20v-14c0 -39.333 -12.167 -69.833 -36.5 -91.5s-59.5 -32.5 -105.5 -32.5c-90.667 0 -136 41.333 -136 124v14
c0 13.333 7.33301 20 22 20h50c14.667 0 22 -6.66699 22 -20z" />
    <glyph glyph-name="ebreve" horiz-adv-x="500" 
d="M455 359l-0.00195312 -116c0 -15.333 -7.33301 -23 -22 -23h-256v-74c0 -18.667 5.83301 -32.5 17.5 -41.5s31.834 -13.5 60.501 -13.5s48.834 4.5 60.501 13.5s17.5 22.833 17.5 41.5v5c0 16.667 8.33301 25 25 25h70c16.667 0 25 -8.33301 25 -25v-11
c0 -98.667 -66.333 -148 -199 -148c-136.667 0 -205 49.333 -205 148v219c0 98 68.667 147 206 147c133.333 0 200 -49 200 -147zM176.998 352v-44h156v44c0 36.667 -26 55 -78 55s-78 -18.333 -78 -55zM203.998 685v-17c0 -29.333 15.333 -44 46 -44c30 0 45 14.667 45 44
v17c0 14 7.33301 21 22 21h49c14.667 0 22 -7 22 -21v-14c0 -39.333 -12.167 -69.833 -36.5 -91.5s-59.5 -32.5 -105.5 -32.5c-90 0 -135 41.333 -135 124v14c0 14 7.33301 21 22 21h49c14.667 0 22 -7 22 -21z" />
    <glyph glyph-name="Edotaccent" horiz-adv-x="512" 
d="M329 839v-82c0 -8.66699 -1.83301 -14.834 -5.5 -18.501s-9.83398 -5.5 -18.501 -5.5h-85c-9.33301 0 -15.666 1.83301 -18.999 5.5s-5 9.83398 -5 18.501v82c0 16.667 8 25 24 25h85c16 0 24 -8.33301 24 -25zM446 0h-352c-16 0 -24 8.66699 -24 26v628
c0 17.333 8 26 24 26h342c16.667 0 25 -8 25 -24v-63c0 -16.667 -8.33301 -25 -25 -25h-231v-162h214c17.333 0 26 -8 26 -24v-60c0 -16 -8.66699 -24 -26 -24h-214v-186h241c16.667 0 25 -8 25 -24v-63c0 -16.667 -8.33301 -25 -25 -25z" />
    <glyph glyph-name="edotaccent" horiz-adv-x="500" 
d="M455 359l-0.00195312 -116c0 -15.333 -7.33301 -23 -22 -23h-256v-74c0 -18.667 5.83301 -32.5 17.5 -41.5s31.834 -13.5 60.501 -13.5s48.834 4.5 60.501 13.5s17.5 22.833 17.5 41.5v5c0 16.667 8.33301 25 25 25h70c16.667 0 25 -8.33301 25 -25v-11
c0 -98.667 -66.333 -148 -199 -148c-136.667 0 -205 49.333 -205 148v219c0 98 68.667 147 206 147c133.333 0 200 -49 200 -147zM176.998 352v-44h156v44c0 36.667 -26 55 -78 55s-78 -18.333 -78 -55z" />
    <glyph glyph-name="Eogonek" horiz-adv-x="512" 
d="M446 0l-29.001 0.000976562c-31.333 0 -47 -18.667 -47 -56c0 -21.333 13 -32 39 -32h25c16.667 0 25 -8 25 -24v-34c0 -16.667 -11 -25 -33 -25h-56c-25.333 0 -48.166 6.66699 -68.499 20s-30.5 35.666 -30.5 66.999c0 30 8.33301 58 25 84h-202
c-16 0 -24 8.66699 -24 26v628c0 17.333 8 26 24 26h342c16.667 0 25 -8 25 -24v-63c0 -16.667 -8.33301 -25 -25 -25h-231v-162h214c17.333 0 26 -8 26 -24v-60c0 -16 -8.66699 -24 -26 -24h-214v-186h241c16.667 0 25 -8 25 -24v-63c0 -16.667 -8.33301 -25 -25 -25z" />
    <glyph glyph-name="eogonek" horiz-adv-x="499" 
d="M455 359l-0.00195312 -116c0 -15.333 -7.33301 -23 -22 -23h-256v-74c0 -18.667 5.83301 -32.5 17.5 -41.5s31.834 -13.5 60.501 -13.5s48.834 4.5 60.501 13.5s17.5 22.833 17.5 41.5v5c0 16.667 8.33301 25 25 25h70c16.667 0 25 -8.33301 25 -25v-11
c0 -42 -11.667 -75 -35 -99c-2 -2 -8.16699 -7.83301 -18.5 -17.5s-17.5 -17 -21.5 -22s-8.33301 -13 -13 -24s-7 -22.5 -7 -34.5c0 -20.667 12.667 -31 38 -31h26c16.667 0 25 -8 25 -24v-34c0 -16.667 -11 -25 -33 -25h-58c-24 0 -46 6.5 -66 19.5s-30 34.833 -30 65.5
c0 28 7 54.333 21 79c-2.66699 0 -7 -0.166992 -13 -0.5s-10.667 -0.5 -14 -0.5c-136.667 0 -205 49.333 -205 148v219c0 98 68.667 147 206 147c133.333 0 200 -49 200 -147zM176.998 352v-44h156v44c0 36.667 -26 55 -78 55s-78 -18.333 -78 -55z" />
    <glyph glyph-name="Ecaron" horiz-adv-x="512" 
d="M446 0h-352c-16 0 -24 8.66699 -24 26v628c0 17.333 8 26 24 26h342c16.667 0 25 -8 25 -24v-63c0 -16.667 -8.33301 -25 -25 -25h-231v-162h214c17.333 0 26 -8 26 -24v-60c0 -16 -8.66699 -24 -26 -24h-214v-186h241c16.667 0 25 -8 25 -24v-63
c0 -16.667 -8.33301 -25 -25 -25zM231 854l25.002 -46l25 46c8.66699 16 20 24 34 24h64c8.66699 0 14.167 -2.33301 16.5 -7s1.16602 -10.334 -3.50098 -17.001l-73 -99c-13.333 -16.667 -26.333 -25 -39 -25h-48c-12.667 0 -25.667 8.66699 -39 26l-73 98
c-4.66699 6.66699 -5.83398 12.334 -3.50098 17.001s7.83301 7 16.5 7h64c14 0 25.333 -8 34 -24z" />
    <glyph glyph-name="ecaron" horiz-adv-x="500" 
d="M224 684l25.002 -46l25 46c8.66699 16 20 24 34 24h64c8.66699 0 14.167 -2.33301 16.5 -7s1.16602 -10.334 -3.50098 -17.001l-73 -99c-13.333 -16.667 -26.333 -25 -39 -25h-48c-12.667 0 -25.667 8.66699 -39 26l-73 98
c-4.66699 6.66699 -5.83398 12.334 -3.50098 17.001s7.83301 7 16.5 7h64c14 0 25.333 -8 34 -24zM455.002 359l-0.00195312 -116c0 -15.333 -7.33301 -23 -22 -23h-256v-74c0 -18.667 5.83301 -32.5 17.5 -41.5s31.834 -13.5 60.501 -13.5s48.834 4.5 60.501 13.5
s17.5 22.833 17.5 41.5v5c0 16.667 8.33301 25 25 25h70c16.667 0 25 -8.33301 25 -25v-11c0 -98.667 -66.333 -148 -199 -148c-136.667 0 -205 49.333 -205 148v219c0 98 68.667 147 206 147c133.333 0 200 -49 200 -147zM177 352v-44h156v44c0 36.667 -26 55 -78 55
s-78 -18.333 -78 -55z" />
    <glyph glyph-name="Gcircumflex" horiz-adv-x="581" 
d="M290 800l-25.0029 -45c-9.33301 -16.667 -20.666 -25 -33.999 -25h-64c-8.66699 0 -14.167 2.33301 -16.5 7s-1.16602 10.667 3.50098 18l73 98c12 16.667 25 25 39 25h48c12.667 0 25.667 -8.33301 39 -25l73 -98c4.66699 -7.33301 5.83398 -13.333 3.50098 -18
s-7.83301 -7 -16.5 -7h-64c-14 0 -25.333 8.33301 -34 25zM299.997 357h204c16.667 0 25 -8 25 -24v-178c0 -47.333 -18.167 -86.333 -54.5 -117s-96.5 -46 -180.5 -46s-144.167 15.333 -180.5 46s-54.5 69.667 -54.5 117v370c0 47.333 18.167 86.333 54.5 117
s96.5 46 180.5 46s144.167 -15.333 180.5 -46s54.5 -69.667 54.5 -117v-40c0 -16.667 -7.66699 -25 -23 -25h-83c-16.667 0 -25 8.33301 -25 25v16c0 50 -34 75 -102 75c-67.333 0 -101 -25 -101 -75v-322c0 -50 33.667 -75 101 -75c68 0 102 24.667 102 74v67h-98
c-17.333 0 -26 8 -26 24v64c0 16 8.66699 24 26 24z" />
    <glyph glyph-name="gcircumflex" 
d="M270 630l-25.0029 -45c-9.33301 -16.667 -20.666 -25 -33.999 -25h-64c-8.66699 0 -14.167 2.33301 -16.5 7s-1.16602 10.667 3.50098 18l73 98c12 16.667 25 25 39 25h48c12.667 0 25.667 -8.33301 39 -25l73 -98c4.66699 -7.33301 5.83398 -13.333 3.50098 -18
s-7.83301 -7 -16.5 -7h-64c-14 0 -25.333 8.33301 -34 25zM193.997 -8c-48 0 -84.166 12.833 -108.499 38.5s-36.5 61.5 -36.5 107.5v222c0 46 12.167 81.833 36.5 107.5s60.5 38.5 108.5 38.5c59.333 0 112.666 -19.333 159.999 -58l2 25
c1.33301 9.33301 3.5 15.833 6.5 19.5s8.83301 5.5 17.5 5.5h77c16 0 24 -8.33301 24 -25v-527c0 -46 -17.833 -82 -53.5 -108s-89.167 -39 -160.5 -39h-141c-16.667 0 -25 8 -25 24v58c0 17.333 8.33301 26 25 26h141c55.333 0 83 18 83 54v84
c-48.667 -35.333 -100.667 -53 -156 -53zM179.998 340v-181c0 -16 3.83301 -28.833 11.5 -38.5s22.167 -14.5 43.5 -14.5c36.667 0 75 15.333 115 46v194c-40 30.667 -78.333 46 -115 46s-55 -17.333 -55 -52z" />
    <glyph glyph-name="Gbreve" horiz-adv-x="581" 
d="M300 357h204c16.667 0 25 -8 25 -24v-178c0 -47.333 -18.167 -86.333 -54.5 -117s-96.5 -46 -180.5 -46s-144.167 15.333 -180.5 46s-54.5 69.667 -54.5 117v370c0 47.333 18.167 86.333 54.5 117s96.5 46 180.5 46s144.167 -15.333 180.5 -46s54.5 -69.667 54.5 -117
v-40c0 -16.667 -7.66699 -25 -23 -25h-83c-16.667 0 -25 8.33301 -25 25v16c0 50 -34 75 -102 75c-67.333 0 -101 -25 -101 -75v-322c0 -50 33.667 -75 101 -75c68 0 102 24.667 102 74v67h-98c-17.333 0 -26 8 -26 24v64c0 16 8.66699 24 26 24zM245 860v-17
c0 -29.333 15 -44 45 -44s45 14.667 45 44v17c0 13.333 7.33301 20 22 20h50c14.667 0 22 -6.66699 22 -20v-14c0 -39.333 -12.167 -69.833 -36.5 -91.5s-59.5 -32.5 -105.5 -32.5c-90.667 0 -136 41.333 -136 124v14c0 13.333 7.33301 20 22 20h50
c14.667 0 22 -6.66699 22 -20z" />
    <glyph glyph-name="gbreve" 
d="M194 -8c-48 0 -84.166 12.833 -108.499 38.5s-36.5 61.5 -36.5 107.5v222c0 46 12.167 81.833 36.5 107.5s60.5 38.5 108.5 38.5c59.333 0 112.666 -19.333 159.999 -58l2 25c1.33301 9.33301 3.5 15.833 6.5 19.5s8.83301 5.5 17.5 5.5h77c16 0 24 -8.33301 24 -25v-527
c0 -46 -17.833 -82 -53.5 -108s-89.167 -39 -160.5 -39h-141c-16.667 0 -25 8 -25 24v58c0 17.333 8.33301 26 25 26h141c55.333 0 83 18 83 54v84c-48.667 -35.333 -100.667 -53 -156 -53zM180.001 340v-181c0 -16 3.83301 -28.833 11.5 -38.5s22.167 -14.5 43.5 -14.5
c36.667 0 75 15.333 115 46v194c-40 30.667 -78.333 46 -115 46s-55 -17.333 -55 -52zM221.001 685v-17c0 -29.333 15.333 -44 46 -44c30 0 45 14.667 45 44v17c0 14 7.33301 21 22 21h49c14.667 0 22 -7 22 -21v-14c0 -39.333 -12.167 -69.833 -36.5 -91.5
s-59.5 -32.5 -105.5 -32.5c-90 0 -135 41.333 -135 124v14c0 14 7.33301 21 22 21h49c14.667 0 22 -7 22 -21z" />
    <glyph glyph-name="Gdotaccent" horiz-adv-x="581" 
d="M357 835v-82c0 -8.66699 -1.83301 -14.834 -5.5 -18.501s-9.83398 -5.5 -18.501 -5.5h-85c-9.33301 0 -15.666 1.83301 -18.999 5.5s-5 9.83398 -5 18.501v82c0 16.667 8 25 24 25h85c16 0 24 -8.33301 24 -25zM300 353h204c16.667 0 25 -8 25 -24v-178
c0 -47.333 -18.167 -86.333 -54.5 -117s-96.5 -46 -180.5 -46s-144.167 15.333 -180.5 46s-54.5 69.667 -54.5 117v370c0 47.333 18.167 86.333 54.5 117s96.5 46 180.5 46s144.167 -15.333 180.5 -46s54.5 -69.667 54.5 -117v-40c0 -16.667 -7.66699 -25 -23 -25h-83
c-16.667 0 -25 8.33301 -25 25v16c0 50 -34 75 -102 75c-67.333 0 -101 -25 -101 -75v-322c0 -50 33.667 -75 101 -75c68 0 102 24.667 102 74v67h-98c-17.333 0 -26 8 -26 24v64c0 16 8.66699 24 26 24z" />
    <glyph glyph-name="gdotaccent" 
d="M194 -8c-48 0 -84.166 12.833 -108.499 38.5s-36.5 61.5 -36.5 107.5v222c0 46 12.167 81.833 36.5 107.5s60.5 38.5 108.5 38.5c59.333 0 112.666 -19.333 159.999 -58l2 25c1.33301 9.33301 3.5 15.833 6.5 19.5s8.83301 5.5 17.5 5.5h77c16 0 24 -8.33301 24 -25v-527
c0 -46 -17.833 -82 -53.5 -108s-89.167 -39 -160.5 -39h-141c-16.667 0 -25 8 -25 24v58c0 17.333 8.33301 26 25 26h141c55.333 0 83 18 83 54v84c-48.667 -35.333 -100.667 -53 -156 -53zM180.001 340v-181c0 -16 3.83301 -28.833 11.5 -38.5s22.167 -14.5 43.5 -14.5
c36.667 0 75 15.333 115 46v194c-40 30.667 -78.333 46 -115 46s-55 -17.333 -55 -52zM334.001 677v-81c0 -16.667 -7.66699 -25 -23 -25h-86c-16 0 -24 8.33301 -24 25v81c0 16.667 8 25 24 25h86c15.333 0 23 -8.33301 23 -25z" />
    <glyph glyph-name="Gcommaaccent" horiz-adv-x="581" 
d="M241 -105l-0.000976562 29.999c0 16.667 8.33301 25 25 25h61c16 0 24 -8.33301 24 -25v-38c0 -40.667 -15 -85 -45 -133c-7.33301 -12 -18.333 -16.333 -33 -13l-46 11c-16.667 4 -21 15 -13 33c0.666992 2 3.16699 7.66699 7.5 17s6.83301 14.833 7.5 16.5
s2.33398 6.16699 5.00098 13.5s4.16699 13.333 4.5 18s0.833008 10.834 1.5 18.501s1 16.5 1 26.5zM299.999 356.999h204c16.667 0 25 -8 25 -24v-178c0 -47.333 -18.167 -86.333 -54.5 -117s-96.5 -46 -180.5 -46s-144.167 15.333 -180.5 46s-54.5 69.667 -54.5 117v370
c0 47.333 18.167 86.333 54.5 117s96.5 46 180.5 46s144.167 -15.333 180.5 -46s54.5 -69.667 54.5 -117v-40c0 -16.667 -7.66699 -25 -23 -25h-83c-16.667 0 -25 8.33301 -25 25v16c0 50 -34 75 -102 75c-67.333 0 -101 -25 -101 -75v-322c0 -50 33.667 -75 101 -75
c68 0 102 24.667 102 74v67h-98c-17.333 0 -26 8 -26 24v64c0 16 8.66699 24 26 24z" />
    <glyph glyph-name="gcommaaccent" 
d="M307 623l0.000976562 -29.999c0 -16.667 -8.33301 -25 -25 -25h-61c-16 0 -24 8.33301 -24 25v38c0 40.667 15 85 45 133c7.33301 12 18.333 16.333 33 13l46 -11c16.667 -4 21 -15 13 -33c-0.666992 -2 -3.16699 -7.66699 -7.5 -17s-6.83301 -14.833 -7.5 -16.5
s-2.33398 -6.16699 -5.00098 -13.5s-4.16699 -13.333 -4.5 -18s-0.833008 -10.834 -1.5 -18.501s-1 -16.5 -1 -26.5zM194.001 -7.99902c-48 0 -84.166 12.833 -108.499 38.5s-36.5 61.5 -36.5 107.5v222c0 46 12.167 81.833 36.5 107.5s60.5 38.5 108.5 38.5
c59.333 0 112.666 -19.333 159.999 -58l2 25c1.33301 9.33301 3.5 15.833 6.5 19.5s8.83301 5.5 17.5 5.5h77c16 0 24 -8.33301 24 -25v-527c0 -46 -17.833 -82 -53.5 -108s-89.167 -39 -160.5 -39h-141c-16.667 0 -25 8 -25 24v58c0 17.333 8.33301 26 25 26h141
c55.333 0 83 18 83 54v84c-48.667 -35.333 -100.667 -53 -156 -53zM180.002 340.001v-181c0 -16 3.83301 -28.833 11.5 -38.5s22.167 -14.5 43.5 -14.5c36.667 0 75 15.333 115 46v194c-40 30.667 -78.333 46 -115 46s-55 -17.333 -55 -52z" />
    <glyph glyph-name="Hcircumflex" horiz-adv-x="625" 
d="M205 654v-249h216v249c0 17.333 8 26 24 26h87c16 0 24 -8.66699 24 -26v-628c0 -17.333 -8 -26 -24 -26h-87c-16 0 -24 8.66699 -24 26v267h-216v-267c0 -17.333 -8 -26 -24 -26h-87c-16 0 -24 8.66699 -24 26v628c0 17.333 8 26 24 26h87c16 0 24 -8.66699 24 -26z
M312 800l-25.0029 -45c-9.33301 -16.667 -20.666 -25 -33.999 -25h-64c-8.66699 0 -14.167 2.33301 -16.5 7s-1.16602 10.667 3.50098 18l73 98c12 16.667 25 25 39 25h48c12.667 0 25.667 -8.33301 39 -25l73 -98c4.66699 -7.33301 5.83398 -13.333 3.50098 -18
s-7.83301 -7 -16.5 -7h-64c-14 0 -25.333 8.33301 -34 25z" />
    <glyph glyph-name="hcircumflex" horiz-adv-x="546" 
d="M190 673l0.000976562 -219c46 34.667 98.333 52 157 52c45.333 0 80.833 -12.333 106.5 -37s38.5 -57 38.5 -97v-346c0 -17.333 -8.33301 -26 -25 -26h-81c-17.333 0 -26 8.66699 -26 26v313c0 18.667 -3.83301 32.167 -11.5 40.5s-21.834 12.5 -42.501 12.5
c-38 0 -76.667 -15 -116 -45v-321c0 -17.333 -7.66699 -26 -23 -26h-83c-16.667 0 -25 8.66699 -25 26v647c0 17.333 8.33301 26 25 26h83c15.333 0 23 -8.66699 23 -26zM125.001 800l-25.0029 -45c-9.33301 -16.667 -20.666 -25 -33.999 -25h-64
c-8.66699 0 -14.167 2.33301 -16.5 7s-1.16602 10.667 3.50098 18l73 98c12 16.667 25 25 39 25h48c12.667 0 25.667 -8.33301 39 -25l73 -98c4.66699 -7.33301 5.83398 -13.333 3.50098 -18s-7.83301 -7 -16.5 -7h-64c-14 0 -25.333 8.33301 -34 25z" />
    <glyph glyph-name="Hbar" horiz-adv-x="625" 
d="M205 654v-88h216v88c0 17.333 8 26 24 26h87c16 0 24 -8.66699 24 -26v-88h31c16.667 0 25 -8 25 -24v-43c0 -16 -8.33301 -24 -25 -24h-31v-449c0 -17.333 -8 -26 -24 -26h-87c-16 0 -24 8.66699 -24 26v267h-216v-267c0 -17.333 -8 -26 -24 -26h-87
c-16 0 -24 8.66699 -24 26v449h-32c-16.667 0 -25 8 -25 24v43c0 16 8.33301 24 25 24h32v88c0 17.333 8 26 24 26h87c16 0 24 -8.66699 24 -26zM205 405h216v70h-216v-70z" />
    <glyph glyph-name="hbar" horiz-adv-x="546" 
d="M190 673l0.000976562 -41h91c16.667 0 25 -8 25 -24v-43c0 -16 -8.33301 -24 -25 -24h-91v-87c46 34.667 98.333 52 157 52c45.333 0 80.833 -12.333 106.5 -37s38.5 -57 38.5 -97v-346c0 -17.333 -8.33301 -26 -25 -26h-81c-17.333 0 -26 8.66699 -26 26v313
c0 18.667 -3.83301 32.167 -11.5 40.5s-21.834 12.5 -42.501 12.5c-38 0 -76.667 -15 -116 -45v-321c0 -17.333 -7.66699 -26 -23 -26h-83c-16.667 0 -25 8.66699 -25 26v515h-29c-16.667 0 -25 8 -25 24v43c0 16 8.33301 24 25 24h29v41c0 17.333 8.33301 26 25 26h83
c15.333 0 23 -8.66699 23 -26z" />
    <glyph glyph-name="Itilde" horiz-adv-x="274" 
d="M205 654v-628c0 -17.333 -8 -26 -24 -26h-87c-16 0 -24 8.66699 -24 26v628c0 17.333 8 26 24 26h87c16 0 24 -8.66699 24 -26zM77 786c-12.667 0 -18.999 -8.33398 -18.999 -25.001v-5c0 -14.667 -9 -22 -27 -22h-43c-16 0 -23 9.66699 -21 29l4 41
c2.66699 24.667 12.167 43.834 28.5 57.501s36.166 20.5 59.499 20.5c20 0 39.333 -4.33301 58 -13l43 -21c20 -10 32.333 -15 37 -15c6 0 10.333 1.66699 13 5s4.66699 9.66602 6 18.999l1 6c2.66699 14.667 11.667 22 27 22h43c15.333 0 22.333 -9.66699 21 -29l-3 -39
c-2 -25.333 -10.833 -44.666 -26.5 -57.999s-34.5 -20 -56.5 -20s-43.333 4.33301 -64 13l-43 19c-21.333 10 -34 15 -38 15z" />
    <glyph glyph-name="itilde" horiz-adv-x="250" 
d="M190 473v-448c0 -16.667 -7.66699 -25 -23 -25h-83c-16.667 -0 -25 8.33301 -25 25v448c0 16.667 8.33301 25 25 25h83c15.333 0 23 -8.33301 23 -25zM65 607c-6 0 -10.332 -1.66895 -12.999 -5.00195s-4.66699 -9.66602 -6 -18.999l-1 -6
c-2.66699 -14.667 -11.334 -22 -26.001 -22h-44c-15.333 0 -22 9.66699 -20 29l4 42c2.66699 24.667 12 43.667 28 57s35.667 20 59 20c22 0 41.667 -4.33301 59 -13l42 -20c21.333 -10 34 -15 38 -15c12.667 0 19 8 19 24v5c0 14.667 9 22 27 22h43
c15.333 0 22.333 -9.66699 21 -29l-3 -39c-2 -25.333 -10.667 -44.666 -26 -57.999s-34 -20 -56 -20c-23.333 0 -44.666 4.33301 -63.999 13l-43 19c-22.667 10 -35.334 15 -38.001 15z" />
    <glyph glyph-name="Imacron" horiz-adv-x="274" 
d="M205 654v-628c0 -17.333 -8 -26 -24 -26h-87c-16 0 -24 8.66699 -24 26v628c0 17.333 8 26 24 26h87c16 0 24 -8.66699 24 -26zM22 849h231c16.667 0 25 -7.66699 25 -23v-51c0 -16.667 -8.33301 -25 -25 -25h-231c-16.667 0 -25 8.33301 -25 25v51
c0 15.333 8.33301 23 25 23z" />
    <glyph glyph-name="imacron" horiz-adv-x="250" 
d="M190 473v-448c0 -16.667 -7.66699 -25 -23 -25h-83c-16.667 -0 -25 8.33301 -25 25v448c0 16.667 8.33301 25 25 25h83c15.333 0 23 -8.33301 23 -25zM10 671h230c16.667 0 25 -8 25 -24v-51c0 -16 -8.33301 -24 -25 -24h-230c-17.333 0 -26 8 -26 24v51
c0 16 8.66699 24 26 24z" />
    <glyph glyph-name="Ibreve" horiz-adv-x="274" 
d="M205 654v-628c0 -17.333 -8 -26 -24 -26h-87c-16 0 -24 8.66699 -24 26v628c0 17.333 8 26 24 26h87c16 0 24 -8.66699 24 -26zM92 860v-17c0 -29.333 15 -44 45 -44s45 14.667 45 44v17c0 13.333 7.33301 20 22 20h50c14.667 0 22 -6.66699 22 -20v-14
c0 -39.333 -12.167 -69.833 -36.5 -91.5s-59.5 -32.5 -105.5 -32.5c-90.667 0 -136 41.333 -136 124v14c0 13.333 7.33301 20 22 20h50c14.667 0 22 -6.66699 22 -20z" />
    <glyph glyph-name="ibreve" horiz-adv-x="250" 
d="M190 473v-448c0 -16.667 -7.66699 -25 -23 -25h-83c-16.667 -0 -25 8.33301 -25 25v448c0 16.667 8.33301 25 25 25h83c15.333 0 23 -8.33301 23 -25zM79 685v-17c0 -29.333 15.333 -44 46 -44c30 0 45 14.667 45 44v17c0 14 7.33301 21 22 21h49c14.667 0 22 -7 22 -21
v-14c0 -39.333 -12.167 -69.833 -36.5 -91.5s-59.5 -32.5 -105.5 -32.5c-90 0 -135 41.333 -135 124v14c0 14 7.33301 21 22 21h49c14.667 0 22 -7 22 -21z" />
    <glyph glyph-name="Iogonek" horiz-adv-x="274" 
d="M205 654l-0.000976562 -627.999c0 -17.333 -8 -26 -24 -26h-27c-14 0 -24.667 -5.33301 -32 -16s-11 -24 -11 -40c0 -21.333 12.667 -32 38 -32h25c16.667 0 25 -8 25 -24v-34c0 -16.667 -11 -25 -33 -25h-55c-25.333 0 -48.166 6.66699 -68.499 20
s-30.5 35.666 -30.5 66.999c0 46 19.333 85.667 58 119v619c0 17.333 8 26 24 26h87c16 0 24 -8.66699 24 -26z" />
    <glyph glyph-name="iogonek" horiz-adv-x="250" 
d="M156 -171l-56.001 0.00195312c-25.333 0 -48.166 6.66699 -68.499 20s-30.5 35.666 -30.5 66.999c0 46 19.333 85.667 58 119v438c0 16.667 8.33301 25 25 25h83c15.333 0 23 -8.33301 23 -25v-447c0 -17.333 -7.66699 -26 -23 -26h-21
c-30.667 -0.666992 -46 -19.334 -46 -56.001c0 -21.333 13 -32 39 -32h25c16.667 0 25 -8 25 -24v-34c0 -16.667 -11 -25 -33 -25zM189.999 673.002v-86c0 -16 -7.66699 -24 -23 -24h-83c-16.667 0 -25 8 -25 24v86c0 17.333 8.33301 26 25 26h83
c15.333 0 23 -8.66699 23 -26z" />
    <glyph glyph-name="Idotaccent" horiz-adv-x="274" 
d="M205 654v-628c0 -17.333 -8 -26 -24 -26h-87c-16 0 -24 8.66699 -24 26v628c0 17.333 8 26 24 26h87c16 0 24 -8.66699 24 -26zM204 839v-82c0 -8.66699 -1.66699 -14.834 -5 -18.501s-9.66602 -5.5 -18.999 -5.5h-85c-8.66699 0 -14.834 1.83301 -18.501 5.5
s-5.5 9.83398 -5.5 18.501v82c0 16.667 8 25 24 25h85c16 0 24 -8.33301 24 -25z" />
    <glyph glyph-name="dotlessi" horiz-adv-x="250" 
d="M190 473v-448c0 -16.667 -7.66699 -25 -23 -25h-83c-16.667 -0 -25 8.33301 -25 25v448c0 16.667 8.33301 25 25 25h83c15.333 0 23 -8.33301 23 -25z" />
    <glyph glyph-name="IJ" horiz-adv-x="789" 
d="M205 654v-628c0 -17.333 -8 -26 -24 -26h-87c-16 0 -24 8.66699 -24 26v628c0 17.333 8 26 24 26h87c16 0 24 -8.66699 24 -26zM423 215v-36c0 -50 28.667 -75 86 -75c28.667 0 49.167 6 61.5 18s18.5 31 18.5 57v475c0 17.333 8 26 24 26h87c16 0 24 -8.66699 24 -26
v-499c0 -108.667 -71.667 -163 -215 -163c-78 0 -134 15.333 -168 46s-51 69.667 -51 117v60c0 16.667 8.33301 25 25 25h84c16 0 24 -8.33301 24 -25z" />
    <glyph glyph-name="ij" horiz-adv-x="499" 
d="M190 473v-447c0 -17.333 -7.66699 -26 -23 -26h-83c-16.667 0 -25 8.66699 -25 26v447c0 16.667 8.33301 25 25 25h83c15.333 0 23 -8.33301 23 -25zM190 673v-86c0 -16 -7.66699 -24 -23 -24h-83c-16.667 0 -25 8 -25 24v86c0 17.333 8.33301 26 25 26h83
c15.333 0 23 -8.66699 23 -26zM439 673v-86c0 -16 -7.66699 -24 -23 -24h-84c-16 0 -24 8 -24 24v86c0 17.333 8 26 24 26h84c15.333 0 23 -8.66699 23 -26zM439 473v-527c0 -46 -17.833 -82 -53.5 -108s-89.167 -39 -160.5 -39h-9c-16.667 0 -25 8 -25 24v58
c0 17.333 8.33301 26 25 26h9c55.333 0 83 18 83 54v512c0 16.667 8 25 24 25h83c16 0 24 -8.33301 24 -25z" />
    <glyph glyph-name="Jcircumflex" horiz-adv-x="515" 
d="M149 215v-36c0 -50 28.667 -75 86 -75c28.667 0 49.167 6 61.5 18s18.5 31 18.5 57v475c0 17.333 8 26 24 26h87c16 0 24 -8.66699 24 -26v-499c0 -108.667 -71.667 -163 -215 -163c-78 0 -134 15.333 -168 46s-51 69.667 -51 117v60c0 16.667 8.33301 25 25 25h84
c16 0 24 -8.33301 24 -25zM377 800l-25.0029 -45c-9.33301 -16.667 -20.666 -25 -33.999 -25h-64c-8.66699 0 -14.167 2.33301 -16.5 7s-1.16602 10.667 3.50098 18l73 98c12 16.667 25 25 39 25h48c12.667 0 25.667 -8.33301 39 -25l73 -98
c4.66699 -7.33301 5.83398 -13.333 3.50098 -18s-7.83301 -7 -16.5 -7h-64c-14 0 -25.333 8.33301 -34 25z" />
    <glyph glyph-name="jcircumflex" horiz-adv-x="250" 
d="M190 473v-527c0 -46 -17.833 -82 -53.5 -108s-89.167 -39 -160.5 -39h-9c-16.667 0 -25 8 -25 24v57c0 17.333 8.33301 26 25 26h9c55.333 0 83 18 83 54v513c0 16.667 8 25 24 25h83c16 0 24 -8.33301 24 -25zM125 630l-25.0029 -45
c-9.33301 -16.667 -20.666 -25 -33.999 -25h-64c-8.66699 0 -14.167 2.33301 -16.5 7s-1.16602 10.667 3.50098 18l73 98c12 16.667 25 25 39 25h48c12.667 0 25.667 -8.33301 39 -25l73 -98c4.66699 -7.33301 5.83398 -13.333 3.50098 -18s-7.83301 -7 -16.5 -7h-64
c-14 0 -25.333 8.33301 -34 25z" />
    <glyph glyph-name="Kcommaaccent" horiz-adv-x="584" 
d="M237 -105l-0.000976562 29.999c0 16.667 8.33301 25 25 25h61c16 0 24 -8.33301 24 -25v-38c0 -40.667 -15 -85 -45 -133c-7.33301 -12 -18.333 -16.333 -33 -13l-46 11c-16.667 4 -21 15 -13 33c0.666992 2 3.16699 7.66699 7.5 17s6.83301 14.833 7.5 16.5
s2.33398 6.16699 5.00098 13.5s4.16699 13.333 4.5 18s0.833008 10.834 1.5 18.501s1 16.5 1 26.5zM334.999 345.999l234.999 -321c4.66699 -6 5.83398 -11.667 3.50098 -17s-7.83301 -8 -16.5 -8h-111c-11.333 0 -23.333 8.33301 -36 25l-188 262h-17v-262
c0 -16.667 -8 -25 -24 -25h-87c-16 0 -24 8.33301 -24 25v630c0 16.667 8 25 24 25h87c16 0 24 -8.33301 24 -25v-269h16l178 269c10.667 16.667 24 25 40 25h93c8.66699 0 14 -2.5 16 -7.5s0.666992 -10.833 -4 -17.5z" />
    <glyph glyph-name="kcommaaccent" horiz-adv-x="495" 
d="M205 -105l-0.000976562 29.999c0 16.667 8.33301 25 25 25h61c16 0 24 -8.33301 24 -25v-38c0 -40.667 -15 -85 -45 -133c-7.33301 -12 -18.333 -16.333 -33 -13l-46 11c-16.667 4 -21 15 -13 33c0.666992 2 3.16699 7.66699 7.5 17s6.83301 14.833 7.5 16.5
s2.33398 6.16699 5.00098 13.5s4.16699 13.333 4.5 18s0.833008 10.834 1.5 18.501s1 16.5 1 26.5zM315.999 282.999l175 -258c4.66699 -6 5.83398 -11.667 3.50098 -17s-7.5 -8 -15.5 -8h-91c-12.667 0 -24.667 8.33301 -36 25l-140 204h-22v-204
c0 -16.667 -7.66699 -25 -23 -25h-83c-16.667 0 -25 8.33301 -25 25v649c0 16.667 8.33301 25 25 25h83c15.333 0 23 -8.33301 23 -25v-346h22l124 145c15.333 16.667 28.666 25 39.999 25h90c8.66699 0 14.167 -2.66699 16.5 -8s0.833008 -11 -4.5 -17z" />
    <glyph glyph-name="kgreenlandic" horiz-adv-x="495" 
d="M316 282l174.999 -257c4.66699 -6 5.83398 -11.667 3.50098 -17s-7.5 -8 -15.5 -8h-91c-12.667 -0 -24.667 8.33301 -36 25l-140 203h-22v-203c0 -16.667 -7.66699 -25 -23 -25h-83c-16.667 -0 -25 8.33301 -25 25v448c0 16.667 8.33301 25 25 25h83
c15.333 0 23 -8.33301 23 -25v-146h22l124 146c14 16.667 27.333 25 40 25h90c8.66699 0 14.167 -2.66699 16.5 -8s0.833008 -11 -4.5 -17z" />
    <glyph glyph-name="Lacute" horiz-adv-x="477" 
d="M269 853l-73.0029 -106c-8 -11.333 -18.667 -17 -32 -17h-65c-17.333 0 -21.666 8.33301 -12.999 25l49 98c8 16.667 19.333 25 34 25h87c8.66699 0 14.334 -2.33301 17.001 -7s1.33398 -10.667 -3.99902 -18zM204.997 654v-542h223c16.667 0 25 -8 25 -24v-63
c0 -16.667 -8.33301 -25 -25 -25h-337c-14 0 -21 8.66699 -21 26v628c0 17.333 8 26 24 26h87c16 0 24 -8.66699 24 -26z" />
    <glyph glyph-name="lacute" horiz-adv-x="250" 
d="M259 853l-73.0029 -106c-8 -11.333 -18.667 -17 -32 -17h-65c-17.333 0 -21.666 8.33301 -12.999 25l49 98c8 16.667 19.333 25 34 25h87c8.66699 0 14.334 -2.33301 17.001 -7s1.33398 -10.667 -3.99902 -18zM189.997 673v-647c0 -17.333 -7.66699 -26 -23 -26h-83
c-16.667 0 -25 8.66699 -25 26v647c0 17.333 8.33301 26 25 26h83c15.333 0 23 -8.66699 23 -26z" />
    <glyph glyph-name="Lcommaaccent" horiz-adv-x="477" 
d="M191 -105l-0.000976562 29.999c0 16.667 8.33301 25 25 25h61c16 0 24 -8.33301 24 -25v-38c0 -40.667 -15 -85 -45 -133c-7.33301 -12 -18.333 -16.333 -33 -13l-46 11c-16.667 4 -21 15 -13 33c0.666992 2 3.16699 7.66699 7.5 17s6.83301 14.833 7.5 16.5
s2.33398 6.16699 5.00098 13.5s4.16699 13.333 4.5 18s0.833008 10.834 1.5 18.501s1 16.5 1 26.5zM204.999 653.999v-542h223c16.667 0 25 -8 25 -24v-63c0 -16.667 -8.33301 -25 -25 -25h-337c-14 0 -21 8.66699 -21 26v628c0 17.333 8 26 24 26h87
c16 0 24 -8.66699 24 -26z" />
    <glyph glyph-name="lcommaaccent" horiz-adv-x="250" 
d="M70 -106l-0.000976562 29.999c0 16.667 8.33301 25 25 25h61c16 0 24 -8.33301 24 -25v-38c0 -40.667 -15 -85 -45 -133c-7.33301 -12 -18.333 -16.333 -33 -13l-46 11c-16.667 4 -21 15 -13 33c0.666992 2 3.16699 7.66699 7.5 17s6.83301 14.833 7.5 16.5
s2.33398 6.16699 5.00098 13.5s4.16699 13.333 4.5 18s0.833008 10.834 1.5 18.501s1 16.5 1 26.5zM189.999 672.999v-647c0 -17.333 -7.66699 -26 -23 -26h-83c-16.667 0 -25 8.66699 -25 26v647c0 17.333 8.33301 26 25 26h83c15.333 0 23 -8.66699 23 -26z" />
    <glyph glyph-name="Lcaron" horiz-adv-x="477" 
d="M320 683l-0.000976562 29.999c0 16.667 8.33301 25 25 25h61c16 0 24 -8.33301 24 -25v-38c0 -40.667 -15 -85 -45 -133c-7.33301 -12 -18.333 -16.333 -33 -13l-46 11c-16.667 4 -21 15 -13 33c0.666992 2 3.16699 7.66699 7.5 17s6.83301 14.833 7.5 16.5
s2.33398 6.16699 5.00098 13.5s4.16699 13.333 4.5 18s0.833008 10.834 1.5 18.501s1 16.5 1 26.5zM204.999 653.999v-542h223c16.667 0 25 -8 25 -24v-63c0 -16.667 -8.33301 -25 -25 -25h-337c-14 0 -21 8.66699 -21 26v628c0 17.333 8 26 24 26h87
c16 0 24 -8.66699 24 -26z" />
    <glyph glyph-name="lcaron" horiz-adv-x="353" 
d="M257 686l-0.000976562 29.999c0 16.667 8.33301 25 25 25h61c16 0 24 -8.33301 24 -25v-38c0 -40.667 -15 -85 -45 -133c-7.33301 -12 -18.333 -16.333 -33 -13l-46 11c-16.667 4 -21 15 -13 33c0.666992 2 3.16699 7.66699 7.5 17s6.83301 14.833 7.5 16.5
s2.33398 6.16699 5.00098 13.5s4.16699 13.333 4.5 18s0.833008 10.834 1.5 18.501s1 16.5 1 26.5zM189.999 672.999v-647c0 -17.333 -7.66699 -26 -23 -26h-83c-16.667 0 -25 8.66699 -25 26v647c0 17.333 8.33301 26 25 26h83c15.333 0 23 -8.66699 23 -26z" />
    <glyph glyph-name="Ldot" horiz-adv-x="477" 
d="M205 654v-542h223c16.667 0 25 -8 25 -24v-63c0 -16.667 -8.33301 -25 -25 -25h-337c-14 0 -21 8.66699 -21 26v628c0 17.333 8 26 24 26h87c16 0 24 -8.66699 24 -26zM437 393v-81c0 -16.667 -8 -25 -24 -25h-85c-16.667 0 -25 8.33301 -25 25v81
c0 16.667 8.33301 25 25 25h85c16 0 24 -8.33301 24 -25z" />
    <glyph glyph-name="ldot" horiz-adv-x="382" 
d="M190 673v-647c0 -17.333 -7.66699 -26 -23 -26h-83c-16.667 0 -25 8.66699 -25 26v647c0 17.333 8.33301 26 25 26h83c15.333 0 23 -8.66699 23 -26zM377 393v-81c0 -16.667 -8 -25 -24 -25h-85c-16.667 0 -25 8.33301 -25 25v81c0 16.667 8.33301 25 25 25h85
c16 0 24 -8.33301 24 -25z" />
    <glyph glyph-name="Lslash" horiz-adv-x="477" 
d="M205 654v-240.999l40 16c15.333 6.66699 26.333 2 33 -14l12 -28c6 -14 1.33301 -24.333 -14 -31l-71 -29v-215h223c16.667 0 25 -8 25 -24v-63c0 -16.667 -8.33301 -25 -25 -25h-337c-14 0 -21 8.66699 -21 26v247l-27 -11c-15.333 -5.33301 -26 -1 -32 13l-12 29
c-6 15.333 -1.33301 25.666 14 30.999l57 23v296c0 17.333 8 26 24 26h87c16 0 24 -8.66699 24 -26z" />
    <glyph glyph-name="lslash" horiz-adv-x="280" 
d="M204 673l-0.000976562 -259.001l37 15c14.667 6 25.334 1.33301 32.001 -14l13 -28c6 -13.333 1 -23.666 -15 -30.999l-67 -27v-303c0 -17.333 -7.66699 -26 -23 -26h-83c-16.667 0 -25 8.66699 -25 26v250l-35 -14c-14.667 -6 -25.334 -1.66699 -32.001 13l-12 29
c-5.33301 14.667 -0.666016 25 14.001 31l65 26v312c0 17.333 8.33301 26 25 26h83c15.333 0 23 -8.66699 23 -26z" />
    <glyph glyph-name="Nacute" horiz-adv-x="625" 
d="M556 655l0.000976562 -630.001c0 -16.667 -8 -25 -24 -25h-79c-10.667 0 -18.334 4 -23.001 12l-193 331c-22.667 36.667 -36 63.334 -40 80.001v-398c0 -16.667 -8 -25 -24 -25h-79c-16 -0 -24 8.33301 -24 25v630c0 16.667 8 25 24 25h79c10 0 17 -3.33301 21 -10
l201 -345l11.5 -22.5l11 -21.5c3 -6 5.66699 -11.667 8 -17s3.5 -8.33301 3.5 -9v400c0 16.667 8 25 24 25h79c16 0 24 -8.33301 24 -25zM448.001 852.999l-73.0029 -106c-8 -11.333 -18.667 -17 -32 -17h-65c-17.333 0 -21.666 8.33301 -12.999 25l49 98
c8 16.667 19.333 25 34 25h87c8.66699 0 14.334 -2.33301 17.001 -7s1.33398 -10.667 -3.99902 -18z" />
    <glyph glyph-name="nacute" horiz-adv-x="546" 
d="M405 683l-72 -106c-8 -11.333 -18.667 -17 -32 -17h-65c-16 0 -20.333 8.33301 -13 25l48 98c8 16.667 19.667 25 35 25h87c8.66699 0 14.167 -2.33301 16.5 -7s0.833008 -10.667 -4.5 -18zM84 498l77.002 0.000976562c8.66699 0 14.667 -1.83301 18 -5.5
s5.33301 -9.83398 6 -18.501l2 -24c45.333 37.333 98.666 56 159.999 56c45.333 0 80.833 -12.333 106.5 -37s38.5 -57 38.5 -97v-346c0 -17.333 -8.33301 -26 -25 -26h-81c-17.333 0 -26 8.66699 -26 26v313c0 18.667 -3.83301 32.167 -11.5 40.5
s-21.834 12.5 -42.501 12.5c-38 0 -76.667 -15 -116 -45v-321c0 -17.333 -7.66699 -26 -23 -26h-83c-16.667 0 -25 8.66699 -25 26v448c0 16 8.33301 24 25 24z" />
    <glyph glyph-name="Ncommaaccent" horiz-adv-x="625" 
d="M556 655l0.000976562 -630.001c0 -16.667 -8 -25 -24 -25h-79c-10.667 0 -18.334 4 -23.001 12l-193 331c-22.667 36.667 -36 63.334 -40 80.001v-398c0 -16.667 -8 -25 -24 -25h-79c-16 -0 -24 8.33301 -24 25v630c0 16.667 8 25 24 25h79c10 0 17 -3.33301 21 -10
l201 -345l11.5 -22.5l11 -21.5c3 -6 5.66699 -11.667 8 -17s3.5 -8.33301 3.5 -9v400c0 16.667 8 25 24 25h79c16 0 24 -8.33301 24 -25zM265.001 -106.001l-0.000976562 29.999c0 16.667 8.33301 25 25 25h61c16 0 24 -8.33301 24 -25v-38c0 -40.667 -15 -85 -45 -133
c-7.33301 -12 -18.333 -16.333 -33 -13l-46 11c-16.667 4 -21 15 -13 33c0.666992 2 3.16699 7.66699 7.5 17s6.83301 14.833 7.5 16.5s2.33398 6.16699 5.00098 13.5s4.16699 13.333 4.5 18s0.833008 10.834 1.5 18.501s1 16.5 1 26.5z" />
    <glyph glyph-name="ncommaaccent" horiz-adv-x="546" 
d="M220 -105l-0.000976562 29.999c0 16.667 8.33301 25 25 25h61c16 0 24 -8.33301 24 -25v-38c0 -40.667 -15 -85 -45 -133c-7.33301 -12 -18.333 -16.333 -33 -13l-46 11c-16.667 4 -21 15 -13 33c0.666992 2 3.16699 7.66699 7.5 17s6.83301 14.833 7.5 16.5
s2.33398 6.16699 5.00098 13.5s4.16699 13.333 4.5 18s0.833008 10.834 1.5 18.501s1 16.5 1 26.5zM83.999 497.999l77.002 0.000976562c8.66699 0 14.667 -1.83301 18 -5.5s5.33301 -9.83398 6 -18.501l2 -24c45.333 37.333 98.666 56 159.999 56
c45.333 0 80.833 -12.333 106.5 -37s38.5 -57 38.5 -97v-346c0 -17.333 -8.33301 -26 -25 -26h-81c-17.333 0 -26 8.66699 -26 26v313c0 18.667 -3.83301 32.167 -11.5 40.5s-21.834 12.5 -42.501 12.5c-38 0 -76.667 -15 -116 -45v-321c0 -17.333 -7.66699 -26 -23 -26h-83
c-16.667 0 -25 8.66699 -25 26v448c0 16 8.33301 24 25 24z" />
    <glyph glyph-name="Ncaron" horiz-adv-x="625" 
d="M556 655l0.000976562 -630.001c0 -16.667 -8 -25 -24 -25h-79c-10.667 0 -18.334 4 -23.001 12l-193 331c-22.667 36.667 -36 63.334 -40 80.001v-398c0 -16.667 -8 -25 -24 -25h-79c-16 -0 -24 8.33301 -24 25v630c0 16.667 8 25 24 25h79c10 0 17 -3.33301 21 -10
l201 -345l34 -70v400c0 16.667 8 25 24 25h79c16 0 24 -8.33301 24 -25zM287.001 853.999l25.002 -46l25 46c8.66699 16 20 24 34 24h64c8.66699 0 14.167 -2.33301 16.5 -7s1.16602 -10.334 -3.50098 -17.001l-73 -99c-13.333 -16.667 -26.333 -25 -39 -25h-48
c-12.667 0 -25.667 8.66699 -39 26l-73 98c-4.66699 6.66699 -5.83398 12.334 -3.50098 17.001s7.83301 7 16.5 7h64c14 0 25.333 -8 34 -24z" />
    <glyph glyph-name="ncaron" horiz-adv-x="546" 
d="M247 684l25.002 -46l25 46c8.66699 16 20 24 34 24h64c8.66699 0 14.167 -2.33301 16.5 -7s1.16602 -10.334 -3.50098 -17.001l-73 -99c-13.333 -16.667 -26.333 -25 -39 -25h-48c-12.667 0 -25.667 8.66699 -39 26l-73 98
c-4.66699 6.66699 -5.83398 12.334 -3.50098 17.001s7.83301 7 16.5 7h64c14 0 25.333 -8 34 -24zM84.002 498l77.002 0.000976562c8.66699 0 14.667 -1.83301 18 -5.5s5.33301 -9.83398 6 -18.501l2 -24c45.333 37.333 98.666 56 159.999 56
c45.333 0 80.833 -12.333 106.5 -37s38.5 -57 38.5 -97v-346c0 -17.333 -8.33301 -26 -25 -26h-81c-17.333 0 -26 8.66699 -26 26v313c0 18.667 -3.83301 32.167 -11.5 40.5s-21.834 12.5 -42.501 12.5c-38 0 -76.667 -15 -116 -45v-321c0 -17.333 -7.66699 -26 -23 -26h-83
c-16.667 0 -25 8.66699 -25 26v448c0 16 8.33301 24 25 24z" />
    <glyph glyph-name="napostrophe" horiz-adv-x="546" 
d="M52 686l-0.000976562 29.999c0 16.667 8.33301 25 25 25h61c16 0 24 -8.33301 24 -25v-38c0 -40.667 -15 -85 -45 -133c-7.33301 -12 -18.333 -16.333 -33 -13l-46 11c-16.667 4 -21 15 -13 33c0.666992 2 3.16699 7.66699 7.5 17s6.83301 14.833 7.5 16.5
s2.33398 6.16699 5.00098 13.5s4.16699 13.333 4.5 18s0.833008 10.834 1.5 18.501s1 16.5 1 26.5zM83.999 497.999l77.002 0.000976562c8.66699 0 14.667 -1.83301 18 -5.5s5.33301 -9.83398 6 -18.501l2 -24c45.333 37.333 98.666 56 159.999 56
c45.333 0 80.833 -12.333 106.5 -37s38.5 -57 38.5 -97v-346c0 -17.333 -8.33301 -26 -25 -26h-81c-17.333 0 -26 8.66699 -26 26v313c0 18.667 -3.83301 32.167 -11.5 40.5s-21.834 12.5 -42.501 12.5c-38 0 -76.667 -15 -116 -45v-321c0 -17.333 -7.66699 -26 -23 -26h-83
c-16.667 0 -25 8.66699 -25 26v448c0 16 8.33301 24 25 24z" />
    <glyph glyph-name="Eng" horiz-adv-x="625" 
d="M556 655v-709c0 -46 -17.333 -82 -52 -108s-87.667 -39 -159 -39h-9c-16.667 0 -25 8 -25 24v57c0 17.333 8.33301 26 25 26h9c56 0 84 18 84 54v54l-192 329c-22.667 37.333 -36 64.333 -40 81v-399c0 -16.667 -8 -25 -24 -25h-79c-16 -0 -24 8.33301 -24 25v630
c0 16.667 8 25 24 25h79c10 0 17 -3.33301 21 -10l201 -345l34 -70v400c0 16.667 8 25 24 25h79c16 0 24 -8.33301 24 -25z" />
    <glyph glyph-name="eng" horiz-adv-x="546" 
d="M84 498h77.001c15.333 0 23.333 -8 24 -24l2 -24c45.333 37.333 98.666 56 159.999 56c45.333 0 80.833 -12.333 106.5 -37s38.5 -57 38.5 -97v-426c0 -46 -18 -82 -54 -108s-89.667 -39 -161 -39h-9c-16.667 0 -25 8 -25 24v57c0 17.333 8.33301 26 25 26h9
c55.333 0 83 18 83 54v380c0 18.667 -4 32.167 -12 40.5s-22 12.5 -42 12.5c-38 0 -76.667 -15 -116 -45v-323c0 -16.667 -7.66699 -25 -23 -25h-83c-16.667 -0 -25 8.33301 -25 25v449c0 16 8.33301 24 25 24z" />
    <glyph glyph-name="Omacron" horiz-adv-x="605" 
d="M59 155v370c0 46.667 19.5 85.5 58.5 116.5s100.5 46.5 184.5 46.5s145.5 -15.5 184.5 -46.5s58.5 -69.833 58.5 -116.5v-370c0 -46.667 -19.5 -85.5 -58.5 -116.5s-100.5 -46.5 -184.5 -46.5s-145.5 15.5 -184.5 46.5s-58.5 69.833 -58.5 116.5zM410 179v322
c0 50 -36 75 -108 75c-71.333 0 -107 -25 -107 -75v-322c0 -50 35.667 -75 107 -75c72 0 108 25 108 75zM187 849h231c16.667 0 25 -7.66699 25 -23v-51c0 -16.667 -8.33301 -25 -25 -25h-231c-16.667 0 -25 8.33301 -25 25v51c0 15.333 8.33301 23 25 23z" />
    <glyph glyph-name="omacron" horiz-adv-x="530" 
d="M150 671h230c16.667 0 25 -8 25 -24v-51c0 -16 -8.33301 -24 -25 -24h-230c-17.333 0 -26 8 -26 24v51c0 16 8.66699 24 26 24zM49 140v219c0 46 18.167 82 54.5 108s90.166 39 161.499 39s125.166 -13 161.499 -39s54.5 -62 54.5 -108v-219
c0 -46.667 -18.167 -83 -54.5 -109s-90.166 -39 -161.499 -39s-125.166 13 -161.499 39s-54.5 62.333 -54.5 109zM350 151v197c0 36 -28.333 54 -85 54s-85 -18 -85 -54v-197c0 -36.667 28.333 -55 85 -55s85 18.333 85 55z" />
    <glyph glyph-name="Obreve" horiz-adv-x="605" 
d="M59 155v370c0 46.667 19.5 85.5 58.5 116.5s100.5 46.5 184.5 46.5s145.5 -15.5 184.5 -46.5s58.5 -69.833 58.5 -116.5v-370c0 -46.667 -19.5 -85.5 -58.5 -116.5s-100.5 -46.5 -184.5 -46.5s-145.5 15.5 -184.5 46.5s-58.5 69.833 -58.5 116.5zM410 179v322
c0 50 -36 75 -108 75c-71.333 0 -107 -25 -107 -75v-322c0 -50 35.667 -75 107 -75c72 0 108 25 108 75zM257 860v-17c0 -29.333 15 -44 45 -44s45 14.667 45 44v17c0 13.333 7.33301 20 22 20h50c14.667 0 22 -6.66699 22 -20v-14c0 -39.333 -12.167 -69.833 -36.5 -91.5
s-59.5 -32.5 -105.5 -32.5c-90.667 0 -136 41.333 -136 124v14c0 13.333 7.33301 20 22 20h50c14.667 0 22 -6.66699 22 -20z" />
    <glyph glyph-name="obreve" horiz-adv-x="530" 
d="M49 140v219c0 46 18.167 82 54.5 108s90.166 39 161.499 39s125.166 -13 161.499 -39s54.5 -62 54.5 -108v-219c0 -46.667 -18.167 -83 -54.5 -109s-90.166 -39 -161.499 -39s-125.166 13 -161.499 39s-54.5 62.333 -54.5 109zM350 151v197c0 36 -28.333 54 -85 54
s-85 -18 -85 -54v-197c0 -36.667 28.333 -55 85 -55s85 18.333 85 55zM218 685v-17c0 -29.333 15.333 -44 46 -44c30 0 45 14.667 45 44v17c0 14 7.33301 21 22 21h49c14.667 0 22 -7 22 -21v-14c0 -39.333 -12.167 -69.833 -36.5 -91.5s-59.5 -32.5 -105.5 -32.5
c-90 0 -135 41.333 -135 124v14c0 14 7.33301 21 22 21h49c14.667 0 22 -7 22 -21z" />
    <glyph glyph-name="Ohungarumlaut" horiz-adv-x="605" 
d="M493 853l-69.001 -99c-10.667 -16 -23 -24 -37 -24h-61c-8.66699 0 -14.167 2.33301 -16.5 7s-1.16602 10.667 3.50098 18l57 98c9.33301 16.667 22 25 38 25h73c8.66699 0 14.167 -2.33301 16.5 -7s0.833008 -10.667 -4.5 -18zM332.999 853l-54.999 -98
c-8.66699 -16.667 -19.667 -25 -33 -25h-61c-8.66699 0 -14.5 2.33301 -17.5 7s-2.83301 10.667 0.5 18l42 98c7.33301 16.667 18.666 25 33.999 25h73c8.66699 0 14.667 -2.33301 18 -7s3 -10.667 -1 -18zM59 155v370c0 46.667 19.5 85.5 58.5 116.5s100.5 46.5 184.5 46.5
s145.5 -15.5 184.5 -46.5s58.5 -69.833 58.5 -116.5v-370c0 -46.667 -19.5 -85.5 -58.5 -116.5s-100.5 -46.5 -184.5 -46.5s-145.5 15.5 -184.5 46.5s-58.5 69.833 -58.5 116.5zM410 179v322c0 50 -36 75 -108 75c-71.333 0 -107 -25 -107 -75v-322
c0 -50 35.667 -75 107 -75c72 0 108 25 108 75z" />
    <glyph glyph-name="ohungarumlaut" horiz-adv-x="530" 
d="M468 683l-70.001 -99c-11.333 -16 -23.666 -24 -36.999 -24h-61c-8.66699 0 -14.167 2.33301 -16.5 7s-1.16602 10.667 3.50098 18l57 98c9.33301 16.667 22 25 38 25h73c8.66699 0 14.167 -2.5 16.5 -7.5s1.16602 -10.833 -3.50098 -17.5zM306.999 683l-54.999 -98
c-8.66699 -16.667 -19.667 -25 -33 -25h-61c-18 0 -23.667 8.33301 -17 25l42 98c7.33301 16.667 18.666 25 33.999 25h73c8.66699 0 14.667 -2.5 18 -7.5s3 -10.833 -1 -17.5zM49 140v219c0 46 18.167 82 54.5 108s90.166 39 161.499 39s125.166 -13 161.499 -39
s54.5 -62 54.5 -108v-219c0 -46.667 -18.167 -83 -54.5 -109s-90.166 -39 -161.499 -39s-125.166 13 -161.499 39s-54.5 62.333 -54.5 109zM350 151v197c0 36 -28.333 54 -85 54s-85 -18 -85 -54v-197c0 -36.667 28.333 -55 85 -55s85 18.333 85 55z" />
    <glyph glyph-name="OE" horiz-adv-x="852" 
d="M59 155l-0.000976562 370c0 46.667 19.5 85.5 58.5 116.5s100.5 46.5 184.5 46.5c38.667 0 75 -7.33301 109 -22c3.33301 9.33301 11.333 14 24 14h341c17.333 0 26 -8 26 -24v-63c0 -16 -8.66699 -24 -26 -24h-231v-163h215c16.667 0 25 -8 25 -24v-59
c0 -16 -8.33301 -24 -25 -24h-215v-188h242c16.667 0 25 -8 25 -24v-63c0 -16 -8.33301 -24 -25 -24h-353c-13.333 0 -21 4.66699 -23 14c-31.333 -14.667 -67.666 -22 -108.999 -22c-84 0 -145.5 15.5 -184.5 46.5s-58.5 69.833 -58.5 116.5zM409.999 174v328
c0 50 -36 75 -108 75s-108 -25 -108 -75v-324c0 -50 36 -75 108 -75c33.333 0 59.5 6 78.5 18s28.833 29.667 29.5 53z" />
    <glyph glyph-name="oe" horiz-adv-x="801" 
d="M49 139v220c0 46 18.167 82 54.5 108s90.166 39 161.499 39c64 0 111.333 -11.333 142 -34c34 22.667 83.667 34 149 34c134 0 201 -49 201 -147v-114c0 -15.333 -7.66699 -23 -23 -23h-256v-78c0 -36.667 26 -55 78 -55s78 18.333 78 55v7c0 16 8.33301 24 25 24h69
c16.667 0 25 -8 25 -24v-12c0 -98 -65.667 -147 -197 -147c-64.667 0 -114.334 11 -149.001 33c-31.333 -22 -78.666 -33 -141.999 -33c-71.333 0 -125.166 13 -161.499 39s-54.5 62 -54.5 108zM350 150v198c0 36.667 -28.333 55 -85 55s-85 -18.333 -85 -55v-198
c0 -36.667 28.333 -55 85 -55s85 18.333 85 55zM478 353v-44h156v44c0 37.333 -26 56 -78 56s-78 -18.667 -78 -56z" />
    <glyph glyph-name="Racute" horiz-adv-x="600" 
d="M205 259v-233c0 -17.333 -8 -26 -24 -26h-87c-16 0 -24 8.66699 -24 26v628c0 17.333 8 26 24 26h210c84 0 145.333 -15.333 184 -46s58 -69.667 58 -117v-95c0 -69.333 -36.667 -117.333 -110 -144l108 -252c3.33301 -8 2.66602 -14.333 -2.00098 -19s-11.667 -7 -21 -7
h-88c-3.33301 0 -6.16602 0.5 -8.49902 1.5s-4.5 3 -6.5 6s-3.5 5.5 -4.5 7.5l-5.5 11l-98 233h-105zM304 568h-99v-197h99c72 0 108 25 108 75v47c0 50 -36 75 -108 75zM395 853l-73.0029 -106c-8 -11.333 -18.667 -17 -32 -17h-65c-17.333 0 -21.666 8.33301 -12.999 25
l49 98c8 16.667 19.333 25 34 25h87c8.66699 0 14.334 -2.33301 17.001 -7s1.33398 -10.667 -3.99902 -18z" />
    <glyph glyph-name="racute" horiz-adv-x="371" 
d="M297 683l-72 -106c-8 -11.333 -18.667 -17 -32 -17h-65c-16 0 -20.333 8.33301 -13 25l48 98c8 16.667 19.667 25 35 25h87c8.66699 0 14.167 -2.33301 16.5 -7s0.833008 -10.667 -4.5 -18zM334 506c17.333 0 26 -7.99805 26 -23.998v-64
c0 -16.667 -8.66699 -25.334 -26 -26.001c-57.333 -4 -105.333 -23.667 -144 -59v-307c0 -17.333 -7.66699 -26 -23 -26h-83c-16.667 0 -25 8.66699 -25 26v448c0 16 8.33301 24 25 24h77c8.66699 0 14.667 -1.83301 18 -5.5s5.33301 -9.83398 6 -18.501l3 -35
c41.333 44.667 90 67 146 67z" />
    <glyph glyph-name="Rcommaaccent" horiz-adv-x="600" 
d="M205 259v-233c0 -17.333 -8 -26 -24 -26h-87c-16 0 -24 8.66699 -24 26v628c0 17.333 8 26 24 26h210c84 0 145.333 -15.333 184 -46s58 -69.667 58 -117v-95c0 -69.333 -36.667 -117.333 -110 -144l108 -252c3.33301 -8 2.66602 -14.333 -2.00098 -19s-11.667 -7 -21 -7
h-88c-3.33301 0 -6.16602 0.5 -8.49902 1.5s-4.5 3 -6.5 6s-3.5 5.5 -4.5 7.5l-5.5 11l-98 233h-105zM304 568h-99v-197h99c72 0 108 25 108 75v47c0 50 -36 75 -108 75zM245 -105l-0.000976562 29.999c0 16.667 8.33301 25 25 25h61c16 0 24 -8.33301 24 -25v-38
c0 -40.667 -15 -85 -45 -133c-7.33301 -12 -18.333 -16.333 -33 -13l-46 11c-16.667 4 -21 15 -13 33c0.666992 2 3.16699 7.66699 7.5 17s6.83301 14.833 7.5 16.5s2.33398 6.16699 5.00098 13.5s4.16699 13.333 4.5 18s0.833008 10.834 1.5 18.501s1 16.5 1 26.5z" />
    <glyph glyph-name="rcommaaccent" horiz-adv-x="371" 
d="M71 -105l-0.000976562 29.999c0 16.667 8.33301 25 25 25h61c16 0 24 -8.33301 24 -25v-38c0 -40.667 -15 -85 -45 -133c-7.33301 -12 -18.333 -16.333 -33 -13l-46 11c-16.667 4 -21 15 -13 33c0.666992 2 3.16699 7.66699 7.5 17s6.83301 14.833 7.5 16.5
s2.33398 6.16699 5.00098 13.5s4.16699 13.333 4.5 18s0.833008 10.834 1.5 18.501s1 16.5 1 26.5zM333.999 505.999c17.333 0 26 -7.99805 26 -23.998v-64c0 -16.667 -8.66699 -25.334 -26 -26.001c-57.333 -4 -105.333 -23.667 -144 -59v-307
c0 -17.333 -7.66699 -26 -23 -26h-83c-16.667 0 -25 8.66699 -25 26v448c0 16 8.33301 24 25 24h77c8.66699 0 14.667 -1.83301 18 -5.5s5.33301 -9.83398 6 -18.501l3 -35c41.333 44.667 90 67 146 67z" />
    <glyph glyph-name="Rcaron" horiz-adv-x="600" 
d="M205 259v-233c0 -17.333 -8 -26 -24 -26h-87c-16 0 -24 8.66699 -24 26v628c0 17.333 8 26 24 26h210c84 0 145.333 -15.333 184 -46s58 -69.667 58 -117v-95c0 -69.333 -36.667 -117.333 -110 -144l108 -252c3.33301 -8 2.66602 -14.333 -2.00098 -19s-11.667 -7 -21 -7
h-88c-3.33301 0 -6.16602 0.5 -8.49902 1.5s-4.5 3 -6.5 6s-3.5 5.5 -4.5 7.5l-5.5 11l-98 233h-105zM304 568h-99v-197h99c72 0 108 25 108 75v47c0 50 -36 75 -108 75zM265 854l25.002 -46l25 46c8.66699 16 20 24 34 24h64c8.66699 0 14.167 -2.33301 16.5 -7
s1.16602 -10.334 -3.50098 -17.001l-73 -99c-13.333 -16.667 -26.333 -25 -39 -25h-48c-12.667 0 -25.667 8.66699 -39 26l-73 98c-4.66699 6.66699 -5.83398 12.334 -3.50098 17.001s7.83301 7 16.5 7h64c14 0 25.333 -8 34 -24z" />
    <glyph glyph-name="rcaron" horiz-adv-x="371" 
d="M160 684l25.002 -46l25 46c8.66699 16 20 24 34 24h64c8.66699 0 14.167 -2.33301 16.5 -7s1.16602 -10.334 -3.50098 -17.001l-73 -99c-13.333 -16.667 -26.333 -25 -39 -25h-48c-12.667 0 -25.667 8.66699 -39 26l-73 98
c-4.66699 6.66699 -5.83398 12.334 -3.50098 17.001s7.83301 7 16.5 7h64c14 0 25.333 -8 34 -24zM334.002 506c17.333 0 26 -7.99805 26 -23.998v-64c0 -16.667 -8.66699 -25.334 -26 -26.001c-57.333 -4 -105.333 -23.667 -144 -59v-307c0 -17.333 -7.66699 -26 -23 -26
h-83c-16.667 0 -25 8.66699 -25 26v448c0 16 8.33301 24 25 24h77c8.66699 0 14.667 -1.83301 18 -5.5s5.33301 -9.83398 6 -18.501l3 -35c41.333 44.667 90 67 146 67z" />
    <glyph glyph-name="Sacute" horiz-adv-x="572" 
d="M389 484l0.000976562 23c0 48 -32.333 72 -97 72c-65.333 0 -98 -24 -98 -72v-15c0 -26 13.667 -44 41 -54l174 -62c78.667 -28 118 -76 118 -144v-77c0 -47.333 -18.833 -86.333 -56.5 -117s-98.167 -46 -181.5 -46c-82.667 0 -143.167 15.5 -181.5 46.5
s-57.5 69.833 -57.5 116.5v63c0 17.333 8 26 24 26h84c16 0 24 -8.66699 24 -26v-45c0 -48 35.333 -72 106 -72s106 24 106 72v32c0 12.667 -4.5 24 -13.5 34s-18.333 17.333 -28 22s-24.167 10.667 -43.5 18l-155 58c-25.333 9.33301 -46.833 26 -64.5 50
s-26.5 50.333 -26.5 79v59c0 47.333 17.667 86.333 53 117s93.333 46 174 46c81.333 0 140.166 -15.333 176.499 -46s54.5 -69.667 54.5 -117v-41c0 -16.667 -8.33301 -25 -25 -25h-84c-15.333 0 -23 8.33301 -23 25zM417.001 853l-73.0029 -106
c-8 -11.333 -18.667 -17 -32 -17h-65c-17.333 0 -21.666 8.33301 -12.999 25l49 98c8 16.667 19.333 25 34 25h87c8.66699 0 14.334 -2.33301 17.001 -7s1.33398 -10.667 -3.99902 -18z" />
    <glyph glyph-name="sacute" horiz-adv-x="472" 
d="M371 683l-72 -106c-8 -11.333 -18.667 -17 -32 -17h-65c-16 0 -20.333 8.33301 -13 25l48 98c8 16.667 19.667 25 35 25h87c8.66699 0 14.167 -2.33301 16.5 -7s0.833008 -10.667 -4.5 -18zM314 354v19.001c0 27.333 -24.333 41 -73 41c-48 0 -72 -13.667 -72 -41v-11
c0 -16 10.333 -27.667 31 -35l144 -51c64 -22.667 96 -57.334 96 -104.001v-51c0 -36 -16.833 -66.5 -50.5 -91.5s-84.167 -37.5 -151.5 -37.5s-117.5 12.5 -150.5 37.5s-49.5 55.5 -49.5 91.5v23c0 15.333 7.66699 23 23 23h74c15.333 0 23 -7.66699 23 -23v-17
c0 -28 26.667 -42 80 -42c54 0 81 14 81 42v17c0 8 -3.33301 14.833 -10 20.5s-18.334 11.5 -35.001 17.5l-145 53c-20.667 8 -39 21.833 -55 41.5s-24 41.167 -24 64.5v32c0 36.667 15.333 68 46 94s79.334 39 146.001 39c66 0 114.333 -13 145 -39s46 -57.333 46 -94v-19
c0 -8.66699 -1.66699 -14.667 -5 -18s-9.33301 -5 -18 -5h-74c-14.667 0 -22 7.66699 -22 23z" />
    <glyph glyph-name="Scircumflex" horiz-adv-x="572" 
d="M389 484l0.000976562 23c0 48 -32.333 72 -97 72c-65.333 0 -98 -24 -98 -72v-15c0 -26 13.667 -44 41 -54l174 -62c78.667 -28 118 -76 118 -144v-77c0 -47.333 -18.833 -86.333 -56.5 -117s-98.167 -46 -181.5 -46c-82.667 0 -143.167 15.5 -181.5 46.5
s-57.5 69.833 -57.5 116.5v63c0 17.333 8 26 24 26h84c16 0 24 -8.66699 24 -26v-45c0 -48 35.333 -72 106 -72s106 24 106 72v32c0 12.667 -4.5 24 -13.5 34s-18.333 17.333 -28 22s-24.167 10.667 -43.5 18l-155 58c-25.333 9.33301 -46.833 26 -64.5 50
s-26.5 50.333 -26.5 79v59c0 47.333 17.667 86.333 53 117s93.333 46 174 46c81.333 0 140.166 -15.333 176.499 -46s54.5 -69.667 54.5 -117v-41c0 -16.667 -8.33301 -25 -25 -25h-84c-15.333 0 -23 8.33301 -23 25zM285.001 800l-25.0029 -45
c-9.33301 -16.667 -20.666 -25 -33.999 -25h-64c-8.66699 0 -14.167 2.33301 -16.5 7s-1.16602 10.667 3.50098 18l73 98c12 16.667 25 25 39 25h48c12.667 0 25.667 -8.33301 39 -25l73 -98c4.66699 -7.33301 5.83398 -13.333 3.50098 -18s-7.83301 -7 -16.5 -7h-64
c-14 0 -25.333 8.33301 -34 25z" />
    <glyph glyph-name="scircumflex" horiz-adv-x="472" 
d="M236 630l-25.0029 -45c-9.33301 -16.667 -20.666 -25 -33.999 -25h-64c-8.66699 0 -14.167 2.33301 -16.5 7s-1.16602 10.667 3.50098 18l73 98c12 16.667 25 25 39 25h48c12.667 0 25.667 -8.33301 39 -25l73 -98c4.66699 -7.33301 5.83398 -13.333 3.50098 -18
s-7.83301 -7 -16.5 -7h-64c-14 0 -25.333 8.33301 -34 25zM313.997 354v19.001c0 27.333 -24.333 41 -73 41c-48 0 -72 -13.667 -72 -41v-11c0 -16 10.333 -27.667 31 -35l144 -51c64 -22.667 96 -57.334 96 -104.001v-51c0 -36 -16.833 -66.5 -50.5 -91.5
s-84.167 -37.5 -151.5 -37.5s-117.5 12.5 -150.5 37.5s-49.5 55.5 -49.5 91.5v23c0 15.333 7.66699 23 23 23h74c15.333 0 23 -7.66699 23 -23v-17c0 -28 26.667 -42 80 -42c54 0 81 14 81 42v17c0 8 -3.33301 14.833 -10 20.5s-18.334 11.5 -35.001 17.5l-145 53
c-20.667 8 -39 21.833 -55 41.5s-24 41.167 -24 64.5v32c0 36.667 15.333 68 46 94s79.334 39 146.001 39c66 0 114.333 -13 145 -39s46 -57.333 46 -94v-19c0 -8.66699 -1.66699 -14.667 -5 -18s-9.33301 -5 -18 -5h-74c-14.667 0 -22 7.66699 -22 23z" />
    <glyph glyph-name="Scedilla" horiz-adv-x="572" 
d="M317 -45l30 0.000976562c27.333 0 48.833 -6.83301 64.5 -20.5s23.5 -34.167 23.5 -61.5c0 -28 -7.83301 -49 -23.5 -63s-37.167 -21 -64.5 -21h-119c-16.667 0 -25 8.33301 -25 25v20c0 16 8.33301 24 25 24h98c12.667 0 19 5 19 15c0 10.667 -6.33301 16 -19 16h-75
c-27.333 0 -37.666 11 -30.999 33l20 73c-66 5.33301 -114.167 22.833 -144.5 52.5s-45.5 65.5 -45.5 107.5v63c0 17.333 8 26 24 26h84c16 0 24 -8.66699 24 -26v-45c0 -48 35.333 -72 106 -72s106 24 106 72v32c0 12.667 -4.5 24 -13.5 34s-18.333 17.333 -28 22
s-24.167 10.667 -43.5 18l-155 58c-25.333 9.33301 -46.833 26 -64.5 50s-26.5 50.333 -26.5 79v59c0 47.333 17.667 86.333 53 117s93.333 46 174 46c81.333 0 140.166 -15.333 176.499 -46s54.5 -69.667 54.5 -117v-41c0 -16.667 -8.33301 -25 -25 -25h-84
c-15.333 0 -23 8.33301 -23 25v23c0 48 -32.333 72 -97 72c-65.333 0 -98 -24 -98 -72v-15c0 -26 13.667 -44 41 -54l174 -62c78.667 -28 118 -76 118 -144v-77c0 -43.333 -16 -79.833 -48 -109.5s-82.667 -46.834 -152 -51.501z" />
    <glyph glyph-name="scedilla" horiz-adv-x="472" 
d="M249 -45l29.998 0.00195312c27.333 0 48.833 -6.83301 64.5 -20.5s23.5 -34.167 23.5 -61.5c0 -28 -7.83301 -49 -23.5 -63s-37.167 -21 -64.5 -21h-119c-16.667 0 -25 8.33301 -25 25v20c0 16 8.33301 24 25 24h98c12.667 0 19 5 19 15c0 10.667 -6.33301 16 -19 16h-75
c-27.333 0 -37.666 11 -30.999 33l21 75c-45.333 7.33301 -79.166 22.5 -101.499 45.5s-33.5 49.167 -33.5 78.5v23c0 15.333 7.66699 23 23 23h74c15.333 0 23 -7.66699 23 -23v-17c0 -28 26.667 -42 80 -42c54 0 81 14 81 42v17c0 8 -3.33301 14.833 -10 20.5
s-18.334 11.5 -35.001 17.5l-145 53c-20.667 8 -39 21.833 -55 41.5s-24 41.167 -24 64.5v32c0 36.667 15.333 68 46 94s79.334 39 146.001 39c66 0 114.333 -13 145 -39s46 -57.333 46 -94v-19c0 -8.66699 -1.66699 -14.667 -5 -18s-9.33301 -5 -18 -5h-74
c-14.667 0 -22 7.66699 -22 23v19c0 27.333 -24.333 41 -73 41c-48 0 -72 -13.667 -72 -41v-11c0 -16 10.333 -27.667 31 -35l144 -51c64 -22.667 96 -57.334 96 -104.001v-51c0 -33.333 -15 -62.333 -45 -87s-75.333 -38.334 -136 -41.001z" />
    <glyph glyph-name="Scaron" horiz-adv-x="572" 
d="M389 484l0.000976562 23c0 48 -32.333 72 -97 72c-65.333 0 -98 -24 -98 -72v-15c0 -26 13.667 -44 41 -54l174 -62c78.667 -28 118 -76 118 -144v-77c0 -47.333 -18.833 -86.333 -56.5 -117s-98.167 -46 -181.5 -46c-82.667 0 -143.167 15.5 -181.5 46.5
s-57.5 69.833 -57.5 116.5v63c0 17.333 8 26 24 26h84c16 0 24 -8.66699 24 -26v-45c0 -48 35.333 -72 106 -72s106 24 106 72v32c0 12.667 -4.5 24 -13.5 34s-18.333 17.333 -28 22s-24.167 10.667 -43.5 18l-155 58c-25.333 9.33301 -46.833 26 -64.5 50
s-26.5 50.333 -26.5 79v59c0 47.333 17.667 86.333 53 117s93.333 46 174 46c81.333 0 140.166 -15.333 176.499 -46s54.5 -69.667 54.5 -117v-41c0 -16.667 -8.33301 -25 -25 -25h-84c-15.333 0 -23 8.33301 -23 25zM262.001 854l25.002 -46l25 46c8.66699 16 20 24 34 24
h64c8.66699 0 14.167 -2.33301 16.5 -7s1.16602 -10.334 -3.50098 -17.001l-73 -99c-13.333 -16.667 -26.333 -25 -39 -25h-48c-12.667 0 -25.667 8.66699 -39 26l-73 98c-4.66699 6.66699 -5.83398 12.334 -3.50098 17.001s7.83301 7 16.5 7h64c14 0 25.333 -8 34 -24z" />
    <glyph glyph-name="scaron" horiz-adv-x="472" 
d="M215 684l25.002 -46l25 46c8.66699 16 20 24 34 24h64c8.66699 0 14.167 -2.33301 16.5 -7s1.16602 -10.334 -3.50098 -17.001l-73 -99c-13.333 -16.667 -26.333 -25 -39 -25h-48c-12.667 0 -25.667 8.66699 -39 26l-73 98
c-4.66699 6.66699 -5.83398 12.334 -3.50098 17.001s7.83301 7 16.5 7h64c14 0 25.333 -8 34 -24zM314.002 354v19.001c0 27.333 -24.333 41 -73 41c-48 0 -72 -13.667 -72 -41v-11c0 -16 10.333 -27.667 31 -35l144 -51c64 -22.667 96 -57.334 96 -104.001v-51
c0 -36 -16.833 -66.5 -50.5 -91.5s-84.167 -37.5 -151.5 -37.5s-117.5 12.5 -150.5 37.5s-49.5 55.5 -49.5 91.5v23c0 15.333 7.66699 23 23 23h74c15.333 0 23 -7.66699 23 -23v-17c0 -28 26.667 -42 80 -42c54 0 81 14 81 42v17c0 8 -3.33301 14.833 -10 20.5
s-18.334 11.5 -35.001 17.5l-145 53c-20.667 8 -39 21.833 -55 41.5s-24 41.167 -24 64.5v32c0 36.667 15.333 68 46 94s79.334 39 146.001 39c66 0 114.333 -13 145 -39s46 -57.333 46 -94v-19c0 -8.66699 -1.66699 -14.667 -5 -18s-9.33301 -5 -18 -5h-74
c-14.667 0 -22 7.66699 -22 23z" />
    <glyph glyph-name="Tcommaaccent" horiz-adv-x="492" 
d="M191 -105l-0.000976562 29.999c0 16.667 8.33301 25 25 25h61c16 0 24 -8.33301 24 -25v-38c0 -40.667 -15 -85 -45 -133c-7.33301 -12 -18.333 -16.333 -33 -13l-46 11c-16.667 4 -21 15 -13 33c0.666992 2 3.16699 7.66699 7.5 17s6.83301 14.833 7.5 16.5
s2.33398 6.16699 5.00098 13.5s4.16699 13.333 4.5 18s0.833008 10.834 1.5 18.501s1 16.5 1 26.5zM35.999 679.999h420c16.667 0 25 -8 25 -24v-63c0 -16.667 -8.33301 -25 -25 -25h-142v-542c0 -17.333 -8 -26 -24 -26h-87c-16.667 0 -25 8.66699 -25 26v542h-142
c-16.667 0 -25 8.33301 -25 25v63c0 16 8.33301 24 25 24z" />
    <glyph glyph-name="tcommaaccent" horiz-adv-x="363" 
d="M108 -106l-0.000976562 29.999c0 16.667 8.33301 25 25 25h61c16 0 24 -8.33301 24 -25v-38c0 -40.667 -15 -85 -45 -133c-7.33301 -12 -18.333 -16.333 -33 -13l-46 11c-16.667 4 -21 15 -13 33c0.666992 2 3.16699 7.66699 7.5 17s6.83301 14.833 7.5 16.5
s2.33398 6.16699 5.00098 13.5s4.16699 13.333 4.5 18s0.833008 10.834 1.5 18.501s1 16.5 1 26.5zM219.999 495.999l90.998 0.000976562c16.667 0 25 -7.66699 25 -23v-56c0 -16.667 -8.33301 -25 -25 -25h-91v-230c0 -36 26.667 -54 80 -54h22
c16.667 0 25 -8.33301 25 -25v-58c0 -16.667 -8.33301 -25 -25 -25h-42c-71.333 -0 -121.166 11.833 -149.499 35.5s-42.5 61.167 -42.5 112.5v244h-49c-16 0 -24 8.33301 -24 25v50c0 8 1.83301 13.667 5.5 17s9.83398 5.66602 18.501 6.99902l46 5h3v96
c0 16.667 8.33301 25 25 25h83c16 0 24 -8.33301 24 -25v-96z" />
    <glyph glyph-name="Tcaron" horiz-adv-x="492" 
d="M36 680h420c16.667 0 25 -8 25 -24v-63c0 -16.667 -8.33301 -25 -25 -25h-142v-542c0 -17.333 -8 -26 -24 -26h-87c-16.667 0 -25 8.66699 -25 26v542h-142c-16.667 0 -25 8.33301 -25 25v63c0 16 8.33301 24 25 24zM221 854l25.002 -46l25 46c8.66699 16 20 24 34 24h64
c8.66699 0 14.167 -2.33301 16.5 -7s1.16602 -10.334 -3.50098 -17.001l-73 -99c-13.333 -16.667 -26.333 -25 -39 -25h-48c-12.667 0 -25.667 8.66699 -39 26l-73 98c-4.66699 6.66699 -5.83398 12.334 -3.50098 17.001s7.83301 7 16.5 7h64c14 0 25.333 -8 34 -24z" />
    <glyph glyph-name="tcaron" horiz-adv-x="403" 
d="M287 684l-0.000976562 29.999c0 16.667 8.33301 25 25 25h61c16 0 24 -8.33301 24 -25v-38c0 -40.667 -15 -85 -45 -133c-7.33301 -12 -18.333 -16.333 -33 -13l-46 11c-16.667 4 -21 15 -13 33c0.666992 2 3.16699 7.66699 7.5 17s6.83301 14.833 7.5 16.5
s2.33398 6.16699 5.00098 13.5s4.16699 13.333 4.5 18s0.833008 10.834 1.5 18.501s1 16.5 1 26.5zM219.999 495.999l90.998 0.000976562c16.667 0 25 -7.66699 25 -23v-56c0 -16.667 -8.33301 -25 -25 -25h-91v-230c0 -36 26.667 -54 80 -54h22
c16.667 0 25 -8.33301 25 -25v-58c0 -16.667 -8.33301 -25 -25 -25h-42c-71.333 -0 -121.166 11.833 -149.499 35.5s-42.5 61.167 -42.5 112.5v244h-49c-16 0 -24 8.33301 -24 25v50c0 8 1.83301 13.667 5.5 17s9.83398 5.66602 18.501 6.99902l46 5h3v96
c0 16.667 8.33301 25 25 25h83c16 0 24 -8.33301 24 -25v-96z" />
    <glyph glyph-name="Tbar" horiz-adv-x="492" 
d="M36 680h420c16.667 0 25 -8 25 -24v-63c0 -16.667 -8.33301 -25 -25 -25h-142v-145h106c16.667 0 25 -7.66699 25 -23v-43c0 -16.667 -8.33301 -25 -25 -25h-106v-306c0 -17.333 -8 -26 -24 -26h-87c-16.667 0 -25 8.66699 -25 26v306h-103c-16.667 0 -25 8.33301 -25 25
v43c0 15.333 8.33301 23 25 23h103v145h-142c-16.667 0 -25 8.33301 -25 25v63c0 16 8.33301 24 25 24z" />
    <glyph glyph-name="tbar" horiz-adv-x="363" 
d="M220 496l90.998 0.000976562c16.667 0 25 -7.66699 25 -23v-56c0 -16.667 -8.33301 -25 -25 -25h-91v-67h91c16.667 0 25 -7.66699 25 -23v-43c0 -16.667 -8.33301 -25 -25 -25h-91v-72c0 -36 26.667 -54 80 -54h22c16.667 0 25 -8.33301 25 -25v-58
c0 -16.667 -8.33301 -25 -25 -25h-42c-71.333 0 -121.166 11.833 -149.499 35.5s-42.5 61.167 -42.5 112.5v86h-48c-16.667 0 -25 8.33301 -25 25v43c0 15.333 8.33301 23 25 23h48v67h-49c-16 0 -24 8.33301 -24 25v50c0 8 1.83301 13.667 5.5 17
s9.83398 5.66602 18.501 6.99902l46 5h3v96c0 16.667 8.33301 25 25 25h83c16 0 24 -8.33301 24 -25v-96z" />
    <glyph glyph-name="Utilde" horiz-adv-x="615" 
d="M200 654v-475.001c0 -50 35.667 -75 107 -75c34 0 60.667 6.33301 80 19s29 31.334 29 56.001v475c0 17.333 8 26 24 26h87c15.333 0 23 -8.66699 23 -26v-499c0 -46.667 -19.5 -85.5 -58.5 -116.5s-100.5 -46.5 -184.5 -46.5s-145.5 15.5 -184.5 46.5
s-58.5 69.833 -58.5 116.5v499c0 17.333 8.33301 26 25 26h87c16 0 24 -8.66699 24 -26zM247 785.999c-12.667 0 -18.999 -8.33398 -18.999 -25.001v-5c0 -14.667 -9 -22 -27 -22h-43c-16 0 -23 9.66699 -21 29l4 41c2.66699 24.667 12.167 43.834 28.5 57.501
s36.166 20.5 59.499 20.5c20 0 39.333 -4.33301 58 -13l43 -21c20 -10 32.333 -15 37 -15c6 0 10.333 1.66699 13 5s4.66699 9.66602 6 18.999l1 6c2.66699 14.667 11.667 22 27 22h43c15.333 0 22.333 -9.66699 21 -29l-3 -39c-2 -25.333 -10.833 -44.666 -26.5 -57.999
s-34.5 -20 -56.5 -20s-43.333 4.33301 -64 13l-43 19c-21.333 10 -34 15 -38 15z" />
    <glyph glyph-name="utilde" 
d="M354 25l-2.00195 22c-41.333 -36.667 -92.666 -55 -153.999 -55c-44.667 0 -79.834 12.333 -105.501 37s-38.5 57 -38.5 97v347c0 16.667 8 25 24 25h82c16.667 0 25 -8.33301 25 -25v-314c0 -18.667 4 -32.167 12 -40.5s22 -12.5 42 -12.5
c36.667 0 73.334 14.667 110.001 44v323c0 16.667 8 25 24 25h83c16 0 24 -8.33301 24 -25v-448c0 -16.667 -8 -25 -24 -25h-77c-8.66699 -0 -14.667 1.83301 -18 5.5s-5.66602 10.167 -6.99902 19.5zM209.998 607c-6 0 -10.332 -1.66895 -12.999 -5.00195
s-4.66699 -9.66602 -6 -18.999l-1 -6c-2.66699 -14.667 -11.334 -22 -26.001 -22h-44c-15.333 0 -22 9.66699 -20 29l4 42c2.66699 24.667 12 43.667 28 57s35.667 20 59 20c22 0 41.667 -4.33301 59 -13l42 -20c21.333 -10 34 -15 38 -15c12.667 0 19 8 19 24v5
c0 14.667 9 22 27 22h43c15.333 0 22.333 -9.66699 21 -29l-3 -39c-2 -25.333 -10.667 -44.666 -26 -57.999s-34 -20 -56 -20c-23.333 0 -44.666 4.33301 -63.999 13l-43 19c-22.667 10 -35.334 15 -38.001 15z" />
    <glyph glyph-name="Umacron" horiz-adv-x="615" 
d="M200 654v-475.001c0 -50 35.667 -75 107 -75c34 0 60.667 6.33301 80 19s29 31.334 29 56.001v475c0 17.333 8 26 24 26h87c15.333 0 23 -8.66699 23 -26v-499c0 -46.667 -19.5 -85.5 -58.5 -116.5s-100.5 -46.5 -184.5 -46.5s-145.5 15.5 -184.5 46.5
s-58.5 69.833 -58.5 116.5v499c0 17.333 8.33301 26 25 26h87c16 0 24 -8.66699 24 -26zM192 848.999h231c16.667 0 25 -7.66699 25 -23v-51c0 -16.667 -8.33301 -25 -25 -25h-231c-16.667 0 -25 8.33301 -25 25v51c0 15.333 8.33301 23 25 23z" />
    <glyph glyph-name="umacron" 
d="M354 25l-2.00195 22c-41.333 -36.667 -92.666 -55 -153.999 -55c-44.667 0 -79.834 12.333 -105.501 37s-38.5 57 -38.5 97v347c0 16.667 8 25 24 25h82c16.667 0 25 -8.33301 25 -25v-314c0 -18.667 4 -32.167 12 -40.5s22 -12.5 42 -12.5
c36.667 0 73.334 14.667 110.001 44v323c0 16.667 8 25 24 25h83c16 0 24 -8.33301 24 -25v-448c0 -16.667 -8 -25 -24 -25h-77c-8.66699 -0 -14.667 1.83301 -18 5.5s-5.66602 10.167 -6.99902 19.5zM154.998 671h230c16.667 0 25 -8 25 -24v-51
c0 -16 -8.33301 -24 -25 -24h-230c-17.333 0 -26 8 -26 24v51c0 16 8.66699 24 26 24z" />
    <glyph glyph-name="Ubreve" horiz-adv-x="615" 
d="M200 654v-475.001c0 -50 35.667 -75 107 -75c34 0 60.667 6.33301 80 19s29 31.334 29 56.001v475c0 17.333 8 26 24 26h87c15.333 0 23 -8.66699 23 -26v-499c0 -46.667 -19.5 -85.5 -58.5 -116.5s-100.5 -46.5 -184.5 -46.5s-145.5 15.5 -184.5 46.5
s-58.5 69.833 -58.5 116.5v499c0 17.333 8.33301 26 25 26h87c16 0 24 -8.66699 24 -26zM262 859.999v-17c0 -29.333 15 -44 45 -44s45 14.667 45 44v17c0 13.333 7.33301 20 22 20h50c14.667 0 22 -6.66699 22 -20v-14c0 -39.333 -12.167 -69.833 -36.5 -91.5
s-59.5 -32.5 -105.5 -32.5c-90.667 0 -136 41.333 -136 124v14c0 13.333 7.33301 20 22 20h50c14.667 0 22 -6.66699 22 -20z" />
    <glyph glyph-name="ubreve" 
d="M354 25l-2.00195 22c-41.333 -36.667 -92.666 -55 -153.999 -55c-44.667 0 -79.834 12.333 -105.501 37s-38.5 57 -38.5 97v347c0 16.667 8 25 24 25h82c16.667 0 25 -8.33301 25 -25v-314c0 -18.667 4 -32.167 12 -40.5s22 -12.5 42 -12.5
c36.667 0 73.334 14.667 110.001 44v323c0 16.667 8 25 24 25h83c16 0 24 -8.33301 24 -25v-448c0 -16.667 -8 -25 -24 -25h-77c-8.66699 -0 -14.667 1.83301 -18 5.5s-5.66602 10.167 -6.99902 19.5zM215.998 685v-17c0 -29.333 15.333 -44 46 -44c30 0 45 14.667 45 44v17
c0 14 7.33301 21 22 21h49c14.667 0 22 -7 22 -21v-14c0 -39.333 -12.167 -69.833 -36.5 -91.5s-59.5 -32.5 -105.5 -32.5c-90 0 -135 41.333 -135 124v14c0 14 7.33301 21 22 21h49c14.667 0 22 -7 22 -21z" />
    <glyph glyph-name="Uring" horiz-adv-x="615" 
d="M419 821v-29c0 -22 -9.5 -40.5 -28.5 -55.5s-46.833 -22.5 -83.5 -22.5s-64.5 7.5 -83.5 22.5s-28.5 33.5 -28.5 55.5v29c0 22 9.5 40.5 28.5 55.5s46.833 22.5 83.5 22.5s64.5 -7.5 83.5 -22.5s28.5 -33.5 28.5 -55.5zM347 801v12c0 20 -13.333 30 -40 30
s-40 -10 -40 -30v-12c0 -20.667 13.333 -31 40 -31s40 10.333 40 31zM200 654v-475.001c0 -50 35.667 -75 107 -75c34 0 60.667 6.33301 80 19s29 31.334 29 56.001v475c0 17.333 8 26 24 26h87c15.333 0 23 -8.66699 23 -26v-499c0 -46.667 -19.5 -85.5 -58.5 -116.5
s-100.5 -46.5 -184.5 -46.5s-145.5 15.5 -184.5 46.5s-58.5 69.833 -58.5 116.5v499c0 17.333 8.33301 26 25 26h87c16 0 24 -8.66699 24 -26z" />
    <glyph glyph-name="uring" 
d="M379 654v-34c0 -22 -9.33301 -40.167 -28 -54.5s-46 -21.5 -82 -21.5c-36.667 0 -64.334 7.16699 -83.001 21.5s-28 32.5 -28 54.5v34c0 22 9.33301 40.167 28 54.5s46.334 21.5 83.001 21.5c36 0 63.333 -7.16699 82 -21.5s28 -32.5 28 -54.5zM309 629v15
c0 20 -13.333 30 -40 30c-27.333 0 -41 -10 -41 -30v-15c0 -20 13.667 -30 41 -30c26.667 0 40 10 40 30zM354 25l-2.00195 22c-41.333 -36.667 -92.666 -55 -153.999 -55c-44.667 0 -79.834 12.333 -105.501 37s-38.5 57 -38.5 97v347c0 16.667 8 25 24 25h82
c16.667 0 25 -8.33301 25 -25v-314c0 -18.667 4 -32.167 12 -40.5s22 -12.5 42 -12.5c36.667 0 73.334 14.667 110.001 44v323c0 16.667 8 25 24 25h83c16 0 24 -8.33301 24 -25v-448c0 -16.667 -8 -25 -24 -25h-77c-8.66699 -0 -14.667 1.83301 -18 5.5
s-5.66602 10.167 -6.99902 19.5z" />
    <glyph glyph-name="Uhungarumlaut" horiz-adv-x="615" 
d="M510 853l-69.001 -99c-10.667 -16 -23 -24 -37 -24h-61c-8.66699 0 -14.167 2.33301 -16.5 7s-1.16602 10.667 3.50098 18l57 98c9.33301 16.667 22 25 38 25h73c8.66699 0 14.167 -2.33301 16.5 -7s0.833008 -10.667 -4.5 -18zM349.999 853l-54.999 -98
c-8.66699 -16.667 -19.667 -25 -33 -25h-61c-8.66699 0 -14.5 2.33301 -17.5 7s-2.83301 10.667 0.5 18l42 98c7.33301 16.667 18.666 25 33.999 25h73c8.66699 0 14.667 -2.33301 18 -7s3 -10.667 -1 -18zM200 654v-475.001c0 -50 35.667 -75 107 -75
c34 0 60.667 6.33301 80 19s29 31.334 29 56.001v475c0 17.333 8 26 24 26h87c15.333 0 23 -8.66699 23 -26v-499c0 -46.667 -19.5 -85.5 -58.5 -116.5s-100.5 -46.5 -184.5 -46.5s-145.5 15.5 -184.5 46.5s-58.5 69.833 -58.5 116.5v499c0 17.333 8.33301 26 25 26h87
c16 0 24 -8.66699 24 -26z" />
    <glyph glyph-name="uhungarumlaut" 
d="M354 25l-2.00195 22c-41.333 -36.667 -92.666 -55 -153.999 -55c-44.667 0 -79.834 12.333 -105.501 37s-38.5 57 -38.5 97v347c0 16.667 8 25 24 25h82c16.667 0 25 -8.33301 25 -25v-314c0 -18.667 4 -32.167 12 -40.5s22 -12.5 42 -12.5
c36.667 0 73.334 14.667 110.001 44v323c0 16.667 8 25 24 25h83c16 0 24 -8.33301 24 -25v-448c0 -16.667 -8 -25 -24 -25h-77c-8.66699 -0 -14.667 1.83301 -18 5.5s-5.66602 10.167 -6.99902 19.5zM469.998 683l-70.001 -99c-11.333 -16 -23.666 -24 -36.999 -24h-61
c-8.66699 0 -14.167 2.33301 -16.5 7s-1.16602 10.667 3.50098 18l57 98c9.33301 16.667 22 25 38 25h73c8.66699 0 14.167 -2.5 16.5 -7.5s1.16602 -10.833 -3.50098 -17.5zM308.997 683l-54.999 -98c-8.66699 -16.667 -19.667 -25 -33 -25h-61
c-18 0 -23.667 8.33301 -17 25l42 98c7.33301 16.667 18.666 25 33.999 25h73c8.66699 0 14.667 -2.5 18 -7.5s3 -10.833 -1 -17.5z" />
    <glyph glyph-name="Uogonek" horiz-adv-x="615" 
d="M200 654l-0.000976562 -475.001c0 -50 35.667 -75 107 -75c34 0 60.667 6.33301 80 19s29 31.334 29 56.001v475c0 17.333 8 26 24 26h87c15.333 0 23 -8.66699 23 -26v-499c0 -40.667 -13 -73.667 -39 -99l-16.5 -16c-9 -8.66699 -14.833 -14.5 -17.5 -17.5
s-7 -8.33301 -13 -16s-10.167 -14.167 -12.5 -19.5s-4.66602 -11.833 -6.99902 -19.5s-3.5 -15.834 -3.5 -24.501c0 -20.667 12.667 -31 38 -31h25c17.333 0 26 -8 26 -24v-34c0 -16.667 -11.333 -25 -34 -25h-58c-24 0 -46 6.66699 -66 20s-30 35.333 -30 66
c0 28.667 7.66699 55.334 23 80.001c-18 -2 -37.333 -3 -58 -3c-84 0 -145.5 15.5 -184.5 46.5s-58.5 69.833 -58.5 116.5v499c0 17.333 8.33301 26 25 26h87c16 0 24 -8.66699 24 -26z" />
    <glyph glyph-name="uogonek" horiz-adv-x="539" 
d="M449 -171h-46.001c-24 0 -46.167 6.83301 -66.5 20.5s-30.5 35.834 -30.5 66.501c0 39.333 16 74.666 48 105.999l-2 25c-41.333 -36.667 -92.666 -55 -153.999 -55c-44.667 0 -79.834 12.333 -105.501 37s-38.5 57 -38.5 97v347c0 16.667 8 25 24 25h82
c16.667 0 25 -8.33301 25 -25v-314c0 -18.667 4 -32.167 12 -40.5s22 -12.5 42 -12.5c36.667 0 73.334 14.667 110.001 44v323c0 16.667 8 25 24 25h83c16 0 24 -8.33301 24 -25v-448c0 -16.667 -8 -25 -24 -25h-7c-14 -0.666992 -24.833 -6.66699 -32.5 -18
s-11.5 -24.333 -11.5 -39c0 -20.667 12.667 -31 38 -31h14c16.667 0 25 -8 25 -24v-34c0 -16.667 -11 -25 -33 -25z" />
    <glyph glyph-name="Wcircumflex" horiz-adv-x="838" 
d="M496 655l84.001 -340.002c6 -26.667 11.333 -59.667 16 -99c6 40.667 12 73.334 18 98.001l86 341c4 16.667 13.667 25 29 25h76c16.667 0 23 -8.33301 19 -25l-159 -630c-4 -16.667 -14.333 -25 -31 -25h-85c-14.667 0 -24 8.33301 -28 25l-88 348
c-7.33301 24.667 -12 54.334 -14 89.001c-6.66699 -46.667 -11.334 -76.334 -14.001 -89.001l-88 -348c-4 -16.667 -14.333 -25 -31 -25h-85c-14.667 0 -24 8.33301 -28 25l-159 630c-4 16.667 2.33301 25 19 25h89c15.333 0 25 -8.33301 29 -25l84 -341
c8 -34 13.333 -61.667 16 -83c0 8.66699 6 36.334 18 83.001l86 341c4 16.667 14 25 30 25h81c16 0 26 -8.33301 30 -25zM421.001 799.998l-25.0029 -45c-9.33301 -16.667 -20.666 -25 -33.999 -25h-64c-8.66699 0 -14.167 2.33301 -16.5 7s-1.16602 10.667 3.50098 18
l73 98c12 16.667 25 25 39 25h48c12.667 0 25.667 -8.33301 39 -25l73 -98c4.66699 -7.33301 5.83398 -13.333 3.50098 -18s-7.83301 -7 -16.5 -7h-64c-14 0 -25.333 8.33301 -34 25z" />
    <glyph glyph-name="wcircumflex" horiz-adv-x="716" 
d="M359 630l-25.0029 -45c-9.33301 -16.667 -20.666 -25 -33.999 -25h-64c-8.66699 0 -14.167 2.33301 -16.5 7s-1.16602 10.667 3.50098 18l73 98c12 16.667 25 25 39 25h48c12.667 0 25.667 -8.33301 39 -25l73 -98c4.66699 -7.33301 5.83398 -13.333 3.50098 -18
s-7.83301 -7 -16.5 -7h-64c-14 0 -25.333 8.33301 -34 25zM704.997 473l-127.998 -449.999c-2.66699 -9.33301 -5.5 -15.5 -8.5 -18.5s-8.5 -4.5 -16.5 -4.5h-99c-8.66699 0 -14.667 1.66699 -18 5s-6 9.33301 -8 18l-56 237c-6 24 -9 41.667 -9 53l-2 -9l-5 -20l-6 -24
l-69 -237c-2 -8.66699 -4.66699 -14.667 -8 -18s-9 -5 -17 -5h-97c-8.66699 0 -14.667 1.66699 -18 5s-6 9.33301 -8 18l-121 450c-4.66699 16.667 3.33301 25 24 25h79c14 0 23.333 -8.33301 28 -25l69 -262c1.33301 -6 2.66602 -12.833 3.99902 -20.5s2.33301 -14 3 -19
s1 -7.83301 1 -8.5c0 4.66699 4 20.667 12 48l73 262c4.66699 16.667 13.667 25 27 25h80c15.333 0 24.666 -8.33301 27.999 -25l61 -262l4 -21c1.33301 -7.33301 2.5 -13.333 3.5 -18s1.5 -7.33398 1.5 -8.00098c0 3.33301 3.66699 19 11 47l68 262
c4.66699 16.667 14 25 28 25h66c20 0 27.667 -8.33301 23 -25z" />
    <glyph glyph-name="Ycircumflex" horiz-adv-x="545" 
d="M161 655l94.999 -228.001c7.33301 -20 13 -37.667 17 -53c6 22.667 12 40.334 18 53.001l106 228c7.33301 16.667 17 25 29 25h86c8.66699 0 14.834 -2.16699 18.501 -6.5s3.5 -10.5 -0.5 -18.5l-189 -395v-235c0 -16.667 -8 -25 -24 -25h-87
c-16.667 -0 -25 8.33301 -25 25v219l-190 411c-3.33301 7.33301 -3.5 13.333 -0.5 18s8.83301 7 17.5 7h99c13.333 0 23.333 -8.33301 30 -25zM271.999 799.999l-25.0029 -45c-9.33301 -16.667 -20.666 -25 -33.999 -25h-64c-8.66699 0 -14.167 2.33301 -16.5 7
s-1.16602 10.667 3.50098 18l73 98c12 16.667 25 25 39 25h48c12.667 0 25.667 -8.33301 39 -25l73 -98c4.66699 -7.33301 5.83398 -13.333 3.50098 -18s-7.83301 -7 -16.5 -7h-64c-14 0 -25.333 8.33301 -34 25z" />
    <glyph glyph-name="ycircumflex" horiz-adv-x="474" 
d="M145 473l74.9971 -229.001c0.666992 -1.33301 6.33398 -29.333 17.001 -84c12 46.667 19 73.334 21 80.001l79 233c2.66699 8.66699 5.83398 15 9.50098 19s9.5 6 17.5 6h76c9.33301 0 16.333 -2.16699 21 -6.5s5.66699 -10.5 3 -18.5l-221 -649
c-5.33301 -16.667 -14.666 -25 -27.999 -25h-60c-20.667 0 -28.667 8.33301 -24 25l49 163l-169 486c-2.66699 8 -1.66699 14.167 3 18.5s11.334 6.5 20.001 6.5h83c13.333 0 22.666 -8.33301 27.999 -25zM236.997 629.999l-25.0029 -45
c-9.33301 -16.667 -20.666 -25 -33.999 -25h-64c-8.66699 0 -14.167 2.33301 -16.5 7s-1.16602 10.667 3.50098 18l73 98c12 16.667 25 25 39 25h48c12.667 0 25.667 -8.33301 39 -25l73 -98c4.66699 -7.33301 5.83398 -13.333 3.50098 -18s-7.83301 -7 -16.5 -7h-64
c-14 0 -25.333 8.33301 -34 25z" />
    <glyph glyph-name="Ydieresis" horiz-adv-x="545" 
d="M161 655l94.999 -228l17 -52c2.66699 18 8.66699 35.333 18 52l106 228c7.33301 16.667 17 25 29 25h86c8.66699 0 14.834 -2.16699 18.501 -6.5s3.5 -10.5 -0.5 -18.5l-189 -395v-235c0 -16.667 -8 -25 -24 -25h-87c-16.667 -0 -25 8.33301 -25 25v219l-190 411
c-3.33301 7.33301 -3.5 13.333 -0.5 18s8.83301 7 17.5 7h99c13.333 0 23.333 -8.33301 30 -25zM250.999 850v-93c0 -16.667 -8 -25 -24 -25h-49c-16 0 -24 8.33301 -24 25v93c0 17.333 8 26 24 26h49c16 0 24 -8.66699 24 -26zM389.999 850v-93
c0 -16.667 -7.66699 -25 -23 -25h-49c-16 0 -24 8.33301 -24 25v93c0 17.333 8 26 24 26h49c15.333 0 23 -8.66699 23 -26z" />
    <glyph glyph-name="Zacute" horiz-adv-x="497" 
d="M75 680l356 0.000976562c17.333 0 26 -8 26 -24v-62c0 -6.66699 -2 -13.334 -6 -20.001l-256 -462h254c16.667 0 25 -8 25 -24v-63c0 -16.667 -8.33301 -25 -25 -25h-391c-16.667 -0 -25 8.33301 -25 25v63c0 6 1.33301 11.667 4 17l257 463h-219
c-16.667 0 -25 8.33301 -25 25v63c0 16 8.33301 24 25 24zM389 853.001l-73.0029 -106c-8 -11.333 -18.667 -17 -32 -17h-65c-17.333 0 -21.666 8.33301 -12.999 25l49 98c8 16.667 19.333 25 34 25h87c8.66699 0 14.334 -2.33301 17.001 -7s1.33398 -10.667 -3.99902 -18z
" />
    <glyph glyph-name="zacute" horiz-adv-x="446" 
d="M351 683l-72 -106c-8 -11.333 -18.667 -17 -32 -17h-65c-16 0 -20.333 8.33301 -13 25l48 98c8 16.667 19.667 25 35 25h87c8.66699 0 14.167 -2.33301 16.5 -7s0.833008 -10.667 -4.5 -18zM74 498h303c16.667 0 25 -8 25 -24v-58
c0 -7.33301 -2.66699 -14.666 -8 -21.999l-202 -287h203c16.667 0 25 -8 25 -24v-59c0 -16 -8.33301 -24 -25 -24h-338c-16.667 0 -25 8 -25 24v59c0 7.33301 2.66699 14.666 8 21.999l200 286h-166c-17.333 0 -26 8 -26 24v59c0 16 8.66699 24 26 24z" />
    <glyph glyph-name="Zdotaccent" horiz-adv-x="497" 
d="M315 839v-82c0 -8.66699 -1.83301 -14.834 -5.5 -18.501s-9.83398 -5.5 -18.501 -5.5h-85c-9.33301 0 -15.666 1.83301 -18.999 5.5s-5 9.83398 -5 18.501v82c0 16.667 8 25 24 25h85c16 0 24 -8.33301 24 -25zM75 680l356 0.000976562c17.333 0 26 -8 26 -24v-62
c0 -6.66699 -2 -13.334 -6 -20.001l-256 -462h254c16.667 0 25 -8 25 -24v-63c0 -16.667 -8.33301 -25 -25 -25h-391c-16.667 -0 -25 8.33301 -25 25v63c0 6 1.33301 11.667 4 17l257 463h-219c-16.667 0 -25 8.33301 -25 25v63c0 16 8.33301 24 25 24z" />
    <glyph glyph-name="zdotaccent" horiz-adv-x="446" 
d="M74 498h303c16.667 0 25 -8 25 -24v-58c0 -7.33301 -2.66699 -14.666 -8 -21.999l-202 -287h203c16.667 0 25 -8 25 -24v-59c0 -16 -8.33301 -24 -25 -24h-338c-16.667 0 -25 8 -25 24v59c0 7.33301 2.66699 14.666 8 21.999l200 286h-166c-17.333 0 -26 8 -26 24v59
c0 16 8.66699 24 26 24zM291 677v-81c0 -16.667 -7.66699 -25 -23 -25h-86c-16 0 -24 8.33301 -24 25v81c0 16.667 8 25 24 25h86c15.333 0 23 -8.33301 23 -25z" />
    <glyph glyph-name="Zcaron" horiz-adv-x="497" 
d="M227 858l25.002 -46l25 46c8.66699 16 20 24 34 24h64c8.66699 0 14.167 -2.33301 16.5 -7s1.16602 -10.334 -3.50098 -17.001l-73 -99c-13.333 -16.667 -26.333 -25 -39 -25h-48c-12.667 0 -25.667 8.66699 -39 26l-73 98
c-4.66699 6.66699 -5.83398 12.334 -3.50098 17.001s7.83301 7 16.5 7h64c14 0 25.333 -8 34 -24zM75.002 680l356 0.000976562c17.333 0 26 -8 26 -24v-62c0 -6.66699 -2 -13.334 -6 -20.001l-256 -462h254c16.667 0 25 -8 25 -24v-63c0 -16.667 -8.33301 -25 -25 -25h-391
c-16.667 -0 -25 8.33301 -25 25v63c0 6 1.33301 11.667 4 17l257 463h-219c-16.667 0 -25 8.33301 -25 25v63c0 16 8.33301 24 25 24z" />
    <glyph glyph-name="zcaron" horiz-adv-x="446" 
d="M203 684l25.002 -46l25 46c8.66699 16 20 24 34 24h64c8.66699 0 14.167 -2.33301 16.5 -7s1.16602 -10.334 -3.50098 -17.001l-73 -99c-13.333 -16.667 -26.333 -25 -39 -25h-48c-12.667 0 -25.667 8.66699 -39 26l-73 98
c-4.66699 6.66699 -5.83398 12.334 -3.50098 17.001s7.83301 7 16.5 7h64c14 0 25.333 -8 34 -24zM74.002 498h303c16.667 0 25 -8 25 -24v-58c0 -7.33301 -2.66699 -14.666 -8 -21.999l-202 -287h203c16.667 0 25 -8 25 -24v-59c0 -16 -8.33301 -24 -25 -24h-338
c-16.667 0 -25 8 -25 24v59c0 7.33301 2.66699 14.666 8 21.999l200 286h-166c-17.333 0 -26 8 -26 24v59c0 16 8.66699 24 26 24z" />
    <glyph glyph-name="longs" horiz-adv-x="349" 
d="M94 496l4 0.000976562v60c0 46 17.833 82 53.5 108s89.167 39 160.5 39h9c16.667 0 25 -8.33301 25 -25v-57c0 -16.667 -8.33301 -25 -25 -25h-9c-55.333 0 -83 -18.333 -83 -55v-516c0 -16.667 -8 -25 -24 -25h-83c-16 0 -24 8.33301 -24 25v368h-54
c-16.667 0 -25 8.33301 -25 25v49c0 8 1.83301 13.667 5.5 17s10.167 5.66602 19.5 6.99902z" />
    <glyph glyph-name="florin" horiz-adv-x="576" 
d="M494 600h-20.002c-55.333 0 -85 -18 -89 -54l-13 -112h72c16.667 0 25 -8 25 -24v-56c0 -16 -8.33301 -24 -25 -24h-82l-43 -394c-5.33301 -46 -27.166 -82 -65.499 -108s-92.833 -39 -163.5 -39h-9c-16.667 0 -25 8 -25 24v58c0 16.667 8.33301 25 25 25h20
c54.667 0 84 18.333 88 55l41 379h-61c-16 0 -24 8 -24 24v55c0 16.667 8 25 24 25h72l13 126c4.66699 46.667 26.334 83 65.001 109s93.667 39 165 39h10c16.667 0 25 -8.33301 25 -25v-58c0 -16.667 -8.33301 -25 -25 -25z" />
    </font>
</defs>
</svg>
